<?xml version="1.0" encoding="UTF-8" standalone="no"?>
<!-- Created with Inkscape (http://www.inkscape.org/) -->

<svg
   xmlns:svg="http://www.w3.org/2000/svg"
   xmlns="http://www.w3.org/2000/svg"
   xmlns:xlink="http://www.w3.org/1999/xlink"
   version="1.1"
   width="128"
   height="128"
   id="svg2816">
  <defs
     id="defs2818">
    <linearGradient
       id="linearGradient3652">
      <stop
         id="stop3654"
         style="stop-color:#000000;stop-opacity:0.21531101"
         offset="0" />
      <stop
         id="stop3656"
         style="stop-color:#ffffff;stop-opacity:1"
         offset="1" />
    </linearGradient>
    <linearGradient
       id="linearGradient3636">
      <stop
         id="stop3638"
         style="stop-color:#af3439;stop-opacity:1"
         offset="0" />
      <stop
         id="stop3644"
         style="stop-color:#912b2f;stop-opacity:1"
         offset="0.5" />
      <stop
         id="stop3640"
         style="stop-color:#6d2023;stop-opacity:1"
         offset="1" />
    </linearGradient>
    <linearGradient
       id="linearGradient3758">
      <stop
         id="stop3760"
         style="stop-color:#333333;stop-opacity:1"
         offset="0" />
      <stop
         id="stop3762"
         style="stop-color:#333333;stop-opacity:0"
         offset="1" />
    </linearGradient>
    <linearGradient
       id="linearGradient3736">
      <stop
         id="stop3738"
         style="stop-color:#ffffff;stop-opacity:0"
         offset="0" />
      <stop
         id="stop3740"
         style="stop-color:#333333;stop-opacity:0.72791517"
         offset="1" />
    </linearGradient>
    <linearGradient
       id="linearGradient3708">
      <stop
         id="stop3712"
         style="stop-color:#ffffff;stop-opacity:0"
         offset="0" />
      <stop
         id="stop3714"
         style="stop-color:#333333;stop-opacity:1"
         offset="1" />
    </linearGradient>
    <linearGradient
       id="linearGradient3694">
      <stop
         id="stop3696"
         style="stop-color:#ffffff;stop-opacity:1"
         offset="0" />
      <stop
         id="stop3700"
         style="stop-color:#ffffff;stop-opacity:0.67464113"
         offset="0.5" />
      <stop
         id="stop3698"
         style="stop-color:#ffffff;stop-opacity:0"
         offset="1" />
    </linearGradient>
    <linearGradient
       id="linearGradient3649">
      <stop
         id="stop3651"
         style="stop-color:#c9c9c9;stop-opacity:1"
         offset="0" />
      <stop
         id="stop3653"
         style="stop-color:#f0f0f0;stop-opacity:1"
         offset="1" />
    </linearGradient>
    <linearGradient
       id="linearGradient3631">
      <stop
         id="stop3633"
         style="stop-color:#dddddd;stop-opacity:0.62190813"
         offset="0" />
      <stop
         id="stop3635"
         style="stop-color:#ffffff;stop-opacity:1"
         offset="1" />
    </linearGradient>
    <linearGradient
       x1="102"
       y1="14"
       x2="92"
       y2="24"
       id="linearGradient3637"
       xlink:href="#linearGradient3649"
       gradientUnits="userSpaceOnUse"
       gradientTransform="matrix(1.4444444,0,0,1.4444444,-48.888889,294.33333)" />
    <filter
       color-interpolation-filters="sRGB"
       id="filter3676">
      <feGaussianBlur
         id="feGaussianBlur3678"
         stdDeviation="0.36000001" />
    </filter>
    <filter
       color-interpolation-filters="sRGB"
       id="filter3610">
      <feGaussianBlur
         id="feGaussianBlur3612"
         stdDeviation="1.56" />
    </filter>
    <linearGradient
       x1="56.65461"
       y1="5.5"
       x2="56.65461"
       y2="122.50977"
       id="linearGradient3692"
       xlink:href="#linearGradient3694"
       gradientUnits="userSpaceOnUse"
       gradientTransform="matrix(0.98252641,0,0,0.9921278,0.77111153,297.96672)" />
    <filter
       color-interpolation-filters="sRGB"
       id="filter3702">
      <feGaussianBlur
         id="feGaussianBlur3704"
         stdDeviation="0.51369811" />
    </filter>
    <linearGradient
       x1="64"
       y1="122.5"
       x2="64"
       y2="93.860451"
       id="linearGradient3748"
       xlink:href="#linearGradient3758"
       gradientUnits="userSpaceOnUse" />
    <linearGradient
       x1="56.65461"
       y1="5.5"
       x2="56.65461"
       y2="122.50977"
       id="linearGradient3776"
       xlink:href="#linearGradient3694"
       gradientUnits="userSpaceOnUse"
       gradientTransform="matrix(0.98252641,0,0,0.9921278,0.77111153,297.96672)" />
    <filter
       color-interpolation-filters="sRGB"
       id="filter3778">
      <feGaussianBlur
         id="feGaussianBlur3780"
         stdDeviation="0.51837461" />
    </filter>
    <filter
       color-interpolation-filters="sRGB"
       id="filter3782">
      <feGaussianBlur
         id="feGaussianBlur3784"
         stdDeviation="1.0410113" />
    </filter>
    <linearGradient
       x1="64"
       y1="122"
       x2="64"
       y2="76.36528"
       id="linearGradient3794"
       xlink:href="#linearGradient3631"
       gradientUnits="userSpaceOnUse" />
    <linearGradient
       x1="56.65461"
       y1="5.5"
       x2="56.65461"
       y2="122.50977"
       id="linearGradient3805"
       xlink:href="#linearGradient3694"
       gradientUnits="userSpaceOnUse"
       gradientTransform="matrix(0.98252641,0,0,0.9921278,0.77111153,297.96672)" />
    <linearGradient
       x1="56.65461"
       y1="5.5"
       x2="56.65461"
       y2="122.50977"
       id="linearGradient3807"
       xlink:href="#linearGradient3694"
       gradientUnits="userSpaceOnUse"
       gradientTransform="matrix(0.98252641,0,0,0.9921278,0.77111153,297.96672)" />
    <linearGradient
       x1="102"
       y1="14"
       x2="92"
       y2="24"
       id="linearGradient3809"
       xlink:href="#linearGradient3649"
       gradientUnits="userSpaceOnUse"
       gradientTransform="matrix(1.4444444,0,0,1.4444444,-48.888889,294.33333)" />
    <linearGradient
       x1="64"
       y1="122.5"
       x2="64"
       y2="93.860451"
       id="linearGradient3811"
       xlink:href="#linearGradient3758"
       gradientUnits="userSpaceOnUse" />
    <linearGradient
       x1="62"
       y1="413"
       x2="62"
       y2="419"
       id="linearGradient2876"
       xlink:href="#linearGradient3636"
       gradientUnits="userSpaceOnUse" />
    <linearGradient
       x1="102"
       y1="14"
       x2="92"
       y2="24"
       id="linearGradient2880"
       xlink:href="#linearGradient3649"
       gradientUnits="userSpaceOnUse"
       gradientTransform="matrix(1.4444444,0,0,1.4444444,-48.888889,294.33333)" />
    <filter
       color-interpolation-filters="sRGB"
       id="filter3728">
      <feGaussianBlur
         id="feGaussianBlur3730"
         stdDeviation="0.57810125" />
    </filter>
    <linearGradient
       x1="40"
       y1="24"
       x2="40"
       y2="64"
       id="linearGradient3150"
       xlink:href="#linearGradient3960"
       gradientUnits="userSpaceOnUse"
       gradientTransform="translate(70,0)" />
    <linearGradient
       x1="483.10059"
       y1="724.99017"
       x2="483.10059"
       y2="836.99017"
       id="linearGradient3960"
       gradientUnits="userSpaceOnUse"
       gradientTransform="translate(-400.0996,-607.9902)">
      <stop
         id="stop3962"
         style="stop-color:#d174f0;stop-opacity:1"
         offset="0" />
      <stop
         id="stop3964"
         style="stop-color:#8a1cc2;stop-opacity:1"
         offset="1" />
    </linearGradient>
    <clipPath
       id="clipPath3144">
      <path
         d="m 118.5,17 c -3.58985,0 -6.5,2.014719 -6.5,4.5 0.10443,0.9272 0.69059,2.098034 1,2.5 1.5,2 1.5,3.25 1.125,4 L 102,28 c -2.216,0 -4,1.784 -4,4 l 0,10.125 c 0.75,0.375 2,0.375 4,-1.125 0.40197,-0.309411 1.5728,-0.89557 2.5,-1 2.48528,0 4.5,2.910149 4.5,6.5 0,3.589851 -2.01472,6.5 -4.5,6.5 -0.76276,-0.01292 -1.92237,-0.695105 -2.5,-1 -2,-1.5 -3.25,-1.5 -4,-1.125 L 98,64 c 0,2.216 1.784,4 4,4 l 16.125,0 C 118.5,67.25 118.5,66 117,64 c -0.30941,-0.401966 -0.89557,-1.5728 -1,-2.5 0,-2.485281 2.91015,-4.5 6.5,-4.5 3.58985,0 6.5,2.014719 6.5,4.5 -0.0129,0.762762 -0.6951,1.922371 -1,2.5 -1.5,2 -1.5,3.25 -1.125,4 L 134,68 c 2.216,0 4,-1.784 4,-4 l 0,-11.125 c 0.75,-0.375 2,-0.375 4,1.125 0.57763,0.304895 1.73724,0.987081 2.5,1 2.48528,0 4.5,-2.910149 4.5,-6.5 0,-3.589851 -2.01472,-6.5 -4.5,-6.5 -0.9272,0.10443 -2.09803,0.690589 -2.5,1 -2,1.5 -3.25,1.5 -4,1.125 L 138,32 c 0,-2.216 -1.784,-4 -4,-4 l -11.125,0 C 122.5,27.25 122.5,26 124,24 c 0.3049,-0.577629 0.98708,-1.737238 1,-2.5 0,-2.485281 -2.91015,-4.5 -6.5,-4.5 z"
         id="path3146"
         style="color:#000000;fill:url(#linearGradient3148);fill-opacity:1;fill-rule:nonzero;stroke:none;stroke-width:2;marker:none;visibility:visible;display:inline;overflow:visible;enable-background:accumulate" />
    </clipPath>
  </defs>
  <g
     transform="translate(0,-297)"
     id="layer1">
    <path
       d="m 18,419 74,0 c 18,0 18,-18 18,-18 l 0,-72 c 0,0 -26,-26 -26,-26 l -48,0 c 0,0 -18,0 -18,18 l 0,98 z"
       id="path2832"
       style="opacity:0.9;fill:#000000;fill-opacity:1;stroke:none;filter:url(#filter3610)" />
    <path
       d="m 18,419 74,0 c 18,0 18,-18 18,-18 l 0,-72 c 0,0 -26,-26 -26,-26 l -48,0 c 0,0 -18,0 -18,18 l 0,98 z"
       id="path3627"
       style="fill:#e6e6e6;fill-opacity:1;stroke:none" />
    <path
       d="m 18.456586,419.00634 72.706957,0 c 17.685467,0 17.685467,-17.8583 17.685467,-17.8583 l 0.70844,-71.4332 c 0,0 -26.254119,-25.79532 -26.254119,-25.79532 l -49.050441,-0.2319 c 0,0 -16.504743,0.4638 -16.504743,18.3221 l 0.708439,96.99662 z"
       transform="matrix(0.98017447,0,0,0.99812248,1.4934147,0.7943904)"
       id="path3684"
       style="opacity:0.9;fill:none;stroke:url(#linearGradient3805);stroke-width:0.98750001;stroke-linecap:butt;stroke-linejoin:miter;stroke-miterlimit:4;stroke-opacity:1;stroke-dasharray:none;filter:url(#filter3778)" />
    <path
       d="m 18.456586,419.00634 72.706957,0 c 17.685467,0 17.685467,-17.8583 17.685467,-17.8583 l 0.70844,-71.4332 c 0,0 -26.254119,-25.79532 -26.254119,-25.79532 l -49.050441,-0.2319 c 0,0 -16.504743,0.4638 -16.504743,18.3221 l 0.708439,96.99662 z"
       transform="matrix(0.98017447,0,0,0.99812248,1.4934147,0.7943904)"
       id="path3766"
       style="fill:none;stroke:url(#linearGradient3807);stroke-width:0.98750001;stroke-linecap:butt;stroke-linejoin:miter;stroke-miterlimit:4;stroke-opacity:1;stroke-dasharray:none;filter:url(#filter3702)" />
    <path
       d="M 92.000003,6.0000025 92,24 l 18,3e-6"
       transform="matrix(1.4444444,0,0,1.4444444,-48.888889,294.33333)"
       id="path3639"
       style="opacity:0.6;fill:none;stroke:#333333;stroke-width:1px;stroke-linecap:butt;stroke-linejoin:miter;stroke-opacity:1;filter:url(#filter3676)" />
    <path
       d="m 84,303 0,26 26,0 -26,-26 z"
       id="path3629"
       style="fill:url(#linearGradient2880);fill-opacity:1;stroke:none" />
    <path
       d="m 18,122 74,0 c 18,0 18,-18 18,-18 l 0,-72 C 110,32 84,6 84,6 L 36,6 C 36,6 18,6 18,24 l 0,98 z"
       transform="matrix(0.97617501,0,0,0.99219838,1.5247995,297.03637)"
       id="path3726"
       style="opacity:0.4;fill:none;stroke:url(#linearGradient3811);stroke-width:1px;stroke-linecap:butt;stroke-linejoin:miter;stroke-opacity:1;filter:url(#filter3782)" />
    <path
       d="m 18,122 c 0,-6 18,-6 18,-6 l 56,0 c 16.37975,-0.46293 17.38879,-17.305605 17.38879,-17.305605"
       transform="translate(0,297)"
       id="path3722"
       style="opacity:0.8;fill:none;stroke:#333333;stroke-width:1px;stroke-linecap:butt;stroke-linejoin:miter;stroke-opacity:1;filter:url(#filter3728)" />
    <path
       d="m 18,419 74,0 c 18,0 18,-18 18,-18 0,0 0,-16 0,-16 0,0 0,28 -18,28 l -56,0 c 0,0 -18,0 -18,6 z"
       id="path3822"
       style="fill:url(#linearGradient2876);fill-opacity:1;stroke:none" />
    <g
       transform="matrix(1.3420142,0,0,1.3420142,-7.7977597,314.23307)"
       id="layer4"
       style="display:inline">
      <path
         d="m 118.5,17 c -3.58985,0 -6.5,2.014719 -6.5,4.5 0.10443,0.9272 0.69059,2.098034 1,2.5 1.5,2 1.5,3.25 1.125,4 L 102,28 c -2.216,0 -4,1.784 -4,4 l 0,10.125 c 0.75,0.375 2,0.375 4,-1.125 0.40197,-0.309411 1.5728,-0.89557 2.5,-1 2.48528,0 4.5,2.910149 4.5,6.5 0,3.589851 -2.01472,6.5 -4.5,6.5 -0.76276,-0.01292 -1.92237,-0.695105 -2.5,-1 -2,-1.5 -3.25,-1.5 -4,-1.125 L 98,64 c 0,2.216 1.784,4 4,4 l 16.125,0 C 118.5,67.25 118.5,66 117,64 c -0.30941,-0.401966 -0.89557,-1.5728 -1,-2.5 0,-2.485281 2.91015,-4.5 6.5,-4.5 3.58985,0 6.5,2.014719 6.5,4.5 -0.0129,0.762762 -0.6951,1.922371 -1,2.5 -1.5,2 -1.5,3.25 -1.125,4 L 134,68 c 2.216,0 4,-1.784 4,-4 l 0,-11.125 c 0.75,-0.375 2,-0.375 4,1.125 0.57763,0.304895 1.73724,0.987081 2.5,1 2.48528,0 4.5,-2.910149 4.5,-6.5 0,-3.589851 -2.01472,-6.5 -4.5,-6.5 -0.9272,0.10443 -2.09803,0.690589 -2.5,1 -2,1.5 -3.25,1.5 -4,1.125 L 138,32 c 0,-2.216 -1.784,-4 -4,-4 l -11.125,0 C 122.5,27.25 122.5,26 124,24 c 0.3049,-0.577629 0.98708,-1.737238 1,-2.5 0,-2.485281 -2.91015,-4.5 -6.5,-4.5 z"
         transform="translate(-70,0)"
         clip-path="url(#clipPath3144)"
         id="rect4096"
         style="color:#000000;fill:url(#linearGradient3150);fill-opacity:1;fill-rule:nonzero;stroke:none;stroke-width:2;marker:none;visibility:visible;display:inline;overflow:visible;enable-background:accumulate" />
      <path
         d="m 48.5,17 c -3.589851,0 -6.5,2.014719 -6.5,4.5 0.10443,0.9272 0.690589,2.098034 1,2.5 1.5,2 1.5,3.25 1.125,4 L 32,28 c -2.216,0 -4,1.784 -4,4 l 0,10.125 C 28.75,42.5 30,42.5 32,41 c 0.401966,-0.309411 1.5728,-0.89557 2.5,-1 2.485281,0 4.5,2.910149 4.5,6.5 C 39,50.089851 36.985281,53 34.5,53 33.737238,52.98708 32.577629,52.304895 32,52 30,50.5 28.75,50.5 28,50.875 L 28,64 c 0,2.216 1.784,4 4,4 l 16.125,0 C 48.5,67.25 48.5,66 47,64 46.690589,63.598034 46.10443,62.4272 46,61.5 46,59.014719 48.910149,57 52.5,57 c 3.589851,0 6.5,2.014719 6.5,4.5 -0.01292,0.762762 -0.695105,1.922371 -1,2.5 -1.5,2 -1.5,3.25 -1.125,4 L 64,68 c 2.216,0 4,-1.784 4,-4 L 68,52.875 C 68.75,52.5 70,52.5 72,54 c 0.577629,0.304895 1.737238,0.987081 2.5,1 2.485281,0 4.5,-2.910149 4.5,-6.5 0,-3.589851 -2.014719,-6.5 -4.5,-6.5 -0.9272,0.10443 -2.098034,0.690589 -2.5,1 -2,1.5 -3.25,1.5 -4,1.125 L 68,32 c 0,-2.216 -1.784,-4 -4,-4 L 52.875,28 C 52.5,27.25 52.5,26 54,24 54.304895,23.422371 54.987081,22.262762 55,21.5 55,19.014719 52.089851,17 48.5,17 z m 0,1.9375 c 1.429906,0 2.705621,0.450045 3.5,1 0.779485,0.539643 1.052518,1.05682 1.0625,1.53125 0.0084,-0.01462 -6.02e-4,4.63e-4 0,0.03125 -0.02887,0.06517 -0.110883,0.265334 -0.21875,0.5 -0.16406,0.356913 -0.381236,0.750343 -0.5625,1.09375 l 0.03125,0 c -1.566515,2.215694 -1.921324,4.313602 -1.1875,5.78125 a 1.9513862,1.9513862 0 0 0 1.75,1.0625 l 11.125,0 c 1.16879,0 2.0625,0.89371 2.0625,2.0625 l 0,12.125 a 1.9513862,1.9513862 0 0 0 1.0625,1.75 c 1.525644,0.762822 3.719059,0.421643 6.03125,-1.3125 a 1.9513862,1.9513862 0 0 0 0.03125,-0.03125 c -0.09907,0.07626 1.045842,-0.465063 1.4375,-0.5625 0.451394,0.0417 0.932229,0.301414 1.4375,1.03125 0.549955,0.794379 1,2.070094 1,3.5 0,1.429906 -0.450045,2.705621 -1,3.5 -0.539643,0.779485 -1.05682,1.052518 -1.53125,1.0625 0.0092,1.56e-4 -0.03777,1.28e-4 -0.03125,0 -0.06517,-0.02887 -0.265334,-0.110883 -0.5,-0.21875 -0.356913,-0.16406 -0.750343,-0.381236 -1.09375,-0.5625 l 0,0.03125 C 70.690556,50.745985 68.592648,50.391176 67.125,51.125 a 1.9513862,1.9513862 0 0 0 -1.0625,1.75 l 0,11.125 c 0,1.16879 -0.89371,2.0625 -2.0625,2.0625 l -4.96875,0 c 0.145875,-0.277664 0.176852,-0.43372 0.53125,-0.90625 a 1.9513862,1.9513862 0 0 0 0.15625,-0.25 c 0.123632,-0.234223 0.399764,-0.723261 0.65625,-1.28125 0.256486,-0.557989 0.546475,-1.14767 0.5625,-2.09375 a 1.9513862,1.9513862 0 0 0 0,-0.03125 c 0,-2.004225 -1.160592,-3.702525 -2.71875,-4.78125 C 56.660592,55.640025 54.659945,55.0625 52.5,55.0625 c -2.159945,0 -4.160592,0.577525 -5.71875,1.65625 C 45.223092,57.797475 44.0625,59.495775 44.0625,61.5 a 1.9513862,1.9513862 0 0 0 0,0.21875 c 0.172727,1.53359 0.688039,2.536801 1.375,3.4375 0.0085,0.01116 0.02268,0.02012 0.03125,0.03125 0.330264,0.444852 0.360052,0.608619 0.5,0.875 L 32,66.0625 c -1.16879,0 -2.0625,-0.89371 -2.0625,-2.0625 l 0,-10.96875 c 0.277664,0.145875 0.43372,0.176852 0.90625,0.53125 a 1.9513862,1.9513862 0 0 0 0.25,0.15625 c 0.234223,0.123632 0.723261,0.399764 1.28125,0.65625 0.557989,0.256486 1.14767,0.546475 2.09375,0.5625 a 1.9513862,1.9513862 0 0 0 0.03125,0 c 2.004225,0 3.702525,-1.160592 4.78125,-2.71875 1.078725,-1.558158 1.65625,-3.558805 1.65625,-5.71875 0,-2.159945 -0.577525,-4.160592 -1.65625,-5.71875 C 38.202525,39.223092 36.504225,38.0625 34.5,38.0625 a 1.9513862,1.9513862 0 0 0 -0.21875,0 c -1.53359,0.172727 -2.536801,0.688039 -3.4375,1.375 -0.01116,0.0085 -0.02012,0.02268 -0.03125,0.03125 -0.444852,0.330264 -0.608619,0.360052 -0.875,0.5 l 0,-7.96875 c 0,-1.16879 0.89371,-2.0625 2.0625,-2.0625 l 12.125,0 a 1.9513862,1.9513862 0 0 0 1.75,-1.0625 c 0.762822,-1.525644 0.421643,-3.719059 -1.3125,-6.03125 A 1.9513862,1.9513862 0 0 0 44.53125,22.8125 c 0.07626,0.09907 -0.465063,-1.045842 -0.5625,-1.4375 0.0417,-0.451394 0.301414,-0.932229 1.03125,-1.4375 0.794379,-0.549955 2.070094,-1 3.5,-1 z"
         id="path4157"
         style="opacity:0.07999998;color:#000000;fill:#000000;fill-opacity:1;fill-rule:nonzero;stroke:none;stroke-width:2;marker:none;visibility:visible;display:inline;overflow:visible;enable-background:accumulate" />
      <path
         d="m 48.5,17 c -3.589851,0 -6.5,2.014719 -6.5,4.5 0.01239,0.110042 0.0378,0.228537 0.0625,0.34375 C 42.518417,19.667192 45.229733,18 48.5,18 c 3.270267,0 5.981583,1.667192 6.4375,3.84375 C 54.961708,21.726854 54.99823,21.604513 55,21.5 55,19.014719 52.089851,17 48.5,17 z M 44.28125,27.5625 C 44.244681,27.721241 44.189125,27.87175 44.125,28 L 32,28 c -2.216,0 -4,1.784 -4,4 l 0,1 c 0,-2.216 1.784,-4 4,-4 l 12.125,0 c 0.177885,-0.355769 0.267209,-0.83003 0.15625,-1.4375 z m 8.4375,0 C 52.607791,28.16997 52.697115,28.644231 52.875,29 L 64,29 c 2.216,0 4,1.784 4,4 l 0,-1 c 0,-2.216 -1.784,-4 -4,-4 L 52.875,28 C 52.81088,27.87175 52.755319,27.721241 52.71875,27.5625 z M 74.5,42 c -0.9272,0.10443 -2.098034,0.690589 -2.5,1 -2,1.5 -3.25,1.5 -4,1.125 l 0,1 C 68.75,45.5 70,45.5 72,44 c 0.401966,-0.309411 1.5728,-0.89557 2.5,-1 2.367009,0 4.28945,2.647411 4.46875,6 C 78.977709,48.832482 79,48.670837 79,48.5 79,44.910149 76.985281,42 74.5,42 z M 38.96875,47 C 38.78945,50.352589 36.867009,53 34.5,53 33.737238,52.98708 32.577629,52.304895 32,52 30,50.5 28.75,50.5 28,50.875 l 0,1 C 28.75,51.5 30,51.5 32,53 c 0.577629,0.304895 1.737238,0.98708 2.5,1 2.485281,0 4.5,-2.910149 4.5,-6.5 0,-0.170837 -0.02229,-0.332482 -0.03125,-0.5 z M 46.0625,61.84375 C 46.017946,62.056452 46,62.278749 46,62.5 c 0.10443,0.9272 0.690589,2.098034 1,2.5 0.788462,1.051282 1.158296,1.889357 1.28125,2.5625 C 48.458535,66.792931 48.2435,65.658 47,64 46.727311,63.64574 46.245895,62.699305 46.0625,61.84375 z m 12.875,0 C 58.785032,62.57999 58.263119,63.501517 58,64 56.7565,65.658 56.541465,66.792931 56.71875,67.5625 56.841704,66.889357 57.211538,66.051282 58,65 c 0.304895,-0.577629 0.98708,-1.737238 1,-2.5 0,-0.221251 -0.01795,-0.443548 -0.0625,-0.65625 z"
         id="path4144"
         style="opacity:0.3;color:#000000;fill:#000000;fill-opacity:1;fill-rule:nonzero;stroke:none;stroke-width:2;marker:none;visibility:visible;display:inline;overflow:visible;enable-background:accumulate" />
      <path
         d="m 48.5,17 c -3.589851,0 -6.5,2.014719 -6.5,4.5 0.10443,0.9272 0.690589,2.098034 1,2.5 1.5,2 1.5,3.25 1.125,4 L 32,28 c -2.216,0 -4,1.784 -4,4 l 0,10.125 C 28.75,42.5 30,42.5 32,41 c 0.401966,-0.309411 1.5728,-0.89557 2.5,-1 2.485281,0 4.5,2.910149 4.5,6.5 C 39,50.089851 36.985281,53 34.5,53 33.737238,52.98708 32.577629,52.304895 32,52 30,50.5 28.75,50.5 28,50.875 L 28,64 c 0,2.216 1.784,4 4,4 l 16.125,0 C 48.5,67.25 48.5,66 47,64 46.690589,63.598034 46.10443,62.4272 46,61.5 46,59.014719 48.910149,57 52.5,57 c 3.589851,0 6.5,2.014719 6.5,4.5 -0.01292,0.762762 -0.695105,1.922371 -1,2.5 -1.5,2 -1.5,3.25 -1.125,4 L 64,68 c 2.216,0 4,-1.784 4,-4 L 68,52.875 C 68.75,52.5 70,52.5 72,54 c 0.577629,0.304895 1.737238,0.987081 2.5,1 2.485281,0 4.5,-2.910149 4.5,-6.5 0,-3.589851 -2.014719,-6.5 -4.5,-6.5 -0.9272,0.10443 -2.098034,0.690589 -2.5,1 -2,1.5 -3.25,1.5 -4,1.125 L 68,32 c 0,-2.216 -1.784,-4 -4,-4 L 52.875,28 C 52.5,27.25 52.5,26 54,24 54.304895,23.422371 54.987081,22.262762 55,21.5 55,19.014719 52.089851,17 48.5,17 z m 0,1 c 1.60931,0 3.049175,0.445102 4.03125,1.125 0.970813,0.672101 1.457544,1.498761 1.46875,2.34375 1.3e-4,0.0098 0,0.02144 0,0.03125 -0.008,0.110426 -0.100188,0.512349 -0.28125,0.90625 -0.186773,0.406327 -0.426649,0.808425 -0.59375,1.125 l 0.03125,0 C 51.632795,25.625566 51.440121,27.317743 52,28.4375 A 0.99229518,0.99229518 0 0 0 52.875,29 L 64,29 c 1.683486,0 3,1.316514 3,3 l 0,12.125 A 0.99229518,0.99229518 0 0 0 67.5625,45 c 1.144421,0.57221 2.872499,0.400314 5.03125,-1.21875 0.139364,-0.107275 1.340953,-0.650461 1.96875,-0.75 0.831467,0.02538 1.650535,0.481328 2.3125,1.4375 C 77.554898,45.450825 78,46.89069 78,48.5 c 0,1.60931 -0.445102,3.049175 -1.125,4.03125 -0.672101,0.970813 -1.498761,1.457544 -2.34375,1.46875 -0.0029,-4.9e-5 -0.02777,2.54e-4 -0.03125,0 -0.110426,-0.008 -0.512349,-0.100188 -0.90625,-0.28125 -0.406327,-0.186773 -0.808425,-0.426649 -1.125,-0.59375 l 0,0.03125 C 70.374434,51.632795 68.682257,51.440121 67.5625,52 A 0.99229518,0.99229518 0 0 0 67,52.875 L 67,64 c 0,1.683486 -1.316514,3 -3,3 l -6.28125,0 c -0.02466,-0.462574 0.09554,-1.116969 1.0625,-2.40625 a 0.99229518,0.99229518 0 0 0 0.09375,-0.125 c 0.137794,-0.261054 0.391227,-0.741425 0.625,-1.25 0.233773,-0.508575 0.488676,-1.018965 0.5,-1.6875 A 0.99229518,0.99229518 0 0 0 60,61.5 c 0,-1.629912 -0.973288,-3.051218 -2.34375,-4 C 56.285788,56.551218 54.480541,56 52.5,56 50.519459,56 48.714212,56.551218 47.34375,57.5 45.973288,58.448782 45,59.870088 45,61.5 a 0.99229518,0.99229518 0 0 0 0,0.125 c 0.140248,1.245219 0.710744,2.308783 1.21875,2.96875 0.966961,1.289281 1.087156,1.943676 1.0625,2.40625 L 32,67 c -1.683486,0 -3,-1.316514 -3,-3 l 0,-12.28125 c 0.462574,-0.02466 1.116969,0.09554 2.40625,1.0625 a 0.99229518,0.99229518 0 0 0 0.125,0.09375 c 0.261054,0.137794 0.741425,0.391227 1.25,0.625 0.508575,0.233773 1.018965,0.488676 1.6875,0.5 A 0.99229518,0.99229518 0 0 0 34.5,54 c 1.629912,0 3.051218,-0.973288 4,-2.34375 C 39.448782,50.285788 40,48.480541 40,46.5 40,44.519459 39.448782,42.714212 38.5,41.34375 37.551218,39.973288 36.129912,39 34.5,39 a 0.99229518,0.99229518 0 0 0 -0.125,0 c -1.245219,0.140248 -2.308783,0.710744 -2.96875,1.21875 C 30.116969,41.185711 29.462574,41.305906 29,41.28125 L 29,32 c 0,-1.683486 1.316514,-3 3,-3 l 12.125,0 A 0.99229518,0.99229518 0 0 0 45,28.4375 c 0.57221,-1.144421 0.400314,-2.872499 -1.21875,-5.03125 -0.107275,-0.139364 -0.650461,-1.340953 -0.75,-1.96875 0.02538,-0.831467 0.481328,-1.650535 1.4375,-2.3125 C 45.450825,18.445102 46.89069,18 48.5,18 z"
         id="path4153"
         style="opacity:0.15;color:#000000;fill:#000000;fill-opacity:1;fill-rule:nonzero;stroke:none;stroke-width:2;marker:none;visibility:visible;display:inline;overflow:visible;enable-background:accumulate" />
      <path
         d="M 42.0625,21.84375 C 42.017946,22.056452 42,22.278749 42,22.5 c 0.10443,0.9272 0.690589,2.098034 1,2.5 0.788462,1.051282 1.158296,1.889357 1.28125,2.5625 C 44.458535,26.792931 44.2435,25.658 43,24 42.727311,23.64574 42.245895,22.699305 42.0625,21.84375 z m 12.875,0 C 54.785032,22.57999 54.263119,23.501517 54,24 52.7565,25.658 52.541465,26.792931 52.71875,27.5625 52.841704,26.889357 53.211538,26.051282 54,25 c 0.304895,-0.577629 0.987081,-1.737238 1,-2.5 0,-0.221251 -0.01795,-0.443548 -0.0625,-0.65625 z M 34.5,40 c -0.9272,0.10443 -2.098034,0.690589 -2.5,1 -2,1.5 -3.25,1.5 -4,1.125 l 0,1 C 28.75,43.5 30,43.5 32,42 c 0.401966,-0.309411 1.5728,-0.89557 2.5,-1 2.367009,0 4.28945,2.647411 4.46875,6 C 38.977709,46.832482 39,46.670837 39,46.5 39,42.910149 36.985281,40 34.5,40 z m 44.46875,9 C 78.78945,52.352589 76.867009,55 74.5,55 73.737238,54.987081 72.577629,54.304895 72,54 70,52.5 68.75,52.5 68,52.875 l 0,1 C 68.75,53.5 70,53.5 72,55 c 0.577629,0.304895 1.737238,0.987081 2.5,1 2.485281,0 4.5,-2.910149 4.5,-6.5 0,-0.170837 -0.02229,-0.332482 -0.03125,-0.5 z M 52.5,57 c -3.589851,0 -6.5,2.014719 -6.5,4.5 0.01239,0.110042 0.0378,0.228537 0.0625,0.34375 C 46.518417,59.667192 49.229733,58 52.5,58 c 3.270267,0 5.981583,1.667192 6.4375,3.84375 C 58.961708,61.726854 58.99823,61.604513 59,61.5 59,59.014719 56.089851,57 52.5,57 z m -24.5,7 0,1 c 0,2.216 1.784,4 4,4 l 16.125,0 c 0.177885,-0.355769 0.267209,-0.83003 0.15625,-1.4375 C 48.244681,67.721241 48.189125,67.87175 48.125,68 L 32,68 c -2.216,0 -4,-1.784 -4,-4 z m 40,0 c 0,2.216 -1.784,4 -4,4 l -7.125,0 C 56.810875,67.87175 56.755319,67.721241 56.71875,67.5625 56.607791,68.16997 56.697115,68.644231 56.875,69 L 64,69 c 2.216,0 4,-1.784 4,-4 l 0,-1 z"
         id="path4167"
         style="opacity:0.75;color:#000000;fill:#ffffff;fill-opacity:1;fill-rule:nonzero;stroke:none;stroke-width:2;marker:none;visibility:visible;display:inline;overflow:visible;enable-background:accumulate" />
    </g>
  </g>
</svg>
