<?xml version="1.0" encoding="UTF-8" standalone="no"?>
<!-- Created with Inkscape (http://www.inkscape.org/) -->

<svg
   xmlns:dc="http://purl.org/dc/elements/1.1/"
   xmlns:cc="http://creativecommons.org/ns#"
   xmlns:rdf="http://www.w3.org/1999/02/22-rdf-syntax-ns#"
   xmlns:svg="http://www.w3.org/2000/svg"
   xmlns="http://www.w3.org/2000/svg"
   xmlns:xlink="http://www.w3.org/1999/xlink"
   xmlns:sodipodi="http://sodipodi.sourceforge.net/DTD/sodipodi-0.dtd"
   xmlns:inkscape="http://www.inkscape.org/namespaces/inkscape"
   version="1.1"
   width="128"
   height="128"
   id="svg3722"
   inkscape:version="0.47 r22583"
   sodipodi:docname="image-x-xcf.svg">
  <metadata
     id="metadata129">
    <rdf:RDF>
      <cc:Work
         rdf:about="">
        <dc:format>image/svg+xml</dc:format>
        <dc:type
           rdf:resource="http://purl.org/dc/dcmitype/StillImage" />
      </cc:Work>
    </rdf:RDF>
  </metadata>
  <sodipodi:namedview
     pagecolor="#ffffff"
     bordercolor="#666666"
     borderopacity="1"
     objecttolerance="10"
     gridtolerance="10"
     guidetolerance="10"
     inkscape:pageopacity="0"
     inkscape:pageshadow="2"
     inkscape:window-width="640"
     inkscape:window-height="494"
     id="namedview127"
     showgrid="false"
     inkscape:zoom="1.84375"
     inkscape:cx="64"
     inkscape:cy="64"
     inkscape:window-x="0"
     inkscape:window-y="0"
     inkscape:window-maximized="0"
     inkscape:current-layer="svg3722" />
  <defs
     id="defs3724">
    <inkscape:perspective
       sodipodi:type="inkscape:persp3d"
       inkscape:vp_x="0 : 64 : 1"
       inkscape:vp_y="0 : 1000 : 0"
       inkscape:vp_z="128 : 64 : 1"
       inkscape:persp3d-origin="64 : 42.666667 : 1"
       id="perspective131" />
    <filter
       color-interpolation-filters="sRGB"
       id="filter3610">
      <feGaussianBlur
         stdDeviation="1.56"
         id="feGaussianBlur3612" />
    </filter>
    <linearGradient
       x1="18"
       y1="361"
       x2="110"
       y2="361"
       id="linearGradient3720"
       xlink:href="#linearGradient5884"
       gradientUnits="userSpaceOnUse" />
    <linearGradient
       id="linearGradient5884">
      <stop
         id="stop5886"
         style="stop-color:#778aa6;stop-opacity:1"
         offset="0" />
      <stop
         id="stop5888"
         style="stop-color:#a0afc5;stop-opacity:1"
         offset="1" />
    </linearGradient>
    <linearGradient
       x1="56.65461"
       y1="5.5"
       x2="56.65461"
       y2="122.50977"
       id="linearGradient3805"
       xlink:href="#linearGradient3694"
       gradientUnits="userSpaceOnUse"
       gradientTransform="matrix(0.98252641,0,0,0.9921278,0.77111153,297.96672)" />
    <linearGradient
       id="linearGradient3694">
      <stop
         id="stop3696"
         style="stop-color:#ffffff;stop-opacity:1"
         offset="0" />
      <stop
         id="stop3700"
         style="stop-color:#ffffff;stop-opacity:0.67464113"
         offset="0.5" />
      <stop
         id="stop3698"
         style="stop-color:#ffffff;stop-opacity:0"
         offset="1" />
    </linearGradient>
    <filter
       color-interpolation-filters="sRGB"
       id="filter3778">
      <feGaussianBlur
         stdDeviation="0.51837461"
         id="feGaussianBlur3780" />
    </filter>
    <linearGradient
       x1="56.65461"
       y1="5.5"
       x2="56.65461"
       y2="122.50977"
       id="linearGradient3807"
       xlink:href="#linearGradient3694"
       gradientUnits="userSpaceOnUse"
       gradientTransform="matrix(0.98252641,0,0,0.9921278,0.77111153,297.96672)" />
    <linearGradient
       id="linearGradient3836">
      <stop
         id="stop3838"
         style="stop-color:#ffffff;stop-opacity:1"
         offset="0" />
      <stop
         id="stop3840"
         style="stop-color:#ffffff;stop-opacity:0.67464113"
         offset="0.5" />
      <stop
         id="stop3842"
         style="stop-color:#ffffff;stop-opacity:0"
         offset="1" />
    </linearGradient>
    <filter
       color-interpolation-filters="sRGB"
       id="filter3702">
      <feGaussianBlur
         stdDeviation="0.51369811"
         id="feGaussianBlur3704" />
    </filter>
    <filter
       color-interpolation-filters="sRGB"
       id="filter3676">
      <feGaussianBlur
         stdDeviation="0.36000001"
         id="feGaussianBlur3678" />
    </filter>
    <linearGradient
       x1="102"
       y1="14"
       x2="92"
       y2="24"
       id="linearGradient3393"
       xlink:href="#linearGradient3649"
       gradientUnits="userSpaceOnUse"
       gradientTransform="matrix(1.4444444,0,0,1.4444444,-48.888889,294.33333)" />
    <linearGradient
       id="linearGradient3649">
      <stop
         id="stop3651"
         style="stop-color:#c9c9c9;stop-opacity:1"
         offset="0" />
      <stop
         id="stop3653"
         style="stop-color:#f0f0f0;stop-opacity:1"
         offset="1" />
    </linearGradient>
    <linearGradient
       x1="64"
       y1="122.5"
       x2="64"
       y2="93.860451"
       id="linearGradient3811"
       xlink:href="#linearGradient3758"
       gradientUnits="userSpaceOnUse" />
    <linearGradient
       id="linearGradient3758">
      <stop
         id="stop3760"
         style="stop-color:#333333;stop-opacity:1"
         offset="0" />
      <stop
         id="stop3762"
         style="stop-color:#333333;stop-opacity:0"
         offset="1" />
    </linearGradient>
    <filter
       color-interpolation-filters="sRGB"
       id="filter3782">
      <feGaussianBlur
         stdDeviation="1.0410113"
         id="feGaussianBlur3784" />
    </filter>
    <filter
       color-interpolation-filters="sRGB"
       id="filter3728">
      <feGaussianBlur
         stdDeviation="0.57810125"
         id="feGaussianBlur3730" />
    </filter>
    <linearGradient
       x1="62"
       y1="413"
       x2="62"
       y2="419"
       id="linearGradient3388"
       xlink:href="#linearGradient3636"
       gradientUnits="userSpaceOnUse" />
    <linearGradient
       id="linearGradient3636">
      <stop
         id="stop3638"
         style="stop-color:#3988c5;stop-opacity:1"
         offset="0" />
      <stop
         id="stop3644"
         style="stop-color:#347cb4;stop-opacity:1"
         offset="0.5" />
      <stop
         id="stop3640"
         style="stop-color:#2a628d;stop-opacity:1"
         offset="1" />
    </linearGradient>
    <linearGradient
       x1="62"
       y1="413"
       x2="62"
       y2="419"
       id="linearGradient3875"
       xlink:href="#linearGradient3636"
       gradientUnits="userSpaceOnUse" />
    <filter
       x="-0.82020199"
       y="-0.82020199"
       width="2.640404"
       height="2.640404"
       color-interpolation-filters="sRGB"
       id="filter4018">
      <feGaussianBlur
         stdDeviation="0.60810292"
         id="feGaussianBlur4020" />
    </filter>
    <filter
       x="-0.73195022"
       y="-0.73195022"
       width="2.4639003"
       height="2.4639003"
       color-interpolation-filters="sRGB"
       id="filter3767-49">
      <feGaussianBlur
         id="feGaussianBlur3769-9"
         stdDeviation="48.881325" />
    </filter>
    <filter
       x="-0.97195017"
       y="-0.97195017"
       width="2.9439003"
       height="2.9439003"
       color-interpolation-filters="sRGB"
       id="filter3946">
      <feGaussianBlur
         stdDeviation="64.909082"
         id="feGaussianBlur3948" />
    </filter>
    <filter
       x="-0.73195022"
       y="-0.73195022"
       width="2.4639003"
       height="2.4639003"
       color-interpolation-filters="sRGB"
       id="filter3767-0">
      <feGaussianBlur
         id="feGaussianBlur3769-3"
         stdDeviation="48.881325" />
    </filter>
    <filter
       x="-0.13941909"
       y="-0.13941909"
       width="1.2788382"
       height="1.2788382"
       color-interpolation-filters="sRGB"
       id="filter4017">
      <feGaussianBlur
         id="feGaussianBlur4019"
         stdDeviation="5.3250344" />
    </filter>
    <filter
       color-interpolation-filters="sRGB"
       id="filter4059">
      <feGaussianBlur
         id="feGaussianBlur4061"
         stdDeviation="3.098202" />
    </filter>
    <filter
       x="-0.13443983"
       y="-0.13443983"
       width="1.2688797"
       height="1.2688797"
       color-interpolation-filters="sRGB"
       id="filter4031">
      <feGaussianBlur
         id="feGaussianBlur4033"
         stdDeviation="3.2676348" />
    </filter>
    <filter
       x="-0.77179897"
       y="-0.70836341"
       width="2.5435979"
       height="2.4167268"
       color-interpolation-filters="sRGB"
       id="filter3840">
      <feGaussianBlur
         stdDeviation="50.784539"
         id="feGaussianBlur3842" />
    </filter>
    <filter
       x="-0.9148525"
       y="-0.92755878"
       width="2.829705"
       height="2.8551176"
       color-interpolation-filters="sRGB"
       id="filter3918">
      <feGaussianBlur
         id="feGaussianBlur3920"
         stdDeviation="65.588311" />
    </filter>
    <filter
       x="-0.73692948"
       y="-0.73692948"
       width="2.4738588"
       height="2.4738588"
       color-interpolation-filters="sRGB"
       id="filter3896">
      <feGaussianBlur
         id="feGaussianBlur3898"
         stdDeviation="39.081586" />
    </filter>
    <filter
       x="-0.70207471"
       y="-0.70207471"
       width="2.4041493"
       height="2.4041493"
       color-interpolation-filters="sRGB"
       id="filter4131">
      <feGaussianBlur
         id="feGaussianBlur4133"
         stdDeviation="48.954674" />
    </filter>
    <filter
       x="-0.87634856"
       y="-0.87634856"
       width="2.752697"
       height="2.752697"
       color-interpolation-filters="sRGB"
       id="filter3888">
      <feGaussianBlur
         id="feGaussianBlur3890"
         stdDeviation="51.639333" />
    </filter>
    <filter
       x="-0.73195022"
       y="-0.73195022"
       width="2.4639003"
       height="2.4639003"
       color-interpolation-filters="sRGB"
       id="filter4151">
      <feGaussianBlur
         id="feGaussianBlur4153"
         stdDeviation="50.319008" />
    </filter>
    <filter
       x="-0.73195022"
       y="-0.73195022"
       width="2.4639003"
       height="2.4639003"
       color-interpolation-filters="sRGB"
       id="filter3767">
      <feGaussianBlur
         id="feGaussianBlur3769"
         stdDeviation="48.881325" />
    </filter>
    <filter
       x="-0.85145229"
       y="-0.85145229"
       width="2.7029047"
       height="2.7029047"
       color-interpolation-filters="sRGB"
       id="filter3759">
      <feGaussianBlur
         id="feGaussianBlur3761"
         stdDeviation="36.793024" />
    </filter>
    <filter
       x="-0.77178425"
       y="-0.77178425"
       width="2.5435686"
       height="2.5435686"
       color-interpolation-filters="sRGB"
       id="filter3817">
      <feGaussianBlur
         id="feGaussianBlur3819"
         stdDeviation="72.006551" />
    </filter>
    <filter
       x="-0.53775936"
       y="-0.53775936"
       width="2.0755186"
       height="2.0755186"
       color-interpolation-filters="sRGB"
       id="filter3689">
      <feGaussianBlur
         id="feGaussianBlur3691"
         stdDeviation="193.29542" />
    </filter>
    <radialGradient
       cx="830.81177"
       cy="715.31409"
       r="960.50012"
       fx="830.81177"
       fy="715.31409"
       id="radialGradient3816"
       xlink:href="#linearGradient2828"
       gradientUnits="userSpaceOnUse"
       gradientTransform="matrix(0.03965511,1.3781508e-4,-8.650115e-5,0.04995077,31.115908,41.93897)" />
    <linearGradient
       id="linearGradient2828">
      <stop
         id="stop2830"
         style="stop-color:#ff0211;stop-opacity:1"
         offset="0" />
      <stop
         id="stop2832"
         style="stop-color:#770a0a;stop-opacity:1"
         offset="1" />
    </linearGradient>
    <radialGradient
       cx="830.81177"
       cy="715.31409"
       r="960.50012"
       fx="830.81177"
       fy="715.31409"
       id="radialGradient3243"
       xlink:href="#linearGradient2828"
       gradientUnits="userSpaceOnUse"
       gradientTransform="matrix(0.03965511,1.3781508e-4,-8.650115e-5,0.04995077,19.115908,334.93897)" />
    <radialGradient
       cx="830.81177"
       cy="715.31409"
       r="960.50012"
       fx="830.81177"
       fy="715.31409"
       id="radialGradient5350"
       xlink:href="#linearGradient2828"
       gradientUnits="userSpaceOnUse"
       gradientTransform="matrix(0.03965511,1.3781508e-4,-8.650115e-5,0.04995077,31.115908,337.61579)" />
    <radialGradient
       cx="830.81177"
       cy="715.31409"
       r="960.50012"
       fx="830.81177"
       fy="715.31409"
       id="radialGradient6697"
       xlink:href="#linearGradient2828"
       gradientUnits="userSpaceOnUse"
       gradientTransform="matrix(0.03965511,1.3781508e-4,-8.650115e-5,0.04995077,31.115908,337.61579)" />
    <radialGradient
       cx="830.81177"
       cy="715.31409"
       r="960.50012"
       fx="830.81177"
       fy="715.31409"
       id="radialGradient2978"
       xlink:href="#linearGradient2828"
       gradientUnits="userSpaceOnUse"
       gradientTransform="matrix(0.03965511,1.3781508e-4,-8.650115e-5,0.04995077,31.115908,337.61579)" />
    <radialGradient
       cx="830.81177"
       cy="715.31409"
       r="960.50012"
       fx="830.81177"
       fy="715.31409"
       id="radialGradient3007"
       xlink:href="#linearGradient2828"
       gradientUnits="userSpaceOnUse"
       gradientTransform="matrix(0.03965511,1.3781508e-4,-8.650115e-5,0.04995077,31.115908,40.61579)" />
  </defs>
  <g
     id="g2969">
    <g
       id="g3799"
       transform="translate(4.2e-6,-297)">
      <path
         style="opacity:0.9;fill:#000000;fill-opacity:1;stroke:none;filter:url(#filter3610)"
         id="path2832"
         d="m 18,419 74,0 c 18,0 18,-18 18,-18 l 0,-72 c 0,0 -26,-26 -26,-26 l -48,0 c 0,0 -18,0 -18,18 l 0,98 z" />
      <path
         style="fill:#e6e6e6;fill-opacity:1;stroke:url(#linearGradient3720)"
         id="path3627"
         d="m 18,419 74,0 c 18,0 18,-18 18,-18 l 0,-72 c 0,0 -26,-26 -26,-26 l -48,0 c 0,0 -18,0 -18,18 l 0,98 z" />
      <path
         style="opacity:0.9;fill:none;stroke:url(#linearGradient3805);stroke-width:0.98750001;stroke-linecap:butt;stroke-linejoin:miter;stroke-miterlimit:4;stroke-opacity:1;stroke-dasharray:none;filter:url(#filter3778)"
         id="path3684"
         transform="matrix(0.98017447,0,0,0.99812248,1.4934147,0.7943904)"
         d="m 18.456586,419.00634 72.706957,0 c 17.685467,0 17.685467,-17.8583 17.685467,-17.8583 l 0.70844,-71.4332 c 0,0 -26.254119,-25.79532 -26.254119,-25.79532 l -49.050441,-0.2319 c 0,0 -16.504743,0.4638 -16.504743,18.3221 l 0.708439,96.99662 z" />
      <path
         style="fill:none;stroke:url(#linearGradient3807);stroke-width:0.98750001;stroke-linecap:butt;stroke-linejoin:miter;stroke-miterlimit:4;stroke-opacity:1;stroke-dasharray:none;filter:url(#filter3702)"
         id="path3766"
         transform="matrix(0.98017447,0,0,0.99812248,1.4934147,0.7943904)"
         d="m 18.456586,419.00634 72.706957,0 c 17.685467,0 17.685467,-17.8583 17.685467,-17.8583 l 0.70844,-71.4332 c 0,0 -26.254119,-25.79532 -26.254119,-25.79532 l -49.050441,-0.2319 c 0,0 -16.504743,0.4638 -16.504743,18.3221 l 0.708439,96.99662 z" />
      <path
         style="opacity:0.6;fill:none;stroke:#333333;stroke-width:1px;stroke-linecap:butt;stroke-linejoin:miter;stroke-opacity:1;filter:url(#filter3676)"
         id="path3639"
         transform="matrix(1.4444444,0,0,1.4444444,-48.888889,294.33333)"
         d="M 92.000003,6.0000025 92,24 l 18,3e-6" />
      <path
         style="fill:url(#linearGradient3393);fill-opacity:1;stroke:none"
         id="path3629"
         d="m 84,303 0,26 26,0 -26,-26 z" />
      <path
         style="opacity:0.4;fill:none;stroke:url(#linearGradient3811);stroke-width:1px;stroke-linecap:butt;stroke-linejoin:miter;stroke-opacity:1;filter:url(#filter3782)"
         id="path3726"
         transform="matrix(0.97617501,0,0,0.99219838,1.5247995,297.03637)"
         d="m 18,122 74,0 c 18,0 18,-18 18,-18 l 0,-72 C 110,32 84,6 84,6 L 36,6 C 36,6 18,6 18,24 l 0,98 z" />
      <path
         style="opacity:0.8;fill:none;stroke:#333333;stroke-width:1px;stroke-linecap:butt;stroke-linejoin:miter;stroke-opacity:1;filter:url(#filter3728)"
         id="path3722"
         d="m 18,419 c 0,-6 18,-6 18,-6 l 56,0 c 16.37975,-0.46293 17.38879,-17.30561 17.38879,-17.30561" />
      <path
         style="fill:url(#linearGradient3875);fill-opacity:1;stroke:none"
         id="path3822"
         d="m 18,419 74,0 c 18,0 18,-18 18,-18 0,0 0,-16 0,-16 0,0 0,28 -18,28 l -56,0 c 0,0 -18,0 -18,6 z" />
    </g>
    <g
       id="g2937">
      <g
         id="g3781">
        <rect
           width="76.177521"
           height="60.746437"
           rx="4.7505536"
           ry="4.7505536"
           x="25.91124"
           y="46.087524"
           id="rect2826"
           style="fill:url(#radialGradient3007);fill-opacity:1;fill-rule:evenodd;stroke:#000000;stroke-width:0.04724014px;stroke-linecap:butt;stroke-linejoin:miter;stroke-opacity:1" />
        <path
           d="m 655.25229,344.60895 a 431.33514,431.33514 0 1 1 -862.67029,0 431.33514,431.33514 0 1 1 862.67029,0 z"
           transform="matrix(0.02398754,0,0,0.02398754,55.67351,64.58178)"
           id="path3669"
           style="opacity:0.7;fill:#ffffff;fill-opacity:1;filter:url(#filter3689)" />
        <path
           d="m 645.82417,869.04645 a 111.95857,111.95857 0 1 1 -223.91714,0 111.95857,111.95857 0 1 1 223.91714,0 z"
           transform="matrix(0.05619072,0,0,0.05619072,37.006335,37.19381)"
           id="path3727"
           style="opacity:0.69198297;fill:#ffffff;fill-opacity:1;stroke:#a9ff07;stroke-width:0pt;stroke-miterlimit:4;stroke-opacity:1;stroke-dasharray:none;filter:url(#filter3817)" />
        <path
           d="m 681.17951,455.38901 a 51.854496,51.854496 0 1 1 -103.70899,0 51.854496,51.854496 0 1 1 103.70899,0 z"
           transform="matrix(0.05619072,0,0,0.05619072,16.212818,59.44422)"
           id="path3737"
           style="fill:#b0b0b0;fill-opacity:1;stroke:#a9ff07;stroke-width:0pt;stroke-miterlimit:4;stroke-opacity:1;stroke-dasharray:none;filter:url(#filter3759)" />
        <path
           d="m 881.52647,445.96091 a 80.138775,80.138775 0 1 1 -160.27755,0 80.138775,80.138775 0 1 1 160.27755,0 z"
           transform="matrix(0.05619072,0,0,0.05619072,30.781527,54.94114)"
           id="path3763"
           style="fill:#fafafa;fill-opacity:1;stroke:#a9ff07;stroke-width:0pt;stroke-miterlimit:4;stroke-opacity:1;stroke-dasharray:none;filter:url(#filter3767)" />
        <path
           d="m 862.67029,358.75107 a 82.49579,82.49579 0 1 1 -164.99158,0 82.49579,82.49579 0 1 1 164.99158,0 z"
           transform="matrix(0.05619072,0,0,0.05619072,29.059787,53.2194)"
           id="path3771"
           style="fill:#ffffff;fill-opacity:1;stroke:#a9ff07;stroke-width:0pt;stroke-miterlimit:4;stroke-opacity:1;stroke-dasharray:none;filter:url(#filter4151)" />
        <path
           d="m 737.74809,229.11484 a 70.710678,70.710678 0 1 1 -141.42135,0 70.710678,70.710678 0 1 1 141.42135,0 z"
           transform="matrix(0.03358688,0,0,0.03358688,46.786218,57.20631)"
           id="path3789"
           style="opacity:0.16700003;fill:#dbdbdb;fill-opacity:1;stroke:#a9ff07;stroke-width:0pt;stroke-miterlimit:4;stroke-opacity:1;stroke-dasharray:none;filter:url(#filter3888)" />
        <path
           d="m 1067.7312,758.26642 a 83.674301,83.674301 0 1 1 -167.34856,0 83.674301,83.674301 0 1 1 167.34856,0 z"
           transform="matrix(0.02374254,0,0,0.02374254,60.129715,50.60676)"
           id="path3821"
           style="fill:#ffffff;fill-opacity:1;stroke:#a9ff07;stroke-width:0pt;stroke-miterlimit:4;stroke-opacity:1;stroke-dasharray:none;filter:url(#filter4131)" />
        <path
           d="m 773.10342,424.74771 a 63.63961,63.63961 0 1 1 -127.27922,0 63.63961,63.63961 0 1 1 127.27922,0 z"
           transform="matrix(0.05619072,0,0,0.05619072,38.595633,42.88885)"
           id="path3851"
           style="opacity:0.744;fill:#ffffff;fill-opacity:1;stroke:#a9ff07;stroke-width:0pt;stroke-miterlimit:4;stroke-opacity:1;stroke-dasharray:none;filter:url(#filter3896)" />
        <path
           d="m 676.46547,311.61063 a 86.031326,84.852814 0 1 1 -172.06265,0 86.031326,84.852814 0 1 1 172.06265,0 z"
           transform="matrix(0.05619072,0,0,0.05619072,23.629628,68.58274)"
           id="path3900"
           style="fill:#f2f2f2;fill-opacity:1;stroke:#a9ff07;stroke-width:0pt;stroke-miterlimit:4;stroke-opacity:1;stroke-dasharray:none;filter:url(#filter3918)" />
        <path
           d="m -47.14045,890.2597 a 78.96026,86.031328 0 1 1 -157.92052,0 78.96026,86.031328 0 1 1 157.92052,0 z"
           transform="matrix(0.05157229,0,0,0.04691543,55.595519,52.95832)"
           id="path3922"
           style="fill:#ffffff;fill-opacity:1;stroke:#a9ff07;stroke-width:0pt;stroke-miterlimit:4;stroke-opacity:1;stroke-dasharray:none;filter:url(#filter3840)" />
        <path
           d="m 56.295713,93.32003 a 0.8896875,0.8896875 0 0 1 -1.779375,0 0.8896875,0.8896875 0 1 1 1.779375,0 z"
           id="path4021"
           style="opacity:0.99578091;fill:#ffffff;fill-opacity:1;stroke:#ffffff;stroke-width:0.2247629;stroke-miterlimit:4;stroke-opacity:0.0373832;stroke-dasharray:none" />
        <path
           d="m 49.833815,98.75181 a 1.6388965,1.6388965 0 0 1 -3.277793,0 1.6388965,1.6388965 0 1 1 3.277793,0 z"
           id="path4025"
           style="opacity:0.24894499;fill:#ffffff;fill-opacity:1;stroke:#ffffff;stroke-width:0.2247629;stroke-miterlimit:4;stroke-opacity:0.0373832;stroke-dasharray:none" />
        <path
           d="m 956.66667,285.83334 a 29.16667,29.16667 0 1 1 -58.33334,0 29.16667,29.16667 0 1 1 58.33334,0 z"
           transform="matrix(0.05619072,0,0,0.05619072,15.93206,42.88885)"
           id="path4029"
           style="opacity:0.7173;fill:#ffffff;fill-opacity:1;stroke:#ffffff;stroke-width:4;stroke-miterlimit:4;stroke-opacity:0.0373832;stroke-dasharray:none;filter:url(#filter4031)" />
        <path
           d="m 65.065112,72.77879 a 2.3839732,2.3839732 0 0 1 -4.767946,0 2.3839732,2.3839732 0 1 1 4.767946,0 z"
           id="path3987"
           style="opacity:0.78481003;fill:#ffffff;fill-opacity:1;stroke:#ffffff;stroke-width:0.4495258;stroke-miterlimit:4;stroke-opacity:0.51869202;stroke-dasharray:none" />
        <path
           d="m 75.962481,64.80323 a 1.4984193,1.4984193 0 1 1 -2.996837,0 1.4984193,1.4984193 0 1 1 2.996837,0 z"
           id="path3991"
           style="fill:#ffffff;fill-opacity:1;stroke:#ffffff;stroke-width:0.2247629;stroke-miterlimit:4;stroke-opacity:0.51869202;stroke-dasharray:none" />
        <path
           d="m 78.397417,74.58978 a 1.8261986,1.8261986 0 0 1 -3.652397,0 1.8261986,1.8261986 0 1 1 3.652397,0 z"
           id="path3993"
           style="opacity:0.36286902;fill:#ffffff;fill-opacity:1;stroke:#ffffff;stroke-width:0.2247629;stroke-miterlimit:4;stroke-opacity:0.51869202;stroke-dasharray:none" />
        <path
           d="m 87.762533,59.37146 a 0.93651202,0.93651202 0 1 1 -1.873022,0 0.93651202,0.93651202 0 1 1 1.873022,0 z"
           id="path3999"
           style="opacity:0.88607597;fill:#ffffff;fill-opacity:1;stroke:#ffffff;stroke-width:0.2247629;stroke-miterlimit:4;stroke-opacity:0.51869202;stroke-dasharray:none" />
        <path
           d="m 1153.3333,198.33333 a 46.666668,46.666668 0 1 1 -93.3333,0 46.666668,46.666668 0 1 1 93.3333,0 z"
           transform="matrix(0.05619072,0,0,0.05619072,15.93206,42.88885)"
           id="path4003"
           style="fill:#ffffff;fill-opacity:1;stroke:#ffffff;stroke-width:4;stroke-miterlimit:4;stroke-opacity:0.14486;stroke-dasharray:none;filter:url(#filter4059)" />
        <path
           d="m 67.065637,83.15887 a 2.715885,2.715885 0 0 1 -5.43177,0 2.715885,2.715885 0 1 1 5.43177,0 z"
           id="path4009"
           style="opacity:0.24472602;fill:#ffffff;fill-opacity:1;stroke:#ffffff;stroke-width:0.2247629;stroke-miterlimit:4;stroke-opacity:0.0373832;stroke-dasharray:none" />
        <path
           d="m 90.478416,48.4611 a 1.2642912,1.2642912 0 0 1 -2.528582,0 1.2642912,1.2642912 0 1 1 2.528582,0 z"
           id="path4013"
           style="opacity:0.13080199;fill:#ffffff;fill-opacity:1;stroke:#ffffff;stroke-width:0.2247629;stroke-miterlimit:4;stroke-opacity:0.0373832;stroke-dasharray:none" />
        <path
           d="m 728.33333,747.5 a 45.833332,45.833332 0 1 1 -91.66666,0 45.833332,45.833332 0 1 1 91.66666,0 z"
           transform="matrix(0.05619072,0,0,0.05619072,15.93206,42.88885)"
           id="path4015"
           style="opacity:0.82700399;fill:#ffffff;fill-opacity:1;stroke:#ffffff;stroke-width:4;stroke-miterlimit:4;stroke-opacity:0.0373832;stroke-dasharray:none;filter:url(#filter4017)" />
        <path
           d="m 881.52647,445.96091 a 80.138775,80.138775 0 1 1 -160.27755,0 80.138775,80.138775 0 1 1 160.27755,0 z"
           transform="matrix(0.05619072,0,0,0.05619072,-0.80386,39.60698)"
           id="path3763-0"
           style="fill:#fafafa;fill-opacity:1;stroke:#a9ff07;stroke-width:0pt;stroke-miterlimit:4;stroke-opacity:1;stroke-dasharray:none;filter:url(#filter3767-0)" />
        <path
           d="m 881.52647,445.96091 a 80.138775,80.138775 0 1 1 -160.27755,0 80.138775,80.138775 0 1 1 160.27755,0 z"
           transform="matrix(0.05619072,0,0,0.05619072,42.252812,68.85744)"
           id="path3763-4"
           style="fill:#fafafa;fill-opacity:1;stroke:#a9ff07;stroke-width:0pt;stroke-miterlimit:4;stroke-opacity:1;stroke-dasharray:none;filter:url(#filter3946)" />
        <path
           d="m 881.52647,445.96091 a 80.138775,80.138775 0 1 1 -160.27755,0 80.138775,80.138775 0 1 1 160.27755,0 z"
           transform="matrix(0.05619072,0,0,0.05619072,44.826852,47.0951)"
           id="path3763-9"
           style="opacity:0.54266214;fill:#fafafa;fill-opacity:1;stroke:#a9ff07;stroke-width:0pt;stroke-miterlimit:4;stroke-opacity:1;stroke-dasharray:none;filter:url(#filter3767-49)" />
        <path
           d="m 45.350382,67.9419 a 0.88968752,0.88968752 0 0 1 -1.779375,0 0.88968752,0.88968752 0 1 1 1.779375,0 z"
           id="path4021-4"
           style="opacity:0.99578091;fill:#ffffff;fill-opacity:1;stroke:#ffffff;stroke-width:0.2247629;stroke-miterlimit:4;stroke-opacity:0.0373832;stroke-dasharray:none" />
        <path
           d="m 51.668481,63.49583 a 0.88968752,0.88968752 0 0 1 -1.779375,0 0.88968752,0.88968752 0 1 1 1.779375,0 z"
           id="path4021-8"
           style="opacity:0.99578091;fill:#ffffff;fill-opacity:1;stroke:#ffffff;stroke-width:0.2247629;stroke-miterlimit:4;stroke-opacity:0.0373832;stroke-dasharray:none;filter:url(#filter4018)" />
      </g>
      <text
         x="28"
         y="32"
         id="text5352"
         xml:space="preserve"
         style="font-size:24px;font-style:normal;font-weight:normal;fill:#000000;fill-opacity:1;stroke:none;font-family:Sans;-inkscape-font-specification:Sans"><tspan
           x="28"
           y="32"
           id="tspan5354">XCF</tspan></text>
    </g>
  </g>
</svg>
