<?xml version="1.0" encoding="UTF-8" standalone="no"?>
<!-- Created with Inkscape (http://www.inkscape.org/) -->

<svg
   xmlns:svg="http://www.w3.org/2000/svg"
   xmlns="http://www.w3.org/2000/svg"
   xmlns:xlink="http://www.w3.org/1999/xlink"
   version="1.1"
   width="128"
   height="128"
   id="svg2816">
  <defs
     id="defs2818">
    <linearGradient
       id="linearGradient3652">
      <stop
         id="stop3654"
         style="stop-color:#000000;stop-opacity:0.21531101"
         offset="0" />
      <stop
         id="stop3656"
         style="stop-color:#ffffff;stop-opacity:1"
         offset="1" />
    </linearGradient>
    <linearGradient
       id="linearGradient3636">
      <stop
         id="stop3638"
         style="stop-color:#af3439;stop-opacity:1"
         offset="0" />
      <stop
         id="stop3644"
         style="stop-color:#912b2f;stop-opacity:1"
         offset="0.5" />
      <stop
         id="stop3640"
         style="stop-color:#6d2023;stop-opacity:1"
         offset="1" />
    </linearGradient>
    <linearGradient
       id="linearGradient3758">
      <stop
         id="stop3760"
         style="stop-color:#333333;stop-opacity:1"
         offset="0" />
      <stop
         id="stop3762"
         style="stop-color:#333333;stop-opacity:0"
         offset="1" />
    </linearGradient>
    <linearGradient
       id="linearGradient3736">
      <stop
         id="stop3738"
         style="stop-color:#ffffff;stop-opacity:0"
         offset="0" />
      <stop
         id="stop3740"
         style="stop-color:#333333;stop-opacity:0.72791517"
         offset="1" />
    </linearGradient>
    <linearGradient
       id="linearGradient3708">
      <stop
         id="stop3712"
         style="stop-color:#ffffff;stop-opacity:0"
         offset="0" />
      <stop
         id="stop3714"
         style="stop-color:#333333;stop-opacity:1"
         offset="1" />
    </linearGradient>
    <linearGradient
       id="linearGradient3694">
      <stop
         id="stop3696"
         style="stop-color:#ffffff;stop-opacity:1"
         offset="0" />
      <stop
         id="stop3700"
         style="stop-color:#ffffff;stop-opacity:0.67464113"
         offset="0.5" />
      <stop
         id="stop3698"
         style="stop-color:#ffffff;stop-opacity:0"
         offset="1" />
    </linearGradient>
    <linearGradient
       id="linearGradient3649">
      <stop
         id="stop3651"
         style="stop-color:#c9c9c9;stop-opacity:1"
         offset="0" />
      <stop
         id="stop3653"
         style="stop-color:#f0f0f0;stop-opacity:1"
         offset="1" />
    </linearGradient>
    <linearGradient
       id="linearGradient3631">
      <stop
         id="stop3633"
         style="stop-color:#dddddd;stop-opacity:0.62190813"
         offset="0" />
      <stop
         id="stop3635"
         style="stop-color:#ffffff;stop-opacity:1"
         offset="1" />
    </linearGradient>
    <linearGradient
       x1="102"
       y1="14"
       x2="92"
       y2="24"
       id="linearGradient3637"
       xlink:href="#linearGradient3649"
       gradientUnits="userSpaceOnUse"
       gradientTransform="matrix(1.4444444,0,0,1.4444444,-48.888889,294.33333)" />
    <filter
       color-interpolation-filters="sRGB"
       id="filter3676">
      <feGaussianBlur
         id="feGaussianBlur3678"
         stdDeviation="0.36000001" />
    </filter>
    <filter
       color-interpolation-filters="sRGB"
       id="filter3610">
      <feGaussianBlur
         id="feGaussianBlur3612"
         stdDeviation="1.56" />
    </filter>
    <linearGradient
       x1="56.65461"
       y1="5.5"
       x2="56.65461"
       y2="122.50977"
       id="linearGradient3692"
       xlink:href="#linearGradient3694"
       gradientUnits="userSpaceOnUse"
       gradientTransform="matrix(0.98252641,0,0,0.9921278,0.77111153,297.96672)" />
    <filter
       color-interpolation-filters="sRGB"
       id="filter3702">
      <feGaussianBlur
         id="feGaussianBlur3704"
         stdDeviation="0.51369811" />
    </filter>
    <linearGradient
       x1="64"
       y1="122.5"
       x2="64"
       y2="93.860451"
       id="linearGradient3748"
       xlink:href="#linearGradient3758"
       gradientUnits="userSpaceOnUse" />
    <linearGradient
       x1="56.65461"
       y1="5.5"
       x2="56.65461"
       y2="122.50977"
       id="linearGradient3776"
       xlink:href="#linearGradient3694"
       gradientUnits="userSpaceOnUse"
       gradientTransform="matrix(0.98252641,0,0,0.9921278,0.77111153,297.96672)" />
    <filter
       color-interpolation-filters="sRGB"
       id="filter3778">
      <feGaussianBlur
         id="feGaussianBlur3780"
         stdDeviation="0.51837461" />
    </filter>
    <filter
       color-interpolation-filters="sRGB"
       id="filter3782">
      <feGaussianBlur
         id="feGaussianBlur3784"
         stdDeviation="1.0410113" />
    </filter>
    <linearGradient
       x1="64"
       y1="122"
       x2="64"
       y2="76.36528"
       id="linearGradient3794"
       xlink:href="#linearGradient3631"
       gradientUnits="userSpaceOnUse" />
    <linearGradient
       x1="56.65461"
       y1="5.5"
       x2="56.65461"
       y2="122.50977"
       id="linearGradient3805"
       xlink:href="#linearGradient3694"
       gradientUnits="userSpaceOnUse"
       gradientTransform="matrix(0.98252641,0,0,0.9921278,0.77111153,297.96672)" />
    <linearGradient
       x1="56.65461"
       y1="5.5"
       x2="56.65461"
       y2="122.50977"
       id="linearGradient3807"
       xlink:href="#linearGradient3694"
       gradientUnits="userSpaceOnUse"
       gradientTransform="matrix(0.98252641,0,0,0.9921278,0.77111153,297.96672)" />
    <linearGradient
       x1="102"
       y1="14"
       x2="92"
       y2="24"
       id="linearGradient3809"
       xlink:href="#linearGradient3649"
       gradientUnits="userSpaceOnUse"
       gradientTransform="matrix(1.4444444,0,0,1.4444444,-48.888889,294.33333)" />
    <linearGradient
       x1="64"
       y1="122.5"
       x2="64"
       y2="93.860451"
       id="linearGradient3811"
       xlink:href="#linearGradient3758"
       gradientUnits="userSpaceOnUse" />
    <linearGradient
       x1="62"
       y1="413"
       x2="62"
       y2="419"
       id="linearGradient2876"
       xlink:href="#linearGradient3636"
       gradientUnits="userSpaceOnUse" />
    <linearGradient
       x1="102"
       y1="14"
       x2="92"
       y2="24"
       id="linearGradient2880"
       xlink:href="#linearGradient3649"
       gradientUnits="userSpaceOnUse"
       gradientTransform="matrix(1.4444444,0,0,1.4444444,-48.888889,294.33333)" />
    <filter
       color-interpolation-filters="sRGB"
       id="filter3728">
      <feGaussianBlur
         id="feGaussianBlur3730"
         stdDeviation="0.57810125" />
    </filter>
    <linearGradient
       x1="4183.8623"
       y1="1205.8981"
       x2="4183.8623"
       y2="1761.5571"
       id="linearGradient3779"
       xlink:href="#linearGradient5898"
       gradientUnits="userSpaceOnUse" />
    <linearGradient
       x1="0"
       y1="0"
       x2="1"
       y2="0"
       id="linearGradient5898"
       gradientUnits="userSpaceOnUse"
       gradientTransform="matrix(10.5791,-85.7772,-85.7772,-10.5791,439.434,174.092)"
       spreadMethod="pad">
      <stop
         id="stop5900"
         style="stop-color:#ffa013;stop-opacity:1"
         offset="0" />
      <stop
         id="stop5906"
         style="stop-color:#df790f;stop-opacity:1"
         offset="1" />
    </linearGradient>
    <linearGradient
       x1="4183.8623"
       y1="1205.8981"
       x2="4183.8623"
       y2="1761.5571"
       id="linearGradient3820"
       xlink:href="#linearGradient5898"
       gradientUnits="userSpaceOnUse" />
    <linearGradient
       x1="0"
       y1="0"
       x2="1"
       y2="0"
       id="linearGradient3822"
       gradientUnits="userSpaceOnUse"
       gradientTransform="matrix(10.5791,-85.7772,-85.7772,-10.5791,439.434,174.092)"
       spreadMethod="pad">
      <stop
         id="stop3824"
         style="stop-color:#ffa013;stop-opacity:1"
         offset="0" />
      <stop
         id="stop3826"
         style="stop-color:#df790f;stop-opacity:1"
         offset="1" />
    </linearGradient>
    <clipPath
       id="clipPath5852">
      <path
         d="M 0,5864.7 0,0 l 5684.71,0 0,5864.7 -5684.71,0 z"
         id="path5854" />
    </clipPath>
    <linearGradient
       x1="4183.8623"
       y1="1205.8981"
       x2="4183.8623"
       y2="1761.5571"
       id="linearGradient3830"
       xlink:href="#linearGradient5898"
       gradientUnits="userSpaceOnUse" />
    <linearGradient
       x1="0"
       y1="0"
       x2="1"
       y2="0"
       id="linearGradient3832"
       gradientUnits="userSpaceOnUse"
       gradientTransform="matrix(10.5791,-85.7772,-85.7772,-10.5791,439.434,174.092)"
       spreadMethod="pad">
      <stop
         id="stop3834"
         style="stop-color:#ffa013;stop-opacity:1"
         offset="0" />
      <stop
         id="stop3836"
         style="stop-color:#df790f;stop-opacity:1"
         offset="1" />
    </linearGradient>
    <clipPath
       id="clipPath5862">
      <path
         d="m 4431.55,1200.01 -430.84,0 c -19.65,0 -35.65,15.99 -35.65,35.64 l 0,154.88 10.16,-154.88 c 0,-14.06 11.43,-25.49 25.49,-25.49 l 430.84,0 c 14.05,0 25.5,11.43 25.5,25.49 l 10.15,192.28 0,-192.28 c 0,-19.65 -15.99,-35.64 -35.65,-35.64 l 0,0 z"
         id="path5864" />
    </clipPath>
    <linearGradient
       x1="0"
       y1="0"
       x2="1"
       y2="0"
       id="linearGradient5866"
       gradientUnits="userSpaceOnUse"
       gradientTransform="matrix(0.729111,25.7167,25.7167,-0.729111,420.759,101.192)"
       spreadMethod="pad">
      <stop
         id="stop5868"
         style="stop-color:#ffffff;stop-opacity:1"
         offset="0" />
      <stop
         id="stop5870"
         style="stop-color:#656263;stop-opacity:1"
         offset="1" />
    </linearGradient>
    <clipPath
       id="clipPath5878">
      <path
         d="m 3965.06,1592.42 0,138.69 c 0,19.65 16,35.65 35.65,35.65 l 430.84,0 c 19.66,0 35.65,-16 35.65,-35.65 l 0,-116.27 -10.15,116.27 c 0,14.06 -11.45,25.49 -25.5,25.49 l -430.84,0 c -14.06,0 -25.49,-11.43 -25.49,-25.49 l -10.16,-138.69 z"
         id="path5880" />
    </clipPath>
    <linearGradient
       x1="0"
       y1="0"
       x2="1"
       y2="0"
       id="linearGradient5882"
       gradientUnits="userSpaceOnUse"
       gradientTransform="matrix(-0.272657,-20.9259,-20.9259,0.272657,421.888,188.443)"
       spreadMethod="pad">
      <stop
         id="stop5884"
         style="stop-color:#ffffff;stop-opacity:1"
         offset="0" />
      <stop
         id="stop5886-4"
         style="stop-color:#656263;stop-opacity:1"
         offset="1" />
    </linearGradient>
    <linearGradient
       x1="4453.2725"
       y1="1189.0599"
       x2="4453.2725"
       y2="1610.0137"
       id="linearGradient3771"
       xlink:href="#radialGradient3781"
       gradientUnits="userSpaceOnUse" />
    <radialGradient
       cx="0"
       cy="0"
       r="1"
       fx="0"
       fy="0"
       id="radialGradient3781"
       gradientUnits="userSpaceOnUse"
       gradientTransform="matrix(33.4266,0,0,-3.86273,422.873,119.494)"
       spreadMethod="pad">
      <stop
         id="stop3783"
         style="stop-color:#5b595a;stop-opacity:1"
         offset="0" />
      <stop
         id="stop3785"
         style="stop-color:#8a8a8a;stop-opacity:1"
         offset="1" />
    </radialGradient>
    <linearGradient
       x1="4453.2725"
       y1="1189.0599"
       x2="4453.2725"
       y2="1610.0137"
       id="linearGradient3852"
       xlink:href="#radialGradient3781"
       gradientUnits="userSpaceOnUse" />
    <radialGradient
       cx="0"
       cy="0"
       r="1"
       fx="0"
       fy="0"
       id="radialGradient3854"
       gradientUnits="userSpaceOnUse"
       gradientTransform="matrix(33.4266,0,0,-3.86273,422.873,119.494)"
       spreadMethod="pad">
      <stop
         id="stop3856"
         style="stop-color:#5b595a;stop-opacity:1"
         offset="0" />
      <stop
         id="stop3858"
         style="stop-color:#8a8a8a;stop-opacity:1"
         offset="1" />
    </radialGradient>
    <clipPath
       id="clipPath5894">
      <path
         d="m 4537.05,1306.94 c -29.45,11.04 -44.37,43.83 -33.33,73.28 11.03,29.44 43.82,44.36 73.28,33.32 29.45,-11.03 44.36,-43.84 33.34,-73.27 -11.04,-29.44 -43.83,-44.36 -73.29,-33.33 z m -163.01,-78.84 c -29.45,11.04 -44.37,43.84 -33.33,73.29 11.03,29.45 43.84,44.37 73.29,33.33 29.44,-11.03 44.36,-43.82 33.33,-73.29 -11.04,-29.44 -43.84,-44.36 -73.29,-33.33 z m 73.46,169.96 c -2.35,-6.29 -9.37,-9.49 -15.67,-7.12 -6.29,2.36 -9.48,9.37 -7.13,15.67 2.37,6.3 9.39,9.49 15.68,7.13 6.29,-2.37 9.49,-9.38 7.12,-15.68 z m 50.67,178.49 c 29.45,-11.03 44.37,-43.84 33.34,-73.29 -11.04,-29.44 -43.85,-44.37 -73.29,-33.33 -29.46,11.03 -44.38,43.83 -33.34,73.29 11.03,29.44 43.84,44.37 73.29,33.33 z m -202.95,-185.44 c -29.46,11.04 -44.38,43.85 -33.35,73.27 11.04,29.46 43.84,44.37 73.29,33.33 29.45,-11.03 44.38,-43.83 33.34,-73.28 -11.03,-29.43 -43.84,-44.35 -73.28,-33.32 z m 213.77,205.73 c -107.43,40.26 -227.16,-14.2 -267.41,-121.61 -40.26,-107.45 14.2,-227.17 121.64,-267.42 107.44,-40.25 227.16,14.2 267.41,121.63 40.26,107.45 -14.19,227.15 -121.64,267.4 z"
         id="path5896" />
    </clipPath>
    <linearGradient
       x1="4453.2725"
       y1="1189.0599"
       x2="4453.2725"
       y2="1610.0137"
       id="linearGradient3862"
       xlink:href="#radialGradient3781"
       gradientUnits="userSpaceOnUse" />
    <radialGradient
       cx="0"
       cy="0"
       r="1"
       fx="0"
       fy="0"
       id="radialGradient3864"
       gradientUnits="userSpaceOnUse"
       gradientTransform="matrix(33.4266,0,0,-3.86273,422.873,119.494)"
       spreadMethod="pad">
      <stop
         id="stop3866"
         style="stop-color:#5b595a;stop-opacity:1"
         offset="0" />
      <stop
         id="stop3868"
         style="stop-color:#8a8a8a;stop-opacity:1"
         offset="1" />
    </radialGradient>
    <clipPath
       id="clipPath5934">
      <path
         d="m 4503.65,1582.59 c -22.11,7.15 -44.49,12.24 -67.52,12.29 -106.58,0.25 -173.17,-87.28 -173.17,-87.28 36.71,60.09 103.06,97.44 173.17,97.44 24.26,0 48.17,-4.36 71.08,-12.95 45.7,-17.12 83.63,-50.05 106.83,-92.73 0,0 -36.51,59.32 -110.39,83.23 z"
         id="path5936" />
    </clipPath>
    <linearGradient
       x1="0"
       y1="0"
       x2="1"
       y2="0"
       id="linearGradient5938"
       gradientUnits="userSpaceOnUse"
       gradientTransform="matrix(3.43169,-61.4746,-61.4746,-3.43169,442.953,166.428)"
       spreadMethod="pad">
      <stop
         id="stop5940"
         style="stop-color:#ffffff;stop-opacity:1"
         offset="0" />
      <stop
         id="stop5942"
         style="stop-color:#a36fbe;stop-opacity:1"
         offset="0.35757601" />
      <stop
         id="stop5944"
         style="stop-color:#a36fbe;stop-opacity:1"
         offset="0.35757601" />
      <stop
         id="stop5946"
         style="stop-color:#8b6e9f;stop-opacity:1"
         offset="1" />
    </linearGradient>
    <linearGradient
       x1="4183.8623"
       y1="1205.8981"
       x2="4183.8623"
       y2="1761.5571"
       id="linearGradient3893"
       xlink:href="#linearGradient5898"
       gradientUnits="userSpaceOnUse" />
    <linearGradient
       x1="4183.8623"
       y1="1205.8981"
       x2="4183.8623"
       y2="1761.5571"
       id="linearGradient3895"
       xlink:href="#linearGradient5898"
       gradientUnits="userSpaceOnUse" />
    <linearGradient
       x1="4453.2725"
       y1="1189.0599"
       x2="4453.2725"
       y2="1610.0137"
       id="linearGradient3897"
       xlink:href="#radialGradient3781"
       gradientUnits="userSpaceOnUse" />
    <linearGradient
       x1="4453.2725"
       y1="1189.0599"
       x2="4453.2725"
       y2="1610.0137"
       id="linearGradient3899"
       xlink:href="#radialGradient3781"
       gradientUnits="userSpaceOnUse" />
  </defs>
  <g
     transform="translate(0,-297)"
     id="layer1">
    <path
       d="m 18,419 74,0 c 18,0 18,-18 18,-18 l 0,-72 c 0,0 -26,-26 -26,-26 l -48,0 c 0,0 -18,0 -18,18 l 0,98 z"
       id="path2832"
       style="opacity:0.9;fill:#000000;fill-opacity:1;stroke:none;filter:url(#filter3610)" />
    <path
       d="m 18,419 74,0 c 18,0 18,-18 18,-18 l 0,-72 c 0,0 -26,-26 -26,-26 l -48,0 c 0,0 -18,0 -18,18 l 0,98 z"
       id="path3627"
       style="fill:#e6e6e6;fill-opacity:1;stroke:none" />
    <path
       d="m 18.456586,419.00634 72.706957,0 c 17.685467,0 17.685467,-17.8583 17.685467,-17.8583 l 0.70844,-71.4332 c 0,0 -26.254119,-25.79532 -26.254119,-25.79532 l -49.050441,-0.2319 c 0,0 -16.504743,0.4638 -16.504743,18.3221 l 0.708439,96.99662 z"
       transform="matrix(0.98017447,0,0,0.99812248,1.4934147,0.7943904)"
       id="path3684"
       style="opacity:0.9;fill:none;stroke:url(#linearGradient3805);stroke-width:0.98750001;stroke-linecap:butt;stroke-linejoin:miter;stroke-miterlimit:4;stroke-opacity:1;stroke-dasharray:none;filter:url(#filter3778)" />
    <path
       d="m 18.456586,419.00634 72.706957,0 c 17.685467,0 17.685467,-17.8583 17.685467,-17.8583 l 0.70844,-71.4332 c 0,0 -26.254119,-25.79532 -26.254119,-25.79532 l -49.050441,-0.2319 c 0,0 -16.504743,0.4638 -16.504743,18.3221 l 0.708439,96.99662 z"
       transform="matrix(0.98017447,0,0,0.99812248,1.4934147,0.7943904)"
       id="path3766"
       style="fill:none;stroke:url(#linearGradient3807);stroke-width:0.98750001;stroke-linecap:butt;stroke-linejoin:miter;stroke-miterlimit:4;stroke-opacity:1;stroke-dasharray:none;filter:url(#filter3702)" />
    <path
       d="M 92.000003,6.0000025 92,24 l 18,3e-6"
       transform="matrix(1.4444444,0,0,1.4444444,-48.888889,294.33333)"
       id="path3639"
       style="opacity:0.6;fill:none;stroke:#333333;stroke-width:1px;stroke-linecap:butt;stroke-linejoin:miter;stroke-opacity:1;filter:url(#filter3676)" />
    <path
       d="m 84,303 0,26 26,0 -26,-26 z"
       id="path3629"
       style="fill:url(#linearGradient2880);fill-opacity:1;stroke:none" />
    <path
       d="m 18,122 74,0 c 18,0 18,-18 18,-18 l 0,-72 C 110,32 84,6 84,6 L 36,6 C 36,6 18,6 18,24 l 0,98 z"
       transform="matrix(0.97617501,0,0,0.99219838,1.5247995,297.03637)"
       id="path3726"
       style="opacity:0.4;fill:none;stroke:url(#linearGradient3811);stroke-width:1px;stroke-linecap:butt;stroke-linejoin:miter;stroke-opacity:1;filter:url(#filter3782)" />
    <path
       d="m 18,122 c 0,-6 18,-6 18,-6 l 56,0 c 16.37975,-0.46293 17.38879,-17.305605 17.38879,-17.305605"
       transform="translate(0,297)"
       id="path3722"
       style="opacity:0.8;fill:none;stroke:#333333;stroke-width:1px;stroke-linecap:butt;stroke-linejoin:miter;stroke-opacity:1;filter:url(#filter3728)" />
    <path
       d="m 18,419 74,0 c 18,0 18,-18 18,-18 0,0 0,-16 0,-16 0,0 0,28 -18,28 l -56,0 c 0,0 -18,0 -18,6 z"
       id="path3822"
       style="fill:url(#linearGradient2876);fill-opacity:1;stroke:none" />
    <g
       id="g3787">
      <g
         transform="matrix(0.11877787,0,0,-0.11877787,-444.95024,546.234)"
         id="g5848"
         style="fill:url(#linearGradient3779);fill-opacity:1">
        <g
           clip-path="url(#clipPath5852)"
           id="g5850"
           style="fill:url(#linearGradient3895);fill-opacity:1">
          <path
             d="m 4435.26,1684.95 -49.34,0 0,49.32 49.34,0 0,-49.32 z m 0,-90.59 -49.34,0 0,49.33 49.34,0 0,-49.33 z m 0,-90.56 -49.34,0 0,49.32 49.34,0 0,-49.32 z m 0,-90.59 -49.34,0 0,49.33 49.34,0 0,-49.33 z m 0,-90.57 -49.34,0 0,49.32 49.34,0 0,-49.32 z m 0,-90.58 -49.34,0 0,49.32 49.34,0 0,-49.32 z m -386.93,452.89 -49.31,0 0,49.32 49.31,0 0,-49.32 z m 0,-90.59 -49.31,0 0,49.33 49.31,0 0,-49.33 z m 0,-90.56 -49.31,0 0,49.32 49.31,0 0,-49.32 z m 0,-90.59 -49.31,0 0,49.33 49.31,0 0,-49.33 z m 0,-90.57 -49.31,0 0,49.32 49.31,0 0,-49.32 z m 0,-90.58 -49.31,0 0,49.32 49.31,0 0,-49.32 z m 383.22,539.77 -430.84,0 c -22.49,0 -40.72,-18.23 -40.72,-40.72 l 0,-495.46 c 0,-22.49 18.23,-40.72 40.72,-40.72 l 430.84,0 c 22.48,0 40.72,18.23 40.72,40.72 l 0,495.46 c 0,22.49 -18.24,40.72 -40.72,40.72"
             id="path5856"
             style="fill:url(#linearGradient3893);fill-opacity:1;fill-rule:nonzero;stroke:none" />
        </g>
      </g>
      <g
         transform="matrix(0.11877787,0,0,-0.11877787,-444.95024,546.234)"
         id="g5858">
        <g
           clip-path="url(#clipPath5862)"
           id="g5860">
          <path
             d="m 4431.55,1200.01 -430.84,0 c -19.65,0 -35.65,15.99 -35.65,35.64 l 0,154.88 10.16,-154.88 c 0,-14.06 11.43,-25.49 25.49,-25.49 l 430.84,0 c 14.05,0 25.5,11.43 25.5,25.49 l 10.15,192.28 0,-192.28 c 0,-19.65 -15.99,-35.64 -35.65,-35.64 l 0,0"
             id="path5872"
             style="fill:url(#linearGradient5866);fill-opacity:1;fill-rule:nonzero;stroke:none" />
        </g>
      </g>
      <g
         transform="matrix(0.11877787,0,0,-0.11877787,-444.95024,546.234)"
         id="g5874">
        <g
           clip-path="url(#clipPath5878)"
           id="g5876">
          <path
             d="m 3965.06,1592.42 0,138.69 c 0,19.65 16,35.65 35.65,35.65 l 430.84,0 c 19.66,0 35.65,-16 35.65,-35.65 l 0,-116.27 -10.15,116.27 c 0,14.06 -11.45,25.49 -25.5,25.49 l -430.84,0 c -14.06,0 -25.49,-11.43 -25.49,-25.49 l -10.16,-138.69"
             id="path5888"
             style="fill:url(#linearGradient5882);fill-opacity:1;fill-rule:nonzero;stroke:none" />
        </g>
      </g>
      <g
         transform="matrix(0.11877787,0,0,-0.11877787,-446.95024,548.234)"
         id="g5890"
         style="fill:url(#linearGradient3771);fill-opacity:1">
        <g
           clip-path="url(#clipPath5894)"
           id="g5892"
           style="fill:url(#linearGradient3899);fill-opacity:1">
          <path
             d="m 4537.05,1306.94 c -29.45,11.04 -44.37,43.83 -33.33,73.28 11.03,29.44 43.82,44.36 73.28,33.32 29.45,-11.03 44.36,-43.84 33.34,-73.27 -11.04,-29.44 -43.83,-44.36 -73.29,-33.33 z m -163.01,-78.84 c -29.45,11.04 -44.37,43.84 -33.33,73.29 11.03,29.45 43.84,44.37 73.29,33.33 29.44,-11.03 44.36,-43.82 33.33,-73.29 -11.04,-29.44 -43.84,-44.36 -73.29,-33.33 z m 73.46,169.96 c -2.35,-6.29 -9.37,-9.49 -15.67,-7.12 -6.29,2.36 -9.48,9.37 -7.13,15.67 2.37,6.3 9.39,9.49 15.68,7.13 6.29,-2.37 9.49,-9.38 7.12,-15.68 z m 50.67,178.49 c 29.45,-11.03 44.37,-43.84 33.34,-73.29 -11.04,-29.44 -43.85,-44.37 -73.29,-33.33 -29.46,11.03 -44.38,43.83 -33.34,73.29 11.03,29.44 43.84,44.37 73.29,33.33 z m -202.95,-185.44 c -29.46,11.04 -44.38,43.85 -33.35,73.27 11.04,29.46 43.84,44.37 73.29,33.33 29.45,-11.03 44.38,-43.83 33.34,-73.28 -11.03,-29.43 -43.84,-44.35 -73.28,-33.32 z m 213.77,205.73 c -107.43,40.26 -227.16,-14.2 -267.41,-121.61 -40.26,-107.45 14.2,-227.17 121.64,-267.42 107.44,-40.25 227.16,14.2 267.41,121.63 40.26,107.45 -14.19,227.15 -121.64,267.4"
             id="path5908"
             style="fill:url(#linearGradient3897);fill-opacity:1;fill-rule:nonzero;stroke:none" />
        </g>
      </g>
      <g
         transform="matrix(0.11877787,0,0,-0.11877787,-446.95024,548.234)"
         id="g5930">
        <g
           clip-path="url(#clipPath5934)"
           id="g5932">
          <path
             d="m 4503.65,1582.59 c -22.11,7.15 -44.49,12.24 -67.52,12.29 -106.58,0.25 -173.17,-87.28 -173.17,-87.28 36.71,60.09 103.06,97.44 173.17,97.44 24.26,0 48.17,-4.36 71.08,-12.95 45.7,-17.12 83.63,-50.05 106.83,-92.73 0,0 -36.51,59.32 -110.39,83.23"
             id="path5948"
             style="fill:url(#linearGradient5938);fill-opacity:1;fill-rule:nonzero;stroke:none" />
        </g>
      </g>
    </g>
  </g>
</svg>
