<?xml version="1.0" encoding="UTF-8" standalone="no"?>
<!-- Created with Inkscape (http://www.inkscape.org/) -->

<svg
   xmlns:svg="http://www.w3.org/2000/svg"
   xmlns="http://www.w3.org/2000/svg"
   xmlns:xlink="http://www.w3.org/1999/xlink"
   version="1.1"
   width="128"
   height="128"
   id="svg2816">
  <defs
     id="defs2818">
    <linearGradient
       id="linearGradient3652">
      <stop
         id="stop3654"
         style="stop-color:#000000;stop-opacity:0.21531101"
         offset="0" />
      <stop
         id="stop3656"
         style="stop-color:#ffffff;stop-opacity:1"
         offset="1" />
    </linearGradient>
    <linearGradient
       id="linearGradient3636">
      <stop
         id="stop3638"
         style="stop-color:#d9d9d9;stop-opacity:1"
         offset="0" />
      <stop
         id="stop3644"
         style="stop-color:#c3c3cf;stop-opacity:1"
         offset="0.5" />
      <stop
         id="stop3640"
         style="stop-color:#999999;stop-opacity:1"
         offset="1" />
    </linearGradient>
    <linearGradient
       id="linearGradient3758">
      <stop
         id="stop3760"
         style="stop-color:#333333;stop-opacity:1"
         offset="0" />
      <stop
         id="stop3762"
         style="stop-color:#333333;stop-opacity:0"
         offset="1" />
    </linearGradient>
    <linearGradient
       id="linearGradient3736">
      <stop
         id="stop3738"
         style="stop-color:#ffffff;stop-opacity:0"
         offset="0" />
      <stop
         id="stop3740"
         style="stop-color:#333333;stop-opacity:0.72791517"
         offset="1" />
    </linearGradient>
    <linearGradient
       id="linearGradient3708">
      <stop
         id="stop3712"
         style="stop-color:#ffffff;stop-opacity:0"
         offset="0" />
      <stop
         id="stop3714"
         style="stop-color:#333333;stop-opacity:1"
         offset="1" />
    </linearGradient>
    <linearGradient
       id="linearGradient3694">
      <stop
         id="stop3696"
         style="stop-color:#ffffff;stop-opacity:1"
         offset="0" />
      <stop
         id="stop3700"
         style="stop-color:#ffffff;stop-opacity:0.67464113"
         offset="0.5" />
      <stop
         id="stop3698"
         style="stop-color:#ffffff;stop-opacity:0"
         offset="1" />
    </linearGradient>
    <linearGradient
       id="linearGradient3649">
      <stop
         id="stop3651"
         style="stop-color:#c9c9c9;stop-opacity:1"
         offset="0" />
      <stop
         id="stop3653"
         style="stop-color:#f0f0f0;stop-opacity:1"
         offset="1" />
    </linearGradient>
    <linearGradient
       id="linearGradient3631">
      <stop
         id="stop3633"
         style="stop-color:#dddddd;stop-opacity:0.62190813"
         offset="0" />
      <stop
         id="stop3635"
         style="stop-color:#ffffff;stop-opacity:1"
         offset="1" />
    </linearGradient>
    <linearGradient
       x1="102"
       y1="14"
       x2="92"
       y2="24"
       id="linearGradient3637"
       xlink:href="#linearGradient3649"
       gradientUnits="userSpaceOnUse"
       gradientTransform="matrix(1.4444444,0,0,1.4444444,-48.888889,294.33333)" />
    <filter
       color-interpolation-filters="sRGB"
       id="filter3676">
      <feGaussianBlur
         id="feGaussianBlur3678"
         stdDeviation="0.36000001" />
    </filter>
    <filter
       color-interpolation-filters="sRGB"
       id="filter3610">
      <feGaussianBlur
         id="feGaussianBlur3612"
         stdDeviation="1.56" />
    </filter>
    <linearGradient
       x1="56.65461"
       y1="5.5"
       x2="56.65461"
       y2="122.50977"
       id="linearGradient3692"
       xlink:href="#linearGradient3694"
       gradientUnits="userSpaceOnUse"
       gradientTransform="matrix(0.98252641,0,0,0.9921278,0.77111153,297.96672)" />
    <filter
       color-interpolation-filters="sRGB"
       id="filter3702">
      <feGaussianBlur
         id="feGaussianBlur3704"
         stdDeviation="0.51369811" />
    </filter>
    <linearGradient
       x1="64"
       y1="122.5"
       x2="64"
       y2="93.860451"
       id="linearGradient3748"
       xlink:href="#linearGradient3758"
       gradientUnits="userSpaceOnUse" />
    <linearGradient
       x1="56.65461"
       y1="5.5"
       x2="56.65461"
       y2="122.50977"
       id="linearGradient3776"
       xlink:href="#linearGradient3694"
       gradientUnits="userSpaceOnUse"
       gradientTransform="matrix(0.98252641,0,0,0.9921278,0.77111153,297.96672)" />
    <filter
       color-interpolation-filters="sRGB"
       id="filter3778">
      <feGaussianBlur
         id="feGaussianBlur3780"
         stdDeviation="0.51837461" />
    </filter>
    <filter
       color-interpolation-filters="sRGB"
       id="filter3782">
      <feGaussianBlur
         id="feGaussianBlur3784"
         stdDeviation="1.0410113" />
    </filter>
    <linearGradient
       x1="64"
       y1="122"
       x2="64"
       y2="76.36528"
       id="linearGradient3794"
       xlink:href="#linearGradient3631"
       gradientUnits="userSpaceOnUse" />
    <linearGradient
       x1="56.65461"
       y1="5.5"
       x2="56.65461"
       y2="122.50977"
       id="linearGradient3805"
       xlink:href="#linearGradient3694"
       gradientUnits="userSpaceOnUse"
       gradientTransform="matrix(0.98252641,0,0,0.9921278,0.77111153,297.96672)" />
    <linearGradient
       x1="56.65461"
       y1="5.5"
       x2="56.65461"
       y2="122.50977"
       id="linearGradient3807"
       xlink:href="#linearGradient3694"
       gradientUnits="userSpaceOnUse"
       gradientTransform="matrix(0.98252641,0,0,0.9921278,0.77111153,297.96672)" />
    <linearGradient
       x1="102"
       y1="14"
       x2="92"
       y2="24"
       id="linearGradient3809"
       xlink:href="#linearGradient3649"
       gradientUnits="userSpaceOnUse"
       gradientTransform="matrix(1.4444444,0,0,1.4444444,-48.888889,294.33333)" />
    <linearGradient
       x1="64"
       y1="122.5"
       x2="64"
       y2="93.860451"
       id="linearGradient3811"
       xlink:href="#linearGradient3758"
       gradientUnits="userSpaceOnUse" />
    <linearGradient
       x1="62"
       y1="413"
       x2="62"
       y2="419"
       id="linearGradient2876"
       xlink:href="#linearGradient3636"
       gradientUnits="userSpaceOnUse" />
    <linearGradient
       x1="102"
       y1="14"
       x2="92"
       y2="24"
       id="linearGradient2880"
       xlink:href="#linearGradient3649"
       gradientUnits="userSpaceOnUse"
       gradientTransform="matrix(1.4444444,0,0,1.4444444,-48.888889,294.33333)" />
    <filter
       color-interpolation-filters="sRGB"
       id="filter3728">
      <feGaussianBlur
         id="feGaussianBlur3730"
         stdDeviation="0.57810125" />
    </filter>
    <clipPath
       id="clipPath3794">
      <path
         d="m -98,6 c -3.324,0 -6,2.676 -6,6 l 0,72 c 0,3.324 2.676,6 6,6 l 72,0 c 3.324,0 6,-2.676 6,-6 l 0,-72 c 0,-3.324 -2.676,-6 -6,-6 l -72,0 z m 46.03125,12.5 c 2.804915,0.267979 4.168695,1.994294 5.65625,4.375 l 2.21875,4.21875 3.5,-2.34375 -6.5625,12.375 -14.0625,0.03125 4.40625,-2.5625 c -1.242015,-3.116045 -2.893578,-6.682146 -4.96875,-9.78125 -1.857877,-2.774583 -4.111923,-5.19971 -5.8125,-6.28125 L -51.96875,18.5 z M -72.3125,20 c 4.13398,0.08768 6.75215,3.937752 8.53125,6.5625 l -5.4375,11.15625 -12,-8.03125 5.8125,-9.09375 C -74.283247,20.148648 -73.266495,19.97977 -72.3125,20 z M -38.34375,36.15625 -32.875,48 c 0.177104,2.984596 -4.345754,7.126059 -7.15625,7.09375 l -4.8125,-0.03125 -5.59375,-11.125 12.09375,-7.78125 z M -78.4375,39.1875 -70.96875,50.8125 -74.75,48.84375 -80.78125,61.75 c -0.850549,2.429145 -0.908893,4.937462 0.0625,7.28125 -6.79777,-9.441049 -12.538331,-14.172415 -8,-23.875 L -87.3125,42.1875 -91.5,39.90625 -78.4375,39.1875 z m 25.65625,13.90625 0.03125,4.46875 13.5625,-0.03125 c 2.422356,-0.273241 4.555757,-1.310685 6.09375,-3.28125 -4.908571,10.685489 -6.315635,18.2454 -16.5,18.25 l -3.15625,0 -0.03125,5 -6.4375,-12.125 6.4375,-12.28125 z m -10.15625,4 -0.09375,15 -12.34375,0 c -2.589165,-1.162418 -4.061887,-7.337428 -2.78125,-10 l 2.1875,-4.53125 13.03125,-0.46875 z"
         id="path3796"
         style="fill:#ff00ff;fill-opacity:1;fill-rule:nonzero;stroke:none" />
    </clipPath>
    <filter
       color-interpolation-filters="sRGB"
       id="filter3798">
      <feGaussianBlur
         stdDeviation="1.7644507"
         id="feGaussianBlur3800" />
    </filter>
    <linearGradient
       x1="62.136082"
       y1="103.95654"
       x2="62.136082"
       y2="24.043467"
       id="linearGradient2873"
       xlink:href="#linearGradient4360"
       gradientUnits="userSpaceOnUse"
       gradientTransform="matrix(0.7525584,0,0,0.8008702,1.2389688,-3.2556953)" />
    <linearGradient
       id="linearGradient4360">
      <stop
         id="stop4362"
         style="stop-color:#4f821e;stop-opacity:1"
         offset="0" />
      <stop
         id="stop4364"
         style="stop-color:#639632;stop-opacity:1"
         offset="1" />
    </linearGradient>
  </defs>
  <g
     transform="translate(0,-297)"
     id="layer1">
    <path
       d="m 18,419 74,0 c 18,0 18,-18 18,-18 l 0,-72 c 0,0 -26,-26 -26,-26 l -48,0 c 0,0 -18,0 -18,18 l 0,98 z"
       id="path2832"
       style="opacity:0.9;fill:#000000;fill-opacity:1;stroke:none;filter:url(#filter3610)" />
    <path
       d="m 18,419 74,0 c 18,0 18,-18 18,-18 l 0,-72 c 0,0 -26,-26 -26,-26 l -48,0 c 0,0 -18,0 -18,18 l 0,98 z"
       id="path3627"
       style="fill:#e6e6e6;fill-opacity:1;stroke:none" />
    <path
       d="m 18.456586,419.00634 72.706957,0 c 17.685467,0 17.685467,-17.8583 17.685467,-17.8583 l 0.70844,-71.4332 c 0,0 -26.254119,-25.79532 -26.254119,-25.79532 l -49.050441,-0.2319 c 0,0 -16.504743,0.4638 -16.504743,18.3221 l 0.708439,96.99662 z"
       transform="matrix(0.98017447,0,0,0.99812248,1.4934147,0.7943904)"
       id="path3684"
       style="opacity:0.9;fill:none;stroke:url(#linearGradient3805);stroke-width:0.98750001;stroke-linecap:butt;stroke-linejoin:miter;stroke-miterlimit:4;stroke-opacity:1;stroke-dasharray:none;filter:url(#filter3778)" />
    <path
       d="m 18.456586,419.00634 72.706957,0 c 17.685467,0 17.685467,-17.8583 17.685467,-17.8583 l 0.70844,-71.4332 c 0,0 -26.254119,-25.79532 -26.254119,-25.79532 l -49.050441,-0.2319 c 0,0 -16.504743,0.4638 -16.504743,18.3221 l 0.708439,96.99662 z"
       transform="matrix(0.98017447,0,0,0.99812248,1.4934147,0.7943904)"
       id="path3766"
       style="fill:none;stroke:url(#linearGradient3807);stroke-width:0.98750001;stroke-linecap:butt;stroke-linejoin:miter;stroke-miterlimit:4;stroke-opacity:1;stroke-dasharray:none;filter:url(#filter3702)" />
    <path
       d="M 92.000003,6.0000025 92,24 l 18,3e-6"
       transform="matrix(1.4444444,0,0,1.4444444,-48.888889,294.33333)"
       id="path3639"
       style="opacity:0.6;fill:none;stroke:#333333;stroke-width:1px;stroke-linecap:butt;stroke-linejoin:miter;stroke-opacity:1;filter:url(#filter3676)" />
    <path
       d="m 84,303 0,26 26,0 -26,-26 z"
       id="path3629"
       style="fill:url(#linearGradient2880);fill-opacity:1;stroke:none" />
    <path
       d="m 18,122 74,0 c 18,0 18,-18 18,-18 l 0,-72 C 110,32 84,6 84,6 L 36,6 C 36,6 18,6 18,24 l 0,98 z"
       transform="matrix(0.97617501,0,0,0.99219838,1.5247995,297.03637)"
       id="path3726"
       style="opacity:0.4;fill:none;stroke:url(#linearGradient3811);stroke-width:1px;stroke-linecap:butt;stroke-linejoin:miter;stroke-opacity:1;filter:url(#filter3782)" />
    <path
       d="m 18,122 c 0,-6 18,-6 18,-6 l 56,0 c 16.37975,-0.46293 17.38879,-17.305605 17.38879,-17.305605"
       transform="translate(0,297)"
       id="path3722"
       style="opacity:0.8;fill:none;stroke:#333333;stroke-width:1px;stroke-linecap:butt;stroke-linejoin:miter;stroke-opacity:1;filter:url(#filter3728)" />
    <path
       d="m 18,419 74,0 c 18,0 18,-18 18,-18 0,0 0,-16 0,-16 0,0 0,28 -18,28 l -56,0 c 0,0 -18,0 -18,6 z"
       id="path3822"
       style="fill:url(#linearGradient2876);fill-opacity:1;stroke:none" />
    <g
       transform="translate(16.184976,326.5)"
       id="g2900"
       style="display:inline">
      <path
         d="m -51.96875,18.5 -15.625,0.03125 c 1.700577,1.08154 3.954623,3.506667 5.8125,6.28125 2.075172,3.099104 3.726735,6.665205 4.96875,9.78125 l -4.40625,2.5625 14.0625,-0.03125 6.5625,-12.375 -3.5,2.34375 -2.21875,-4.21875 c -1.487555,-2.380706 -2.851335,-4.107021 -5.65625,-4.375 z M -72.3125,20 c -0.953995,-0.02023 -1.970747,0.148648 -3.09375,0.59375 l -5.8125,9.09375 12,8.03125 5.4375,-11.15625 C -65.56035,23.937752 -68.17852,20.087682 -72.3125,20 z m 33.96875,16.15625 -12.09375,7.78125 5.59375,11.125 4.8125,0.03125 C -37.220754,55.126059 -32.697896,50.984596 -32.875,48 L -38.34375,36.15625 z M -78.4375,39.1875 -91.5,39.90625 l 4.1875,2.28125 -1.40625,2.96875 c -4.538331,9.702585 1.20223,14.433951 8,23.875 -0.971393,-2.343788 -0.913049,-4.852105 -0.0625,-7.28125 l 6.03125,-12.90625 3.78125,1.96875 -7.46875,-11.625 z m 25.65625,13.90625 -6.4375,12.28125 6.4375,12.125 0.03125,-5 3.15625,0 c 10.184365,-0.0046 11.591429,-7.564511 16.5,-18.25 -1.537993,1.970565 -3.671394,3.008009 -6.09375,3.28125 L -52.75,57.5625 -52.78125,53.09375 z m -10.15625,4 -13.03125,0.46875 -2.1875,4.53125 c -1.280637,2.662572 0.192085,8.837582 2.78125,10 l 12.34375,0 0.09375,-15 z"
         transform="translate(110,0)"
         clip-path="url(#clipPath3794)"
         id="path3787"
         style="opacity:0.6;fill:none;stroke:#ffffff;stroke-width:2;stroke-miterlimit:4;stroke-dasharray:none;display:inline;filter:url(#filter3798)" />
      <path
         d="m 58.03125,18.5 -15.625,0.03125 c 1.700577,1.08154 3.954623,3.506667 5.8125,6.28125 2.075172,3.099104 3.726735,6.665205 4.96875,9.78125 l -4.40625,2.5625 14.0625,-0.03125 6.5625,-12.375 -3.5,2.34375 L 63.6875,22.875 C 62.199945,20.494294 60.836165,18.767979 58.03125,18.5 z M 38.6875,19 c -0.953995,-0.02023 -1.970747,0.148648 -3.09375,0.59375 l -6.8125,10.09375 12,8.03125 6.4375,-12.15625 C 45.43965,22.937752 42.82148,19.087682 38.6875,19 z m 32.96875,17.15625 -12.09375,7.78125 5.59375,12.125 4.8125,0.03125 C 72.779246,56.126059 77.302104,51.984596 77.125,49 L 71.65625,36.15625 z M 31.5625,39.1875 18.5,39.90625 l 4.1875,2.28125 -1.40625,2.96875 c -4.538331,9.702585 1.20223,14.433951 8,23.875 C 28.309857,66.687462 28.368201,64.179145 29.21875,61.75 L 35.25,48.84375 39.03125,50.8125 31.5625,39.1875 z m 25.65625,13.90625 -6.4375,12.28125 6.4375,12.125 0.03125,-5 3.15625,0 c 10.184365,-0.0046 11.591429,-7.564511 16.5,-18.25 -1.537993,1.970565 -3.671394,3.008009 -6.09375,3.28125 L 57.25,57.5625 57.21875,53.09375 z m -10.15625,4 -14.03125,0.46875 -2.1875,4.53125 c -1.280637,2.662572 0.192085,8.837582 2.78125,10 l 13.34375,0 0.09375,-15 z"
         id="path4068"
         style="fill:url(#linearGradient2873);fill-opacity:1;stroke:none;display:inline" />
      <path
         d="m 58.03125,18.5 -15.625,0.03125 c 0.399588,0.254132 0.832866,0.610402 1.28125,1 L 58.03125,19.5 c 2.804915,0.267979 4.168695,1.994294 5.65625,4.375 l 2.21875,4.21875 2.6875,-1.78125 0.8125,-1.5625 -3.5,2.34375 L 63.6875,22.875 C 62.199945,20.494294 60.836165,18.767979 58.03125,18.5 z M 38.6875,19 c -0.953995,-0.02023 -1.970747,0.148648 -3.09375,0.59375 L 28.78125,29.6875 29.25,30 35.59375,20.59375 C 36.716753,20.148648 37.733505,19.97977 38.6875,20 c 3.912973,0.08299 6.448013,3.530057 8.21875,6.125 l 0.3125,-0.5625 C 45.43965,22.937752 42.82148,19.087682 38.6875,19 z m 14.15625,15.78125 -4.0625,2.375 1.71875,0 2.6875,-1.5625 c -0.105124,-0.263741 -0.23275,-0.542867 -0.34375,-0.8125 z m 18.8125,1.375 -12.09375,7.78125 0.34375,0.78125 11.75,-7.5625 5.375,12.65625 C 77.085458,49.532219 77.140767,49.265704 77.125,49 L 71.65625,36.15625 z M 31.5625,39.1875 18.5,39.90625 l 1.65625,0.90625 11.40625,-0.625 6.5,10.125 0.96875,0.5 -7.46875,-11.625 z m -9.25,3.78125 -1.03125,2.1875 c -1.233225,2.636535 -1.693481,4.903369 -1.59375,7 0.07138,-1.81787 0.553716,-3.776491 1.59375,-6 l 1.40625,-2.96875 -0.375,-0.21875 z m 34.90625,10.125 -6.4375,12.28125 0.25,0.5 6.1875,-11.78125 0,-1 z M 76.90625,54.25 c -1.537993,1.970565 -3.671394,3.008009 -6.09375,3.28125 L 57.25,57.5625 l 0,1 13.5625,-0.03125 c 2.001468,-0.225765 3.815924,-0.979281 5.25,-2.34375 0.284207,-0.646539 0.534873,-1.265105 0.84375,-1.9375 z m -29.84375,2.84375 -14.03125,0.46875 -2.1875,4.53125 c -0.375885,0.781503 -0.49463,1.860118 -0.4375,3.03125 0.04406,-0.774246 0.173067,-1.481467 0.4375,-2.03125 l 2.1875,-4.53125 14.03125,-0.46875 0,-1 z M 28.59375,65.75 c -0.05822,0.870644 0.0111,1.739121 0.1875,2.59375 0.172251,0.235369 0.326213,0.446137 0.5,0.6875 -0.443737,-1.070653 -0.650873,-2.165162 -0.6875,-3.28125 z"
         id="path3802"
         style="opacity:0.3;fill:#000000;fill-opacity:1;stroke:none;display:inline" />
      <path
         d="m 42.40625,19.53125 c 1.700577,1.08154 3.954623,3.506667 5.8125,6.28125 1.89953,2.836797 3.424556,6.052723 4.625,8.96875 l 0.34375,-0.1875 C 51.945485,31.477705 50.293922,27.911604 48.21875,24.8125 46.797422,22.689866 45.147361,20.799714 43.6875,19.53125 l -1.28125,0 z m 27,6.21875 -0.8125,0.5625 -5.75,10.8125 -12.34375,0.03125 -1.71875,1 14.0625,-0.03125 6.5625,-12.375 z m -22.5,0.375 -6.125,11.59375 L 29.25,30 l -0.46875,0.6875 12,8.03125 6.4375,-12.15625 c -0.09511,-0.140322 -0.212488,-0.290936 -0.3125,-0.4375 z m -26.75,14.6875 -1.65625,0.09375 3.8125,2.0625 0.375,-0.78125 -2.53125,-1.375 z m 39.75,3.90625 -0.34375,0.21875 5.59375,12.125 4.8125,0.03125 C 72.779246,57.126059 77.302104,52.984596 77.125,50 l -0.09375,-0.1875 c -0.554697,2.868048 -4.502209,6.310683 -7.0625,6.28125 l -4.8125,-0.03125 -5.25,-11.34375 z M 35.25,48.84375 29.21875,61.75 c -0.462014,1.3195 -0.668554,2.672838 -0.625,4 0.06698,-1.00162 0.277724,-2.008189 0.625,-3 L 35.25,49.84375 39.03125,51.8125 38.0625,50.3125 35.25,48.84375 z m -15.5625,3.3125 c -0.240092,6.114655 4.353802,10.597525 9.59375,17.875 -0.230024,-0.555004 -0.382304,-1.117281 -0.5,-1.6875 C 24.046681,61.8743 19.945401,57.578076 19.6875,52.15625 z M 76.90625,55.25 C 76.639021,55.592389 76.364071,55.900566 76.0625,56.1875 71.830187,65.815549 69.949753,72.495689 60.40625,72.5 l -3.15625,0 0,1 3.15625,0 c 10.184365,-0.0046 11.591429,-7.564511 16.5,-18.25 z m -46.5,9.875 c -0.169312,2.975387 1.164211,7.046355 3.21875,7.96875 l 13.34375,0 0,-1 -13.34375,0 C 31.795792,71.272518 30.543761,67.943904 30.40625,65.125 z m 20.625,0.75 -0.25,0.5 6.4375,12.125 0,-1 -6.1875,-11.625 z"
         id="path3811"
         style="opacity:0.6;fill:#ffffff;fill-opacity:1;stroke:none;display:inline" />
    </g>
  </g>
</svg>
