<?xml version="1.0" encoding="UTF-8" standalone="no"?>
<!-- Created with Inkscape (http://www.inkscape.org/) -->

<svg
   xmlns:svg="http://www.w3.org/2000/svg"
   xmlns="http://www.w3.org/2000/svg"
   xmlns:xlink="http://www.w3.org/1999/xlink"
   version="1.1"
   width="128"
   height="128"
   id="svg2816">
  <defs
     id="defs2818">
    <linearGradient
       id="linearGradient3652">
      <stop
         id="stop3654"
         style="stop-color:#000000;stop-opacity:0.21531101"
         offset="0" />
      <stop
         id="stop3656"
         style="stop-color:#ffffff;stop-opacity:1"
         offset="1" />
    </linearGradient>
    <linearGradient
       id="linearGradient3636">
      <stop
         id="stop3638"
         style="stop-color:#af3439;stop-opacity:1"
         offset="0" />
      <stop
         id="stop3644"
         style="stop-color:#912b2f;stop-opacity:1"
         offset="0.5" />
      <stop
         id="stop3640"
         style="stop-color:#6d2023;stop-opacity:1"
         offset="1" />
    </linearGradient>
    <linearGradient
       id="linearGradient3758">
      <stop
         id="stop3760"
         style="stop-color:#333333;stop-opacity:1"
         offset="0" />
      <stop
         id="stop3762"
         style="stop-color:#333333;stop-opacity:0"
         offset="1" />
    </linearGradient>
    <linearGradient
       id="linearGradient3736">
      <stop
         id="stop3738"
         style="stop-color:#ffffff;stop-opacity:0"
         offset="0" />
      <stop
         id="stop3740"
         style="stop-color:#333333;stop-opacity:0.72791517"
         offset="1" />
    </linearGradient>
    <linearGradient
       id="linearGradient3708">
      <stop
         id="stop3712"
         style="stop-color:#ffffff;stop-opacity:0"
         offset="0" />
      <stop
         id="stop3714"
         style="stop-color:#333333;stop-opacity:1"
         offset="1" />
    </linearGradient>
    <linearGradient
       id="linearGradient3694">
      <stop
         id="stop3696"
         style="stop-color:#ffffff;stop-opacity:1"
         offset="0" />
      <stop
         id="stop3700"
         style="stop-color:#ffffff;stop-opacity:0.67464113"
         offset="0.5" />
      <stop
         id="stop3698"
         style="stop-color:#ffffff;stop-opacity:0"
         offset="1" />
    </linearGradient>
    <linearGradient
       id="linearGradient3649">
      <stop
         id="stop3651"
         style="stop-color:#c9c9c9;stop-opacity:1"
         offset="0" />
      <stop
         id="stop3653"
         style="stop-color:#f0f0f0;stop-opacity:1"
         offset="1" />
    </linearGradient>
    <linearGradient
       id="linearGradient3631">
      <stop
         id="stop3633"
         style="stop-color:#dddddd;stop-opacity:0.62190813"
         offset="0" />
      <stop
         id="stop3635"
         style="stop-color:#ffffff;stop-opacity:1"
         offset="1" />
    </linearGradient>
    <linearGradient
       x1="102"
       y1="14"
       x2="92"
       y2="24"
       id="linearGradient3637"
       xlink:href="#linearGradient3649"
       gradientUnits="userSpaceOnUse"
       gradientTransform="matrix(1.4444444,0,0,1.4444444,-48.888889,294.33333)" />
    <filter
       color-interpolation-filters="sRGB"
       id="filter3676">
      <feGaussianBlur
         id="feGaussianBlur3678"
         stdDeviation="0.36000001" />
    </filter>
    <filter
       color-interpolation-filters="sRGB"
       id="filter3610">
      <feGaussianBlur
         id="feGaussianBlur3612"
         stdDeviation="1.56" />
    </filter>
    <linearGradient
       x1="56.65461"
       y1="5.5"
       x2="56.65461"
       y2="122.50977"
       id="linearGradient3692"
       xlink:href="#linearGradient3694"
       gradientUnits="userSpaceOnUse"
       gradientTransform="matrix(0.98252641,0,0,0.9921278,0.77111153,297.96672)" />
    <filter
       color-interpolation-filters="sRGB"
       id="filter3702">
      <feGaussianBlur
         id="feGaussianBlur3704"
         stdDeviation="0.51369811" />
    </filter>
    <linearGradient
       x1="64"
       y1="122.5"
       x2="64"
       y2="93.860451"
       id="linearGradient3748"
       xlink:href="#linearGradient3758"
       gradientUnits="userSpaceOnUse" />
    <linearGradient
       x1="56.65461"
       y1="5.5"
       x2="56.65461"
       y2="122.50977"
       id="linearGradient3776"
       xlink:href="#linearGradient3694"
       gradientUnits="userSpaceOnUse"
       gradientTransform="matrix(0.98252641,0,0,0.9921278,0.77111153,297.96672)" />
    <filter
       color-interpolation-filters="sRGB"
       id="filter3778">
      <feGaussianBlur
         id="feGaussianBlur3780"
         stdDeviation="0.51837461" />
    </filter>
    <filter
       color-interpolation-filters="sRGB"
       id="filter3782">
      <feGaussianBlur
         id="feGaussianBlur3784"
         stdDeviation="1.0410113" />
    </filter>
    <linearGradient
       x1="64"
       y1="122"
       x2="64"
       y2="76.36528"
       id="linearGradient3794"
       xlink:href="#linearGradient3631"
       gradientUnits="userSpaceOnUse" />
    <linearGradient
       x1="56.65461"
       y1="5.5"
       x2="56.65461"
       y2="122.50977"
       id="linearGradient3805"
       xlink:href="#linearGradient3694"
       gradientUnits="userSpaceOnUse"
       gradientTransform="matrix(0.98252641,0,0,0.9921278,0.77111153,297.96672)" />
    <linearGradient
       x1="56.65461"
       y1="5.5"
       x2="56.65461"
       y2="122.50977"
       id="linearGradient3807"
       xlink:href="#linearGradient3694"
       gradientUnits="userSpaceOnUse"
       gradientTransform="matrix(0.98252641,0,0,0.9921278,0.77111153,297.96672)" />
    <linearGradient
       x1="102"
       y1="14"
       x2="92"
       y2="24"
       id="linearGradient3809"
       xlink:href="#linearGradient3649"
       gradientUnits="userSpaceOnUse"
       gradientTransform="matrix(1.4444444,0,0,1.4444444,-48.888889,294.33333)" />
    <linearGradient
       x1="64"
       y1="122.5"
       x2="64"
       y2="93.860451"
       id="linearGradient3811"
       xlink:href="#linearGradient3758"
       gradientUnits="userSpaceOnUse" />
    <linearGradient
       x1="62"
       y1="413"
       x2="62"
       y2="419"
       id="linearGradient2876"
       xlink:href="#linearGradient3636"
       gradientUnits="userSpaceOnUse" />
    <linearGradient
       x1="102"
       y1="14"
       x2="92"
       y2="24"
       id="linearGradient2880"
       xlink:href="#linearGradient3649"
       gradientUnits="userSpaceOnUse"
       gradientTransform="matrix(1.4444444,0,0,1.4444444,-48.888889,294.33333)" />
    <filter
       color-interpolation-filters="sRGB"
       id="filter3728">
      <feGaussianBlur
         id="feGaussianBlur3730"
         stdDeviation="0.57810125" />
    </filter>
    <linearGradient
       x1="-253.91658"
       y1="-47.862404"
       x2="-132.57481"
       y2="-47.862404"
       id="linearGradient2883"
       xlink:href="#SVGID_4_"
       gradientUnits="userSpaceOnUse"
       gradientTransform="matrix(0,0.68401839,-0.68401839,0,15.261235,165.68361)" />
    <linearGradient
       x1="211.5"
       y1="-150"
       x2="211.5"
       y2="-262.00049"
       id="SVGID_4_"
       gradientUnits="userSpaceOnUse"
       gradientTransform="matrix(1,0,0,-1,-147.5,-142)">
      <stop
         id="stop32"
         style="stop-color:#e1a075;stop-opacity:1"
         offset="0" />
      <stop
         id="stop34"
         style="stop-color:#81422a;stop-opacity:1"
         offset="0.76340002" />
    </linearGradient>
  </defs>
  <g
     transform="translate(0,-297)"
     id="layer1">
    <path
       d="m 18,419 74,0 c 18,0 18,-18 18,-18 l 0,-72 c 0,0 -26,-26 -26,-26 l -48,0 c 0,0 -18,0 -18,18 l 0,98 z"
       id="path2832"
       style="opacity:0.9;fill:#000000;fill-opacity:1;stroke:none;filter:url(#filter3610)" />
    <path
       d="m 18,419 74,0 c 18,0 18,-18 18,-18 l 0,-72 c 0,0 -26,-26 -26,-26 l -48,0 c 0,0 -18,0 -18,18 l 0,98 z"
       id="path3627"
       style="fill:#e6e6e6;fill-opacity:1;stroke:none" />
    <path
       d="m 18.456586,419.00634 72.706957,0 c 17.685467,0 17.685467,-17.8583 17.685467,-17.8583 l 0.70844,-71.4332 c 0,0 -26.254119,-25.79532 -26.254119,-25.79532 l -49.050441,-0.2319 c 0,0 -16.504743,0.4638 -16.504743,18.3221 l 0.708439,96.99662 z"
       transform="matrix(0.98017447,0,0,0.99812248,1.4934147,0.7943904)"
       id="path3684"
       style="opacity:0.9;fill:none;stroke:url(#linearGradient3805);stroke-width:0.98750001;stroke-linecap:butt;stroke-linejoin:miter;stroke-miterlimit:4;stroke-opacity:1;stroke-dasharray:none;filter:url(#filter3778)" />
    <path
       d="m 18.456586,419.00634 72.706957,0 c 17.685467,0 17.685467,-17.8583 17.685467,-17.8583 l 0.70844,-71.4332 c 0,0 -26.254119,-25.79532 -26.254119,-25.79532 l -49.050441,-0.2319 c 0,0 -16.504743,0.4638 -16.504743,18.3221 l 0.708439,96.99662 z"
       transform="matrix(0.98017447,0,0,0.99812248,1.4934147,0.7943904)"
       id="path3766"
       style="fill:none;stroke:url(#linearGradient3807);stroke-width:0.98750001;stroke-linecap:butt;stroke-linejoin:miter;stroke-miterlimit:4;stroke-opacity:1;stroke-dasharray:none;filter:url(#filter3702)" />
    <path
       d="M 92.000003,6.0000025 92,24 l 18,3e-6"
       transform="matrix(1.4444444,0,0,1.4444444,-48.888889,294.33333)"
       id="path3639"
       style="opacity:0.6;fill:none;stroke:#333333;stroke-width:1px;stroke-linecap:butt;stroke-linejoin:miter;stroke-opacity:1;filter:url(#filter3676)" />
    <path
       d="m 84,303 0,26 26,0 -26,-26 z"
       id="path3629"
       style="fill:url(#linearGradient2880);fill-opacity:1;stroke:none" />
    <path
       d="m 18,122 74,0 c 18,0 18,-18 18,-18 l 0,-72 C 110,32 84,6 84,6 L 36,6 C 36,6 18,6 18,24 l 0,98 z"
       transform="matrix(0.97617501,0,0,0.99219838,1.5247995,297.03637)"
       id="path3726"
       style="opacity:0.4;fill:none;stroke:url(#linearGradient3811);stroke-width:1px;stroke-linecap:butt;stroke-linejoin:miter;stroke-opacity:1;filter:url(#filter3782)" />
    <path
       d="m 18,122 c 0,-6 18,-6 18,-6 l 56,0 c 16.37975,-0.46293 17.38879,-17.305605 17.38879,-17.305605"
       transform="translate(0,297)"
       id="path3722"
       style="opacity:0.8;fill:none;stroke:#333333;stroke-width:1px;stroke-linecap:butt;stroke-linejoin:miter;stroke-opacity:1;filter:url(#filter3728)" />
    <path
       d="m 18,419 74,0 c 18,0 18,-18 18,-18 0,0 0,-16 0,-16 0,0 0,28 -18,28 l -56,0 c 0,0 -18,0 -18,6 z"
       id="path3822"
       style="fill:url(#linearGradient2876);fill-opacity:1;stroke:none" />
    <g
       transform="matrix(1.1636364,0,0,1.1636364,8.143925,318.16932)"
       id="g2888"
       style="display:inline">
      <path
         d="m 77.998546,63.059472 c 0.08467,-6.161624 -3.523335,-13.483261 -12.26958,-18.511248 -10.116631,-5.87093 -17.763102,-0.812271 -17.763102,-0.812271 0,0 8.510043,-1.858479 11.820692,4.10411 3.309966,5.963956 0.604502,9.467669 -0.705393,11.735191 -4.385926,7.597391 -0.189302,12.039236 3.355965,14.086503 3.545268,2.047267 10.049598,2.479567 13.851372,-4.104111 1.069056,-1.852041 1.676916,-4.087105 1.710046,-6.498174 z M 65.493836,26.207981 c 0,-4.09385 -2.892543,-9.939642 -10.495408,-9.939642 -7.603548,0 -16.399683,7.596024 -16.37369,21.632082 -0.02599,11.696713 8.186845,15.796549 8.186845,15.796549 0,0 -5.860327,-6.421223 -2.351313,-12.26958 3.509014,-5.848357 7.897676,-5.279766 10.516783,-5.279766 8.772535,0 10.516783,-5.845793 10.516783,-9.939643 z m -9.362502,23.662762 c 0,0 -2.6504,8.299707 -9.46938,8.186844 -6.820348,-0.114914 -8.502178,-4.209962 -9.811389,-6.476799 -4.385926,-7.598076 -10.32748,-6.193444 -13.872748,-4.146861 -3.545267,2.046583 -7.157739,7.480083 -3.355965,14.065127 3.799723,6.583678 14.79053,10.396568 26.933224,3.355966 10.142625,-5.824416 9.576258,-14.984277 9.576258,-14.984277 z"
         id="path3884"
         style="fill:url(#linearGradient2883);fill-opacity:1" />
      <path
         d="m 55,16.28125 c -7.603548,0 -16.400993,7.588942 -16.375,21.625 -0.02599,11.696713 8.1875,15.78125 8.1875,15.78125 0,0 -5.852764,-6.401643 -2.34375,-12.25 3.509014,-5.848357 7.880893,-5.28125 10.5,-5.28125 8.772535,0 10.53125,-5.84365 10.53125,-9.9375 0,-4.09385 -2.897135,-9.9375 -10.5,-9.9375 z m 0,2 c 3.292575,0 5.26871,1.157919 6.59375,2.71875 1.32504,1.560831 1.90625,3.640343 1.90625,5.21875 0,1.76251 -0.378829,3.801464 -1.53125,5.28125 -1.152421,1.479786 -3.054743,2.65625 -7,2.65625 -1.166202,0 -3.24298,-0.162844 -5.53125,0.5625 -2.28827,0.725344 -4.699945,2.426991 -6.65625,5.6875 -0.706578,1.177629 -1.04376,2.382856 -1.21875,3.5625 -0.562652,-1.688043 -0.942832,-3.662923 -0.9375,-6.0625 -0.02445,-13.204826 8.093005,-19.625 14.375,-19.625 z m 0.65625,23.4375 c -4.710058,0.0487 -7.6875,2.03125 -7.6875,2.03125 0,0 8.501851,-1.868839 11.8125,4.09375 3.309966,5.963956 0.622395,9.451228 -0.6875,11.71875 -4.385926,7.597391 -0.201517,12.046483 3.34375,14.09375 3.545268,2.047267 10.041976,2.489928 13.84375,-4.09375 1.069056,-1.852041 1.68562,-4.088931 1.71875,-6.5 0.08467,-6.161624 -3.535005,-13.472013 -12.28125,-18.5 -3.793737,-2.201599 -7.236465,-2.872968 -10.0625,-2.84375 z m 3.5,2.40625 c 1.707248,0.364632 3.536746,0.980655 5.5625,2.15625 8.230365,4.731421 11.354938,11.387584 11.28125,16.75 -0.02871,2.089439 -0.549307,3.992537 -1.4375,5.53125 -1.646248,2.850871 -3.646581,3.983017 -5.65625,4.34375 -2.009669,0.360733 -4.097407,-0.176848 -5.46875,-0.96875 -1.526114,-0.881277 -3.106337,-2.260628 -3.8125,-4 -0.706163,-1.739372 -0.784799,-3.958544 1.1875,-7.375 0.581245,-1.006177 1.761537,-2.689739 2.28125,-5.03125 0.519713,-2.341511 0.282874,-5.331222 -1.5625,-8.65625 -0.643008,-1.158078 -1.479433,-2.021098 -2.375,-2.75 z M 28.6875,45.8125 C 26.550051,45.762 24.519805,46.54212 22.96875,47.4375 19.423483,49.484083 15.823226,54.914956 19.625,61.5 23.424723,68.083678 34.419806,71.884352 46.5625,64.84375 56.705125,59.019334 56.125,49.875 56.125,49.875 c 0,0 -2.64977,8.300363 -9.46875,8.1875 -6.820348,-0.114914 -8.503289,-4.201913 -9.8125,-6.46875 -2.467083,-4.273918 -5.408102,-5.716323 -8.15625,-5.78125 z m -0.0625,1.96875 c 0.233445,0.0041 0.456541,0.03054 0.6875,0.0625 1.842958,0.255059 3.837794,1.329065 5.8125,4.75 0.580398,1.004931 1.449828,2.875678 3.21875,4.5 1.768922,1.624322 4.477273,2.904658 8.28125,2.96875 1.348443,0.02232 2.530478,-0.293757 3.625,-0.71875 -1.17083,1.302311 -2.649411,2.610875 -4.6875,3.78125 -11.424285,6.624052 -21.082774,2.808622 -24.21875,-2.625 -1.646941,-2.852663 -1.624192,-5.134804 -0.9375,-7.0625 0.686692,-1.927696 2.196545,-3.492723 3.5625,-4.28125 1.343287,-0.775442 3.022137,-1.403653 4.65625,-1.375 z"
         id="path3915"
         style="opacity:0.1;fill:#000000;fill-opacity:1" />
      <path
         d="m 55,16.28125 c -7.603548,0 -16.400993,7.588942 -16.375,21.625 -2.66e-4,0.119782 -0.0014,0.225558 0,0.34375 C 38.868241,24.631405 47.51519,17.28125 55,17.28125 c 7.25543,0 10.212842,5.299319 10.46875,9.34375 C 65.47245,26.491102 65.5,26.34933 65.5,26.21875 65.5,22.1249 62.602865,16.28125 55,16.28125 z m 0.65625,25.4375 c -4.710058,0.0487 -7.6875,2.03125 -7.6875,2.03125 0,0 1.191397,-0.265677 2.84375,-0.28125 0.01154,-1.09e-4 0.01967,8.5e-5 0.03125,0 3.11874,-0.978947 8.503292,-1.603909 14.875,2.09375 C 74.199256,50.437721 77.863231,57.460329 78,63.5 c 0.0061,-0.143999 -0.002,-0.292177 0,-0.4375 0.08467,-6.161624 -3.535005,-13.472013 -12.28125,-18.5 -3.793737,-2.201599 -7.236465,-2.872968 -10.0625,-2.84375 z M 28.6875,45.8125 c -2.137449,-0.0505 -4.167695,0.72962 -5.71875,1.625 -2.589368,1.494769 -5.191309,4.793945 -4.9375,9.03125 0.170826,-3.758355 2.55401,-6.655328 4.9375,-8.03125 3.545268,-2.046583 9.489074,-3.441826 13.875,4.15625 1.309211,2.266837 2.992152,6.353836 9.8125,6.46875 6.588777,0.109053 9.262919,-7.57069 9.4375,-8.09375 C 56.13987,50.328058 56.125,49.875 56.125,49.875 c 0,0 -2.64977,8.300363 -9.46875,8.1875 -6.820348,-0.114914 -8.503289,-4.201913 -9.8125,-6.46875 -2.467083,-4.273918 -5.408102,-5.716323 -8.15625,-5.78125 z m 14.6875,0.25 c -0.130495,2.685805 1.037951,5.141358 2.0625,6.75 0.8148,0.609638 1.375,0.875 1.375,0.875 0,0 -3.154724,-3.462439 -3.4375,-7.625 z m 17.96875,7.8125 c -0.190104,2.514705 -1.464115,4.327077 -2.25,5.6875 -1.475309,2.55556 -1.990432,4.754559 -1.875,6.625 0.08934,-1.64315 0.653168,-3.508518 1.875,-5.625 0.887976,-1.53715 2.388086,-3.63285 2.25,-6.6875 z"
         id="path3893"
         style="opacity:0.3;fill:#000000;fill-opacity:1" />
      <path
         d="m 55,16.28125 c -7.603548,0 -16.400993,7.588942 -16.375,21.625 -0.02599,11.696713 8.1875,15.78125 8.1875,15.78125 0,0 -5.852764,-6.401643 -2.34375,-12.25 3.509014,-5.848357 7.880893,-5.28125 10.5,-5.28125 8.772535,0 10.53125,-5.84365 10.53125,-9.9375 0,-4.09385 -2.897135,-9.9375 -10.5,-9.9375 z m 0,1 c 3.549045,0 5.842506,1.294111 7.34375,3.0625 1.501244,1.768389 2.15625,4.060455 2.15625,5.875 0,1.905858 -0.404127,4.178058 -1.75,5.90625 -1.345873,1.728192 -3.613718,3.03125 -7.78125,3.03125 -1.238453,0 -3.146845,-0.15676 -5.21875,0.5 -2.071905,0.65676 -4.270403,2.190256 -6.125,5.28125 -1.732924,2.888208 -1.291844,5.828915 -0.4375,8.21875 -1.829067,-2.349886 -3.574358,-5.913354 -3.5625,-11.25 -0.02523,-13.623777 8.426927,-20.625 15.375,-20.625 z m 0.65625,24.4375 c -4.710058,0.0487 -7.6875,2.03125 -7.6875,2.03125 0,0 8.501851,-1.868839 11.8125,4.09375 3.309966,5.963956 0.622395,9.451228 -0.6875,11.71875 -4.385926,7.597391 -0.201517,12.046483 3.34375,14.09375 3.545268,2.047267 10.041976,2.489928 13.84375,-4.09375 1.069056,-1.852041 1.68562,-4.088931 1.71875,-6.5 0.08467,-6.161624 -3.535005,-13.472013 -12.28125,-18.5 -3.793737,-2.201599 -7.236465,-2.872968 -10.0625,-2.84375 z m 0,1 c 2.661772,-0.02752 5.91734,0.572124 9.5625,2.6875 C 73.709125,50.287144 77.079223,57.297274 77,63.0625 c -0.03094,2.251544 -0.58315,4.303366 -1.5625,6 -1.774589,3.073124 -4.065499,4.403557 -6.34375,4.8125 -2.278251,0.408943 -4.582652,-0.153802 -6.15625,-1.0625 -1.650363,-0.953027 -3.394216,-2.469065 -4.21875,-4.5 -0.824534,-2.030935 -0.864766,-4.640891 1.21875,-8.25 0.618392,-1.070481 1.717094,-2.630637 2.1875,-4.75 0.470406,-2.119363 0.280665,-4.785373 -1.46875,-7.9375 -1.626749,-2.929829 -4.381944,-4.00825 -6.875,-4.46875 0.611119,-0.08164 1.173923,-0.180252 1.875,-0.1875 z M 28.6875,45.8125 C 26.550051,45.762 24.519805,46.54212 22.96875,47.4375 19.423483,49.484083 15.823226,54.914956 19.625,61.5 23.424723,68.083678 34.419806,71.884352 46.5625,64.84375 56.705125,59.019334 56.125,49.875 56.125,49.875 c 0,0 -2.64977,8.300363 -9.46875,8.1875 -6.820348,-0.114914 -8.503289,-4.201913 -9.8125,-6.46875 -2.467083,-4.273918 -5.408102,-5.716323 -8.15625,-5.78125 z m -0.03125,0.96875 c 0.270026,0.0054 0.541906,0.02505 0.8125,0.0625 2.162416,0.299271 4.44654,1.638497 6.53125,5.25 0.617799,1.06969 1.429656,2.810578 3.03125,4.28125 1.601594,1.470672 3.988254,2.626752 7.59375,2.6875 3.377022,0.05589 5.726179,-1.834623 7.375,-3.78125 -1.117888,2.755918 -3.309647,6.061199 -7.9375,8.71875 -11.786371,6.833998 -22.123238,3.013263 -25.59375,-3 -1.774933,-3.074357 -1.778074,-5.722024 -1,-7.90625 0.778074,-2.184226 2.429074,-3.905649 4,-4.8125 1.448004,-0.835892 3.297319,-1.538005 5.1875,-1.5 z"
         id="path3911"
         style="opacity:0.15;fill:#000000;fill-opacity:1" />
      <path
         d="m 65.46875,26.625 c -0.112926,4.063984 -2.007279,9.53125 -10.5,9.53125 -2.619107,0 -6.990986,-0.567107 -10.5,5.28125 -0.929023,1.548371 -1.195574,3.126113 -1.09375,4.625 0.05823,-1.198355 0.366939,-2.413648 1.09375,-3.625 3.509014,-5.848357 7.880893,-5.28125 10.5,-5.28125 8.772535,0 10.53125,-5.84365 10.53125,-9.9375 0,-0.18708 -0.019,-0.400077 -0.03125,-0.59375 z M 38.625,38.25 c -0.0039,0.216044 -4.06e-4,0.437061 0,0.65625 -0.02599,11.696713 8.1875,15.78125 8.1875,15.78125 0,0 -0.649657,-0.736141 -1.375,-1.875 C 43.135747,51.090314 38.72809,46.686758 38.625,38.25 z m 12.1875,5.21875 C 48.99816,44.042219 47.96875,44.75 47.96875,44.75 c 0,0 8.501851,-1.868839 11.8125,4.09375 1.034364,1.863736 1.476859,3.485675 1.5625,4.90625 0.09967,-1.650424 -0.271271,-3.579691 -1.5625,-5.90625 -2.069156,-3.726618 -6.153348,-4.395421 -8.9375,-4.375 -0.01158,8.5e-5 -0.01971,-1.09e-4 -0.03125,0 z M 56.125,50.875 c 0,0 -0.02515,0.07547 -0.03125,0.09375 -0.182919,2.54135 -1.430804,9.223308 -9.53125,13.875 C 34.419806,71.884352 23.424723,68.083678 19.625,61.5 18.59994,59.724495 18.124947,58.033007 18.03125,56.46875 17.947985,58.300674 18.379166,60.342094 19.625,62.5 23.424723,69.083678 34.419806,72.884352 46.5625,65.84375 56.705125,60.019334 56.125,50.875 56.125,50.875 z M 78,63.5 c -0.09585,2.245102 -0.714129,4.322087 -1.71875,6.0625 -3.801774,6.583678 -10.298482,6.141017 -13.84375,4.09375 -2.352734,-1.358621 -4.991015,-3.778582 -5.21875,-7.46875 -0.231348,4.255152 2.661124,6.991811 5.21875,8.46875 3.545268,2.047267 10.041976,2.489928 13.84375,-4.09375 1.069056,-1.852041 1.68562,-4.088931 1.71875,-6.5 0.0026,-0.18721 0.0043,-0.373245 0,-0.5625 z"
         id="path3902"
         style="opacity:0.8;fill:#ffffff;fill-opacity:1" />
    </g>
  </g>
</svg>
