<?xml version="1.0" encoding="UTF-8" standalone="no"?>
<!-- Created with Inkscape (http://www.inkscape.org/) -->

<svg
   xmlns:svg="http://www.w3.org/2000/svg"
   xmlns="http://www.w3.org/2000/svg"
   xmlns:xlink="http://www.w3.org/1999/xlink"
   version="1.1"
   width="128"
   height="128"
   id="svg3722">
  <defs
     id="defs3724">
    <filter
       color-interpolation-filters="sRGB"
       id="filter3610">
      <feGaussianBlur
         id="feGaussianBlur3612"
         stdDeviation="1.56" />
    </filter>
    <linearGradient
       x1="18"
       y1="361"
       x2="110"
       y2="361"
       id="linearGradient3720"
       xlink:href="#linearGradient5884"
       gradientUnits="userSpaceOnUse" />
    <linearGradient
       id="linearGradient5884">
      <stop
         id="stop5886"
         style="stop-color:#778aa6;stop-opacity:1"
         offset="0" />
      <stop
         id="stop5888"
         style="stop-color:#a0afc5;stop-opacity:1"
         offset="1" />
    </linearGradient>
    <linearGradient
       x1="56.65461"
       y1="5.5"
       x2="56.65461"
       y2="122.50977"
       id="linearGradient3805"
       xlink:href="#linearGradient3694"
       gradientUnits="userSpaceOnUse"
       gradientTransform="matrix(0.98252641,0,0,0.9921278,0.77111153,297.96672)" />
    <linearGradient
       id="linearGradient3694">
      <stop
         id="stop3696"
         style="stop-color:#ffffff;stop-opacity:1"
         offset="0" />
      <stop
         id="stop3700"
         style="stop-color:#ffffff;stop-opacity:0.67464113"
         offset="0.5" />
      <stop
         id="stop3698"
         style="stop-color:#ffffff;stop-opacity:0"
         offset="1" />
    </linearGradient>
    <filter
       color-interpolation-filters="sRGB"
       id="filter3778">
      <feGaussianBlur
         id="feGaussianBlur3780"
         stdDeviation="0.51837461" />
    </filter>
    <linearGradient
       x1="56.65461"
       y1="5.5"
       x2="56.65461"
       y2="122.50977"
       id="linearGradient3807"
       xlink:href="#linearGradient3694"
       gradientUnits="userSpaceOnUse"
       gradientTransform="matrix(0.98252641,0,0,0.9921278,0.77111153,297.96672)" />
    <linearGradient
       id="linearGradient3836">
      <stop
         id="stop3838"
         style="stop-color:#ffffff;stop-opacity:1"
         offset="0" />
      <stop
         id="stop3840"
         style="stop-color:#ffffff;stop-opacity:0.67464113"
         offset="0.5" />
      <stop
         id="stop3842"
         style="stop-color:#ffffff;stop-opacity:0"
         offset="1" />
    </linearGradient>
    <filter
       color-interpolation-filters="sRGB"
       id="filter3702">
      <feGaussianBlur
         id="feGaussianBlur3704"
         stdDeviation="0.51369811" />
    </filter>
    <filter
       color-interpolation-filters="sRGB"
       id="filter3676">
      <feGaussianBlur
         id="feGaussianBlur3678"
         stdDeviation="0.36000001" />
    </filter>
    <linearGradient
       x1="102"
       y1="14"
       x2="92"
       y2="24"
       id="linearGradient3393"
       xlink:href="#linearGradient3649"
       gradientUnits="userSpaceOnUse"
       gradientTransform="matrix(1.4444444,0,0,1.4444444,-48.888889,294.33333)" />
    <linearGradient
       id="linearGradient3649">
      <stop
         id="stop3651"
         style="stop-color:#c9c9c9;stop-opacity:1"
         offset="0" />
      <stop
         id="stop3653"
         style="stop-color:#f0f0f0;stop-opacity:1"
         offset="1" />
    </linearGradient>
    <linearGradient
       x1="64"
       y1="122.5"
       x2="64"
       y2="93.860451"
       id="linearGradient3811"
       xlink:href="#linearGradient3758"
       gradientUnits="userSpaceOnUse" />
    <linearGradient
       id="linearGradient3758">
      <stop
         id="stop3760"
         style="stop-color:#333333;stop-opacity:1"
         offset="0" />
      <stop
         id="stop3762"
         style="stop-color:#333333;stop-opacity:0"
         offset="1" />
    </linearGradient>
    <filter
       color-interpolation-filters="sRGB"
       id="filter3782">
      <feGaussianBlur
         id="feGaussianBlur3784"
         stdDeviation="1.0410113" />
    </filter>
    <filter
       color-interpolation-filters="sRGB"
       id="filter3728">
      <feGaussianBlur
         id="feGaussianBlur3730"
         stdDeviation="0.57810125" />
    </filter>
    <linearGradient
       x1="62"
       y1="413"
       x2="62"
       y2="419"
       id="linearGradient3388"
       xlink:href="#linearGradient3636"
       gradientUnits="userSpaceOnUse" />
    <linearGradient
       id="linearGradient3636">
      <stop
         id="stop3638"
         style="stop-color:#3988c5;stop-opacity:1"
         offset="0" />
      <stop
         id="stop3644"
         style="stop-color:#347cb4;stop-opacity:1"
         offset="0.5" />
      <stop
         id="stop3640"
         style="stop-color:#2a628d;stop-opacity:1"
         offset="1" />
    </linearGradient>
    <linearGradient
       x1="62"
       y1="413"
       x2="62"
       y2="419"
       id="linearGradient3875"
       xlink:href="#linearGradient3636"
       gradientUnits="userSpaceOnUse" />
    <linearGradient
       x1="18.000002"
       y1="47.999897"
       x2="78.000175"
       y2="47.999897"
       id="linearGradient3921"
       xlink:href="#linearGradient3971"
       gradientUnits="userSpaceOnUse"
       gradientTransform="matrix(0,1,1,0,1.9e-4,-1.9e-4)" />
    <linearGradient
       x1="628"
       y1="667"
       x2="628"
       y2="779"
       id="linearGradient3971"
       gradientUnits="userSpaceOnUse"
       gradientTransform="translate(-564,-664)">
      <stop
         id="stop3973"
         style="stop-color:#4a91d6;stop-opacity:1"
         offset="0" />
      <stop
         id="stop3977"
         style="stop-color:#225c95;stop-opacity:1"
         offset="1" />
    </linearGradient>
  </defs>
  <g
     transform="translate(0,-297)"
     id="layer1">
    <g
       id="g3799">
      <path
         d="m 18,419 74,0 c 18,0 18,-18 18,-18 l 0,-72 c 0,0 -26,-26 -26,-26 l -48,0 c 0,0 -18,0 -18,18 l 0,98 z"
         id="path2832"
         style="opacity:0.9;fill:#000000;fill-opacity:1;stroke:none;filter:url(#filter3610)" />
      <path
         d="m 18,419 74,0 c 18,0 18,-18 18,-18 l 0,-72 c 0,0 -26,-26 -26,-26 l -48,0 c 0,0 -18,0 -18,18 l 0,98 z"
         id="path3627"
         style="fill:#e6e6e6;fill-opacity:1;stroke:url(#linearGradient3720)" />
      <path
         d="m 18.456586,419.00634 72.706957,0 c 17.685467,0 17.685467,-17.8583 17.685467,-17.8583 l 0.70844,-71.4332 c 0,0 -26.254119,-25.79532 -26.254119,-25.79532 l -49.050441,-0.2319 c 0,0 -16.504743,0.4638 -16.504743,18.3221 l 0.708439,96.99662 z"
         transform="matrix(0.98017447,0,0,0.99812248,1.4934147,0.7943904)"
         id="path3684"
         style="opacity:0.9;fill:none;stroke:url(#linearGradient3805);stroke-width:0.98750001;stroke-linecap:butt;stroke-linejoin:miter;stroke-miterlimit:4;stroke-opacity:1;stroke-dasharray:none;filter:url(#filter3778)" />
      <path
         d="m 18.456586,419.00634 72.706957,0 c 17.685467,0 17.685467,-17.8583 17.685467,-17.8583 l 0.70844,-71.4332 c 0,0 -26.254119,-25.79532 -26.254119,-25.79532 l -49.050441,-0.2319 c 0,0 -16.504743,0.4638 -16.504743,18.3221 l 0.708439,96.99662 z"
         transform="matrix(0.98017447,0,0,0.99812248,1.4934147,0.7943904)"
         id="path3766"
         style="fill:none;stroke:url(#linearGradient3807);stroke-width:0.98750001;stroke-linecap:butt;stroke-linejoin:miter;stroke-miterlimit:4;stroke-opacity:1;stroke-dasharray:none;filter:url(#filter3702)" />
      <path
         d="M 92.000003,6.0000025 92,24 l 18,3e-6"
         transform="matrix(1.4444444,0,0,1.4444444,-48.888889,294.33333)"
         id="path3639"
         style="opacity:0.6;fill:none;stroke:#333333;stroke-width:1px;stroke-linecap:butt;stroke-linejoin:miter;stroke-opacity:1;filter:url(#filter3676)" />
      <path
         d="m 84,303 0,26 26,0 -26,-26 z"
         id="path3629"
         style="fill:url(#linearGradient3393);fill-opacity:1;stroke:none" />
      <path
         d="m 18,122 74,0 c 18,0 18,-18 18,-18 l 0,-72 C 110,32 84,6 84,6 L 36,6 C 36,6 18,6 18,24 l 0,98 z"
         transform="matrix(0.97617501,0,0,0.99219838,1.5247995,297.03637)"
         id="path3726"
         style="opacity:0.4;fill:none;stroke:url(#linearGradient3811);stroke-width:1px;stroke-linecap:butt;stroke-linejoin:miter;stroke-opacity:1;filter:url(#filter3782)" />
      <path
         d="m 18,419 c 0,-6 18,-6 18,-6 l 56,0 c 16.37975,-0.46293 17.38879,-17.30561 17.38879,-17.30561"
         id="path3722"
         style="opacity:0.8;fill:none;stroke:#333333;stroke-width:1px;stroke-linecap:butt;stroke-linejoin:miter;stroke-opacity:1;filter:url(#filter3728)" />
      <path
         d="m 18,419 74,0 c 18,0 18,-18 18,-18 0,0 0,-16 0,-16 0,0 0,28 -18,28 l -56,0 c 0,0 -18,0 -18,6 z"
         id="path3822"
         style="fill:url(#linearGradient3875);fill-opacity:1;stroke:none" />
    </g>
    <g
       transform="matrix(1.1395776,0,0,1.1395776,9.3002262,316.7023)"
       id="layer4"
       style="display:inline">
      <path
         d="m 18.000089,43.857457 c 0,-1.180653 0.979404,-2.136636 2.180232,-2.136636 l 4.22965,0 c 0.562472,-2.111077 1.412074,-4.128219 2.485465,-5.973833 l -3.00872,-3.008727 c -0.424557,-0.424559 -0.649414,-0.933132 -0.654072,-1.482554 -0.0048,-0.549417 0.193045,-1.10874 0.610466,-1.526158 l 5.886628,-5.886633 c 0.834843,-0.834834 2.159607,-0.805502 3.008721,0.04352 l 3.008721,3.008725 c 1.845609,-1.073387 3.862754,-1.922985 5.973835,-2.48547 l 0,-4.229646 c 0,-1.200827 0.955981,-2.180234 2.136627,-2.180234 l 8.284884,0 c 1.180646,0 2.136628,0.979407 2.136628,2.180235 l 0,4.229645 c 2.111081,0.562485 4.128226,1.412083 5.973836,2.485472 l 3.008721,-3.008727 c 0.849112,-0.84911 2.173875,-0.878441 3.008719,-0.04352 l 5.886628,5.886633 c 0.834844,0.834834 0.805506,2.159603 -0.0436,3.008714 l -3.00872,3.008725 c 1.073391,1.845616 1.922992,3.862756 2.485464,5.973835 l 4.229651,0 c 1.200828,0 2.180233,0.955981 2.180233,2.136634 l 0,8.284881 c 0,1.180644 -0.979405,2.136624 -2.180232,2.136624 l -4.229651,0 c -0.562472,2.111078 -1.412073,4.128218 -2.485464,5.973835 l 3.00872,3.008725 c 0.849113,0.84911 0.878448,2.173877 0.0436,3.008724 l -5.886627,5.886621 c -0.834844,0.834835 -2.159609,0.805505 -3.00872,-0.04352 l -3.008721,-3.008711 c -1.845609,1.073384 -3.862754,1.922981 -5.973836,2.485457 l 0,4.229657 c 0,1.200817 -0.95598,2.180232 -2.136628,2.180232 l -8.284884,0 c -1.180645,0 -2.136628,-0.979415 -2.136628,-2.180232 l 0,-4.229657 c -2.11108,-0.562467 -4.128225,-1.412068 -5.973834,-2.485451 l -3.008722,3.008713 c -0.849113,0.849108 -2.173877,0.878452 -3.00872,0.04352 L 23.843111,66.27025 c -0.834843,-0.834847 -0.805507,-2.159615 0.0436,-3.008725 L 26.895433,60.2528 c -1.073391,-1.845615 -1.922994,-3.862756 -2.485466,-5.973832 l -4.22965,0 c -1.200828,0 -2.180231,-0.955982 -2.180231,-2.136625 l 0,-8.284881 z m 20.930229,4.142435 c 0,5.006518 4.063256,9.069769 9.069767,9.069769 5.00651,0 9.069766,-4.063249 9.069766,-9.069769 0,-5.006505 -4.063256,-9.069769 -9.069766,-9.069769 -5.006511,0 -9.069767,4.063263 -9.069767,9.069768 z"
         id="rect3267"
         style="fill:url(#linearGradient3921);fill-opacity:1;fill-rule:nonzero;stroke:none;stroke-width:1;marker:none;visibility:visible;display:block;overflow:visible;enable-background:accumulate" />
      <path
         d="m 43.84375,18 c -1.180645,0 -2.125,0.986683 -2.125,2.1875 l 0,1 c 0,-1.200817 0.944355,-2.1875 2.125,-2.1875 l 8.3125,0 c 1.180648,0 2.125,0.986683 2.125,2.1875 l 0,-1 C 54.28125,18.986683 53.336898,18 52.15625,18 l -8.3125,0 z m -12.625,5.21875 c -0.541685,-0.0091 -1.082579,0.207534 -1.5,0.625 l -5.875,5.875 c -0.546032,0.546035 -0.712161,1.304966 -0.53125,2 0.08476,-0.362825 0.244784,-0.713533 0.53125,-1 l 5.875,-5.875 C 30.553593,24.008818 31.900887,24.025892 32.75,24.875 l 3,3.03125 c 1.845609,-1.073383 3.85767,-1.937533 5.96875,-2.5 l 0,-1 c -2.11108,0.562467 -4.123141,1.426617 -5.96875,2.5 l -3,-3.03125 c -0.424557,-0.424554 -0.989565,-0.647142 -1.53125,-0.65625 z m 33.5625,0 C 64.239564,23.22785 63.674555,23.450488 63.25,23.875 l -3,3.03125 c -1.845609,-1.073384 -3.857668,-1.937524 -5.96875,-2.5 l 0,1 c 2.111082,0.562476 4.123141,1.426616 5.96875,2.5 l 3,-3.03125 c 0.849111,-0.849025 2.196406,-0.866085 3.03125,-0.03125 l 5.875,5.875 c 0.286467,0.286467 0.446492,0.637175 0.53125,1 0.180912,-0.695033 0.01479,-1.453965 -0.53125,-2 l -5.875,-5.875 c -0.417422,-0.417417 -0.958314,-0.634106 -1.5,-0.625 z M 26.5625,36.40625 c -0.903523,1.667225 -1.658515,3.444397 -2.15625,5.3125 l -4.21875,0 c -1.200828,0 -2.1875,0.944357 -2.1875,2.125 l 0,1 c 0,-1.180643 0.986672,-2.125 2.1875,-2.125 l 4.21875,0 c 0.562472,-2.111076 1.426609,-4.123135 2.5,-5.96875 L 26.5625,36.40625 z m 42.875,0 -0.34375,0.34375 c 1.073391,1.845617 1.937528,3.857672 2.5,5.96875 l 4.21875,0 c 1.200827,0 2.1875,0.944356 2.1875,2.125 l 0,-1 c 0,-1.180644 -0.986673,-2.125 -2.1875,-2.125 l -4.21875,0 C 71.096015,39.850645 70.341022,38.073476 69.4375,36.40625 z M 38.96875,48.5 c -0.0089,0.16483 -0.03125,0.332954 -0.03125,0.5 0,5.006505 4.055989,9.0625 9.0625,9.0625 5.00651,0 9.0625,-4.055995 9.0625,-9.0625 0,-0.167046 -0.02232,-0.33517 -0.03125,-0.5 -0.258742,4.775258 -4.191786,8.5625 -9.03125,8.5625 -4.839465,0 -8.772508,-3.787242 -9.03125,-8.5625 z M 26.5625,60.59375 23.875,63.25 c -0.424557,0.424559 -0.651592,0.950578 -0.65625,1.5 -0.0016,0.179795 0.05132,0.354653 0.09375,0.53125 0.09341,-0.36845 0.262657,-0.731405 0.5625,-1.03125 l 3.03125,-3 C 26.782709,61.03758 26.680016,60.810596 26.5625,60.59375 z m 42.875,0 c -0.117516,0.216846 -0.220209,0.44383 -0.34375,0.65625 l 3.03125,3 c 0.293745,0.293747 0.466811,0.663629 0.5625,1.03125 C 72.84975,64.586702 72.6827,63.807749 72.125,63.25 l -2.6875,-2.65625 z"
         id="path3921"
         style="opacity:0.3;fill:#000000;fill-opacity:1;fill-rule:nonzero;stroke:none;stroke-width:1;marker:none;visibility:visible;display:block;overflow:visible;enable-background:accumulate" />
      <path
         d="m 43.84375,18 c -1.180646,0 -2.125,0.986673 -2.125,2.1875 l 0,4.21875 c -2.111081,0.562485 -4.123141,1.426613 -5.96875,2.5 l -3,-3.03125 c -0.849114,-0.849022 -2.196407,-0.866084 -3.03125,-0.03125 l -5.875,5.875 c -0.417421,0.417418 -0.6298,0.981833 -0.625,1.53125 0.0047,0.549422 0.231693,1.075441 0.65625,1.5 l 3.03125,3 c -1.073391,1.845614 -1.937528,3.857673 -2.5,5.96875 l -4.21875,0 c -1.200828,0 -2.1875,0.944347 -2.1875,2.125 l 0,8.3125 c 0,1.180643 0.986672,2.125 2.1875,2.125 l 4.21875,0 c 0.562472,2.111076 1.426609,4.123135 2.5,5.96875 l -3.03125,3 c -0.849107,0.84911 -0.866093,2.196403 -0.03125,3.03125 l 5.875,5.875 c 0.834843,0.834932 2.182137,0.817858 3.03125,-0.03125 l 3,-3.03125 c 1.845609,1.073383 3.85767,1.937533 5.96875,2.5 l 0,4.21875 c 0,1.200817 0.944355,2.1875 2.125,2.1875 l 8.3125,0 c 1.180648,0 2.125,-0.986683 2.125,-2.1875 l 0,-4.21875 c 2.111082,-0.562476 4.123141,-1.426616 5.96875,-2.5 l 3,3.03125 c 0.849111,0.849025 2.196406,0.866085 3.03125,0.03125 l 5.875,-5.875 C 72.991098,65.446403 72.974113,64.09911 72.125,63.25 l -3.03125,-3 c 1.073391,-1.845617 1.937528,-3.857672 2.5,-5.96875 l 4.21875,0 c 1.200827,0 2.1875,-0.944356 2.1875,-2.125 l 0,-8.3125 c 0,-1.180653 -0.986672,-2.125 -2.1875,-2.125 l -4.21875,0 c -0.562472,-2.111079 -1.426609,-4.123134 -2.5,-5.96875 l 3.03125,-3 c 0.849106,-0.849111 0.866094,-2.196416 0.03125,-3.03125 l -5.875,-5.875 C 65.446406,23.008829 64.099112,23.02589 63.25,23.875 l -3,3.03125 c -1.84561,-1.073389 -3.857669,-1.937515 -5.96875,-2.5 l 0,-4.21875 C 54.28125,18.986672 53.336896,18 52.15625,18 l -8.3125,0 z m 0,2.03125 8.3125,0 c 0.04194,0 0.09375,0.02697 0.09375,0.15625 l 0,4.21875 a 2.0440505,2.0440505 0 0 0 1.5,1.96875 c 1.920061,0.511589 3.769099,1.323999 5.46875,2.3125 a 2.0440505,2.0440505 0 0 0 2.46875,-0.34375 l 3,-3.03125 c 0.09441,-0.09441 0.108657,-0.07885 0.15625,-0.03125 l 5.875,5.875 c 0.04758,0.04758 0.06311,0.06189 -0.03125,0.15625 l -3.03125,3 a 2.0440505,2.0440505 0 0 0 -0.34375,2.46875 c 0.988507,1.699665 1.800927,3.548706 2.3125,5.46875 a 2.0440505,2.0440505 0 0 0 1.96875,1.5 l 4.21875,0 c 0.12929,0 0.15625,0.05179 0.15625,0.09375 l 0,8.3125 c 0,0.04194 -0.02697,0.09375 -0.15625,0.09375 l -4.21875,0 a 2.0440505,2.0440505 0 0 0 -1.96875,1.5 c -0.511573,1.920043 -1.323993,3.769084 -2.3125,5.46875 a 2.0440505,2.0440505 0 0 0 0.34375,2.46875 l 3.03125,3 c 0.09437,0.09437 0.07886,0.108644 0.03125,0.15625 l -5.875,5.875 C 64.7962,70.7663 64.78187,70.78186 64.6875,70.6875 l -3,-3.03125 A 2.0440505,2.0440505 0 0 0 59.21875,67.3125 C 57.519091,68.301001 55.670048,69.113423 53.75,69.625 a 2.0440505,2.0440505 0 0 0 -1.5,1.96875 l 0,4.21875 c 0,0.129263 -0.05181,0.15625 -0.09375,0.15625 l -8.3125,0 c -0.04193,0 -0.09375,-0.02699 -0.09375,-0.15625 l 0,-4.21875 A 2.0440505,2.0440505 0 0 0 42.25,69.625 c -1.920035,-0.511566 -3.769087,-1.323997 -5.46875,-2.3125 a 2.0440505,2.0440505 0 0 0 -2.46875,0.34375 l -3,3.03125 c -0.09442,0.09442 -0.108661,0.07884 -0.15625,0.03125 l -5.875,-5.875 c -0.0476,-0.0476 -0.06311,-0.06189 0.03125,-0.15625 l 3.03125,-3 A 2.0440505,2.0440505 0 0 0 28.6875,59.21875 C 27.698994,57.519088 26.886573,55.670042 26.375,53.75 a 2.0440505,2.0440505 0 0 0 -1.96875,-1.5 l -4.21875,0 c -0.129278,0 -0.15625,-0.05181 -0.15625,-0.09375 l 0,-8.3125 c 0,-0.04196 0.02696,-0.09375 0.15625,-0.09375 l 4.21875,0 a 2.0440505,2.0440505 0 0 0 1.96875,-1.5 c 0.511573,-1.920043 1.323994,-3.769089 2.3125,-5.46875 A 2.0440505,2.0440505 0 0 0 28.34375,34.3125 l -3.03125,-3 c -0.08531,-0.08531 -0.06252,-0.09625 -0.0625,-0.09375 -9.2e-5,-0.01055 0.02011,-0.05137 0.03125,-0.0625 l 5.875,-5.875 c 0.04755,-0.04755 0.06187,-0.06312 0.15625,0.03125 l 3,3.03125 a 2.0440505,2.0440505 0 0 0 2.46875,0.34375 C 38.480901,27.699 40.32994,26.886589 42.25,26.375 a 2.0440505,2.0440505 0 0 0 1.5,-1.96875 l 0,-4.21875 c 0,-0.12928 0.05181,-0.15625 0.09375,-0.15625 z M 48,36.90625 c -6.110384,0 -11.09375,4.983372 -11.09375,11.09375 0,6.110388 4.983369,11.09375 11.09375,11.09375 6.110379,0 11.09375,-4.98336 11.09375,-11.09375 0,-6.110378 -4.983367,-11.09375 -11.09375,-11.09375 z m 0,2.03125 c 5.00651,0 9.0625,4.055995 9.0625,9.0625 0,5.00652 -4.05599,9.0625 -9.0625,9.0625 -5.006511,0 -9.0625,-4.055982 -9.0625,-9.0625 0,-5.006505 4.055989,-9.0625 9.0625,-9.0625 z"
         id="path3948"
         style="opacity:0.1;fill:#000000;fill-opacity:1;fill-rule:nonzero;stroke:none;stroke-width:1;marker:none;visibility:visible;display:block;overflow:visible;enable-background:accumulate" />
      <path
         d="m 43.84375,18 c -1.180646,0 -2.125,0.986673 -2.125,2.1875 l 0,4.21875 c -2.111081,0.562485 -4.123141,1.426613 -5.96875,2.5 l -3,-3.03125 c -0.849114,-0.849022 -2.196407,-0.866084 -3.03125,-0.03125 l -5.875,5.875 c -0.417421,0.417418 -0.6298,0.981833 -0.625,1.53125 0.0047,0.549422 0.231693,1.075441 0.65625,1.5 l 3.03125,3 c -1.073391,1.845614 -1.937528,3.857673 -2.5,5.96875 l -4.21875,0 c -1.200828,0 -2.1875,0.944347 -2.1875,2.125 l 0,8.3125 c 0,1.180643 0.986672,2.125 2.1875,2.125 l 4.21875,0 c 0.562472,2.111076 1.426609,4.123135 2.5,5.96875 l -3.03125,3 c -0.849107,0.84911 -0.866093,2.196403 -0.03125,3.03125 l 5.875,5.875 c 0.834843,0.834932 2.182137,0.817858 3.03125,-0.03125 l 3,-3.03125 c 1.845609,1.073383 3.85767,1.937533 5.96875,2.5 l 0,4.21875 c 0,1.200817 0.944355,2.1875 2.125,2.1875 l 8.3125,0 c 1.180648,0 2.125,-0.986683 2.125,-2.1875 l 0,-4.21875 c 2.111082,-0.562476 4.123141,-1.426616 5.96875,-2.5 l 3,3.03125 c 0.849111,0.849025 2.196406,0.866085 3.03125,0.03125 l 5.875,-5.875 C 72.991098,65.446403 72.974113,64.09911 72.125,63.25 l -3.03125,-3 c 1.073391,-1.845617 1.937528,-3.857672 2.5,-5.96875 l 4.21875,0 c 1.200827,0 2.1875,-0.944356 2.1875,-2.125 l 0,-8.3125 c 0,-1.180653 -0.986672,-2.125 -2.1875,-2.125 l -4.21875,0 c -0.562472,-2.111079 -1.426609,-4.123134 -2.5,-5.96875 l 3.03125,-3 c 0.849106,-0.849111 0.866094,-2.196416 0.03125,-3.03125 l -5.875,-5.875 C 65.446406,23.008829 64.099112,23.02589 63.25,23.875 l -3,3.03125 c -1.84561,-1.073389 -3.857669,-1.937515 -5.96875,-2.5 l 0,-4.21875 C 54.28125,18.986672 53.336896,18 52.15625,18 l -8.3125,0 z m 0,0.96875 8.3125,0 c 0.638407,0 1.15625,0.528182 1.15625,1.21875 l 0,4.21875 a 0.97335743,0.97335743 0 0 0 0.71875,0.9375 c 2.020119,0.538249 3.942644,1.373284 5.71875,2.40625 a 0.97335743,0.97335743 0 0 0 1.1875,-0.15625 l 3,-3.03125 c 0.48973,-0.489729 1.196288,-0.491255 1.65625,-0.03125 l 5.875,5.875 c 0.459955,0.459949 0.458453,1.166544 -0.03125,1.65625 l -3.03125,3 A 0.97335743,0.97335743 0 0 0 68.25,36.25 c 1.03297,1.776115 1.868016,3.69864 2.40625,5.71875 a 0.97335743,0.97335743 0 0 0 0.9375,0.71875 l 4.21875,0 c 0.690572,0 1.21875,0.517833 1.21875,1.15625 l 0,8.3125 c 0,0.638404 -0.528185,1.15625 -1.21875,1.15625 l -4.21875,0 a 0.97335743,0.97335743 0 0 0 -0.9375,0.71875 C 70.118016,56.051359 69.28297,57.973884 68.25,59.75 a 0.97335743,0.97335743 0 0 0 0.15625,1.1875 l 3.03125,3 c 0.48971,0.489708 0.491221,1.19628 0.03125,1.65625 l -5.875,5.875 c -0.459943,0.459938 -1.166539,0.458411 -1.65625,-0.03125 l -3,-3.03125 A 0.97335743,0.97335743 0 0 0 59.75,68.25 c -1.776109,1.032964 -3.698637,1.868012 -5.71875,2.40625 a 0.97335743,0.97335743 0 0 0 -0.71875,0.9375 l 0,4.21875 c 0,0.690553 -0.517846,1.21875 -1.15625,1.21875 l -8.3125,0 c -0.638399,0 -1.15625,-0.528198 -1.15625,-1.21875 l 0,-4.21875 a 0.97335743,0.97335743 0 0 0 -0.71875,-0.9375 C 39.948644,70.118022 38.026111,69.282964 36.25,68.25 a 0.97335743,0.97335743 0 0 0 -1.1875,0.15625 l -3,3.03125 c -0.489735,0.489732 -1.19629,0.491259 -1.65625,0.03125 l -5.875,-5.875 C 24.071283,65.133781 24.072794,64.427207 24.5625,63.9375 l 3.03125,-3 A 0.97335743,0.97335743 0 0 0 27.75,59.75 c -1.03297,-1.776114 -1.868016,-3.698643 -2.40625,-5.71875 a 0.97335743,0.97335743 0 0 0 -0.9375,-0.71875 l -4.21875,0 c -0.690566,0 -1.21875,-0.517847 -1.21875,-1.15625 l 0,-8.3125 c 0,-0.638417 0.528178,-1.15625 1.21875,-1.15625 l 4.21875,0 a 0.97335743,0.97335743 0 0 0 0.9375,-0.71875 C 25.881984,39.948642 26.71703,38.026112 27.75,36.25 a 0.97335743,0.97335743 0 0 0 -0.15625,-1.1875 l -3.03125,-3 c -0.26301,-0.263011 -0.37257,-0.5259 -0.375,-0.8125 -0.0026,-0.292812 0.119798,-0.6198 0.34375,-0.84375 l 5.875,-5.875 c 0.459941,-0.459936 1.166535,-0.458412 1.65625,0.03125 l 3,3.03125 A 0.97335743,0.97335743 0 0 0 36.25,27.75 c 1.776105,-1.032964 3.698631,-1.868001 5.71875,-2.40625 a 0.97335743,0.97335743 0 0 0 0.71875,-0.9375 l 0,-4.21875 c 0,-0.690566 0.517844,-1.21875 1.15625,-1.21875 z m 4.15625,19 c -5.532165,0 -10.03125,4.499091 -10.03125,10.03125 0,5.53217 4.499087,10.03125 10.03125,10.03125 5.532162,0 10.03125,-4.499078 10.03125,-10.03125 0,-5.532159 -4.499086,-10.03125 -10.03125,-10.03125 z m 0,0.96875 c 5.00651,0 9.0625,4.055995 9.0625,9.0625 0,5.00652 -4.05599,9.0625 -9.0625,9.0625 -5.006511,0 -9.0625,-4.055982 -9.0625,-9.0625 0,-5.006505 4.055989,-9.0625 9.0625,-9.0625 z"
         id="path3944"
         style="opacity:0.15;fill:#000000;fill-opacity:1;fill-rule:nonzero;stroke:none;stroke-width:1;marker:none;visibility:visible;display:block;overflow:visible;enable-background:accumulate" />
      <path
         d="m 23.3125,31.71875 c -0.16225,0.694552 0.0048,1.473501 0.5625,2.03125 l 2.6875,2.65625 c 0.117516,-0.216846 0.220209,-0.44383 0.34375,-0.65625 l -3.03125,-3 c -0.293745,-0.293746 -0.466812,-0.663629 -0.5625,-1.03125 z m 49.375,0 C 72.59181,32.086371 72.418747,32.456254 72.125,32.75 l -3.03125,3 c 0.123541,0.21242 0.226234,0.439404 0.34375,0.65625 L 72.125,33.75 c 0.557751,-0.557749 0.724751,-1.336699 0.5625,-2.03125 z M 48,38.9375 c -5.006511,0 -9.0625,4.055982 -9.0625,9.0625 0,0.167046 0.02232,0.33517 0.03125,0.5 0.258742,-4.775269 4.191785,-8.5625 9.03125,-8.5625 4.839464,0 8.772508,3.787229 9.03125,8.5625 0.0089,-0.16483 0.03125,-0.332954 0.03125,-0.5 0,-5.00652 -4.05599,-9.0625 -9.0625,-9.0625 z m -30,13.21875 0,1 c 0,1.180653 0.986672,2.125 2.1875,2.125 l 4.21875,0 c 0.497735,1.868104 1.252727,3.645276 2.15625,5.3125 L 26.90625,60.25 c -1.073391,-1.845614 -1.937528,-3.857673 -2.5,-5.96875 l -4.21875,0 C 18.986672,54.28125 18,53.336903 18,52.15625 z m 60,0 c 0,1.180653 -0.986672,2.125 -2.1875,2.125 l -4.21875,0 c -0.562472,2.111079 -1.426609,4.123134 -2.5,5.96875 l 0.34375,0.34375 c 0.903522,-1.667225 1.658515,-3.444394 2.15625,-5.3125 l 4.21875,0 c 1.200828,0 2.1875,-0.944347 2.1875,-2.125 l 0,-1 z m -54.6875,13.125 c -0.03885,0.153249 -0.09238,0.307357 -0.09375,0.46875 -0.0048,0.549417 0.207579,1.113832 0.625,1.53125 l 5.875,5.875 c 0.834843,0.834834 2.182136,0.817772 3.03125,-0.03125 l 3,-3.03125 c 1.845609,1.073387 3.857669,1.937515 5.96875,2.5 l 0,-1 c -2.111081,-0.562485 -4.123141,-1.426613 -5.96875,-2.5 l -3,3.03125 c -0.849114,0.849022 -2.196407,0.866084 -3.03125,0.03125 l -5.875,-5.875 c -0.280821,-0.280819 -0.444032,-0.636954 -0.53125,-1 z m 49.375,0 c -0.08476,0.362824 -0.244784,0.713537 -0.53125,1 l -5.875,5.875 C 65.446406,72.991171 64.099112,72.97411 63.25,72.125 l -3,-3.03125 c -1.84561,1.073389 -3.857669,1.937515 -5.96875,2.5 l 0,1 c 2.111081,-0.562485 4.12314,-1.426611 5.96875,-2.5 l 3,3.03125 c 0.849112,0.84911 2.196406,0.866171 3.03125,0.03125 l 5.875,-5.875 c 0.546033,-0.546027 0.712161,-1.304967 0.53125,-2 z m -30.96875,10.53125 0,1 c 0,1.200827 0.944354,2.1875 2.125,2.1875 l 8.3125,0 c 1.180646,0 2.125,-0.986672 2.125,-2.1875 l 0,-1 c 0,1.200828 -0.944354,2.1875 -2.125,2.1875 l -8.3125,0 c -1.180646,0 -2.125,-0.986673 -2.125,-2.1875 z"
         id="path3930"
         style="fill:#ffffff;fill-opacity:1;fill-rule:nonzero;stroke:none;stroke-width:1;marker:none;visibility:visible;display:block;overflow:visible;enable-background:accumulate" />
    </g>
  </g>
</svg>
