<?xml version="1.0" encoding="UTF-8" standalone="no"?>
<!-- Created with Inkscape (http://www.inkscape.org/) -->

<svg
   xmlns:svg="http://www.w3.org/2000/svg"
   xmlns="http://www.w3.org/2000/svg"
   xmlns:xlink="http://www.w3.org/1999/xlink"
   version="1.1"
   width="128"
   height="128"
   id="svg2816">
  <defs
     id="defs2818">
    <linearGradient
       id="linearGradient3652">
      <stop
         id="stop3654"
         style="stop-color:#000000;stop-opacity:0.21531101"
         offset="0" />
      <stop
         id="stop3656"
         style="stop-color:#ffffff;stop-opacity:1"
         offset="1" />
    </linearGradient>
    <linearGradient
       id="linearGradient3636">
      <stop
         id="stop3638"
         style="stop-color:#d9d9d9;stop-opacity:1"
         offset="0" />
      <stop
         id="stop3644"
         style="stop-color:#c3c3cf;stop-opacity:1"
         offset="0.5" />
      <stop
         id="stop3640"
         style="stop-color:#999999;stop-opacity:1"
         offset="1" />
    </linearGradient>
    <linearGradient
       id="linearGradient3758">
      <stop
         id="stop3760"
         style="stop-color:#333333;stop-opacity:1"
         offset="0" />
      <stop
         id="stop3762"
         style="stop-color:#333333;stop-opacity:0"
         offset="1" />
    </linearGradient>
    <linearGradient
       id="linearGradient3736">
      <stop
         id="stop3738"
         style="stop-color:#ffffff;stop-opacity:0"
         offset="0" />
      <stop
         id="stop3740"
         style="stop-color:#333333;stop-opacity:0.72791517"
         offset="1" />
    </linearGradient>
    <linearGradient
       id="linearGradient3708">
      <stop
         id="stop3712"
         style="stop-color:#ffffff;stop-opacity:0"
         offset="0" />
      <stop
         id="stop3714"
         style="stop-color:#333333;stop-opacity:1"
         offset="1" />
    </linearGradient>
    <linearGradient
       id="linearGradient3694">
      <stop
         id="stop3696"
         style="stop-color:#ffffff;stop-opacity:1"
         offset="0" />
      <stop
         id="stop3700"
         style="stop-color:#ffffff;stop-opacity:0.67464113"
         offset="0.5" />
      <stop
         id="stop3698"
         style="stop-color:#ffffff;stop-opacity:0"
         offset="1" />
    </linearGradient>
    <linearGradient
       id="linearGradient3649">
      <stop
         id="stop3651"
         style="stop-color:#c9c9c9;stop-opacity:1"
         offset="0" />
      <stop
         id="stop3653"
         style="stop-color:#f0f0f0;stop-opacity:1"
         offset="1" />
    </linearGradient>
    <linearGradient
       id="linearGradient3631">
      <stop
         id="stop3633"
         style="stop-color:#dddddd;stop-opacity:0.62190813"
         offset="0" />
      <stop
         id="stop3635"
         style="stop-color:#ffffff;stop-opacity:1"
         offset="1" />
    </linearGradient>
    <linearGradient
       x1="102"
       y1="14"
       x2="92"
       y2="24"
       id="linearGradient3637"
       xlink:href="#linearGradient3649"
       gradientUnits="userSpaceOnUse"
       gradientTransform="matrix(1.4444444,0,0,1.4444444,-48.888889,294.33333)" />
    <filter
       color-interpolation-filters="sRGB"
       id="filter3676">
      <feGaussianBlur
         id="feGaussianBlur3678"
         stdDeviation="0.36000001" />
    </filter>
    <filter
       color-interpolation-filters="sRGB"
       id="filter3610">
      <feGaussianBlur
         id="feGaussianBlur3612"
         stdDeviation="1.56" />
    </filter>
    <linearGradient
       x1="56.65461"
       y1="5.5"
       x2="56.65461"
       y2="122.50977"
       id="linearGradient3692"
       xlink:href="#linearGradient3694"
       gradientUnits="userSpaceOnUse"
       gradientTransform="matrix(0.98252641,0,0,0.9921278,0.77111153,297.96672)" />
    <filter
       color-interpolation-filters="sRGB"
       id="filter3702">
      <feGaussianBlur
         id="feGaussianBlur3704"
         stdDeviation="0.51369811" />
    </filter>
    <linearGradient
       x1="64"
       y1="122.5"
       x2="64"
       y2="93.860451"
       id="linearGradient3748"
       xlink:href="#linearGradient3758"
       gradientUnits="userSpaceOnUse" />
    <linearGradient
       x1="56.65461"
       y1="5.5"
       x2="56.65461"
       y2="122.50977"
       id="linearGradient3776"
       xlink:href="#linearGradient3694"
       gradientUnits="userSpaceOnUse"
       gradientTransform="matrix(0.98252641,0,0,0.9921278,0.77111153,297.96672)" />
    <filter
       color-interpolation-filters="sRGB"
       id="filter3778">
      <feGaussianBlur
         id="feGaussianBlur3780"
         stdDeviation="0.51837461" />
    </filter>
    <filter
       color-interpolation-filters="sRGB"
       id="filter3782">
      <feGaussianBlur
         id="feGaussianBlur3784"
         stdDeviation="1.0410113" />
    </filter>
    <linearGradient
       x1="64"
       y1="122"
       x2="64"
       y2="76.36528"
       id="linearGradient3794"
       xlink:href="#linearGradient3631"
       gradientUnits="userSpaceOnUse" />
    <linearGradient
       x1="56.65461"
       y1="5.5"
       x2="56.65461"
       y2="122.50977"
       id="linearGradient3805"
       xlink:href="#linearGradient3694"
       gradientUnits="userSpaceOnUse"
       gradientTransform="matrix(0.98252641,0,0,0.9921278,0.77111153,297.96672)" />
    <linearGradient
       x1="56.65461"
       y1="5.5"
       x2="56.65461"
       y2="122.50977"
       id="linearGradient3807"
       xlink:href="#linearGradient3694"
       gradientUnits="userSpaceOnUse"
       gradientTransform="matrix(0.98252641,0,0,0.9921278,0.77111153,297.96672)" />
    <linearGradient
       x1="102"
       y1="14"
       x2="92"
       y2="24"
       id="linearGradient3809"
       xlink:href="#linearGradient3649"
       gradientUnits="userSpaceOnUse"
       gradientTransform="matrix(1.4444444,0,0,1.4444444,-48.888889,294.33333)" />
    <linearGradient
       x1="64"
       y1="122.5"
       x2="64"
       y2="93.860451"
       id="linearGradient3811"
       xlink:href="#linearGradient3758"
       gradientUnits="userSpaceOnUse" />
    <linearGradient
       x1="62"
       y1="413"
       x2="62"
       y2="419"
       id="linearGradient2876"
       xlink:href="#linearGradient3636"
       gradientUnits="userSpaceOnUse" />
    <linearGradient
       x1="102"
       y1="14"
       x2="92"
       y2="24"
       id="linearGradient2880"
       xlink:href="#linearGradient3649"
       gradientUnits="userSpaceOnUse"
       gradientTransform="matrix(1.4444444,0,0,1.4444444,-48.888889,294.33333)" />
    <filter
       color-interpolation-filters="sRGB"
       id="filter3728">
      <feGaussianBlur
         id="feGaussianBlur3730"
         stdDeviation="0.57810125" />
    </filter>
  </defs>
  <g
     transform="translate(0,-297)"
     id="layer1">
    <path
       d="m 18,419 74,0 c 18,0 18,-18 18,-18 l 0,-72 c 0,0 -26,-26 -26,-26 l -48,0 c 0,0 -18,0 -18,18 l 0,98 z"
       id="path2832"
       style="opacity:0.9;fill:#000000;fill-opacity:1;stroke:none;filter:url(#filter3610)" />
    <path
       d="m 18,419 74,0 c 18,0 18,-18 18,-18 l 0,-72 c 0,0 -26,-26 -26,-26 l -48,0 c 0,0 -18,0 -18,18 l 0,98 z"
       id="path3627"
       style="fill:#e6e6e6;fill-opacity:1;stroke:none" />
    <path
       d="m 18.456586,419.00634 72.706957,0 c 17.685467,0 17.685467,-17.8583 17.685467,-17.8583 l 0.70844,-71.4332 c 0,0 -26.254119,-25.79532 -26.254119,-25.79532 l -49.050441,-0.2319 c 0,0 -16.504743,0.4638 -16.504743,18.3221 l 0.708439,96.99662 z"
       transform="matrix(0.98017447,0,0,0.99812248,1.4934147,0.7943904)"
       id="path3684"
       style="opacity:0.9;fill:none;stroke:url(#linearGradient3805);stroke-width:0.98750001;stroke-linecap:butt;stroke-linejoin:miter;stroke-miterlimit:4;stroke-opacity:1;stroke-dasharray:none;filter:url(#filter3778)" />
    <path
       d="m 18.456586,419.00634 72.706957,0 c 17.685467,0 17.685467,-17.8583 17.685467,-17.8583 l 0.70844,-71.4332 c 0,0 -26.254119,-25.79532 -26.254119,-25.79532 l -49.050441,-0.2319 c 0,0 -16.504743,0.4638 -16.504743,18.3221 l 0.708439,96.99662 z"
       transform="matrix(0.98017447,0,0,0.99812248,1.4934147,0.7943904)"
       id="path3766"
       style="fill:none;stroke:url(#linearGradient3807);stroke-width:0.98750001;stroke-linecap:butt;stroke-linejoin:miter;stroke-miterlimit:4;stroke-opacity:1;stroke-dasharray:none;filter:url(#filter3702)" />
    <path
       d="M 92.000003,6.0000025 92,24 l 18,3e-6"
       transform="matrix(1.4444444,0,0,1.4444444,-48.888889,294.33333)"
       id="path3639"
       style="opacity:0.6;fill:none;stroke:#333333;stroke-width:1px;stroke-linecap:butt;stroke-linejoin:miter;stroke-opacity:1;filter:url(#filter3676)" />
    <path
       d="m 84,303 0,26 26,0 -26,-26 z"
       id="path3629"
       style="fill:url(#linearGradient2880);fill-opacity:1;stroke:none" />
    <path
       d="m 18,122 74,0 c 18,0 18,-18 18,-18 l 0,-72 C 110,32 84,6 84,6 L 36,6 C 36,6 18,6 18,24 l 0,98 z"
       transform="matrix(0.97617501,0,0,0.99219838,1.5247995,297.03637)"
       id="path3726"
       style="opacity:0.4;fill:none;stroke:url(#linearGradient3811);stroke-width:1px;stroke-linecap:butt;stroke-linejoin:miter;stroke-opacity:1;filter:url(#filter3782)" />
    <path
       d="m 18,122 c 0,-6 18,-6 18,-6 l 56,0 c 16.37975,-0.46293 17.38879,-17.305605 17.38879,-17.305605"
       transform="translate(0,297)"
       id="path3722"
       style="opacity:0.8;fill:none;stroke:#333333;stroke-width:1px;stroke-linecap:butt;stroke-linejoin:miter;stroke-opacity:1;filter:url(#filter3728)" />
    <path
       d="m 18,419 74,0 c 18,0 18,-18 18,-18 0,0 0,-16 0,-16 0,0 0,28 -18,28 l -56,0 c 0,0 -18,0 -18,6 z"
       id="path3822"
       style="fill:url(#linearGradient2876);fill-opacity:1;stroke:none" />
    <g
       transform="matrix(1.1133746,0,0,1.1133746,10.50686,319.90346)"
       id="g3325"
       style="display:inline">
      <path
         d="m 63.78125,27.3125 c -0.961838,0.06091 -1.910578,0.262362 -2.625,0.125 a 0.31302056,0.31302056 0 0 0 -0.0625,0 c -1.822202,0.02946 -3.667316,-0.03786 -5.5,-0.09375 a 0.31302056,0.31302056 0 0 0 -0.03125,0 c -1.039221,0.13961 -1.671181,0.931754 -1.875,1.8125 -0.203819,0.880746 -0.06902,1.870678 0.375,2.59375 0.278566,0.45092 0.699904,0.708862 1.125,0.8125 0.425096,0.103638 0.876502,0.08982 1.28125,0.09375 0.404748,0.0039 0.783151,0.02894 1.0625,0.125 0.279349,0.09606 0.475597,0.233127 0.625,0.59375 a 0.31302056,0.31302056 0 0 0 0.03125,0.0625 l 7.03125,10.25 c -2.355443,3.352033 -4.555933,6.830006 -7,10.0625 -0.471789,0.604171 -1.077695,0.767483 -1.8125,0.875 -0.734805,0.107517 -1.556095,0.123366 -2.3125,0.5 a 0.31302056,0.31302056 0 0 0 -0.0625,0.03125 c -0.627251,0.473374 -0.913182,1.216399 -0.96875,1.96875 -0.05557,0.752351 0.09249,1.520479 0.46875,2.125 a 0.31302056,0.31302056 0 0 0 0.03125,0.03125 c 0.363167,0.45277 0.924982,0.690864 1.5,0.75 -0.123174,1.439277 -0.857731,2.455255 -1.9375,3.09375 -1.145036,0.677089 -2.678841,0.90545 -4.09375,0.71875 a 0.31302056,0.31302056 0 0 0 -0.03125,0 l -5.21875,0 0,-8.96875 c 0.663047,0.03315 1.360809,-0.02667 2,-0.03125 0.710011,-0.0051 1.281224,0.124908 1.6875,0.5 0.153094,0.593159 0.151979,1.434103 0.25,2.25 0.05122,0.426361 0.123231,0.845608 0.34375,1.21875 0.216399,0.36617 0.577942,0.669284 1.0625,0.84375 0.0092,0.0033 0.02192,-0.0032 0.03125,0 0.767538,0.296573 1.669003,0.246667 2.375,-0.125 0.706893,-0.372139 1.224935,-1.100916 1.15625,-2.03125 -7.83e-4,-0.0106 9.39e-4,-0.02059 0,-0.03125 -0.04252,-3.670123 0.08638,-7.383966 -0.0625,-11.0625 a 0.31302056,0.31302056 0 0 0 0,-0.0625 C 52.484558,45.724625 52.084996,45.271591 51.59375,45 51.102504,44.728409 50.501063,44.605924 49.9375,44.65625 c -0.563563,0.05033 -1.108674,0.259664 -1.53125,0.625 -0.422576,0.365336 -0.697185,0.906615 -0.6875,1.5625 a 0.31302056,0.31302056 0 0 0 0,0.09375 c 0.178062,0.643029 0.178012,1.13457 0.0625,1.5 -0.115512,0.36543 -0.340329,0.618639 -0.65625,0.8125 -0.631843,0.387722 -1.654043,0.455669 -2.6875,0.28125 a 0.31302056,0.31302056 0 0 0 -0.15625,0 c -0.323308,0.0977 -0.407959,0.05571 -0.4375,0.03125 -0.02954,-0.02446 -0.08547,-0.131934 -0.09375,-0.34375 -0.01597,-0.408503 0.121251,-1.018771 0.03125,-1.5625 l 0,-0.0625 0,-5.6875 c 3.024652,0.09986 6.044648,-0.317009 8.84375,0.53125 0.0098,0.003 0.02141,-0.003 0.03125,0 1.045305,0.602318 1.414846,1.600088 1.625,2.78125 0.214502,1.2056 0.239056,2.563365 0.71875,3.71875 a 0.31302056,0.31302056 0 0 0 0.03125,0.03125 c 0.584331,0.918737 1.758059,1.229232 2.78125,1.03125 0.511595,-0.09899 0.979781,-0.324835 1.34375,-0.6875 0.363969,-0.362665 0.60602,-0.870671 0.59375,-1.46875 a 0.31302056,0.31302056 0 0 0 0,-0.03125 c -0.357324,-3.282117 -0.610037,-6.628363 -1.125,-9.90625 a 0.31302056,0.31302056 0 0 0 -0.03125,-0.0625 c -0.206598,-0.50304 -0.517557,-0.848156 -0.90625,-1.0625 -0.388693,-0.214344 -0.84285,-0.283379 -1.28125,-0.3125 -0.876799,-0.05824 -1.792297,0.07103 -2.46875,0 a 0.31302056,0.31302056 0 0 0 -0.03125,0 l -13.4375,0 c -0.247644,-2.526044 -0.234727,-5.153044 -0.6875,-7.6875 A 0.31302056,0.31302056 0 0 0 39.75,28.71875 c -0.190977,-0.459734 -0.483461,-0.795637 -0.84375,-1 -0.360289,-0.204363 -0.780259,-0.276016 -1.1875,-0.3125 -0.814482,-0.07297 -1.652354,0.04481 -2.28125,0 a 0.31302056,0.31302056 0 0 0 -0.03125,0 C 28.062852,27.427313 20.716202,27.364221 13.375,27.4375 a 0.31302056,0.31302056 0 0 0 -0.0625,0 c -0.861001,0.147204 -1.350697,0.76049 -1.59375,1.4375 -0.239259,0.666442 -0.281966,1.410658 -0.28125,2.03125 1.1e-5,0.0098 -2.6e-5,0.02147 0,0.03125 -0.165302,2.699168 -0.511021,5.458707 -0.5625,8.1875 a 0.31302056,0.31302056 0 0 0 0,0.0625 c 0.458696,2.448949 4.665383,2.380719 5,-0.09375 0.179316,-1.27839 0.186947,-2.982218 0.59375,-4.28125 0.203402,-0.649516 0.507325,-1.190523 0.9375,-1.53125 0.424034,-0.335863 0.995099,-0.499567 1.84375,-0.40625 0.0098,0.0022 0.02144,-0.002 0.03125,0 0.353228,0.07135 0.721855,0.04395 1.125,0 0.414344,-0.04518 0.842435,-0.12103 1.1875,-0.125 0.345065,-0.004 0.601771,0.07422 0.6875,0.15625 0.04286,0.04102 0.04933,0.0802 0.0625,0.1875 0.01317,0.107305 0.0039,0.268258 -0.0625,0.5 a 0.31302056,0.31302056 0 0 0 0,0.09375 l 0,21 c -0.622541,0.0998 -1.428224,0.007 -2.25,0.03125 -0.455379,0.01346 -0.896952,0.06427 -1.3125,0.25 -0.415548,0.185726 -0.795445,0.537327 -1.03125,1.03125 -0.265307,0.701635 -0.369914,1.589152 -0.15625,2.375 0.213664,0.785848 0.778012,1.505519 1.71875,1.65625 a 0.31302056,0.31302056 0 0 0 0.0625,0 C 23.644938,59.975217 28.037732,60.05766 32.375,60 a 0.31302056,0.31302056 0 0 0 0.09375,0 c 0.918878,-0.274198 1.414749,-1.0983 1.5625,-1.9375 0.147751,-0.8392 -3.93e-4,-1.727655 -0.40625,-2.40625 A 0.31302056,0.31302056 0 0 0 33.59375,55.625 c -0.586149,-0.782913 -1.483533,-0.913773 -2.3125,-0.90625 -0.737885,0.0067 -1.452481,0.08721 -2,-0.03125 l 0,-21.875 c 0.95047,0.03855 1.978311,-0.05669 2.90625,0 1.021481,0.06241 1.874662,0.311603 2.46875,1.0625 0.132303,0.679889 0.44053,1.437546 0.53125,2 0.04752,0.294633 0.0438,0.503416 -0.03125,0.625 -0.07505,0.121584 -0.229739,0.218208 -0.625,0.25 a 0.31302056,0.31302056 0 0 0 -0.125,0.03125 c -0.690871,0.405831 -1.015096,1.121059 -1.09375,1.84375 -0.07865,0.722691 0.04884,1.48342 0.25,2.09375 a 0.31302056,0.31302056 0 0 0 0.03125,0.0625 c 0.347095,0.672289 0.986713,0.974869 1.625,1.09375 0.530227,0.09875 1.049396,0.07407 1.53125,0.0625 l 0,21.875 c -0.602858,-0.04742 -1.260548,-0.05097 -1.875,0.15625 -0.720541,0.243001 -1.369489,0.797025 -1.5,1.6875 -0.0015,0.01033 0.0014,0.02083 0,0.03125 -0.138278,0.674322 -0.121515,1.452027 0.15625,2.125 0.281896,0.682983 0.874488,1.259035 1.75,1.3125 a 0.31302056,0.31302056 0 0 0 0.03125,0 c 7.386112,0.05204 14.798082,0.0522 22.1875,0 a 0.31302056,0.31302056 0 0 0 0.0625,0 c 0.512868,-0.09298 0.9093,-0.312176 1.1875,-0.625 0.2782,-0.312824 0.428576,-0.698829 0.53125,-1.09375 0.205348,-0.789842 0.212096,-1.672524 0.34375,-2.3125 a 0.31302056,0.31302056 0 0 0 0,-0.03125 l 0.71875,-5.03125 c 0.643309,-0.01506 1.43753,0.120792 2.25,0.09375 0.451302,-0.01502 0.907305,-0.07975 1.3125,-0.28125 0.405195,-0.201495 0.747652,-0.560519 0.96875,-1.0625 a 0.31302056,0.31302056 0 0 0 0,-0.03125 c 0.25596,-0.725369 0.327267,-1.575173 0.09375,-2.34375 -0.190658,-0.627515 -0.62667,-1.209022 -1.25,-1.5 L 68.3125,48.25 c 1.546391,2.320568 3.247463,4.65144 4.625,6.90625 -0.594206,0.393393 -0.938132,1.043432 -1.03125,1.71875 -0.10927,0.792454 0.05811,1.633946 0.40625,2.28125 a 0.31302056,0.31302056 0 0 0 0.03125,0.03125 c 0.6873,0.868241 1.702732,0.991542 2.65625,0.9375 0.953518,-0.05404 1.914145,-0.237541 2.625,-0.09375 a 0.31302056,0.31302056 0 0 0 0.09375,0 c 1.922881,-0.180479 4.016363,0.353379 6.0625,-0.09375 a 0.31302056,0.31302056 0 0 0 0.0625,-0.03125 c 0.818426,-0.353974 1.23846,-1.135422 1.34375,-1.9375 0.10529,-0.802078 -0.06221,-1.64141 -0.4375,-2.28125 a 0.31302056,0.31302056 0 0 0 -0.03125,-0.03125 c -0.466384,-0.674681 -1.192889,-0.829613 -1.875,-0.875 C 82.184597,54.737391 81.548954,54.746307 81.0625,54.625 78.194057,50.491089 75.357313,46.332285 72.5,42.1875 c 2.053203,-2.898012 3.988469,-5.886991 6.125,-8.6875 0.245764,-0.318359 0.553342,-0.486814 0.9375,-0.59375 0.384158,-0.106936 0.820371,-0.142858 1.28125,-0.1875 0.460879,-0.04464 0.93549,-0.101119 1.375,-0.28125 0.43951,-0.180131 0.851773,-0.503518 1.09375,-1.03125 0.263449,-0.703082 0.368962,-1.587942 0.15625,-2.375 C 83.256038,28.244192 82.693656,27.51831 81.75,27.375 a 0.31302056,0.31302056 0 0 0 -0.0625,0 c -2.753427,0.05634 -5.563772,0.06784 -8.3125,0 a 0.31302056,0.31302056 0 0 0 -0.0625,0 c -0.966898,0.188242 -1.529611,0.953589 -1.71875,1.78125 -0.189139,0.827661 -0.05735,1.734028 0.28125,2.4375 a 0.31302056,0.31302056 0 0 0 0.09375,0.125 c 0.518957,0.384279 0.832558,0.648857 0.875,0.78125 0.02122,0.0662 0.01188,0.141469 -0.0625,0.28125 -0.07438,0.139781 -0.232452,0.336313 -0.5,0.59375 A 0.31302056,0.31302056 0 0 0 72.25,33.40625 l -2.875,4.15625 c -1.186768,-1.753534 -2.451893,-3.512833 -3.5625,-5.21875 0.634852,-0.383315 0.958417,-1.057084 1.0625,-1.75 0.120412,-0.801628 -0.02026,-1.652861 -0.375,-2.3125 A 0.31302056,0.31302056 0 0 0 66.46875,28.25 c -0.692335,-0.872659 -1.726677,-0.998344 -2.6875,-0.9375 z"
         id="path4321"
         style="opacity:0.03999999;fill:#000000;stroke:none" />
      <path
         d="M 55.6875,28.53125 A 0.96401889,0.96401889 0 0 0 54.84375,29.5 l 0,1 a 0.96401889,0.96401889 0 0 0 0.96875,0.96875 c 1.12869,0 1.810311,0.0335 2.1875,0.15625 0.377189,0.12275 0.570411,0.283759 0.96875,0.84375 l 7.6875,11.21875 -6.875,10.03125 0,0.03125 c -1.532617,2.198873 -3.790921,2.21875 -4.53125,2.21875 a 0.96401889,0.96401889 0 0 0 -0.96875,0.96875 l 0,1 a 0.96401889,0.96401889 0 0 0 1.0625,0.96875 c 0.298453,-0.02478 0.772618,-0.02326 1.1875,-0.03125 -0.365012,1.934476 -0.795534,3.488477 -1.59375,4.40625 -0.965127,1.109684 -2.546583,1.75 -5.78125,1.75 l -5.78125,0 c -0.367125,0 -0.602507,-0.01107 -0.75,-0.03125 -0.0135,-0.12804 -0.03125,-0.321531 -0.03125,-0.625 l 0,-10.6875 2.96875,0 c 1.849655,0 2.510717,0.298897 2.84375,0.75 0.333033,0.451103 0.5,1.49485 0.5,3.21875 A 0.96401889,0.96401889 0 0 0 49.875,58.625 l 0.65625,0 A 0.96401889,0.96401889 0 0 0 51.5,57.65625 l 0,-10.8125 A 0.96401889,0.96401889 0 0 0 50.53125,45.875 l -0.65625,0 a 0.96401889,0.96401889 0 0 0 -0.96875,0.96875 c 0,1.693854 -0.140937,2.689949 -0.46875,3.125 -0.327813,0.435051 -1.022497,0.75 -2.875,0.75 l -2.96875,0 0,-9.34375 c 0,-0.31095 0.01669,-0.502278 0.03125,-0.625 0.145274,-0.02102 0.385275,-0.03125 0.75,-0.03125 l 5.6875,0 c 3.095854,0 4.513001,0.585023 5.34375,1.625 0.830749,1.039977 1.179636,2.865949 1.46875,5.59375 a 0.96401889,0.96401889 0 0 0 0.96875,0.875 l 0.75,0 A 0.96401889,0.96401889 0 0 0 58.5625,47.75 l -1,-9.21875 a 0.96401889,0.96401889 0 0 0 -0.96875,-0.875 l -17.21875,0 L 38.75,29.5 a 0.96401889,0.96401889 0 0 0 -0.96875,-0.90625 l -24.0625,0 A 0.96401889,0.96401889 0 0 0 12.75,29.5 l -0.71875,9.21875 A 0.96401889,0.96401889 0 0 0 13,39.75 l 0.75,0 a 0.96401889,0.96401889 0 0 0 0.96875,-0.90625 c 0.267486,-3.428839 0.627329,-5.275801 1.34375,-6.09375 0.35821,-0.408974 0.811465,-0.65063 1.65625,-0.84375 0.844785,-0.19312 2.039707,-0.28125 3.625,-0.28125 l 2.09375,0 c 0.0072,0.08694 0.03125,0.237162 0.03125,0.625 l 0,22.6875 c 0,0.364373 -0.0085,0.630268 -0.03125,0.71875 -0.02274,0.08848 0.01061,0.004 -0.03125,0.03125 -0.08373,0.05444 -0.880735,0.25 -2.59375,0.25 l -1.1875,0 a 0.96401889,0.96401889 0 0 0 -0.96875,0.96875 l 0,1 a 0.96401889,0.96401889 0 0 0 1,0.96875 c 1.993964,-0.03878 4.056358,-0.0625 6.09375,-0.0625 2.030637,0 4.101537,0.02373 6.09375,0.0625 a 0.96401889,0.96401889 0 0 0 1,-0.96875 l 0,-1 A 0.96401889,0.96401889 0 0 0 31.875,55.9375 l -1.15625,0 c -1.686299,0 -2.477378,-0.194502 -2.5625,-0.25 -0.04256,-0.02775 -0.008,0.02632 -0.03125,-0.0625 -0.02322,-0.08882 -0.03125,-0.325356 -0.03125,-0.6875 l 0,-22.6875 c 0,-0.383881 0.02245,-0.54603 0.03125,-0.625 l 2.03125,0 c 1.550322,0 2.725013,0.09095 3.5625,0.28125 0.837487,0.190299 1.324576,0.440756 1.6875,0.84375 0.630118,0.699688 0.959527,2.345047 1.21875,4.90625 l -1.125,0 A 0.96401889,0.96401889 0 0 0 34.53125,38.625 l 0,1.125 A 0.96401889,0.96401889 0 0 0 35.5,40.71875 c 1.475763,0 2.293001,0.08513 2.375,0.125 0.02595,0.07709 0.0625,0.351941 0.0625,0.78125 l 0,22.5 c 0,0.429946 -0.03662,0.703907 -0.0625,0.78125 -0.08013,0.03902 -0.895847,0.125 -2.375,0.125 A 0.96401889,0.96401889 0 0 0 34.53125,66 l 0,1 A 0.96401889,0.96401889 0 0 0 35.5,67.96875 l 21.6875,0 A 0.96401889,0.96401889 0 0 0 58.15625,67.125 l 1.1875,-8.3125 c 1.1364,0.0049 2.676579,0.03103 3.5,0.09375 A 0.96401889,0.96401889 0 0 0 63.875,57.9375 l 0,-1 A 0.96401889,0.96401889 0 0 0 63,55.96875 c -0.441807,-0.04262 -0.571363,-0.144418 -0.65625,-0.25 -0.08489,-0.105582 -0.125,-0.277395 -0.125,-0.4375 0,-0.304826 0.01695,-0.278359 0.21875,-0.5625 a 0.96401889,0.96401889 0 0 0 0,-0.03125 l 5.875,-8.5625 6.46875,9.5 a 0.96401889,0.96401889 0 0 0 0.03125,0.03125 c 0.0514,0.07225 0.03807,0.05281 0.0625,0.09375 -0.09632,0.07854 -0.307559,0.187209 -0.84375,0.21875 A 0.96401889,0.96401889 0 0 0 73.125,56.9375 l 0,1 a 0.96401889,0.96401889 0 0 0 1.03125,0.96875 c 1.269563,-0.07525 3.275174,-0.0625 4.65625,-0.0625 1.088675,0 3.227235,-0.0077 4.125,0.0625 a 0.96401889,0.96401889 0 0 0 1.03125,-0.96875 l 0,-1 A 0.96401889,0.96401889 0 0 0 83,55.96875 c -1.310673,0 -2.001244,-0.07399 -2.3125,-0.1875 C 80.376244,55.667736 80.260719,55.547924 79.875,55 l -8.8125,-12.8125 5.8125,-8.375 c 0.631021,-0.894124 1.420765,-2.302868 4.5,-2.34375 A 0.96401889,0.96401889 0 0 0 82.34375,30.5 l 0,-1 a 0.96401889,0.96401889 0 0 0 -1.0625,-0.96875 c -0.876864,0.07268 -2.447229,0.09375 -3.4375,0.09375 -1.366453,0 -3.095185,-0.02006 -4.0625,-0.09375 A 0.96401889,0.96401889 0 0 0 72.75,29.5 l 0,1 a 0.96401889,0.96401889 0 0 0 0.875,0.96875 c 0.469995,0.04384 0.581127,0.15442 0.65625,0.25 0.07512,0.09558 0.125,0.255664 0.125,0.4375 0,0.235321 -0.03897,0.30522 -0.3125,0.6875 L 69.375,39.6875 64,31.8125 l 0.03125,0 c -0.04617,-0.07249 -0.03128,-0.0728 -0.0625,-0.125 0.107346,-0.08905 0.294791,-0.205099 0.78125,-0.21875 A 0.96401889,0.96401889 0 0 0 65.6875,30.5 l 0,-1 a 0.96401889,0.96401889 0 0 0 -1.03125,-0.96875 c -1.283644,0.07608 -3.321047,0.09375 -4.6875,0.09375 -1.07006,0 -3.181041,-0.02201 -4.09375,-0.09375 a 0.96401889,0.96401889 0 0 0 -0.1875,0 z"
         id="path5651"
         style="opacity:0.06000001;fill:#000000;stroke:none" />
      <g
         transform="matrix(1.6829755,0,0,1.6829755,13,29.506672)"
         id="g5615"
         style="opacity:0.12000002;display:inline">
        <path
           d="m 14.718,0.0350342 -14.300001,0 L 0,5.51202 l 0.445,0 C 0.764999,1.41003 1.117,0.692017 4.957,0.692017 c 0.445,0 1.168,0 1.367,0 0.473,0.074035 0.473,0.375003 0.473,0.945003 l 0,13.47998 c 0,0.895 -0.075,1.168 -2.161,1.168 l -0.703,0 0,0.5981 C 5.121,16.86 6.359,16.836 7.574,16.836 c 1.211,0 2.453,0.024 3.64,0.0471 l 0,-0.5981 -0.691,0 c -2.05501,0 -2.129,-0.273 -2.129,-1.168 l 0,-13.47998 c 0,-0.54699 0,-0.84399 0.446,-0.945003 0.195,0 0.91401,0 1.359,0 3.789,0 4.16,0.713993 4.48,4.820003 l 0.446,0"
           id="path5617"
           style="fill:#000000;stroke:none" />
        <path
           d="m 27.144,16.02 -0.445,0 c -0.543,3.672 -0.863,5.668 -5.219,5.668 l -3.437,0 c -0.989,0 -1.036,-0.125 -1.036,-0.977 l 0,-6.922 2.336,0 c 2.336,0 2.559,0.856 2.559,2.946 l 0.398,0 0,-6.442 -0.398,0 c 0,2.055 -0.223,2.895 -2.559,2.895 l -2.336,0 0,-6.13697 c 0,-0.836 0.047,-0.961 1.036,-0.961 l 3.386,0 c 3.832,0 4.278,1.52301 4.625,4.79697 l 0.446,0 -0.594,-5.47697 -12.539,0 0,0.68 c 1.754,0 2.035,0 2.035,1.11297 l 0,13.364 c 0,1.1131 -0.277,1.1131 -2.035,1.1131 l 0,0.5979 12.887,0"
           id="path5619"
           style="fill:#000000;stroke:none" />
        <path
           d="M 33.82,7.51202 37.484,2.21503 C 37.851,1.69501 38.597,0.625 40.629,0.598022 L 40.629,0 c -0.567,0.0469971 -1.508,0.0469971 -2.102,0.0469971 -0.816,0 -1.832,0 -2.449,-0.0469971 l 0,0.598022 c 0.793,0.073975 0.988,0.570008 0.988,0.968998 0,0.29602 -0.121,0.49603 -0.297,0.742 L 33.5,7.05103 29.836,1.68805 C 29.664,1.41803 29.64,1.34003 29.64,1.26605 c 0,-0.22302 0.27,-0.645017 1.09,-0.668028 L 30.73,0 c -0.793,0.0469971 -2.004,0.0469971 -2.82,0.0469971 -0.641,0 -1.879,0 -2.477,-0.0469971 l 0,0.598022 c 1.36,0 1.805,0.051026 2.352,0.820008 l 4.777,7.01599 -4.308,6.29308 c -1.063,1.539 -2.672,1.5659 -3.145,1.5659 l 0,0.5981 c 0.566,-0.047 1.508,-0.047 2.102,-0.047 0.668,0 1.832,0 2.449,0.047 l 0,-0.5981 c -0.766,-0.0739 -0.988,-0.57 -0.988,-0.969 0,-0.32 0.121,-0.496 0.246,-0.672 l 3.961,-5.78097 4.308,6.33197 c 0.195,0.2741 0.195,0.348 0.195,0.422 0,0.195 -0.222,0.621 -1.089,0.672 l 0,0.598 c 0.793,-0.047 2.004,-0.047 2.82,-0.047 0.641,0 1.879,0 2.48,0.047 l 0,-0.598 c -1.586,0 -1.836,-0.121 -2.328,-0.8199"
           id="path5621"
           style="fill:#000000;stroke:none" />
      </g>
      <g
         transform="matrix(1.6829755,0,0,1.6829755,13,28.506672)"
         id="g12"
         style="fill:#333333;display:inline">
        <path
           d="m 14.718,0.0350342 -14.300001,0 L 0,5.51202 l 0.445,0 C 0.764999,1.41003 1.117,0.692017 4.957,0.692017 c 0.445,0 1.168,0 1.367,0 0.473,0.074035 0.473,0.375003 0.473,0.945003 l 0,13.47998 c 0,0.895 -0.075,1.168 -2.161,1.168 l -0.703,0 0,0.5981 C 5.121,16.86 6.359,16.836 7.574,16.836 c 1.211,0 2.453,0.024 3.64,0.0471 l 0,-0.5981 -0.691,0 c -2.05501,0 -2.129,-0.273 -2.129,-1.168 l 0,-13.47998 c 0,-0.54699 0,-0.84399 0.446,-0.945003 0.195,0 0.91401,0 1.359,0 3.789,0 4.16,0.713993 4.48,4.820003 l 0.446,0"
           id="path14"
           style="fill:#333333;stroke:none" />
        <path
           d="m 27.144,16.02 -0.445,0 c -0.543,3.672 -0.863,5.668 -5.219,5.668 l -3.437,0 c -0.989,0 -1.036,-0.125 -1.036,-0.977 l 0,-6.922 2.336,0 c 2.336,0 2.559,0.856 2.559,2.946 l 0.398,0 0,-6.442 -0.398,0 c 0,2.055 -0.223,2.895 -2.559,2.895 l -2.336,0 0,-6.13697 c 0,-0.836 0.047,-0.961 1.036,-0.961 l 3.386,0 c 3.832,0 4.278,1.52301 4.625,4.79697 l 0.446,0 -0.594,-5.47697 -12.539,0 0,0.68 c 1.754,0 2.035,0 2.035,1.11297 l 0,13.364 c 0,1.1131 -0.277,1.1131 -2.035,1.1131 l 0,0.5979 12.887,0"
           id="path16"
           style="fill:#333333;stroke:none" />
        <path
           d="M 33.82,7.51202 37.484,2.21503 C 37.851,1.69501 38.597,0.625 40.629,0.598022 L 40.629,0 c -0.567,0.0469971 -1.508,0.0469971 -2.102,0.0469971 -0.816,0 -1.832,0 -2.449,-0.0469971 l 0,0.598022 c 0.793,0.073975 0.988,0.570008 0.988,0.968998 0,0.29602 -0.121,0.49603 -0.297,0.742 L 33.5,7.05103 29.836,1.68805 C 29.664,1.41803 29.64,1.34003 29.64,1.26605 c 0,-0.22302 0.27,-0.645017 1.09,-0.668028 L 30.73,0 c -0.793,0.0469971 -2.004,0.0469971 -2.82,0.0469971 -0.641,0 -1.879,0 -2.477,-0.0469971 l 0,0.598022 c 1.36,0 1.805,0.051026 2.352,0.820008 l 4.777,7.01599 -4.308,6.29308 c -1.063,1.539 -2.672,1.5659 -3.145,1.5659 l 0,0.5981 c 0.566,-0.047 1.508,-0.047 2.102,-0.047 0.668,0 1.832,0 2.449,0.047 l 0,-0.5981 c -0.766,-0.0739 -0.988,-0.57 -0.988,-0.969 0,-0.32 0.121,-0.496 0.246,-0.672 l 3.961,-5.78097 4.308,6.33197 c 0.195,0.2741 0.195,0.348 0.195,0.422 0,0.195 -0.222,0.621 -1.089,0.672 l 0,0.598 c 0.793,-0.047 2.004,-0.047 2.82,-0.047 0.641,0 1.879,0 2.48,0.047 l 0,-0.598 c -1.586,0 -1.836,-0.121 -2.328,-0.8199"
           id="path18"
           style="fill:#333333;stroke:none" />
      </g>
    </g>
  </g>
</svg>
