<?xml version="1.0" encoding="UTF-8" standalone="no"?>
<!-- Created with Inkscape (http://www.inkscape.org/) -->

<svg
   xmlns:svg="http://www.w3.org/2000/svg"
   xmlns="http://www.w3.org/2000/svg"
   xmlns:xlink="http://www.w3.org/1999/xlink"
   version="1.1"
   width="128"
   height="128"
   id="svg3722">
  <defs
     id="defs3724">
    <filter
       color-interpolation-filters="sRGB"
       id="filter3610">
      <feGaussianBlur
         id="feGaussianBlur3612"
         stdDeviation="1.56" />
    </filter>
    <linearGradient
       x1="18"
       y1="361"
       x2="110"
       y2="361"
       id="linearGradient3720"
       xlink:href="#linearGradient5884"
       gradientUnits="userSpaceOnUse" />
    <linearGradient
       id="linearGradient5884">
      <stop
         id="stop5886"
         style="stop-color:#778aa6;stop-opacity:1"
         offset="0" />
      <stop
         id="stop5888"
         style="stop-color:#a0afc5;stop-opacity:1"
         offset="1" />
    </linearGradient>
    <linearGradient
       x1="56.65461"
       y1="5.5"
       x2="56.65461"
       y2="122.50977"
       id="linearGradient3805"
       xlink:href="#linearGradient3694"
       gradientUnits="userSpaceOnUse"
       gradientTransform="matrix(0.98252641,0,0,0.9921278,0.77111153,297.96672)" />
    <linearGradient
       id="linearGradient3694">
      <stop
         id="stop3696"
         style="stop-color:#ffffff;stop-opacity:1"
         offset="0" />
      <stop
         id="stop3700"
         style="stop-color:#ffffff;stop-opacity:0.67464113"
         offset="0.5" />
      <stop
         id="stop3698"
         style="stop-color:#ffffff;stop-opacity:0"
         offset="1" />
    </linearGradient>
    <filter
       color-interpolation-filters="sRGB"
       id="filter3778">
      <feGaussianBlur
         id="feGaussianBlur3780"
         stdDeviation="0.51837461" />
    </filter>
    <linearGradient
       x1="56.65461"
       y1="5.5"
       x2="56.65461"
       y2="122.50977"
       id="linearGradient3807"
       xlink:href="#linearGradient3694"
       gradientUnits="userSpaceOnUse"
       gradientTransform="matrix(0.98252641,0,0,0.9921278,0.77111153,297.96672)" />
    <linearGradient
       id="linearGradient3836">
      <stop
         id="stop3838"
         style="stop-color:#ffffff;stop-opacity:1"
         offset="0" />
      <stop
         id="stop3840"
         style="stop-color:#ffffff;stop-opacity:0.67464113"
         offset="0.5" />
      <stop
         id="stop3842"
         style="stop-color:#ffffff;stop-opacity:0"
         offset="1" />
    </linearGradient>
    <filter
       color-interpolation-filters="sRGB"
       id="filter3702">
      <feGaussianBlur
         id="feGaussianBlur3704"
         stdDeviation="0.51369811" />
    </filter>
    <filter
       color-interpolation-filters="sRGB"
       id="filter3676">
      <feGaussianBlur
         id="feGaussianBlur3678"
         stdDeviation="0.36000001" />
    </filter>
    <linearGradient
       x1="102"
       y1="14"
       x2="92"
       y2="24"
       id="linearGradient3393"
       xlink:href="#linearGradient3649"
       gradientUnits="userSpaceOnUse"
       gradientTransform="matrix(1.4444444,0,0,1.4444444,-48.888889,294.33333)" />
    <linearGradient
       id="linearGradient3649">
      <stop
         id="stop3651"
         style="stop-color:#c9c9c9;stop-opacity:1"
         offset="0" />
      <stop
         id="stop3653"
         style="stop-color:#f0f0f0;stop-opacity:1"
         offset="1" />
    </linearGradient>
    <linearGradient
       x1="64"
       y1="122.5"
       x2="64"
       y2="93.860451"
       id="linearGradient3811"
       xlink:href="#linearGradient3758"
       gradientUnits="userSpaceOnUse" />
    <linearGradient
       id="linearGradient3758">
      <stop
         id="stop3760"
         style="stop-color:#333333;stop-opacity:1"
         offset="0" />
      <stop
         id="stop3762"
         style="stop-color:#333333;stop-opacity:0"
         offset="1" />
    </linearGradient>
    <filter
       color-interpolation-filters="sRGB"
       id="filter3782">
      <feGaussianBlur
         id="feGaussianBlur3784"
         stdDeviation="1.0410113" />
    </filter>
    <filter
       color-interpolation-filters="sRGB"
       id="filter3728">
      <feGaussianBlur
         id="feGaussianBlur3730"
         stdDeviation="0.57810125" />
    </filter>
    <linearGradient
       x1="62"
       y1="413"
       x2="62"
       y2="419"
       id="linearGradient3388"
       xlink:href="#linearGradient3636"
       gradientUnits="userSpaceOnUse" />
    <linearGradient
       id="linearGradient3636">
      <stop
         id="stop3638"
         style="stop-color:#3988c5;stop-opacity:1"
         offset="0" />
      <stop
         id="stop3644"
         style="stop-color:#347cb4;stop-opacity:1"
         offset="0.5" />
      <stop
         id="stop3640"
         style="stop-color:#2a628d;stop-opacity:1"
         offset="1" />
    </linearGradient>
    <linearGradient
       x1="62"
       y1="413"
       x2="62"
       y2="419"
       id="linearGradient3875"
       xlink:href="#linearGradient3636"
       gradientUnits="userSpaceOnUse" />
    <linearGradient
       x1="64"
       y1="60"
       x2="62"
       y2="7"
       id="linearGradient2923"
       xlink:href="#linearGradient3763"
       gradientUnits="userSpaceOnUse"
       gradientTransform="matrix(1.6469121,0,0,1.6469121,-37.364021,306.09282)" />
    <linearGradient
       id="linearGradient3763">
      <stop
         id="stop3765"
         style="stop-color:#ff7700;stop-opacity:1"
         offset="0" />
      <stop
         id="stop3767"
         style="stop-color:#ffb15d;stop-opacity:1"
         offset="1" />
    </linearGradient>
    <linearGradient
       x1="64"
       y1="60"
       x2="62"
       y2="7"
       id="linearGradient2927"
       xlink:href="#linearGradient3763"
       gradientUnits="userSpaceOnUse"
       gradientTransform="matrix(1.231823,0,0,1.231823,-27.816151,7.1708322)" />
    <linearGradient
       id="linearGradient2975">
      <stop
         id="stop2977"
         style="stop-color:#ff7700;stop-opacity:1"
         offset="0" />
      <stop
         id="stop2979"
         style="stop-color:#ffb15d;stop-opacity:1"
         offset="1" />
    </linearGradient>
    <linearGradient
       x1="64"
       y1="60"
       x2="62"
       y2="7"
       id="linearGradient2984"
       xlink:href="#linearGradient3763"
       gradientUnits="userSpaceOnUse"
       gradientTransform="matrix(1.6469121,0,0,1.6469121,-37.364021,306.09282)" />
  </defs>
  <g
     transform="translate(0,-297)"
     id="layer1">
    <g
       id="g3799">
      <path
         d="m 18,419 74,0 c 18,0 18,-18 18,-18 l 0,-72 c 0,0 -26,-26 -26,-26 l -48,0 c 0,0 -18,0 -18,18 l 0,98 z"
         id="path2832"
         style="opacity:0.9;fill:#000000;fill-opacity:1;stroke:none;filter:url(#filter3610)" />
      <path
         d="m 18,419 74,0 c 18,0 18,-18 18,-18 l 0,-72 c 0,0 -26,-26 -26,-26 l -48,0 c 0,0 -18,0 -18,18 l 0,98 z"
         id="path3627"
         style="fill:#e6e6e6;fill-opacity:1;stroke:url(#linearGradient3720)" />
      <path
         d="m 18.456586,419.00634 72.706957,0 c 17.685467,0 17.685467,-17.8583 17.685467,-17.8583 l 0.70844,-71.4332 c 0,0 -26.254119,-25.79532 -26.254119,-25.79532 l -49.050441,-0.2319 c 0,0 -16.504743,0.4638 -16.504743,18.3221 l 0.708439,96.99662 z"
         transform="matrix(0.98017447,0,0,0.99812248,1.4934147,0.7943904)"
         id="path3684"
         style="opacity:0.9;fill:none;stroke:url(#linearGradient3805);stroke-width:0.98750001;stroke-linecap:butt;stroke-linejoin:miter;stroke-miterlimit:4;stroke-opacity:1;stroke-dasharray:none;filter:url(#filter3778)" />
      <path
         d="m 18.456586,419.00634 72.706957,0 c 17.685467,0 17.685467,-17.8583 17.685467,-17.8583 l 0.70844,-71.4332 c 0,0 -26.254119,-25.79532 -26.254119,-25.79532 l -49.050441,-0.2319 c 0,0 -16.504743,0.4638 -16.504743,18.3221 l 0.708439,96.99662 z"
         transform="matrix(0.98017447,0,0,0.99812248,1.4934147,0.7943904)"
         id="path3766"
         style="fill:none;stroke:url(#linearGradient3807);stroke-width:0.98750001;stroke-linecap:butt;stroke-linejoin:miter;stroke-miterlimit:4;stroke-opacity:1;stroke-dasharray:none;filter:url(#filter3702)" />
      <path
         d="M 92.000003,6.0000025 92,24 l 18,3e-6"
         transform="matrix(1.4444444,0,0,1.4444444,-48.888889,294.33333)"
         id="path3639"
         style="opacity:0.6;fill:none;stroke:#333333;stroke-width:1px;stroke-linecap:butt;stroke-linejoin:miter;stroke-opacity:1;filter:url(#filter3676)" />
      <path
         d="m 84,303 0,26 26,0 -26,-26 z"
         id="path3629"
         style="fill:url(#linearGradient3393);fill-opacity:1;stroke:none" />
      <path
         d="m 18,122 74,0 c 18,0 18,-18 18,-18 l 0,-72 C 110,32 84,6 84,6 L 36,6 C 36,6 18,6 18,24 l 0,98 z"
         transform="matrix(0.97617501,0,0,0.99219838,1.5247995,297.03637)"
         id="path3726"
         style="opacity:0.4;fill:none;stroke:url(#linearGradient3811);stroke-width:1px;stroke-linecap:butt;stroke-linejoin:miter;stroke-opacity:1;filter:url(#filter3782)" />
      <path
         d="m 18,419 c 0,-6 18,-6 18,-6 l 56,0 c 16.37975,-0.46293 17.38879,-17.30561 17.38879,-17.30561"
         id="path3722"
         style="opacity:0.8;fill:none;stroke:#333333;stroke-width:1px;stroke-linecap:butt;stroke-linejoin:miter;stroke-opacity:1;filter:url(#filter3728)" />
      <path
         d="m 18,419 74,0 c 18,0 18,-18 18,-18 0,0 0,-16 0,-16 0,0 0,28 -18,28 l -56,0 c 0,0 -18,0 -18,6 z"
         id="path3822"
         style="fill:url(#linearGradient3875);fill-opacity:1;stroke:none" />
    </g>
    <g
       id="g3128">
      <path
         d="m 72.721751,317.15801 c 3.647562,14.36998 -12.876535,18.73945 -18.836556,27.68872 -4.058645,6.09748 1.992168,12.62931 10.241734,20.07173 -3.217098,-7.27221 -14.131414,-13.645 0,-24.80662 17.621665,-13.90882 8.594822,-22.95383 8.594822,-22.95383 z m 10.859325,17.80724 c 1.93e-4,0 -29.773113,7.43052 -15.542731,23.82876 4.200933,4.83575 -1.080787,9.16094 -1.080787,9.16094 0,0 10.659057,-5.45817 5.764193,-12.35183 -4.573316,-6.42579 -8.122668,-9.62953 10.859325,-20.63787 z m 4.837805,29.28415 c -0.912604,0.0468 -1.853076,0.22262 -2.830631,0.56613 -0.914393,0.32367 -1.389581,1.08078 -1.389581,1.08078 0,0 0.563884,-0.24567 1.852776,-0.51465 5.27071,-1.09828 12.831536,7.05865 -3.499688,15.54273 -0.07567,0.20217 -0.308989,0.4632 -0.308796,0.4632 19.762769,-5.19521 14.99775,-17.59072 6.17592,-17.13819 z m -35.305676,0.82346 c -2.082124,0.0544 -6.99593,0.50192 -12.660634,3.24235 -8.935025,4.32032 22.121093,6.28442 38.187769,2.05865 1.670325,-1.13987 3.962884,-2.11011 3.962884,-2.11011 0,0 -6.576165,1.14886 -13.123831,1.69839 -8.014085,0.67236 -16.579889,0.83476 -20.895195,0.25732 -10.216986,-1.36591 5.609794,-5.1466 5.609794,-5.1466 0,0 -0.386745,-0.0182 -1.080787,0 z m -2.624766,9.88147 c -14.739084,4.89178 8.221401,10.45156 28.820959,4.42607 -2.188653,-0.77152 -3.60262,-2.16157 -3.60262,-2.16157 -10.071806,1.93835 -15.893762,1.84153 -23.262631,1.08079 -5.697003,-0.5888 -1.955708,-3.34529 -1.955708,-3.34529 z m 2.058641,9.5212 c -13.383188,3.73942 8.177965,11.46947 25.21834,4.16876 -2.790932,-1.0846 -4.786339,-2.31597 -4.786339,-2.31597 -7.598959,1.43638 -11.166853,1.55949 -18.064566,0.77198 -5.692768,-0.65291 -2.367435,-2.62477 -2.367435,-2.62477 z m -8.646289,6.33032 c -5.751156,-0.22125 -18.76387,5.49925 -7.616968,7.30818 34.7406,5.63115 63.306748,-2.52207 54.296629,-6.58764 0,0 2.443662,2.03376 -2.727697,3.60261 -9.833437,2.97847 -40.923061,3.86063 -49.561757,0.10295 -3.10324,-1.35166 2.697142,-3.20694 4.529008,-3.60262 1.91004,-0.4132 3.036493,-0.3088 3.036493,-0.3088 -0.431708,-0.304 -1.134114,-0.48304 -1.955708,-0.51465 z m 52.18652,5.14661 c 0,0 -1.111,2.81285 -12.969428,5.04367 -13.378179,2.51867 -29.843903,2.23322 -39.628819,0.61759 0,0 2.000017,1.65304 12.300373,2.31596 15.67254,1.00201 39.728134,-0.5606 40.297874,-7.97722 z"
         id="path2907"
         style="fill:url(#linearGradient2984);fill-opacity:1;fill-rule:evenodd;display:inline" />
      <path
         d="m 72.721751,317.15801 c 3.647562,14.36998 -12.876535,18.73945 -18.836556,27.68872 -4.058645,6.09748 1.992168,12.62931 10.241734,20.07173 -3.217098,-7.27221 -14.131414,-13.645 0,-24.80662 17.621665,-13.90882 8.594822,-22.95383 8.594822,-22.95383 z m 10.859325,17.80724 c 1.93e-4,0 -29.773113,7.43052 -15.542731,23.82876 4.200933,4.83575 -1.080787,9.16094 -1.080787,9.16094 0,0 10.659057,-5.45817 5.764193,-12.35183 -4.573316,-6.42579 -8.122668,-9.62953 10.859325,-20.63787 z m 4.837805,29.28415 c -0.912604,0.0468 -1.853076,0.22262 -2.830631,0.56613 -0.914393,0.32367 -1.389581,1.08078 -1.389581,1.08078 0,0 0.563884,-0.24567 1.852776,-0.51465 5.27071,-1.09828 12.831536,7.05865 -3.499688,15.54273 -0.07567,0.20217 -0.308989,0.4632 -0.308796,0.4632 19.762769,-5.19521 14.99775,-17.59072 6.17592,-17.13819 z m -35.305676,0.82346 c -2.082124,0.0544 -6.99593,0.50192 -12.660634,3.24235 -8.935025,4.32032 22.121093,6.28442 38.187769,2.05865 1.670325,-1.13987 3.962884,-2.11011 3.962884,-2.11011 0,0 -6.576165,1.14886 -13.123831,1.69839 -8.014085,0.67236 -16.579889,0.83476 -20.895195,0.25732 -10.216986,-1.36591 5.609794,-5.1466 5.609794,-5.1466 0,0 -0.386745,-0.0182 -1.080787,0 z m -2.624766,9.88147 c -14.739084,4.89178 8.221401,10.45156 28.820959,4.42607 -2.188653,-0.77152 -3.60262,-2.16157 -3.60262,-2.16157 -10.071806,1.93835 -15.893762,1.84153 -23.262631,1.08079 -5.697003,-0.5888 -1.955708,-3.34529 -1.955708,-3.34529 z m 2.058641,9.5212 c -13.383188,3.73942 8.177965,11.46947 25.21834,4.16876 -2.790932,-1.0846 -4.786339,-2.31597 -4.786339,-2.31597 -7.598959,1.43638 -11.166853,1.55949 -18.064566,0.77198 -5.692768,-0.65291 -2.367435,-2.62477 -2.367435,-2.62477 z m -8.646289,6.33032 c -5.751156,-0.22125 -18.76387,5.49925 -7.616968,7.30818 34.7406,5.63115 63.306748,-2.52207 54.296629,-6.58764 0,0 2.443662,2.03376 -2.727697,3.60261 -9.833437,2.97847 -40.923061,3.86063 -49.561757,0.10295 -3.10324,-1.35166 2.697142,-3.20694 4.529008,-3.60262 1.91004,-0.4132 3.036493,-0.3088 3.036493,-0.3088 -0.431708,-0.304 -1.134114,-0.48304 -1.955708,-0.51465 z m 52.18652,5.14661 c 0,0 -1.111,2.81285 -12.969428,5.04367 -13.378179,2.51867 -29.843903,2.23322 -39.628819,0.61759 0,0 2.000017,1.65304 12.300373,2.31596 15.67254,1.00201 39.728134,-0.5606 40.297874,-7.97722 z"
         id="path3672"
         style="fill:url(#linearGradient2923);fill-opacity:1;fill-rule:evenodd;display:inline" />
      <path
         d="m 72.721569,317.14512 c 0.151816,0.5981 0.2501,1.19028 0.334243,1.75478 0.0056,0.007 -0.0057,0.0342 0,0.0417 0.604607,0.78758 1.754358,2.6172 1.921897,5.30611 0.271862,-4.50427 -2.25614,-7.1026 -2.25614,-7.1026 z m 0.459584,4.4705 c -0.419991,10.94394 -14.007785,15.27956 -19.302524,23.22988 -1.042567,1.5663 -1.410904,3.17305 -1.25341,4.80474 0.102318,-1.17696 0.492414,-2.32449 1.25341,-3.46777 5.504127,-8.26472 19.987265,-12.63017 19.302524,-24.56685 z m 10.403309,13.36971 c 1.59e-4,0 -20.188852,5.01042 -19.344305,15.9601 0.562923,-6.78965 9.24486,-11.1311 14.790246,-13.20259 0.0363,-0.0233 0.0888,-0.0184 0.125341,-0.0417 1.335776,-0.85512 2.758846,-1.7473 4.428718,-2.71572 z m -14.456003,14.20532 c -0.335847,2.60509 1.526637,4.82586 3.59311,7.72937 0.731245,1.02984 1.087239,2.05582 1.211631,3.00819 0.16121,-1.34643 -0.12347,-2.81266 -1.211631,-4.34516 -1.704182,-2.39448 -3.286163,-4.32218 -3.59311,-6.3924 z m -12.032742,2.54861 c -0.26464,4.37554 3.023296,8.02003 5.431446,11.6985 0.0271,0.0414 0.0567,0.084 0.08356,0.12527 0.496797,0.45845 0.98816,0.87152 1.504092,1.33697 -1.910152,-4.31787 -6.535563,-8.28644 -7.019099,-13.16081 z m 12.492326,11.61494 c -0.339917,2.69143 -2.632163,4.59583 -2.632163,4.59583 0,0 0.887106,-0.46566 2.005457,-1.25341 0.475866,-0.94118 0.800164,-2.08277 0.626706,-3.34242 z m 18.801159,0.87738 c -0.912603,0.0468 -1.821729,0.24142 -2.799283,0.58493 -0.914394,0.32366 -1.420532,1.08629 -1.420532,1.08629 0,0 0.591223,-0.23238 1.880116,-0.50137 0.850692,-0.17725 1.730456,-0.10027 2.590382,0.16712 3.889085,-0.0949 6.94643,2.32321 7.35334,5.47323 0.40039,-3.84093 -3.063263,-7.04312 -7.604023,-6.8102 z m -35.304399,0.83561 c -2.082125,0.0544 -6.994743,0.51842 -12.659448,3.25887 -1.635429,0.79076 -1.918629,1.47962 -1.21163,2.08902 0.259431,-0.25069 0.653191,-0.48204 1.21163,-0.75205 2.486459,-1.20289 4.830837,-1.94326 6.851978,-2.42326 2.674586,-1.16507 6.893759,-2.17258 6.893759,-2.17258 0,0 -0.392247,-0.0182 -1.086289,0 z m 29.49693,3.21709 c 0,0 -6.571365,1.12169 -13.119031,1.67121 -8.014085,0.67236 -16.574871,0.82812 -20.890178,0.25068 -1.484956,-0.19852 -2.411427,-0.42874 -2.924624,-0.71026 -1.002907,0.80254 -0.64504,1.57 2.924624,2.04723 4.315307,0.57744 12.876093,0.42169 20.890178,-0.25068 3.642884,-0.30574 6.961049,-0.75236 9.48414,-1.12807 1.62739,-1.04451 3.634891,-1.88011 3.634891,-1.88011 z M 92.400116,371 c -0.340814,2.79563 -2.953711,6.35581 -9.860163,9.94372 -0.07567,0.20218 -0.292655,0.45959 -0.292463,0.45959 1.424033,-0.37435 2.708584,-0.8118 3.885573,-1.25341 5.14838,-3.44254 6.642075,-6.69328 6.267053,-9.1499 z m -41.905695,3.96913 c -4.003125,1.32861 -5.226673,2.70391 -4.470498,3.88558 0.405997,-0.69161 1.428268,-1.41457 3.258867,-2.1308 -0.01509,-0.88109 1.211631,-1.75478 1.211631,-1.75478 z m 25.193554,2.25614 c -10.071807,1.93834 -15.902789,1.84703 -23.271658,1.08629 -1.725858,-0.17838 -2.564719,-0.56338 -2.924625,-1.00273 -0.513813,0.84735 -0.458839,1.99002 2.924625,2.3397 7.368869,0.76074 13.199851,0.85206 23.271658,-1.08629 0,0 0.701503,0.64516 1.796555,1.2952 0.605614,-0.15674 1.193978,-0.28334 1.796555,-0.45959 -2.188653,-0.77152 -3.59311,-2.17258 -3.59311,-2.17258 z m -23.146317,7.26978 c -3.577826,0.99968 -4.632163,2.2611 -3.969134,3.46777 0.397077,-0.66507 1.401235,-1.3081 3.133527,-1.88011 -0.554534,-0.75896 0.835607,-1.58766 0.835607,-1.58766 z m -0.584925,1.79656 c -0.600132,0.62634 -0.947372,1.68192 2.966405,2.1308 6.897714,0.7875 10.450155,0.68433 18.049114,-0.75205 0,0 1.26447,0.76813 3.175307,1.62944 0.540136,-0.19937 1.055141,-0.44035 1.587653,-0.66849 -2.790932,-1.0846 -4.76296,-2.29792 -4.76296,-2.29792 -7.598959,1.43638 -11.1514,1.53955 -18.049114,0.75205 -1.629939,-0.18694 -2.525311,-0.46788 -2.966405,-0.79383 z m -8.063608,4.51228 c -4.523045,-0.17401 -13.518886,3.3408 -11.74028,5.72391 0.847659,-1.4229 4.024899,-2.93992 7.186221,-3.76024 1.222845,-0.54339 2.690577,-0.96019 3.467769,-1.12806 1.910041,-0.41321 3.049966,-0.33425 3.049966,-0.33425 -0.431708,-0.304 -1.142082,-0.46976 -1.963676,-0.50136 z m 46.668656,0.71026 c 0,0 0.858204,0.7303 0.501364,1.62944 0.449936,0.25581 0.774082,0.51483 0.960948,0.79382 0.541537,-0.86055 0.105073,-1.71601 -1.462312,-2.42326 z m 0.376023,1.83834 c -0.347909,0.57483 -1.204899,1.22413 -3.091746,1.79656 -9.833436,2.97846 -40.912805,3.84125 -49.551501,0.0836 -0.181022,-0.0789 -0.336601,-0.1688 -0.459584,-0.25069 -0.0075,0.007 -0.0344,-0.007 -0.04178,0 -0.597674,0.52765 -0.620789,1.09889 0.501364,1.58766 8.412029,3.6591 38.041795,2.91683 48.674113,0.12527 1.386958,-0.45843 2.529697,-0.93271 3.384209,-1.42053 0.02243,-0.0175 0.0623,-0.0242 0.08356,-0.0417 0.896632,-0.74031 0.753776,-1.43219 0.501364,-1.88012 z m 5.138981,2.59038 c 0,0 -1.09348,2.82461 -12.951907,5.05542 -13.378179,2.51868 -29.864641,2.24235 -39.649557,0.62671 0,0 1.983068,1.63498 12.283424,2.29792 1.946188,0.12447 4.039792,0.21164 6.183493,0.25068 0.01418,2.6e-4 0.02758,-2.5e-4 0.04178,0 6.999876,-0.0435 14.464827,-0.58146 21.14086,-1.83833 6.855462,-1.28966 10.039636,-2.77925 11.573157,-3.80202 0.0347,-0.0334 0.0919,-0.0497 0.12534,-0.0836 0.74291,-0.75056 1.18219,-1.57974 1.25341,-2.50682 z"
         id="path2931"
         style="fill:#d45500;fill-opacity:1;fill-rule:evenodd;display:inline" />
    </g>
  </g>
</svg>
