<?xml version="1.0" encoding="UTF-8" standalone="no"?>
<!-- Created with Inkscape (http://www.inkscape.org/) -->

<svg
   xmlns:svg="http://www.w3.org/2000/svg"
   xmlns="http://www.w3.org/2000/svg"
   xmlns:xlink="http://www.w3.org/1999/xlink"
   version="1.1"
   width="128"
   height="128"
   id="svg2816">
  <defs
     id="defs2818">
    <linearGradient
       id="linearGradient4333">
      <stop
         id="stop4335"
         style="stop-color:#b9b9b9;stop-opacity:1"
         offset="0" />
      <stop
         id="stop4337"
         style="stop-color:#efefef;stop-opacity:1"
         offset="1" />
    </linearGradient>
    <linearGradient
       id="linearGradient3652">
      <stop
         id="stop3654"
         style="stop-color:#000000;stop-opacity:0.21531101"
         offset="0" />
      <stop
         id="stop3656"
         style="stop-color:#ffffff;stop-opacity:1"
         offset="1" />
    </linearGradient>
    <linearGradient
       id="linearGradient3636">
      <stop
         id="stop3638"
         style="stop-color:#30a078;stop-opacity:1"
         offset="0" />
      <stop
         id="stop3644"
         style="stop-color:#288665;stop-opacity:1"
         offset="0.5" />
      <stop
         id="stop3640"
         style="stop-color:#216f54;stop-opacity:1"
         offset="1" />
    </linearGradient>
    <linearGradient
       id="linearGradient3758">
      <stop
         id="stop3760"
         style="stop-color:#333333;stop-opacity:1"
         offset="0" />
      <stop
         id="stop3762"
         style="stop-color:#333333;stop-opacity:0"
         offset="1" />
    </linearGradient>
    <linearGradient
       id="linearGradient3736">
      <stop
         id="stop3738"
         style="stop-color:#ffffff;stop-opacity:0"
         offset="0" />
      <stop
         id="stop3740"
         style="stop-color:#333333;stop-opacity:0.72791517"
         offset="1" />
    </linearGradient>
    <linearGradient
       id="linearGradient3708">
      <stop
         id="stop3712"
         style="stop-color:#ffffff;stop-opacity:0"
         offset="0" />
      <stop
         id="stop3714"
         style="stop-color:#333333;stop-opacity:1"
         offset="1" />
    </linearGradient>
    <linearGradient
       id="linearGradient3694">
      <stop
         id="stop3696"
         style="stop-color:#ffffff;stop-opacity:1"
         offset="0" />
      <stop
         id="stop3700"
         style="stop-color:#ffffff;stop-opacity:0.67464113"
         offset="0.5" />
      <stop
         id="stop3698"
         style="stop-color:#ffffff;stop-opacity:0"
         offset="1" />
    </linearGradient>
    <linearGradient
       id="linearGradient3649">
      <stop
         id="stop3651"
         style="stop-color:#c9c9c9;stop-opacity:1"
         offset="0" />
      <stop
         id="stop3653"
         style="stop-color:#f0f0f0;stop-opacity:1"
         offset="1" />
    </linearGradient>
    <linearGradient
       id="linearGradient3631">
      <stop
         id="stop3633"
         style="stop-color:#dddddd;stop-opacity:0.62190813"
         offset="0" />
      <stop
         id="stop3635"
         style="stop-color:#ffffff;stop-opacity:1"
         offset="1" />
    </linearGradient>
    <linearGradient
       x1="102"
       y1="14"
       x2="92"
       y2="24"
       id="linearGradient3637"
       xlink:href="#linearGradient3649"
       gradientUnits="userSpaceOnUse"
       gradientTransform="matrix(1.4444444,0,0,1.4444444,-48.888889,294.33333)" />
    <filter
       color-interpolation-filters="sRGB"
       id="filter3676">
      <feGaussianBlur
         id="feGaussianBlur3678"
         stdDeviation="0.36000001" />
    </filter>
    <filter
       color-interpolation-filters="sRGB"
       id="filter3610">
      <feGaussianBlur
         id="feGaussianBlur3612"
         stdDeviation="1.56" />
    </filter>
    <linearGradient
       x1="56.65461"
       y1="5.5"
       x2="56.65461"
       y2="122.50977"
       id="linearGradient3692"
       xlink:href="#linearGradient3694"
       gradientUnits="userSpaceOnUse"
       gradientTransform="matrix(0.98252641,0,0,0.9921278,0.77111153,297.96672)" />
    <filter
       color-interpolation-filters="sRGB"
       id="filter3702">
      <feGaussianBlur
         id="feGaussianBlur3704"
         stdDeviation="0.51369811" />
    </filter>
    <linearGradient
       x1="64"
       y1="122.5"
       x2="64"
       y2="93.860451"
       id="linearGradient3748"
       xlink:href="#linearGradient3758"
       gradientUnits="userSpaceOnUse" />
    <linearGradient
       x1="56.65461"
       y1="5.5"
       x2="56.65461"
       y2="122.50977"
       id="linearGradient3776"
       xlink:href="#linearGradient3694"
       gradientUnits="userSpaceOnUse"
       gradientTransform="matrix(0.98252641,0,0,0.9921278,0.77111153,297.96672)" />
    <filter
       color-interpolation-filters="sRGB"
       id="filter3778">
      <feGaussianBlur
         id="feGaussianBlur3780"
         stdDeviation="0.51837461" />
    </filter>
    <filter
       color-interpolation-filters="sRGB"
       id="filter3782">
      <feGaussianBlur
         id="feGaussianBlur3784"
         stdDeviation="1.0410113" />
    </filter>
    <linearGradient
       x1="64"
       y1="122"
       x2="64"
       y2="76.36528"
       id="linearGradient3794"
       xlink:href="#linearGradient3631"
       gradientUnits="userSpaceOnUse" />
    <linearGradient
       x1="56.65461"
       y1="5.5"
       x2="56.65461"
       y2="122.50977"
       id="linearGradient3805"
       xlink:href="#linearGradient3694"
       gradientUnits="userSpaceOnUse"
       gradientTransform="matrix(0.98252641,0,0,0.9921278,0.77111153,297.96672)" />
    <linearGradient
       x1="56.65461"
       y1="5.5"
       x2="56.65461"
       y2="122.50977"
       id="linearGradient3807"
       xlink:href="#linearGradient3694"
       gradientUnits="userSpaceOnUse"
       gradientTransform="matrix(0.98252641,0,0,0.9921278,0.77111153,297.96672)" />
    <linearGradient
       x1="102"
       y1="14"
       x2="92"
       y2="24"
       id="linearGradient3809"
       xlink:href="#linearGradient3649"
       gradientUnits="userSpaceOnUse"
       gradientTransform="matrix(1.4444444,0,0,1.4444444,-48.888889,294.33333)" />
    <linearGradient
       x1="64"
       y1="122.5"
       x2="64"
       y2="93.860451"
       id="linearGradient3811"
       xlink:href="#linearGradient3758"
       gradientUnits="userSpaceOnUse" />
    <linearGradient
       x1="62"
       y1="413"
       x2="62"
       y2="419"
       id="linearGradient2876"
       xlink:href="#linearGradient3636"
       gradientUnits="userSpaceOnUse" />
    <filter
       color-interpolation-filters="sRGB"
       id="filter3728">
      <feGaussianBlur
         id="feGaussianBlur3730"
         stdDeviation="0.57810125" />
    </filter>
    <linearGradient
       id="linearGradient3039">
      <stop
         id="stop3041"
         style="stop-color:#ff5f12;stop-opacity:1"
         offset="0" />
      <stop
         id="stop3043"
         style="stop-color:#ff8926;stop-opacity:1"
         offset="1" />
    </linearGradient>
    <linearGradient
       x1="38.714287"
       y1="36.42857"
       x2="38.714287"
       y2="10.428572"
       id="linearGradient3018"
       xlink:href="#linearGradient3039"
       gradientUnits="userSpaceOnUse"
       gradientTransform="matrix(1.0769231,0,0,1.0769231,-5.6923088,2.7692304)" />
    <linearGradient
       id="linearGradient3037">
      <stop
         id="stop3039"
         style="stop-color:#ff5f12;stop-opacity:1"
         offset="0" />
      <stop
         id="stop3042"
         style="stop-color:#ff8926;stop-opacity:1"
         offset="1" />
    </linearGradient>
    <radialGradient
       cx="102"
       cy="112.3047"
       r="139.55859"
       id="XMLID_8_-3"
       gradientUnits="userSpaceOnUse">
      <stop
         id="stop41-1"
         style="stop-color:#efefef;stop-opacity:1"
         offset="0" />
      <stop
         id="stop47-4"
         style="stop-color:#f9f9f9;stop-opacity:1"
         offset="0.18851049" />
      <stop
         id="stop49-9"
         style="stop-color:#fafafa;stop-opacity:1"
         offset="0.25718147" />
      <stop
         id="stop51-2"
         style="stop-color:#ffffff;stop-opacity:1"
         offset="0.30111277" />
      <stop
         id="stop53-0"
         style="stop-color:#fafafa;stop-opacity:1"
         offset="0.53130001" />
      <stop
         id="stop55-6"
         style="stop-color:#ebecec;stop-opacity:1"
         offset="0.84490001" />
      <stop
         id="stop57-8"
         style="stop-color:#e1e2e3;stop-opacity:1"
         offset="1" />
    </radialGradient>
    <linearGradient
       id="linearGradient2997-2">
      <stop
         id="stop5315-6"
         style="stop-color:#0590ff;stop-opacity:1"
         offset="0" />
      <stop
         id="stop3001-6"
         style="stop-color:#c6e6ff;stop-opacity:1"
         offset="1" />
    </linearGradient>
    <radialGradient
       cx="102"
       cy="112.3047"
       r="139.55859"
       id="radialGradient3713"
       gradientUnits="userSpaceOnUse">
      <stop
         id="stop3715"
         style="stop-color:#efefef;stop-opacity:1"
         offset="0" />
      <stop
         id="stop3717"
         style="stop-color:#f9f9f9;stop-opacity:1"
         offset="0.18851049" />
      <stop
         id="stop3719"
         style="stop-color:#fafafa;stop-opacity:1"
         offset="0.25718147" />
      <stop
         id="stop3721"
         style="stop-color:#ffffff;stop-opacity:1"
         offset="0.30111277" />
      <stop
         id="stop3723"
         style="stop-color:#fafafa;stop-opacity:1"
         offset="0.53130001" />
      <stop
         id="stop3725"
         style="stop-color:#ebecec;stop-opacity:1"
         offset="0.84490001" />
      <stop
         id="stop3727"
         style="stop-color:#e1e2e3;stop-opacity:1"
         offset="1" />
    </radialGradient>
    <linearGradient
       id="linearGradient3730">
      <stop
         id="stop3732"
         style="stop-color:#0590ff;stop-opacity:1"
         offset="0" />
      <stop
         id="stop3734"
         style="stop-color:#c6e6ff;stop-opacity:1"
         offset="1" />
    </linearGradient>
    <linearGradient
       x1="56"
       y1="32"
       x2="56"
       y2="88.117546"
       id="linearGradient6180"
       xlink:href="#linearGradient15967-6"
       gradientUnits="userSpaceOnUse" />
    <linearGradient
       x1="28"
       y1="57.5"
       x2="28"
       y2="0"
       id="linearGradient15967-6"
       gradientUnits="userSpaceOnUse">
      <stop
         id="stop15969-1"
         style="stop-color:#ffffff;stop-opacity:1"
         offset="0" />
      <stop
         id="stop15971-0"
         style="stop-color:#ffffff;stop-opacity:0"
         offset="1" />
    </linearGradient>
    <clipPath
       id="clipPath3182-6">
      <path
         d="M 18.1875,56 C 16.967826,56 16,56.967827 16,58.1875 L 16,75.25 C 25.640301,77.646967 36.509296,79 48,79 59.490704,79 70.359699,77.646967 80,75.25 L 80,58.1875 C 80,56.967826 79.032173,56 77.8125,56 l -59.625,0 z"
         id="path3184-1"
         style="fill:url(#linearGradient3186);fill-opacity:1;stroke:none;filter:url(#filter3176-5)" />
    </clipPath>
    <filter
       x="-0.053000905"
       y="-0.14748077"
       width="1.1060019"
       height="1.2949615"
       color-interpolation-filters="sRGB"
       id="filter3176-5">
      <feGaussianBlur
         stdDeviation="1.4133574"
         id="feGaussianBlur3178-9" />
    </filter>
    <linearGradient
       x1="56"
       y1="32"
       x2="56"
       y2="88.117546"
       id="linearGradient6182"
       xlink:href="#linearGradient15967-6"
       gradientUnits="userSpaceOnUse" />
    <linearGradient
       x1="28"
       y1="57.5"
       x2="28"
       y2="0"
       id="linearGradient3756"
       gradientUnits="userSpaceOnUse">
      <stop
         id="stop3758"
         style="stop-color:#ffffff;stop-opacity:1"
         offset="0" />
      <stop
         id="stop3760-6"
         style="stop-color:#ffffff;stop-opacity:0"
         offset="1" />
    </linearGradient>
    <clipPath
       id="clipPath3762">
      <path
         d="M 18.1875,56 C 16.967826,56 16,56.967827 16,58.1875 L 16,75.25 C 25.640301,77.646967 36.509296,79 48,79 59.490704,79 70.359699,77.646967 80,75.25 L 80,58.1875 C 80,56.967826 79.032173,56 77.8125,56 l -59.625,0 z"
         id="path3764"
         style="fill:url(#linearGradient3186);fill-opacity:1;stroke:none;filter:url(#filter3176-5)" />
    </clipPath>
    <linearGradient
       x1="56"
       y1="32"
       x2="56"
       y2="88.117546"
       id="linearGradient3786"
       xlink:href="#linearGradient15967-6"
       gradientUnits="userSpaceOnUse" />
    <linearGradient
       x1="56"
       y1="32"
       x2="56"
       y2="88.117546"
       id="linearGradient3451"
       xlink:href="#linearGradient15967-6"
       gradientUnits="userSpaceOnUse" />
    <linearGradient
       x1="56"
       y1="32"
       x2="56"
       y2="88.117546"
       id="linearGradient3453"
       xlink:href="#linearGradient15967-6"
       gradientUnits="userSpaceOnUse" />
    <linearGradient
       x1="102"
       y1="14"
       x2="92"
       y2="24"
       id="linearGradient3478"
       xlink:href="#linearGradient3649"
       gradientUnits="userSpaceOnUse"
       gradientTransform="matrix(1.4444444,0,0,1.4444444,-48.888889,294.33333)" />
    <linearGradient
       x1="56"
       y1="32"
       x2="56"
       y2="88.117546"
       id="linearGradient4300"
       xlink:href="#linearGradient15967-6"
       gradientUnits="userSpaceOnUse" />
    <linearGradient
       x1="56"
       y1="32"
       x2="56"
       y2="88.117546"
       id="linearGradient4302"
       xlink:href="#linearGradient15967-6"
       gradientUnits="userSpaceOnUse" />
    <linearGradient
       x1="56"
       y1="32"
       x2="56"
       y2="88.117546"
       id="linearGradient4399"
       xlink:href="#linearGradient15967-6"
       gradientUnits="userSpaceOnUse" />
    <linearGradient
       x1="56"
       y1="32"
       x2="56"
       y2="88.117546"
       id="linearGradient4423"
       xlink:href="#linearGradient15967-6"
       gradientUnits="userSpaceOnUse" />
    <linearGradient
       x1="56"
       y1="32"
       x2="56"
       y2="88.117546"
       id="linearGradient4431"
       xlink:href="#linearGradient15967-6"
       gradientUnits="userSpaceOnUse" />
    <linearGradient
       id="linearGradient3742">
      <stop
         id="stop3744"
         style="stop-color:#778aa6;stop-opacity:1"
         offset="0" />
      <stop
         id="stop3746"
         style="stop-color:#a0afc5;stop-opacity:1"
         offset="1" />
    </linearGradient>
    <linearGradient
       x1="57.801022"
       y1="69.276306"
       x2="57.801022"
       y2="15.617862"
       id="linearGradient2924"
       xlink:href="#linearGradient3742"
       gradientUnits="userSpaceOnUse"
       gradientTransform="matrix(0.84727676,0,0,0.85115952,33.571935,22.01447)" />
    <linearGradient
       id="linearGradient2986">
      <stop
         id="stop2988"
         style="stop-color:#778aa6;stop-opacity:1"
         offset="0" />
      <stop
         id="stop2990"
         style="stop-color:#a0afc5;stop-opacity:1"
         offset="1" />
    </linearGradient>
    <linearGradient
       x1="-33.665947"
       y1="16.896927"
       x2="162.36034"
       y2="16.896927"
       id="linearGradient2912"
       xlink:href="#linearGradient2902"
       gradientUnits="userSpaceOnUse" />
    <linearGradient
       id="linearGradient2902">
      <stop
         id="stop2904"
         style="stop-color:#778aa6;stop-opacity:1"
         offset="0" />
      <stop
         id="stop2906"
         style="stop-color:#a0afc5;stop-opacity:1"
         offset="1" />
    </linearGradient>
    <linearGradient
       id="linearGradient3013">
      <stop
         id="stop3015"
         style="stop-color:#778aa6;stop-opacity:1"
         offset="0" />
      <stop
         id="stop3017"
         style="stop-color:#a0afc5;stop-opacity:1"
         offset="1" />
    </linearGradient>
    <linearGradient
       x1="-33.665947"
       y1="16.896927"
       x2="162.36034"
       y2="16.896927"
       id="linearGradient2910"
       xlink:href="#linearGradient2902"
       gradientUnits="userSpaceOnUse" />
    <linearGradient
       id="linearGradient3020">
      <stop
         id="stop3022"
         style="stop-color:#778aa6;stop-opacity:1"
         offset="0" />
      <stop
         id="stop3024"
         style="stop-color:#a0afc5;stop-opacity:1"
         offset="1" />
    </linearGradient>
    <linearGradient
       x1="-33.665947"
       y1="16.896927"
       x2="162.36034"
       y2="16.896927"
       id="linearGradient5768"
       xlink:href="#linearGradient2902"
       gradientUnits="userSpaceOnUse" />
    <linearGradient
       x1="43.700191"
       y1="82.473648"
       x2="77.923637"
       y2="16.211916"
       id="linearGradient2925"
       xlink:href="#linearGradient11508"
       gradientUnits="userSpaceOnUse"
       gradientTransform="matrix(1.0642506,0.22253363,-0.33932139,0.69795647,25.389673,15.671146)" />
    <linearGradient
       id="linearGradient11508">
      <stop
         id="stop11510"
         style="stop-color:#000000;stop-opacity:1"
         offset="0" />
      <stop
         id="stop11512"
         style="stop-color:#000000;stop-opacity:0"
         offset="1" />
    </linearGradient>
    <linearGradient
       x1="43.700191"
       y1="82.473648"
       x2="87.732079"
       y2="6.208179"
       id="linearGradient2927"
       xlink:href="#linearGradient11508"
       gradientUnits="userSpaceOnUse"
       gradientTransform="matrix(1.037083,0.14898509,-0.15896024,0.97200342,11.601829,-3.9991775)" />
    <linearGradient
       id="linearGradient2970">
      <stop
         id="stop2972"
         style="stop-color:#000000;stop-opacity:1"
         offset="0" />
      <stop
         id="stop2974"
         style="stop-color:#000000;stop-opacity:0"
         offset="1" />
    </linearGradient>
    <linearGradient
       x1="60.899021"
       y1="35.60585"
       x2="68.2229"
       y2="39.53442"
       id="linearGradient2929"
       xlink:href="#linearGradient10394"
       gradientUnits="userSpaceOnUse" />
    <linearGradient
       id="linearGradient10394">
      <stop
         id="stop10396"
         style="stop-color:#333333;stop-opacity:1"
         offset="0" />
      <stop
         id="stop10404"
         style="stop-color:#636363;stop-opacity:1"
         offset="0.28225806" />
      <stop
         id="stop10402"
         style="stop-color:#c7c7c7;stop-opacity:1"
         offset="0.5" />
      <stop
         id="stop10406"
         style="stop-color:#636363;stop-opacity:1"
         offset="0.77999997" />
      <stop
         id="stop10398"
         style="stop-color:#333333;stop-opacity:1"
         offset="1" />
    </linearGradient>
    <linearGradient
       x1="24.248737"
       y1="77.502068"
       x2="13.405647"
       y2="67.6745"
       id="linearGradient2931"
       xlink:href="#linearGradient6531"
       gradientUnits="userSpaceOnUse"
       gradientTransform="matrix(0.72549189,-0.19431313,0.19481343,0.72674756,26.254071,18.267752)" />
    <linearGradient
       id="linearGradient6531">
      <stop
         id="stop6533"
         style="stop-color:#c38125;stop-opacity:1"
         offset="0" />
      <stop
         id="stop10377"
         style="stop-color:#c68d31;stop-opacity:1"
         offset="0.62962961" />
      <stop
         id="stop6535"
         style="stop-color:#fffce6;stop-opacity:1"
         offset="1" />
    </linearGradient>
    <linearGradient
       x1="58.651787"
       y1="68.171875"
       x2="47.450871"
       y2="57.993305"
       id="linearGradient2933"
       xlink:href="#linearGradient10386"
       gradientUnits="userSpaceOnUse" />
    <linearGradient
       id="linearGradient10386">
      <stop
         id="stop10388"
         style="stop-color:#ffffff;stop-opacity:1"
         offset="0" />
      <stop
         id="stop10390"
         style="stop-color:#ffffff;stop-opacity:0"
         offset="1" />
    </linearGradient>
    <radialGradient
       cx="59.85154"
       cy="41.7043"
       r="18.182745"
       fx="59.85154"
       fy="41.7043"
       id="radialGradient2935"
       xlink:href="#linearGradient10410"
       gradientUnits="userSpaceOnUse"
       gradientTransform="matrix(1,0,0,0.125,0,36.491262)" />
    <linearGradient
       id="linearGradient10410">
      <stop
         id="stop10412"
         style="stop-color:#ffffff;stop-opacity:1"
         offset="0" />
      <stop
         id="stop10414"
         style="stop-color:#ffffff;stop-opacity:0"
         offset="1" />
    </linearGradient>
    <linearGradient
       x1="39.479939"
       y1="81.5"
       x2="39.479939"
       y2="6.2799916"
       id="linearGradient2937"
       xlink:href="#linearGradient3715"
       gradientUnits="userSpaceOnUse"
       gradientTransform="translate(0.75761471,1.7677667)" />
    <linearGradient
       id="linearGradient3715">
      <stop
         id="stop3717-0"
         style="stop-color:#3767a3;stop-opacity:1"
         offset="0" />
      <stop
         id="stop3719-9"
         style="stop-color:#6593c6;stop-opacity:0"
         offset="1" />
    </linearGradient>
    <linearGradient
       x1="39.479939"
       y1="81.5"
       x2="39.479939"
       y2="6.2799916"
       id="linearGradient3012"
       xlink:href="#linearGradient3715"
       gradientUnits="userSpaceOnUse"
       gradientTransform="translate(0.75761471,1.7677667)" />
  </defs>
  <g
     transform="translate(0,-297)"
     id="layer1">
    <path
       d="m 18,419 74,0 c 18,0 18,-18 18,-18 l 0,-72 c 0,0 -26,-26 -26,-26 l -48,0 c 0,0 -18,0 -18,18 l 0,98 z"
       id="path2832"
       style="opacity:0.9;fill:#000000;fill-opacity:1;stroke:none;filter:url(#filter3610)" />
    <path
       d="m 18,419 74,0 c 18,0 18,-18 18,-18 l 0,-72 c 0,0 -26,-26 -26,-26 l -48,0 c 0,0 -18,0 -18,18 l 0,98 z"
       id="path3627"
       style="fill:#e6e6e6;fill-opacity:1;stroke:none" />
    <path
       d="m 18.456586,419.00634 72.706957,0 c 17.685467,0 17.685467,-17.8583 17.685467,-17.8583 l 0.70844,-71.4332 c 0,0 -26.254119,-25.79532 -26.254119,-25.79532 l -49.050441,-0.2319 c 0,0 -16.504743,0.4638 -16.504743,18.3221 l 0.708439,96.99662 z"
       transform="matrix(0.98017447,0,0,0.99812248,1.4934147,0.7943904)"
       id="path3684"
       style="opacity:0.9;fill:none;stroke:url(#linearGradient3805);stroke-width:0.98750001;stroke-linecap:butt;stroke-linejoin:miter;stroke-miterlimit:4;stroke-opacity:1;stroke-dasharray:none;filter:url(#filter3778)" />
    <path
       d="m 18.456586,419.00634 72.706957,0 c 17.685467,0 17.685467,-17.8583 17.685467,-17.8583 l 0.70844,-71.4332 c 0,0 -26.254119,-25.79532 -26.254119,-25.79532 l -49.050441,-0.2319 c 0,0 -16.504743,0.4638 -16.504743,18.3221 l 0.708439,96.99662 z"
       transform="matrix(0.98017447,0,0,0.99812248,1.4934147,0.7943904)"
       id="path3766"
       style="fill:none;stroke:url(#linearGradient3807);stroke-width:0.98750001;stroke-linecap:butt;stroke-linejoin:miter;stroke-miterlimit:4;stroke-opacity:1;stroke-dasharray:none;filter:url(#filter3702)" />
    <path
       d="m 18,122 74,0 c 18,0 18,-18 18,-18 l 0,-72 C 110,32 84,6 84,6 L 36,6 C 36,6 18,6 18,24 l 0,98 z"
       transform="matrix(0.97617501,0,0,0.99219838,1.5247995,297.03637)"
       id="path3726"
       style="opacity:0.4;fill:none;stroke:url(#linearGradient3811);stroke-width:1px;stroke-linecap:butt;stroke-linejoin:miter;stroke-opacity:1;filter:url(#filter3782)" />
    <path
       d="m 18,122 c 0,-6 18,-6 18,-6 l 56,0 c 16.37975,-0.46293 17.38879,-17.305605 17.38879,-17.305605"
       transform="translate(0,297)"
       id="path3722"
       style="opacity:0.8;fill:none;stroke:#333333;stroke-width:1px;stroke-linecap:butt;stroke-linejoin:miter;stroke-opacity:1;filter:url(#filter3728)" />
    <path
       d="m 18,419 74,0 c 18,0 18,-18 18,-18 0,0 0,-16 0,-16 0,0 0,28 -18,28 l -56,0 c 0,0 -18,0 -18,6 z"
       id="path3822"
       style="fill:url(#linearGradient2876);fill-opacity:1;stroke:none" />
    <path
       d="M 92.000003,6.0000025 92,24 l 18,3e-6"
       transform="matrix(1.4444444,0,0,1.4444444,-48.888889,294.33333)"
       id="path3639"
       style="opacity:0.6;fill:none;stroke:#333333;stroke-width:1px;stroke-linecap:butt;stroke-linejoin:miter;stroke-opacity:1;filter:url(#filter3676)" />
    <path
       d="m 84,303 0,26 26,0 -26,-26 z"
       id="path3629"
       style="fill:url(#linearGradient3478);fill-opacity:1;stroke:none" />
    <g
       transform="matrix(0.87372275,0,0,0.87372275,20.020546,332.4153)"
       id="layer3-1"
       style="display:inline">
      <path
         d="m 90,46.84375 c -4.526662,2.457077 -8.946706,4.898258 -12.9375,7.625 -5.360923,3.662891 -9.118267,7.330519 -10.84375,10.125 -0.0078,0.01278 -0.02345,0.01851 -0.03125,0.03125 -1.050372,0.629696 -8.581418,5.17354 -12.40625,7.8125 -4.175684,2.88103 -11.21875,10.25 -11.21875,10.25 l 0.8125,0.5 C 50.296394,79.960341 64.21875,76.75 64.21875,76.75 l 0.46875,-0.125 -0.125,-0.3125 c 0,0 -0.06096,-0.130401 0,-0.53125 0.06098,-0.400847 0.267268,-1.031355 0.78125,-1.875 1.116828,-1.833167 3.938519,-3.767858 5.84375,-4.9375 4.394188,-1.084722 10.610709,-3.97765 16.40625,-7.9375 C 88.416922,60.468811 89.206604,59.8947 90,59.3125 l 0,-12.46875 z"
         id="path10456"
         style="opacity:0.3;fill:url(#linearGradient2925);fill-opacity:1;stroke:none" />
      <path
         d="m 90,15.625 c -7.159846,8.93153 -15.447803,16.153769 -21.8125,24.71875 -4.155827,5.592495 -6.804396,10.995428 -7.78125,14.9375 -0.0044,0.01801 -0.02686,0.04455 -0.03125,0.0625 -0.833902,0.97909 -6.790683,7.975987 -9.75,12 -3.230781,4.393139 -8.125,15.125 -8.125,15.125 l 0.875,0.5625 c 5.700905,-5.22894 17.875,-11.375 17.875,-11.375 L 61.65625,71.4375 61.5,71.03125 c 0,0 -0.09207,-0.178891 -0.125,-0.71875 -0.03294,-0.539858 -0.0072,-1.404602 0.28125,-2.59375 C 62.28307,65.13484 64.493548,62.187348 66,60.375 69.83462,58.333623 74.944757,53.67089 79.4375,47.625 83.299307,42.428166 86.519301,36.783917 90,30.96875 L 90,15.625 z"
         id="path10430"
         style="opacity:0.2;fill:url(#linearGradient2927);fill-opacity:1;stroke:none" />
      <path
         d="M 71.440927,41.872208 C 66.467416,52.005602 59.449178,59.212086 56.894083,57.839372 54.168688,56.375122 55.48627,47.036106 60.589469,36.638483 65.691468,26.243298 73.641414,17.23361 78.866448,5.6272039 c 0.995766,-2.2119026 2.9241,-5.47971613 5.661833,-4.0917255 2.83771,1.4386772 2.067811,4.1308529 0.568563,7.1888151 C 79.307055,20.533515 76.414446,31.738809 71.440927,41.872208 z"
         id="path10375"
         style="fill:url(#linearGradient2929);fill-opacity:1;stroke:#000000" />
      <path
         d="m 60.457628,78.05204 a 5.4800777,7.7781744 0 1 1 -10.960155,0 5.4800777,7.7781744 0 1 1 10.960155,0 z"
         transform="matrix(0.63302987,-0.16954844,0.23046163,0.42762767,6.3123365,29.06751)"
         id="path4343"
         style="fill:none;stroke:#2e3436;stroke-width:3.53770852;stroke-linecap:round;stroke-miterlimit:4;stroke-opacity:1;stroke-dasharray:none" />
      <path
         d="m 42.944049,82.580725 c 0,0 2.9568,-11.53222 5.258149,-16.279482 2.301347,-4.747261 7.742418,-14.190941 7.742418,-14.190941 0,0 1.569862,-2.348209 4.104002,-1.099201 2.53414,1.249007 1.802655,3.648061 1.802655,3.648061 0,0 -3.821624,5.755643 -4.139564,10.196655 -0.183273,2.559974 0.416839,3.606144 0.416839,3.606144 0,0 -10.524782,7.913669 -15.184499,14.118764 z"
         id="path4341"
         style="fill:url(#linearGradient2931);fill-opacity:1;fill-rule:evenodd;stroke:#c17d11;stroke-width:1;stroke-linecap:butt;stroke-linejoin:miter;stroke-miterlimit:4;stroke-opacity:1;stroke-dasharray:none" />
      <path
         d="m -27.930719,71.864853 a 1.237437,3.0052039 0 1 1 -2.474874,0 1.237437,3.0052039 0 1 1 2.474874,0 z"
         transform="matrix(0.49816294,0.21338024,-0.22864746,0.45310119,80.994343,39.610695)"
         id="path6537"
         style="fill:#000000;fill-opacity:0.6;stroke:#c17d11;stroke-width:0.63874686;stroke-linecap:round;stroke-miterlimit:4;stroke-opacity:1;stroke-dasharray:none" />
      <path
         d="m 43.003422,82.289431 c 2.086404,-5.378172 3.575502,-9.907884 6.18441,-14.875218"
         id="path8007"
         style="fill:#c17d11;fill-opacity:1;fill-rule:evenodd;stroke:#c17d11;stroke-width:0.34297702;stroke-linecap:butt;stroke-linejoin:miter;stroke-miterlimit:4;stroke-opacity:1;stroke-dasharray:none" />
      <path
         d="m 59.6875,52.65625 c -0.218866,0.177715 -0.364551,0.362516 -0.375,0.375 -6.1e-5,1.07e-4 -0.03118,-1.23e-4 -0.03125,0 -0.07544,0.130951 -5.410002,9.430862 -7.625,14 -0.754704,1.556817 -1.65246,4.069602 -2.46875,6.65625 3.376613,-3.039337 6.273524,-5.217456 7.0625,-5.8125 -0.150656,-0.740855 -0.255031,-1.776466 -0.15625,-3.15625 0.188582,-2.634122 1.305989,-5.290338 2.34375,-7.375 0.939337,-1.886948 1.678929,-2.997095 1.84375,-3.25 0.011,-0.04406 0.05429,-0.211139 0,-0.53125 -0.05032,-0.296727 -0.105839,-0.58654 -0.59375,-0.90625 z"
         id="path10381"
         style="fill:url(#linearGradient2933);fill-opacity:1;fill-rule:evenodd;stroke:none" />
      <path
         d="m 78.034285,41.7043 a 18.182745,2.2728431 0 1 1 -36.36549,0 18.182745,2.2728431 0 1 1 36.36549,0 z"
         transform="matrix(0.46309937,-0.88630637,0.88630637,0.46309937,0.97992031,69.376951)"
         id="path10408"
         style="fill:url(#radialGradient2935);fill-opacity:1;stroke:none" />
      <path
         d="m 66.65625,29.34375 c -0.77115,0 -1.522939,0.133966 -2.25,0.34375 -0.34567,0.578188 -0.664891,1.168334 -1,1.75 0.410501,-0.06213 0.827002,-0.09375 1.25,-0.09375 3.561545,0 6.757094,2.358001 8.84375,6.03125 0.439471,-1.027772 0.86359,-2.078075 1.28125,-3.125 -2.065732,-3.019569 -4.942489,-4.90625 -8.125,-4.90625 z"
         id="path10418"
         style="opacity:0.6;fill:#ffffff;fill-opacity:1;stroke:none" />
      <path
         d="M 24.15625,5.9999997 C 40.185121,27.143001 6.5735019,41.380202 11.09375,58.25 15.494305,74.673093 35.367001,73.845561 42.53125,82.78125 37.586125,73.177898 30.822843,73.663263 28.15625,64.65625 21.375792,41.753735 91.859602,30.312441 68.96875,5.9999997 l -44.8125,0 z"
         id="path8185"
         style="fill:url(#linearGradient3012);fill-opacity:1;stroke:none;display:inline" />
    </g>
  </g>
</svg>
