<?xml version="1.0" encoding="UTF-8" standalone="no"?>
<!-- Created with Inkscape (http://www.inkscape.org/) -->

<svg
   xmlns:svg="http://www.w3.org/2000/svg"
   xmlns="http://www.w3.org/2000/svg"
   xmlns:xlink="http://www.w3.org/1999/xlink"
   version="1.1"
   width="128"
   height="128"
   id="svg2816">
  <defs
     id="defs2818">
    <linearGradient
       id="linearGradient3652">
      <stop
         id="stop3654"
         style="stop-color:#000000;stop-opacity:0.21531101"
         offset="0" />
      <stop
         id="stop3656"
         style="stop-color:#ffffff;stop-opacity:1"
         offset="1" />
    </linearGradient>
    <linearGradient
       id="linearGradient3636">
      <stop
         id="stop3638"
         style="stop-color:#30a078;stop-opacity:1"
         offset="0" />
      <stop
         id="stop3644"
         style="stop-color:#288665;stop-opacity:1"
         offset="0.5" />
      <stop
         id="stop3640"
         style="stop-color:#216f54;stop-opacity:1"
         offset="1" />
    </linearGradient>
    <linearGradient
       id="linearGradient3758">
      <stop
         id="stop3760"
         style="stop-color:#333333;stop-opacity:1"
         offset="0" />
      <stop
         id="stop3762"
         style="stop-color:#333333;stop-opacity:0"
         offset="1" />
    </linearGradient>
    <linearGradient
       id="linearGradient3736">
      <stop
         id="stop3738"
         style="stop-color:#ffffff;stop-opacity:0"
         offset="0" />
      <stop
         id="stop3740"
         style="stop-color:#333333;stop-opacity:0.72791517"
         offset="1" />
    </linearGradient>
    <linearGradient
       id="linearGradient3708">
      <stop
         id="stop3712"
         style="stop-color:#ffffff;stop-opacity:0"
         offset="0" />
      <stop
         id="stop3714"
         style="stop-color:#333333;stop-opacity:1"
         offset="1" />
    </linearGradient>
    <linearGradient
       id="linearGradient3694">
      <stop
         id="stop3696"
         style="stop-color:#ffffff;stop-opacity:1"
         offset="0" />
      <stop
         id="stop3700"
         style="stop-color:#ffffff;stop-opacity:0.67464113"
         offset="0.5" />
      <stop
         id="stop3698"
         style="stop-color:#ffffff;stop-opacity:0"
         offset="1" />
    </linearGradient>
    <linearGradient
       id="linearGradient3649">
      <stop
         id="stop3651"
         style="stop-color:#c9c9c9;stop-opacity:1"
         offset="0" />
      <stop
         id="stop3653"
         style="stop-color:#f0f0f0;stop-opacity:1"
         offset="1" />
    </linearGradient>
    <linearGradient
       id="linearGradient3631">
      <stop
         id="stop3633"
         style="stop-color:#dddddd;stop-opacity:0.62190813"
         offset="0" />
      <stop
         id="stop3635"
         style="stop-color:#ffffff;stop-opacity:1"
         offset="1" />
    </linearGradient>
    <linearGradient
       x1="102"
       y1="14"
       x2="92"
       y2="24"
       id="linearGradient3637"
       xlink:href="#linearGradient3649"
       gradientUnits="userSpaceOnUse"
       gradientTransform="matrix(1.4444444,0,0,1.4444444,-48.888889,294.33333)" />
    <filter
       color-interpolation-filters="sRGB"
       id="filter3676">
      <feGaussianBlur
         id="feGaussianBlur3678"
         stdDeviation="0.36000001" />
    </filter>
    <filter
       color-interpolation-filters="sRGB"
       id="filter3610">
      <feGaussianBlur
         id="feGaussianBlur3612"
         stdDeviation="1.56" />
    </filter>
    <linearGradient
       x1="56.65461"
       y1="5.5"
       x2="56.65461"
       y2="122.50977"
       id="linearGradient3692"
       xlink:href="#linearGradient3694"
       gradientUnits="userSpaceOnUse"
       gradientTransform="matrix(0.98252641,0,0,0.9921278,0.77111153,297.96672)" />
    <filter
       color-interpolation-filters="sRGB"
       id="filter3702">
      <feGaussianBlur
         id="feGaussianBlur3704"
         stdDeviation="0.51369811" />
    </filter>
    <linearGradient
       x1="64"
       y1="122.5"
       x2="64"
       y2="93.860451"
       id="linearGradient3748"
       xlink:href="#linearGradient3758"
       gradientUnits="userSpaceOnUse" />
    <linearGradient
       x1="56.65461"
       y1="5.5"
       x2="56.65461"
       y2="122.50977"
       id="linearGradient3776"
       xlink:href="#linearGradient3694"
       gradientUnits="userSpaceOnUse"
       gradientTransform="matrix(0.98252641,0,0,0.9921278,0.77111153,297.96672)" />
    <filter
       color-interpolation-filters="sRGB"
       id="filter3778">
      <feGaussianBlur
         id="feGaussianBlur3780"
         stdDeviation="0.51837461" />
    </filter>
    <filter
       color-interpolation-filters="sRGB"
       id="filter3782">
      <feGaussianBlur
         id="feGaussianBlur3784"
         stdDeviation="1.0410113" />
    </filter>
    <linearGradient
       x1="64"
       y1="122"
       x2="64"
       y2="76.36528"
       id="linearGradient3794"
       xlink:href="#linearGradient3631"
       gradientUnits="userSpaceOnUse" />
    <linearGradient
       x1="56.65461"
       y1="5.5"
       x2="56.65461"
       y2="122.50977"
       id="linearGradient3805"
       xlink:href="#linearGradient3694"
       gradientUnits="userSpaceOnUse"
       gradientTransform="matrix(0.98252641,0,0,0.9921278,0.77111153,297.96672)" />
    <linearGradient
       x1="56.65461"
       y1="5.5"
       x2="56.65461"
       y2="122.50977"
       id="linearGradient3807"
       xlink:href="#linearGradient3694"
       gradientUnits="userSpaceOnUse"
       gradientTransform="matrix(0.98252641,0,0,0.9921278,0.77111153,297.96672)" />
    <linearGradient
       x1="102"
       y1="14"
       x2="92"
       y2="24"
       id="linearGradient3809"
       xlink:href="#linearGradient3649"
       gradientUnits="userSpaceOnUse"
       gradientTransform="matrix(1.4444444,0,0,1.4444444,-48.888889,294.33333)" />
    <linearGradient
       x1="64"
       y1="122.5"
       x2="64"
       y2="93.860451"
       id="linearGradient3811"
       xlink:href="#linearGradient3758"
       gradientUnits="userSpaceOnUse" />
    <linearGradient
       x1="62"
       y1="413"
       x2="62"
       y2="419"
       id="linearGradient2876"
       xlink:href="#linearGradient3636"
       gradientUnits="userSpaceOnUse" />
    <linearGradient
       x1="102"
       y1="14"
       x2="92"
       y2="24"
       id="linearGradient2880"
       xlink:href="#linearGradient3649"
       gradientUnits="userSpaceOnUse"
       gradientTransform="matrix(1.4444444,0,0,1.4444444,-48.888889,294.33333)" />
    <filter
       color-interpolation-filters="sRGB"
       id="filter3728">
      <feGaussianBlur
         id="feGaussianBlur3730"
         stdDeviation="0.57810125" />
    </filter>
    <filter
       color-interpolation-filters="sRGB"
       id="filter3930">
      <feGaussianBlur
         id="feGaussianBlur3932"
         stdDeviation="0.32683594" />
    </filter>
    <linearGradient
       x1="53.89452"
       y1="46.00061"
       x2="53.89452"
       y2="12.192646"
       id="linearGradient6994"
       xlink:href="#linearGradient3729-6"
       gradientUnits="userSpaceOnUse"
       gradientTransform="translate(-6.3695831,18.92757)" />
    <linearGradient
       id="linearGradient3729-6">
      <stop
         id="stop3731-3"
         style="stop-color:#2f55cf;stop-opacity:1"
         offset="0" />
      <stop
         id="stop3733-8"
         style="stop-color:#6480dc;stop-opacity:1"
         offset="1" />
    </linearGradient>
    <linearGradient
       x1="53.89452"
       y1="46.00061"
       x2="53.89452"
       y2="12.192646"
       id="linearGradient4359-5"
       xlink:href="#linearGradient3729-6"
       gradientUnits="userSpaceOnUse"
       gradientTransform="translate(-6.3695831,18.92757)" />
    <linearGradient
       id="linearGradient3970">
      <stop
         id="stop3972"
         style="stop-color:#2f55cf;stop-opacity:1"
         offset="0" />
      <stop
         id="stop3974"
         style="stop-color:#6480dc;stop-opacity:1"
         offset="1" />
    </linearGradient>
    <linearGradient
       x1="53.89452"
       y1="46.00061"
       x2="53.89452"
       y2="12.192646"
       id="linearGradient3992"
       xlink:href="#linearGradient3729-6"
       gradientUnits="userSpaceOnUse"
       gradientTransform="translate(-6.3695831,18.92757)" />
  </defs>
  <g
     transform="translate(0,-297)"
     id="layer1">
    <path
       d="m 18,419 74,0 c 18,0 18,-18 18,-18 l 0,-72 c 0,0 -26,-26 -26,-26 l -48,0 c 0,0 -18,0 -18,18 l 0,98 z"
       id="path2832"
       style="opacity:0.9;fill:#000000;fill-opacity:1;stroke:none;filter:url(#filter3610)" />
    <path
       d="m 18,419 74,0 c 18,0 18,-18 18,-18 l 0,-72 c 0,0 -26,-26 -26,-26 l -48,0 c 0,0 -18,0 -18,18 l 0,98 z"
       id="path3627"
       style="fill:#e6e6e6;fill-opacity:1;stroke:none" />
    <path
       d="m 18.456586,419.00634 72.706957,0 c 17.685467,0 17.685467,-17.8583 17.685467,-17.8583 l 0.70844,-71.4332 c 0,0 -26.254119,-25.79532 -26.254119,-25.79532 l -49.050441,-0.2319 c 0,0 -16.504743,0.4638 -16.504743,18.3221 l 0.708439,96.99662 z"
       transform="matrix(0.98017447,0,0,0.99812248,1.4934147,0.7943904)"
       id="path3684"
       style="opacity:0.9;fill:none;stroke:url(#linearGradient3805);stroke-width:0.98750001;stroke-linecap:butt;stroke-linejoin:miter;stroke-miterlimit:4;stroke-opacity:1;stroke-dasharray:none;filter:url(#filter3778)" />
    <path
       d="m 18.456586,419.00634 72.706957,0 c 17.685467,0 17.685467,-17.8583 17.685467,-17.8583 l 0.70844,-71.4332 c 0,0 -26.254119,-25.79532 -26.254119,-25.79532 l -49.050441,-0.2319 c 0,0 -16.504743,0.4638 -16.504743,18.3221 l 0.708439,96.99662 z"
       transform="matrix(0.98017447,0,0,0.99812248,1.4934147,0.7943904)"
       id="path3766"
       style="fill:none;stroke:url(#linearGradient3807);stroke-width:0.98750001;stroke-linecap:butt;stroke-linejoin:miter;stroke-miterlimit:4;stroke-opacity:1;stroke-dasharray:none;filter:url(#filter3702)" />
    <path
       d="M 92.000003,6.0000025 92,24 l 18,3e-6"
       transform="matrix(1.4444444,0,0,1.4444444,-48.888889,294.33333)"
       id="path3639"
       style="opacity:0.6;fill:none;stroke:#333333;stroke-width:1px;stroke-linecap:butt;stroke-linejoin:miter;stroke-opacity:1;filter:url(#filter3676)" />
    <path
       d="m 84,303 0,26 26,0 -26,-26 z"
       id="path3629"
       style="fill:url(#linearGradient2880);fill-opacity:1;stroke:none" />
    <path
       d="m 18,122 74,0 c 18,0 18,-18 18,-18 l 0,-72 C 110,32 84,6 84,6 L 36,6 C 36,6 18,6 18,24 l 0,98 z"
       transform="matrix(0.97617501,0,0,0.99219838,1.5247995,297.03637)"
       id="path3726"
       style="opacity:0.4;fill:none;stroke:url(#linearGradient3811);stroke-width:1px;stroke-linecap:butt;stroke-linejoin:miter;stroke-opacity:1;filter:url(#filter3782)" />
    <path
       d="m 18,122 c 0,-6 18,-6 18,-6 l 56,0 c 16.37975,-0.46293 17.38879,-17.305605 17.38879,-17.305605"
       transform="translate(0,297)"
       id="path3722"
       style="opacity:0.8;fill:none;stroke:#333333;stroke-width:1px;stroke-linecap:butt;stroke-linejoin:miter;stroke-opacity:1;filter:url(#filter3728)" />
    <path
       d="m 18,419 74,0 c 18,0 18,-18 18,-18 0,0 0,-16 0,-16 0,0 0,28 -18,28 l -56,0 c 0,0 -18,0 -18,6 z"
       id="path3822"
       style="fill:url(#linearGradient2876);fill-opacity:1;stroke:none" />
    <g
       id="g3934">
      <g
         transform="translate(0,295)"
         id="g2996">
        <rect
           width="72"
           height="2"
           x="28"
           y="70"
           id="rect3738"
           style="fill:#333333;fill-opacity:1;stroke:none;display:inline;enable-background:new" />
        <rect
           width="72"
           height="2"
           x="28"
           y="76"
           id="rect3742"
           style="fill:#333333;fill-opacity:1;stroke:none;display:inline;enable-background:new" />
        <rect
           width="72"
           height="2"
           x="28"
           y="82"
           id="rect3744"
           style="fill:#333333;fill-opacity:1;stroke:none;display:inline;enable-background:new" />
        <rect
           width="72"
           height="2"
           x="28"
           y="88"
           id="rect3748"
           style="fill:#333333;fill-opacity:1;stroke:none;display:inline;enable-background:new" />
        <rect
           width="72"
           height="2"
           x="28"
           y="94"
           id="rect3750"
           style="fill:#333333;fill-opacity:1;stroke:none;display:inline;enable-background:new" />
        <rect
           width="72"
           height="2"
           x="28"
           y="100"
           id="rect3752"
           style="fill:#333333;fill-opacity:1;stroke:none;display:inline;enable-background:new" />
        <rect
           width="31.200001"
           height="2"
           x="28"
           y="106"
           id="rect3756"
           style="fill:#333333;fill-opacity:1;stroke:none;display:inline;enable-background:new" />
        <rect
           width="72"
           height="2"
           x="28"
           y="64"
           id="rect3738-2"
           style="fill:#333333;fill-opacity:1;stroke:none;display:inline;enable-background:new" />
        <rect
           width="72"
           height="2"
           x="28"
           y="58"
           id="rect3738-5"
           style="fill:#333333;fill-opacity:1;stroke:none;display:inline;enable-background:new" />
        <rect
           width="72"
           height="2"
           x="28"
           y="52"
           id="rect3738-2-1"
           style="fill:#333333;fill-opacity:1;stroke:none;display:inline;enable-background:new" />
      </g>
      <g
         transform="matrix(0.94461886,0,0,0.94461886,-1.7325111,278.74352)"
         id="g3146"
         style="font-size:48px;font-style:normal;font-variant:normal;font-weight:bold;font-stretch:normal;text-align:start;line-height:125%;writing-mode:lr-tb;text-anchor:start;fill:#000000;fill-opacity:1;stroke:none;filter:url(#filter3930);font-family:Liberation Sans;-inkscape-font-specification:Abandoned Bitplane Bold">
        <path
           d="m 48.972656,59.554687 c 1.296855,5e-6 2.414042,-0.179682 3.351563,-0.539062 0.953102,-0.374994 1.773413,-0.859369 2.460937,-1.453125 0.7031,-0.593742 1.281225,-1.265617 1.734375,-2.015625 0.468724,-0.74999 0.851536,-1.507802 1.148438,-2.273438 l 6.023437,2.273438 c -0.484408,1.187508 -1.117219,2.351569 -1.898437,3.492187 -0.781281,1.14063 -1.757842,2.148441 -2.929688,3.023438 -1.171902,0.875002 -2.570338,1.585938 -4.195312,2.132812 -1.609398,0.53125 -3.507834,0.796875 -5.695313,0.796875 -2.859391,0 -5.335951,-0.421875 -7.429687,-1.265625 -2.093759,-0.859373 -3.828133,-2.046872 -5.203125,-3.5625 -1.35938,-1.531244 -2.375004,-3.343742 -3.046875,-5.4375 -0.656253,-2.093738 -0.984377,-4.382798 -0.984375,-6.867187 -2e-6,-2.578106 0.328122,-4.906228 0.984375,-6.984375 0.671871,-2.078099 1.679683,-3.843723 3.023437,-5.296875 1.343743,-1.46872 3.039054,-2.593718 5.085938,-3.375 2.062487,-0.796842 4.484359,-1.195279 7.265625,-1.195313 2.156229,3.4e-5 4.03904,0.226596 5.648437,0.679688 1.624975,0.453157 3.023411,1.093782 4.195313,1.921875 1.18747,0.81253 2.164032,1.781279 2.929687,2.90625 0.781218,1.109402 1.390593,2.335963 1.828125,3.679687 l -6.09375,1.664063 c -0.218776,-0.703102 -0.554714,-1.374976 -1.007812,-2.015625 -0.453151,-0.656225 -1.031275,-1.234349 -1.734375,-1.734375 -0.687524,-0.499973 -1.500023,-0.89841 -2.4375,-1.195313 -0.937521,-0.312472 -2.00002,-0.468721 -3.1875,-0.46875 -1.671892,2.9e-5 -3.109391,0.273466 -4.3125,0.820313 -1.203138,0.531277 -2.195325,1.296901 -2.976563,2.296875 -0.765635,1.000024 -1.335947,2.203148 -1.710937,3.609375 -0.359384,1.390645 -0.539072,2.953143 -0.539063,4.6875 -9e-6,1.718765 0.179679,3.296888 0.539063,4.734375 0.37499,1.421886 0.953114,2.648447 1.734375,3.679687 0.781238,1.031258 1.781237,1.835944 3,2.414063 1.234359,0.57813 2.71092,0.867192 4.429687,0.867187"
           id="path3148"
           style="fill:#000000;fill-opacity:1" />
      </g>
      <g
         transform="matrix(0.94461886,0,0,0.94461886,-1.7325111,278.74352)"
         id="text4284"
         style="font-size:48px;font-style:normal;font-variant:normal;font-weight:bold;font-stretch:normal;text-align:start;line-height:125%;writing-mode:lr-tb;text-anchor:start;fill:url(#linearGradient3992);fill-opacity:1;stroke:none;font-family:Liberation Sans;-inkscape-font-specification:Abandoned Bitplane Bold">
        <path
           d="m 48.972656,59.554687 c 1.296855,5e-6 2.414042,-0.179682 3.351563,-0.539062 0.953102,-0.374994 1.773413,-0.859369 2.460937,-1.453125 0.7031,-0.593742 1.281225,-1.265617 1.734375,-2.015625 0.468724,-0.74999 0.851536,-1.507802 1.148438,-2.273438 l 6.023437,2.273438 c -0.484408,1.187508 -1.117219,2.351569 -1.898437,3.492187 -0.781281,1.14063 -1.757842,2.148441 -2.929688,3.023438 -1.171902,0.875002 -2.570338,1.585938 -4.195312,2.132812 -1.609398,0.53125 -3.507834,0.796875 -5.695313,0.796875 -2.859391,0 -5.335951,-0.421875 -7.429687,-1.265625 -2.093759,-0.859373 -3.828133,-2.046872 -5.203125,-3.5625 -1.35938,-1.531244 -2.375004,-3.343742 -3.046875,-5.4375 -0.656253,-2.093738 -0.984377,-4.382798 -0.984375,-6.867187 -2e-6,-2.578106 0.328122,-4.906228 0.984375,-6.984375 0.671871,-2.078099 1.679683,-3.843723 3.023437,-5.296875 1.343743,-1.46872 3.039054,-2.593718 5.085938,-3.375 2.062487,-0.796842 4.484359,-1.195279 7.265625,-1.195313 2.156229,3.4e-5 4.03904,0.226596 5.648437,0.679688 1.624975,0.453157 3.023411,1.093782 4.195313,1.921875 1.18747,0.81253 2.164032,1.781279 2.929687,2.90625 0.781218,1.109402 1.390593,2.335963 1.828125,3.679687 l -6.09375,1.664063 c -0.218776,-0.703102 -0.554714,-1.374976 -1.007812,-2.015625 -0.453151,-0.656225 -1.031275,-1.234349 -1.734375,-1.734375 -0.687524,-0.499973 -1.500023,-0.89841 -2.4375,-1.195313 -0.937521,-0.312472 -2.00002,-0.468721 -3.1875,-0.46875 -1.671892,2.9e-5 -3.109391,0.273466 -4.3125,0.820313 -1.203138,0.531277 -2.195325,1.296901 -2.976563,2.296875 -0.765635,1.000024 -1.335947,2.203148 -1.710937,3.609375 -0.359384,1.390645 -0.539072,2.953143 -0.539063,4.6875 -9e-6,1.718765 0.179679,3.296888 0.539063,4.734375 0.37499,1.421886 0.953114,2.648447 1.734375,3.679687 0.781238,1.031258 1.781237,1.835944 3,2.414063 1.234359,0.57813 2.71092,0.867192 4.429687,0.867187"
           id="path4357"
           style="fill:url(#linearGradient4359-5)" />
      </g>
    </g>
  </g>
</svg>
