<?xml version="1.0" encoding="UTF-8" standalone="no"?>
<!-- Created with Inkscape (http://www.inkscape.org/) -->

<svg
   xmlns:svg="http://www.w3.org/2000/svg"
   xmlns="http://www.w3.org/2000/svg"
   xmlns:xlink="http://www.w3.org/1999/xlink"
   version="1.1"
   width="128"
   height="128"
   id="svg2816">
  <defs
     id="defs2818">
    <linearGradient
       id="linearGradient4333">
      <stop
         id="stop4335"
         style="stop-color:#b9b9b9;stop-opacity:1"
         offset="0" />
      <stop
         id="stop4337"
         style="stop-color:#efefef;stop-opacity:1"
         offset="1" />
    </linearGradient>
    <linearGradient
       id="linearGradient3652">
      <stop
         id="stop3654"
         style="stop-color:#000000;stop-opacity:0.21531101"
         offset="0" />
      <stop
         id="stop3656"
         style="stop-color:#ffffff;stop-opacity:1"
         offset="1" />
    </linearGradient>
    <linearGradient
       id="linearGradient3636">
      <stop
         id="stop3638"
         style="stop-color:#30a078;stop-opacity:1"
         offset="0" />
      <stop
         id="stop3644"
         style="stop-color:#288665;stop-opacity:1"
         offset="0.5" />
      <stop
         id="stop3640"
         style="stop-color:#216f54;stop-opacity:1"
         offset="1" />
    </linearGradient>
    <linearGradient
       id="linearGradient3758">
      <stop
         id="stop3760"
         style="stop-color:#333333;stop-opacity:1"
         offset="0" />
      <stop
         id="stop3762"
         style="stop-color:#333333;stop-opacity:0"
         offset="1" />
    </linearGradient>
    <linearGradient
       id="linearGradient3736">
      <stop
         id="stop3738"
         style="stop-color:#ffffff;stop-opacity:0"
         offset="0" />
      <stop
         id="stop3740"
         style="stop-color:#333333;stop-opacity:0.72791517"
         offset="1" />
    </linearGradient>
    <linearGradient
       id="linearGradient3708">
      <stop
         id="stop3712"
         style="stop-color:#ffffff;stop-opacity:0"
         offset="0" />
      <stop
         id="stop3714"
         style="stop-color:#333333;stop-opacity:1"
         offset="1" />
    </linearGradient>
    <linearGradient
       id="linearGradient3694">
      <stop
         id="stop3696"
         style="stop-color:#ffffff;stop-opacity:1"
         offset="0" />
      <stop
         id="stop3700"
         style="stop-color:#ffffff;stop-opacity:0.67464113"
         offset="0.5" />
      <stop
         id="stop3698"
         style="stop-color:#ffffff;stop-opacity:0"
         offset="1" />
    </linearGradient>
    <linearGradient
       id="linearGradient3649">
      <stop
         id="stop3651"
         style="stop-color:#c9c9c9;stop-opacity:1"
         offset="0" />
      <stop
         id="stop3653"
         style="stop-color:#f0f0f0;stop-opacity:1"
         offset="1" />
    </linearGradient>
    <linearGradient
       id="linearGradient3631">
      <stop
         id="stop3633"
         style="stop-color:#dddddd;stop-opacity:0.62190813"
         offset="0" />
      <stop
         id="stop3635"
         style="stop-color:#ffffff;stop-opacity:1"
         offset="1" />
    </linearGradient>
    <linearGradient
       x1="102"
       y1="14"
       x2="92"
       y2="24"
       id="linearGradient3637"
       xlink:href="#linearGradient3649"
       gradientUnits="userSpaceOnUse"
       gradientTransform="matrix(1.4444444,0,0,1.4444444,-48.888889,294.33333)" />
    <filter
       color-interpolation-filters="sRGB"
       id="filter3676">
      <feGaussianBlur
         id="feGaussianBlur3678"
         stdDeviation="0.36000001" />
    </filter>
    <filter
       color-interpolation-filters="sRGB"
       id="filter3610">
      <feGaussianBlur
         id="feGaussianBlur3612"
         stdDeviation="1.56" />
    </filter>
    <linearGradient
       x1="56.65461"
       y1="5.5"
       x2="56.65461"
       y2="122.50977"
       id="linearGradient3692"
       xlink:href="#linearGradient3694"
       gradientUnits="userSpaceOnUse"
       gradientTransform="matrix(0.98252641,0,0,0.9921278,0.77111153,297.96672)" />
    <filter
       color-interpolation-filters="sRGB"
       id="filter3702">
      <feGaussianBlur
         id="feGaussianBlur3704"
         stdDeviation="0.51369811" />
    </filter>
    <linearGradient
       x1="64"
       y1="122.5"
       x2="64"
       y2="93.860451"
       id="linearGradient3748"
       xlink:href="#linearGradient3758"
       gradientUnits="userSpaceOnUse" />
    <linearGradient
       x1="56.65461"
       y1="5.5"
       x2="56.65461"
       y2="122.50977"
       id="linearGradient3776"
       xlink:href="#linearGradient3694"
       gradientUnits="userSpaceOnUse"
       gradientTransform="matrix(0.98252641,0,0,0.9921278,0.77111153,297.96672)" />
    <filter
       color-interpolation-filters="sRGB"
       id="filter3778">
      <feGaussianBlur
         id="feGaussianBlur3780"
         stdDeviation="0.51837461" />
    </filter>
    <filter
       color-interpolation-filters="sRGB"
       id="filter3782">
      <feGaussianBlur
         id="feGaussianBlur3784"
         stdDeviation="1.0410113" />
    </filter>
    <linearGradient
       x1="64"
       y1="122"
       x2="64"
       y2="76.36528"
       id="linearGradient3794"
       xlink:href="#linearGradient3631"
       gradientUnits="userSpaceOnUse" />
    <linearGradient
       x1="56.65461"
       y1="5.5"
       x2="56.65461"
       y2="122.50977"
       id="linearGradient3805"
       xlink:href="#linearGradient3694"
       gradientUnits="userSpaceOnUse"
       gradientTransform="matrix(0.98252641,0,0,0.9921278,0.77111153,297.96672)" />
    <linearGradient
       x1="56.65461"
       y1="5.5"
       x2="56.65461"
       y2="122.50977"
       id="linearGradient3807"
       xlink:href="#linearGradient3694"
       gradientUnits="userSpaceOnUse"
       gradientTransform="matrix(0.98252641,0,0,0.9921278,0.77111153,297.96672)" />
    <linearGradient
       x1="102"
       y1="14"
       x2="92"
       y2="24"
       id="linearGradient3809"
       xlink:href="#linearGradient3649"
       gradientUnits="userSpaceOnUse"
       gradientTransform="matrix(1.4444444,0,0,1.4444444,-48.888889,294.33333)" />
    <linearGradient
       x1="64"
       y1="122.5"
       x2="64"
       y2="93.860451"
       id="linearGradient3811"
       xlink:href="#linearGradient3758"
       gradientUnits="userSpaceOnUse" />
    <linearGradient
       x1="62"
       y1="413"
       x2="62"
       y2="419"
       id="linearGradient2876"
       xlink:href="#linearGradient3636"
       gradientUnits="userSpaceOnUse" />
    <filter
       color-interpolation-filters="sRGB"
       id="filter3728">
      <feGaussianBlur
         id="feGaussianBlur3730"
         stdDeviation="0.57810125" />
    </filter>
    <linearGradient
       id="linearGradient3039">
      <stop
         id="stop3041"
         style="stop-color:#ff5f12;stop-opacity:1"
         offset="0" />
      <stop
         id="stop3043"
         style="stop-color:#ff8926;stop-opacity:1"
         offset="1" />
    </linearGradient>
    <linearGradient
       x1="38.714287"
       y1="36.42857"
       x2="38.714287"
       y2="10.428572"
       id="linearGradient3018"
       xlink:href="#linearGradient3039"
       gradientUnits="userSpaceOnUse"
       gradientTransform="matrix(1.0769231,0,0,1.0769231,-5.6923088,2.7692304)" />
    <linearGradient
       id="linearGradient3037">
      <stop
         id="stop3039"
         style="stop-color:#ff5f12;stop-opacity:1"
         offset="0" />
      <stop
         id="stop3042"
         style="stop-color:#ff8926;stop-opacity:1"
         offset="1" />
    </linearGradient>
    <radialGradient
       cx="102"
       cy="112.3047"
       r="139.55859"
       id="XMLID_8_-3"
       gradientUnits="userSpaceOnUse">
      <stop
         id="stop41-1"
         style="stop-color:#efefef;stop-opacity:1"
         offset="0" />
      <stop
         id="stop47-4"
         style="stop-color:#f9f9f9;stop-opacity:1"
         offset="0.18851049" />
      <stop
         id="stop49-9"
         style="stop-color:#fafafa;stop-opacity:1"
         offset="0.25718147" />
      <stop
         id="stop51-2"
         style="stop-color:#ffffff;stop-opacity:1"
         offset="0.30111277" />
      <stop
         id="stop53-0"
         style="stop-color:#fafafa;stop-opacity:1"
         offset="0.53130001" />
      <stop
         id="stop55-6"
         style="stop-color:#ebecec;stop-opacity:1"
         offset="0.84490001" />
      <stop
         id="stop57-8"
         style="stop-color:#e1e2e3;stop-opacity:1"
         offset="1" />
    </radialGradient>
    <linearGradient
       id="linearGradient2997-2">
      <stop
         id="stop5315-6"
         style="stop-color:#0590ff;stop-opacity:1"
         offset="0" />
      <stop
         id="stop3001-6"
         style="stop-color:#c6e6ff;stop-opacity:1"
         offset="1" />
    </linearGradient>
    <radialGradient
       cx="102"
       cy="112.3047"
       r="139.55859"
       id="radialGradient3713"
       gradientUnits="userSpaceOnUse">
      <stop
         id="stop3715"
         style="stop-color:#efefef;stop-opacity:1"
         offset="0" />
      <stop
         id="stop3717"
         style="stop-color:#f9f9f9;stop-opacity:1"
         offset="0.18851049" />
      <stop
         id="stop3719"
         style="stop-color:#fafafa;stop-opacity:1"
         offset="0.25718147" />
      <stop
         id="stop3721"
         style="stop-color:#ffffff;stop-opacity:1"
         offset="0.30111277" />
      <stop
         id="stop3723"
         style="stop-color:#fafafa;stop-opacity:1"
         offset="0.53130001" />
      <stop
         id="stop3725"
         style="stop-color:#ebecec;stop-opacity:1"
         offset="0.84490001" />
      <stop
         id="stop3727"
         style="stop-color:#e1e2e3;stop-opacity:1"
         offset="1" />
    </radialGradient>
    <linearGradient
       id="linearGradient3730">
      <stop
         id="stop3732"
         style="stop-color:#0590ff;stop-opacity:1"
         offset="0" />
      <stop
         id="stop3734"
         style="stop-color:#c6e6ff;stop-opacity:1"
         offset="1" />
    </linearGradient>
    <linearGradient
       x1="56"
       y1="32"
       x2="56"
       y2="88.117546"
       id="linearGradient6180"
       xlink:href="#linearGradient15967-6"
       gradientUnits="userSpaceOnUse" />
    <linearGradient
       x1="28"
       y1="57.5"
       x2="28"
       y2="0"
       id="linearGradient15967-6"
       gradientUnits="userSpaceOnUse">
      <stop
         id="stop15969-1"
         style="stop-color:#ffffff;stop-opacity:1"
         offset="0" />
      <stop
         id="stop15971-0"
         style="stop-color:#ffffff;stop-opacity:0"
         offset="1" />
    </linearGradient>
    <clipPath
       id="clipPath3182-6">
      <path
         d="M 18.1875,56 C 16.967826,56 16,56.967827 16,58.1875 L 16,75.25 C 25.640301,77.646967 36.509296,79 48,79 59.490704,79 70.359699,77.646967 80,75.25 L 80,58.1875 C 80,56.967826 79.032173,56 77.8125,56 l -59.625,0 z"
         id="path3184-1"
         style="fill:url(#linearGradient3186);fill-opacity:1;stroke:none;filter:url(#filter3176-5)" />
    </clipPath>
    <filter
       x="-0.053000905"
       y="-0.14748077"
       width="1.1060019"
       height="1.2949615"
       color-interpolation-filters="sRGB"
       id="filter3176-5">
      <feGaussianBlur
         stdDeviation="1.4133574"
         id="feGaussianBlur3178-9" />
    </filter>
    <linearGradient
       x1="56"
       y1="32"
       x2="56"
       y2="88.117546"
       id="linearGradient6182"
       xlink:href="#linearGradient15967-6"
       gradientUnits="userSpaceOnUse" />
    <linearGradient
       x1="28"
       y1="57.5"
       x2="28"
       y2="0"
       id="linearGradient3756"
       gradientUnits="userSpaceOnUse">
      <stop
         id="stop3758"
         style="stop-color:#ffffff;stop-opacity:1"
         offset="0" />
      <stop
         id="stop3760-6"
         style="stop-color:#ffffff;stop-opacity:0"
         offset="1" />
    </linearGradient>
    <clipPath
       id="clipPath3762">
      <path
         d="M 18.1875,56 C 16.967826,56 16,56.967827 16,58.1875 L 16,75.25 C 25.640301,77.646967 36.509296,79 48,79 59.490704,79 70.359699,77.646967 80,75.25 L 80,58.1875 C 80,56.967826 79.032173,56 77.8125,56 l -59.625,0 z"
         id="path3764"
         style="fill:url(#linearGradient3186);fill-opacity:1;stroke:none;filter:url(#filter3176-5)" />
    </clipPath>
    <linearGradient
       x1="56"
       y1="32"
       x2="56"
       y2="88.117546"
       id="linearGradient3786"
       xlink:href="#linearGradient15967-6"
       gradientUnits="userSpaceOnUse" />
    <linearGradient
       x1="56"
       y1="32"
       x2="56"
       y2="88.117546"
       id="linearGradient3451"
       xlink:href="#linearGradient15967-6"
       gradientUnits="userSpaceOnUse" />
    <linearGradient
       x1="56"
       y1="32"
       x2="56"
       y2="88.117546"
       id="linearGradient3453"
       xlink:href="#linearGradient15967-6"
       gradientUnits="userSpaceOnUse" />
    <linearGradient
       x1="102"
       y1="14"
       x2="92"
       y2="24"
       id="linearGradient3478"
       xlink:href="#linearGradient3649"
       gradientUnits="userSpaceOnUse"
       gradientTransform="matrix(1.4444444,0,0,1.4444444,-48.888889,294.33333)" />
    <linearGradient
       x1="56"
       y1="32"
       x2="56"
       y2="88.117546"
       id="linearGradient4300"
       xlink:href="#linearGradient15967-6"
       gradientUnits="userSpaceOnUse" />
    <linearGradient
       x1="56"
       y1="32"
       x2="56"
       y2="88.117546"
       id="linearGradient4302"
       xlink:href="#linearGradient15967-6"
       gradientUnits="userSpaceOnUse" />
    <linearGradient
       x1="56"
       y1="32"
       x2="56"
       y2="88.117546"
       id="linearGradient4399"
       xlink:href="#linearGradient15967-6"
       gradientUnits="userSpaceOnUse" />
    <linearGradient
       x1="56"
       y1="32"
       x2="56"
       y2="88.117546"
       id="linearGradient4423"
       xlink:href="#linearGradient15967-6"
       gradientUnits="userSpaceOnUse" />
    <linearGradient
       x1="56"
       y1="32"
       x2="56"
       y2="88.117546"
       id="linearGradient4431"
       xlink:href="#linearGradient15967-6"
       gradientUnits="userSpaceOnUse" />
    <linearGradient
       id="linearGradient3742">
      <stop
         id="stop3744"
         style="stop-color:#778aa6;stop-opacity:1"
         offset="0" />
      <stop
         id="stop3746"
         style="stop-color:#a0afc5;stop-opacity:1"
         offset="1" />
    </linearGradient>
    <linearGradient
       x1="57.801022"
       y1="69.276306"
       x2="57.801022"
       y2="15.617862"
       id="linearGradient2924"
       xlink:href="#linearGradient3742"
       gradientUnits="userSpaceOnUse"
       gradientTransform="matrix(0.84727676,0,0,0.85115952,33.571935,22.01447)" />
    <linearGradient
       id="linearGradient2986">
      <stop
         id="stop2988"
         style="stop-color:#778aa6;stop-opacity:1"
         offset="0" />
      <stop
         id="stop2990"
         style="stop-color:#a0afc5;stop-opacity:1"
         offset="1" />
    </linearGradient>
    <linearGradient
       x1="-33.665947"
       y1="16.896927"
       x2="162.36034"
       y2="16.896927"
       id="linearGradient2912"
       xlink:href="#linearGradient2902"
       gradientUnits="userSpaceOnUse" />
    <linearGradient
       id="linearGradient2902">
      <stop
         id="stop2904"
         style="stop-color:#778aa6;stop-opacity:1"
         offset="0" />
      <stop
         id="stop2906"
         style="stop-color:#a0afc5;stop-opacity:1"
         offset="1" />
    </linearGradient>
    <linearGradient
       id="linearGradient3013">
      <stop
         id="stop3015"
         style="stop-color:#778aa6;stop-opacity:1"
         offset="0" />
      <stop
         id="stop3017"
         style="stop-color:#a0afc5;stop-opacity:1"
         offset="1" />
    </linearGradient>
    <linearGradient
       x1="-33.665947"
       y1="16.896927"
       x2="162.36034"
       y2="16.896927"
       id="linearGradient2910"
       xlink:href="#linearGradient2902"
       gradientUnits="userSpaceOnUse" />
    <linearGradient
       id="linearGradient3020">
      <stop
         id="stop3022"
         style="stop-color:#778aa6;stop-opacity:1"
         offset="0" />
      <stop
         id="stop3024"
         style="stop-color:#a0afc5;stop-opacity:1"
         offset="1" />
    </linearGradient>
    <linearGradient
       x1="-33.665947"
       y1="16.896927"
       x2="162.36034"
       y2="16.896927"
       id="linearGradient5768"
       xlink:href="#linearGradient2902"
       gradientUnits="userSpaceOnUse" />
    <linearGradient
       id="linearGradient11508">
      <stop
         id="stop11510"
         style="stop-color:#000000;stop-opacity:1"
         offset="0" />
      <stop
         id="stop11512"
         style="stop-color:#000000;stop-opacity:0"
         offset="1" />
    </linearGradient>
    <linearGradient
       id="linearGradient2970">
      <stop
         id="stop2972"
         style="stop-color:#000000;stop-opacity:1"
         offset="0" />
      <stop
         id="stop2974"
         style="stop-color:#000000;stop-opacity:0"
         offset="1" />
    </linearGradient>
    <linearGradient
       id="linearGradient10394">
      <stop
         id="stop10396"
         style="stop-color:#333333;stop-opacity:1"
         offset="0" />
      <stop
         id="stop10404"
         style="stop-color:#636363;stop-opacity:1"
         offset="0.28225806" />
      <stop
         id="stop10402"
         style="stop-color:#c7c7c7;stop-opacity:1"
         offset="0.5" />
      <stop
         id="stop10406"
         style="stop-color:#636363;stop-opacity:1"
         offset="0.77999997" />
      <stop
         id="stop10398"
         style="stop-color:#333333;stop-opacity:1"
         offset="1" />
    </linearGradient>
    <linearGradient
       id="linearGradient6531">
      <stop
         id="stop6533"
         style="stop-color:#c38125;stop-opacity:1"
         offset="0" />
      <stop
         id="stop10377"
         style="stop-color:#c68d31;stop-opacity:1"
         offset="0.62962961" />
      <stop
         id="stop6535"
         style="stop-color:#fffce6;stop-opacity:1"
         offset="1" />
    </linearGradient>
    <linearGradient
       id="linearGradient10386">
      <stop
         id="stop10388"
         style="stop-color:#ffffff;stop-opacity:1"
         offset="0" />
      <stop
         id="stop10390"
         style="stop-color:#ffffff;stop-opacity:0"
         offset="1" />
    </linearGradient>
    <linearGradient
       id="linearGradient10410">
      <stop
         id="stop10412"
         style="stop-color:#ffffff;stop-opacity:1"
         offset="0" />
      <stop
         id="stop10414"
         style="stop-color:#ffffff;stop-opacity:0"
         offset="1" />
    </linearGradient>
    <linearGradient
       x1="39.479939"
       y1="81.5"
       x2="39.479939"
       y2="6.2799916"
       id="linearGradient2937"
       xlink:href="#linearGradient3715"
       gradientUnits="userSpaceOnUse"
       gradientTransform="translate(0.75761471,1.7677667)" />
    <linearGradient
       id="linearGradient3715">
      <stop
         id="stop3717-0"
         style="stop-color:#3767a3;stop-opacity:1"
         offset="0" />
      <stop
         id="stop3719-9"
         style="stop-color:#6593c6;stop-opacity:0"
         offset="1" />
    </linearGradient>
    <filter
       x="-0.031298906"
       y="-0.55555552"
       width="1.0625978"
       height="2.1111112"
       color-interpolation-filters="sRGB"
       id="filter4428">
      <feGaussianBlur
         stdDeviation="0.81841061"
         id="feGaussianBlur4430" />
    </filter>
    <radialGradient
       cx="7.5"
       cy="8.3301001"
       r="126.4133"
       id="XMLID_15_"
       gradientUnits="userSpaceOnUse">
      <stop
         id="stop4"
         style="stop-color:#dbc298;stop-opacity:1"
         offset="0.27219999" />
      <stop
         id="stop6"
         style="stop-color:#c7b08a;stop-opacity:1"
         offset="0.45449999" />
      <stop
         id="stop8"
         style="stop-color:#b99c6f;stop-opacity:1"
         offset="0.71829998" />
      <stop
         id="stop10"
         style="stop-color:#b09469;stop-opacity:1"
         offset="0.88169998" />
      <stop
         id="stop12"
         style="stop-color:#a48a5f;stop-opacity:1"
         offset="1" />
    </radialGradient>
    <linearGradient
       x1="0.25"
       y1="13.2949"
       x2="104.25"
       y2="13.2949"
       id="XMLID_17_"
       gradientUnits="userSpaceOnUse">
      <stop
         id="stop28"
         style="stop-color:#8f6b32;stop-opacity:1"
         offset="0" />
      <stop
         id="stop30"
         style="stop-color:#3e2e15;stop-opacity:1"
         offset="0.5" />
      <stop
         id="stop32"
         style="stop-color:#8f6b32;stop-opacity:1"
         offset="1" />
    </linearGradient>
    <linearGradient
       id="linearGradient3329">
      <stop
         id="stop3331"
         style="stop-color:#000000;stop-opacity:1"
         offset="0" />
      <stop
         id="stop3333"
         style="stop-color:#000000;stop-opacity:0"
         offset="1" />
    </linearGradient>
    <linearGradient
       id="linearGradient6524">
      <stop
         id="stop6526"
         style="stop-color:#000000;stop-opacity:1"
         offset="0" />
      <stop
         id="stop6528"
         style="stop-color:#000000;stop-opacity:0"
         offset="1" />
    </linearGradient>
    <linearGradient
       x1="91.572304"
       y1="4.5991001"
       x2="62.901402"
       y2="21.1523"
       id="linearGradient6534"
       gradientUnits="userSpaceOnUse">
      <stop
         id="stop6536"
         style="stop-color:#ad9c80;stop-opacity:1"
         offset="0.0118" />
      <stop
         id="stop6538"
         style="stop-color:#ffe6bc;stop-opacity:1"
         offset="0.02147562" />
      <stop
         id="stop6540"
         style="stop-color:#c4b091;stop-opacity:1"
         offset="0.06798933" />
      <stop
         id="stop6542"
         style="stop-color:#dec8a4;stop-opacity:1"
         offset="0.11206073" />
      <stop
         id="stop6544"
         style="stop-color:#b39e7c;stop-opacity:1"
         offset="1" />
    </linearGradient>
    <linearGradient
       x1="12.0713"
       y1="4.1034999"
       x2="50.6035"
       y2="26.3501"
       id="linearGradient6548"
       gradientUnits="userSpaceOnUse">
      <stop
         id="stop6550"
         style="stop-color:#ad9c80;stop-opacity:1"
         offset="0.0118" />
      <stop
         id="stop6552"
         style="stop-color:#ffe6bc;stop-opacity:1"
         offset="0.04393823" />
      <stop
         id="stop6554"
         style="stop-color:#c4b091;stop-opacity:1"
         offset="0.07207061" />
      <stop
         id="stop6556"
         style="stop-color:#dec8a4;stop-opacity:1"
         offset="0.1025845" />
      <stop
         id="stop6558"
         style="stop-color:#b39e7c;stop-opacity:1"
         offset="1" />
    </linearGradient>
    <linearGradient
       x1="101.3027"
       y1="60.659199"
       x2="102.3008"
       y2="60.714802"
       id="XMLID_23_"
       gradientUnits="userSpaceOnUse">
      <stop
         id="stop144"
         style="stop-color:#544c3e;stop-opacity:1"
         offset="0" />
      <stop
         id="stop146"
         style="stop-color:#b39e7c;stop-opacity:1"
         offset="1" />
    </linearGradient>
    <linearGradient
       x1="103.8984"
       y1="60.580101"
       x2="103.3984"
       y2="60.580101"
       id="XMLID_24_"
       gradientUnits="userSpaceOnUse">
      <stop
         id="stop151"
         style="stop-color:#544c3e;stop-opacity:1"
         offset="0" />
      <stop
         id="stop153"
         style="stop-color:#50483b;stop-opacity:1"
         offset="0.21619999" />
      <stop
         id="stop155"
         style="stop-color:#443d32;stop-opacity:1"
         offset="0.43560001" />
      <stop
         id="stop157"
         style="stop-color:#2f2b23;stop-opacity:1"
         offset="0.65670002" />
      <stop
         id="stop159"
         style="stop-color:#13110e;stop-opacity:1"
         offset="0.8775" />
      <stop
         id="stop161"
         style="stop-color:#000000;stop-opacity:1"
         offset="1" />
    </linearGradient>
    <filter
       x="-0.12374716"
       y="-0.0078790402"
       width="1.2474943"
       height="1.0157582"
       color-interpolation-filters="sRGB"
       id="filter6125">
      <feGaussianBlur
         stdDeviation="0.13253641"
         id="feGaussianBlur6127" />
    </filter>
    <linearGradient
       x1="2.1997001"
       y1="60.715801"
       x2="3.198"
       y2="60.660099"
       id="XMLID_25_"
       gradientUnits="userSpaceOnUse">
      <stop
         id="stop168"
         style="stop-color:#b39e7c;stop-opacity:1"
         offset="0" />
      <stop
         id="stop170"
         style="stop-color:#544c3e;stop-opacity:1"
         offset="1" />
    </linearGradient>
    <linearGradient
       x1="0.60159999"
       y1="60.580101"
       x2="1.1021"
       y2="60.580101"
       id="XMLID_26_"
       gradientUnits="userSpaceOnUse">
      <stop
         id="stop175"
         style="stop-color:#544c3e;stop-opacity:1"
         offset="0" />
      <stop
         id="stop177"
         style="stop-color:#000000;stop-opacity:1"
         offset="1" />
    </linearGradient>
    <filter
       x="-0.12374712"
       y="-0.0078790411"
       width="1.2474942"
       height="1.0157582"
       color-interpolation-filters="sRGB"
       id="filter6133">
      <feGaussianBlur
         stdDeviation="0.13253641"
         id="feGaussianBlur6135" />
    </filter>
    <linearGradient
       id="linearGradient4360">
      <stop
         id="stop4362"
         style="stop-color:#ffdfbf;stop-opacity:1"
         offset="0" />
      <stop
         id="stop4364"
         style="stop-color:#ffdfbf;stop-opacity:0"
         offset="1" />
    </linearGradient>
    <filter
       color-interpolation-filters="sRGB"
       id="filter6137">
      <feGaussianBlur
         stdDeviation="0.72379785"
         id="feGaussianBlur6139" />
    </filter>
    <linearGradient
       id="linearGradient3107">
      <stop
         id="stop3109"
         style="stop-color:#000000;stop-opacity:1"
         offset="0" />
      <stop
         id="stop3111"
         style="stop-color:#000000;stop-opacity:0"
         offset="1" />
    </linearGradient>
    <linearGradient
       id="linearGradient6079">
      <stop
         id="stop6081"
         style="stop-color:#2e220f;stop-opacity:1"
         offset="0" />
      <stop
         id="stop6083"
         style="stop-color:#2e220f;stop-opacity:0"
         offset="1" />
    </linearGradient>
    <linearGradient
       id="linearGradient6109">
      <stop
         id="stop6111"
         style="stop-color:#fbe3b9;stop-opacity:1"
         offset="0" />
      <stop
         id="stop6113"
         style="stop-color:#fbe3b9;stop-opacity:0"
         offset="1" />
    </linearGradient>
    <linearGradient
       x1="25.220379"
       y1="61.92226"
       x2="94.567612"
       y2="61.92226"
       id="linearGradient2942"
       xlink:href="#linearGradient3362"
       gradientUnits="userSpaceOnUse"
       gradientTransform="matrix(0,0.13983022,-0.16797786,0,58.40157,39.625008)" />
    <linearGradient
       id="linearGradient3362">
      <stop
         id="stop3364"
         style="stop-color:#4d4d4d;stop-opacity:1"
         offset="0" />
      <stop
         id="stop3366"
         style="stop-color:#ffffff;stop-opacity:1"
         offset="1" />
    </linearGradient>
    <radialGradient
       cx="59.893993"
       cy="61.92226"
       r="33.71384"
       fx="59.893993"
       fy="61.92226"
       id="radialGradient2944"
       xlink:href="#linearGradient3342"
       gradientUnits="userSpaceOnUse"
       gradientTransform="matrix(0,0.24152223,-0.24300788,0,63.047598,33.534357)" />
    <linearGradient
       id="linearGradient3342">
      <stop
         id="stop3344"
         style="stop-color:#000000;stop-opacity:0"
         offset="0" />
      <stop
         id="stop3350"
         style="stop-color:#000000;stop-opacity:0"
         offset="0.85000002" />
      <stop
         id="stop3346"
         style="stop-color:#000000;stop-opacity:1"
         offset="1" />
    </linearGradient>
    <linearGradient
       x1="26.180153"
       y1="61.92226"
       x2="93.607834"
       y2="61.92226"
       id="linearGradient2946"
       xlink:href="#linearGradient3330"
       gradientUnits="userSpaceOnUse"
       gradientTransform="matrix(0,0.24152223,-0.29014359,0,65.966347,33.534357)" />
    <linearGradient
       id="linearGradient3330">
      <stop
         id="stop3332"
         style="stop-color:#ffffff;stop-opacity:0.203125"
         offset="0" />
      <stop
         id="stop3334"
         style="stop-color:#ffffff;stop-opacity:0.6796875"
         offset="1" />
    </linearGradient>
    <clipPath
       id="clipPath4031">
      <path
         d="M 48,32 C 28.117749,32 12,48.117749 12,68 12,87.882251 28.117749,104 48,104 67.882251,104 84,87.882251 84,68 84,48.117749 67.882251,32 48,32 z m 0,24 c 6.627417,0 12,5.372583 12,12 0,6.627417 -5.372583,12 -12,12 -6.627417,0 -12,-5.372583 -12,-12 0,-6.627417 5.372583,-12 12,-12 z"
         id="path4033"
         style="fill:#bbb1bf;fill-opacity:1;stroke:none" />
    </clipPath>
    <filter
       x="-0.19037074"
       y="-0.1707008"
       width="1.3807415"
       height="1.3414016"
       color-interpolation-filters="sRGB"
       id="filter4035">
      <feGaussianBlur
         id="feGaussianBlur4037"
         stdDeviation="4.9476562" />
    </filter>
    <clipPath
       id="clipPath4187">
      <path
         d="m 48,102 c -19.88225,0 -36,16.11775 -36,36 0,19.88225 16.11775,36 36,36 19.88225,0 36,-16.11775 36,-36 0,-19.88225 -16.11775,-36 -36,-36 z m 0,24 c 6.62742,0 12,5.37258 12,12 0,6.62742 -5.37258,12 -12,12 -6.62742,0 -12,-5.37258 -12,-12 0,-6.62742 5.37258,-12 12,-12 z"
         id="path4189"
         style="fill:#bbb1bf;fill-opacity:1;stroke:none" />
    </clipPath>
    <filter
       x="-0.18000001"
       y="-0.18000001"
       width="1.36"
       height="1.36"
       color-interpolation-filters="sRGB"
       id="filter4195">
      <feGaussianBlur
         id="feGaussianBlur4197"
         stdDeviation="5.2159999" />
    </filter>
  </defs>
  <g
     transform="translate(0,-297)"
     id="layer1">
    <path
       d="m 18,419 74,0 c 18,0 18,-18 18,-18 l 0,-72 c 0,0 -26,-26 -26,-26 l -48,0 c 0,0 -18,0 -18,18 l 0,98 z"
       id="path2832"
       style="opacity:0.9;fill:#000000;fill-opacity:1;stroke:none;filter:url(#filter3610)" />
    <path
       d="m 18,419 74,0 c 18,0 18,-18 18,-18 l 0,-72 c 0,0 -26,-26 -26,-26 l -48,0 c 0,0 -18,0 -18,18 l 0,98 z"
       id="path3627"
       style="fill:#e6e6e6;fill-opacity:1;stroke:none" />
    <path
       d="m 18.456586,419.00634 72.706957,0 c 17.685467,0 17.685467,-17.8583 17.685467,-17.8583 l 0.70844,-71.4332 c 0,0 -26.254119,-25.79532 -26.254119,-25.79532 l -49.050441,-0.2319 c 0,0 -16.504743,0.4638 -16.504743,18.3221 l 0.708439,96.99662 z"
       transform="matrix(0.98017447,0,0,0.99812248,1.4934147,0.7943904)"
       id="path3684"
       style="opacity:0.9;fill:none;stroke:url(#linearGradient3805);stroke-width:0.98750001;stroke-linecap:butt;stroke-linejoin:miter;stroke-miterlimit:4;stroke-opacity:1;stroke-dasharray:none;filter:url(#filter3778)" />
    <path
       d="m 18.456586,419.00634 72.706957,0 c 17.685467,0 17.685467,-17.8583 17.685467,-17.8583 l 0.70844,-71.4332 c 0,0 -26.254119,-25.79532 -26.254119,-25.79532 l -49.050441,-0.2319 c 0,0 -16.504743,0.4638 -16.504743,18.3221 l 0.708439,96.99662 z"
       transform="matrix(0.98017447,0,0,0.99812248,1.4934147,0.7943904)"
       id="path3766"
       style="fill:none;stroke:url(#linearGradient3807);stroke-width:0.98750001;stroke-linecap:butt;stroke-linejoin:miter;stroke-miterlimit:4;stroke-opacity:1;stroke-dasharray:none;filter:url(#filter3702)" />
    <path
       d="m 18,122 74,0 c 18,0 18,-18 18,-18 l 0,-72 C 110,32 84,6 84,6 L 36,6 C 36,6 18,6 18,24 l 0,98 z"
       transform="matrix(0.97617501,0,0,0.99219838,1.5247995,297.03637)"
       id="path3726"
       style="opacity:0.4;fill:none;stroke:url(#linearGradient3811);stroke-width:1px;stroke-linecap:butt;stroke-linejoin:miter;stroke-opacity:1;filter:url(#filter3782)" />
    <path
       d="m 18,122 c 0,-6 18,-6 18,-6 l 56,0 c 16.37975,-0.46293 17.38879,-17.305605 17.38879,-17.305605"
       transform="translate(0,297)"
       id="path3722"
       style="opacity:0.8;fill:none;stroke:#333333;stroke-width:1px;stroke-linecap:butt;stroke-linejoin:miter;stroke-opacity:1;filter:url(#filter3728)" />
    <path
       d="m 18,419 74,0 c 18,0 18,-18 18,-18 0,0 0,-16 0,-16 0,0 0,28 -18,28 l -56,0 c 0,0 -18,0 -18,6 z"
       id="path3822"
       style="fill:url(#linearGradient2876);fill-opacity:1;stroke:none" />
    <path
       d="M 92.000003,6.0000025 92,24 l 18,3e-6"
       transform="matrix(1.4444444,0,0,1.4444444,-48.888889,294.33333)"
       id="path3639"
       style="opacity:0.6;fill:none;stroke:#333333;stroke-width:1px;stroke-linecap:butt;stroke-linejoin:miter;stroke-opacity:1;filter:url(#filter3676)" />
    <path
       d="m 84,303 0,26 26,0 -26,-26 z"
       id="path3629"
       style="fill:url(#linearGradient3478);fill-opacity:1;stroke:none" />
    <g
       transform="matrix(1.1867784,0,0,1.1867784,7.0346368,312.66577)"
       id="g2946"
       style="display:inline">
      <path
         d="m 48,31 c -9.926037,0 -18,8.073963 -18,18 0,9.926037 8.073963,18 18,18 9.926037,0 18,-8.073963 18,-18 0,-9.926037 -8.073963,-18 -18,-18 z m 0,10 c 4.436473,0 8,3.563527 8,8 0,4.436473 -3.563527,8 -8,8 -4.436473,0 -8,-3.563527 -8,-8 0,-4.436473 3.563527,-8 8,-8 z"
         id="path3736"
         style="opacity:0.05;color:#000000;fill:#000000;fill-opacity:1;fill-rule:nonzero;stroke:none;stroke-width:1;marker:none;visibility:visible;display:inline;overflow:visible;enable-background:accumulate" />
      <path
         d="m 48,33 c -8.836556,0 -16,7.163444 -16,16 0,8.836556 7.163444,16 16,16 8.836556,0 16,-7.163444 16,-16 0,-8.836556 -7.163444,-16 -16,-16 z m 0,6 c 5.522847,0 10,4.477153 10,10 0,5.522847 -4.477153,10 -10,10 -5.522847,0 -10,-4.477153 -10,-10 0,-5.522847 4.477153,-10 10,-10 z"
         id="path3725"
         style="opacity:0.3;color:#000000;fill:#000000;fill-opacity:1;fill-rule:nonzero;stroke:none;stroke-width:1;marker:none;visibility:visible;display:inline;overflow:visible;enable-background:accumulate" />
      <path
         d="m 48,31.96875 c -9.397533,0 -17.03125,7.633717 -17.03125,17.03125 0,9.397533 7.633717,17.03125 17.03125,17.03125 9.397533,0 17.03125,-7.633717 17.03125,-17.03125 0,-9.397533 -7.633717,-17.03125 -17.03125,-17.03125 z m 0,8.0625 c 4.96187,0 8.96875,4.00688 8.96875,8.96875 0,4.96187 -4.00688,8.96875 -8.96875,8.96875 -4.96187,0 -8.96875,-4.00688 -8.96875,-8.96875 0,-4.96187 4.00688,-8.96875 8.96875,-8.96875 z"
         id="path3732"
         style="opacity:0.1;color:#000000;fill:#000000;fill-opacity:1;fill-rule:nonzero;stroke:none;stroke-width:1;marker:none;visibility:visible;display:inline;overflow:visible;enable-background:accumulate" />
      <path
         d="m 48,18.084506 c -16.521871,0 -29.915493,13.393622 -29.915493,29.915493 0,16.521871 13.393622,29.915493 29.915493,29.915493 16.521871,0 29.915493,-13.393622 29.915493,-29.915493 C 77.915493,31.478128 64.521871,18.084506 48,18.084506 z m 0,19.943662 c 5.50729,0 9.971831,4.464541 9.971831,9.971831 0,5.50729 -4.464541,9.971831 -9.971831,9.971831 -5.50729,0 -9.971831,-4.464541 -9.971831,-9.971831 0,-5.50729 4.464541,-9.971831 9.971831,-9.971831 z"
         id="path3978"
         style="fill:#bbb1bf;fill-opacity:1;stroke:none;display:inline" />
      <path
         d="m 48,38.028168 c -5.50729,0 -9.971831,4.464541 -9.971831,9.971831 0,5.50729 4.464541,9.971831 9.971831,9.971831 5.50729,0 9.971831,-4.464541 9.971831,-9.971831 0,-5.50729 -4.464541,-9.971831 -9.971831,-9.971831 z m 0,5.816901 c 2.294704,0 4.15493,1.860226 4.15493,4.15493 0,2.294704 -1.860226,4.15493 -4.15493,4.15493 -2.294704,0 -4.15493,-1.860226 -4.15493,-4.15493 0,-2.294704 1.860226,-4.15493 4.15493,-4.15493 z"
         id="path3992"
         style="opacity:0.3;fill:#ffffff;fill-opacity:1;stroke:none;display:inline" />
      <path
         d="m 48.000001,52.570421 a 4.5704224,4.5704225 0 1 1 0,-9.140845 4.5704224,4.5704225 0 1 1 0,9.140845 z"
         id="path4002"
         style="opacity:0.6;fill:none;stroke:url(#linearGradient2942);stroke-width:1;stroke-linecap:round;stroke-linejoin:miter;stroke-miterlimit:4;stroke-opacity:1;stroke-dasharray:none;stroke-dashoffset:0;display:inline" />
      <path
         d="M 48,55.894366 A 7.8943664,7.894278 0 1 1 48,40.10581 7.8943664,7.894278 0 1 1 48,55.894366 z"
         id="path4010"
         style="opacity:0.5;fill:url(#radialGradient2944);fill-opacity:1;fill-rule:evenodd;stroke:url(#linearGradient2946);stroke-width:1;stroke-linecap:round;stroke-linejoin:miter;stroke-miterlimit:4;stroke-opacity:1;stroke-dasharray:none;stroke-dashoffset:0;display:inline" />
      <path
         d="M 57.3125,33.21875 48,68 79.1875,50 C 74.413603,41.731368 66.53496,35.689901 57.3125,33.21875 z M 48,68 16.8125,86 c 4.773897,8.268632 12.65254,14.3101 21.875,16.78125 L 48,68 z"
         transform="matrix(0.83098592,0,0,0.83098592,8.1126759,-8.5070427)"
         clip-path="url(#clipPath4031)"
         id="path4018"
         style="opacity:0.8;fill:#ffffff;fill-opacity:1;stroke:none;display:inline;filter:url(#filter4035)" />
      <g
         transform="matrix(0.83098592,0,0,0.83098592,8.1126759,-66.676057)"
         clip-path="url(#clipPath4187)"
         id="g4175"
         style="opacity:0.6;display:inline;filter:url(#filter4195)">
        <path
           d="m 60.947452,57.784124 a 20.708128,18.814091 0 0 1 -2.615496,2.905857 L 43.689098,47.38641 z"
           transform="matrix(1.5055399,0.86922388,-0.95672979,1.6571045,27.560302,21.500167)"
           id="path4039"
           style="fill:#7137c8;fill-opacity:1;stroke:none" />
        <path
           d="m 60.779363,58.010828 a 20.708128,18.814091 0 0 1 -3.384016,3.478847 L 43.689098,47.38641 z"
           transform="matrix(1.6792116,0.4499434,-0.49523981,1.8482599,-1.8956092,30.759984)"
           id="path4041"
           style="fill:#00ccff;fill-opacity:1;stroke:none" />
        <path
           d="m 62.72377,54.795738 a 20.708128,18.814091 0 0 1 -2.259683,3.622054 L 43.689098,47.38641 z"
           transform="matrix(1.7384478,0,-6.0266211e-8,1.9134595,-27.951218,47.328031)"
           id="path4043"
           style="fill:#ffcc00;fill-opacity:1;stroke:none" />
        <path
           d="m 61.622863,56.793455 a 20.708128,18.814091 0 0 1 -1.699251,2.272761 L 43.689098,47.38641 z"
           transform="matrix(1.6792116,-0.4499434,0.4952397,1.84826,-48.830877,70.075223)"
           id="path4045"
           style="fill:#ff0000;fill-opacity:1;stroke:none" />
        <path
           d="m 63.123303,53.883448 a 20.708128,18.814091 0 0 1 -2.370014,4.161918 L 43.689098,47.38641 z"
           transform="matrix(1.6792116,0.4499434,-0.49523981,1.8482599,-1.8956092,30.759984)"
           id="path4144"
           style="fill:#00ff00;fill-opacity:1;stroke:none" />
        <path
           d="m 60.947452,57.784124 a 20.708128,18.814091 0 0 1 -2.615496,2.905857 L 43.689098,47.38641 z"
           transform="matrix(-1.5055399,-0.86922388,0.95672979,-1.6571045,68.439684,254.49984)"
           id="path4155"
           style="fill:#7137c8;fill-opacity:1;stroke:none" />
        <path
           d="m 60.779363,58.010828 a 20.708128,18.814091 0 0 1 -3.384016,3.478847 L 43.689098,47.38641 z"
           transform="matrix(-1.6792116,-0.4499434,0.49523981,-1.8482599,97.895595,245.24003)"
           id="path4157"
           style="fill:#00ccff;fill-opacity:1;stroke:none" />
        <path
           d="m 62.72377,54.795738 a 20.708128,18.814091 0 0 1 -2.259683,3.622054 L 43.689098,47.38641 z"
           transform="matrix(-1.7384478,0,6.0266211e-8,-1.9134595,123.9512,228.67198)"
           id="path4159"
           style="fill:#ffcc00;fill-opacity:1;stroke:none" />
        <path
           d="m 61.622863,56.793455 a 20.708128,18.814091 0 0 1 -1.699251,2.272761 L 43.689098,47.38641 z"
           transform="matrix(-1.6792116,0.4499434,-0.4952397,-1.84826,144.83086,205.92479)"
           id="path4161"
           style="fill:#ff0000;fill-opacity:1;stroke:none" />
        <path
           d="m 63.123303,53.883448 a 20.708128,18.814091 0 0 1 -2.370014,4.161918 L 43.689098,47.38641 z"
           transform="matrix(-1.6792116,-0.4499434,0.49523981,-1.8482599,97.895595,245.24003)"
           id="path4163"
           style="fill:#00ff00;fill-opacity:1;stroke:none" />
      </g>
      <path
         d="m 48,35.950703 c -6.654642,0 -12.049296,5.394654 -12.049296,12.049296 0,6.654642 5.394654,12.049296 12.049296,12.049296 6.654642,0 12.049296,-5.394654 12.049296,-12.049296 0,-6.654642 -5.394654,-12.049296 -12.049296,-12.049296 z m 0,2.077465 c 5.50729,0 9.971831,4.464541 9.971831,9.971831 0,5.50729 -4.464541,9.971831 -9.971831,9.971831 -5.50729,0 -9.971831,-4.464541 -9.971831,-9.971831 0,-5.50729 4.464541,-9.971831 9.971831,-9.971831 z"
         id="path3986"
         style="opacity:0.2;fill:#000000;fill-opacity:1;stroke:none;display:inline" />
      <path
         d="m 18,48.5 c -0.0028,0.168333 0,0.331004 0,0.5 0,16.568542 13.431458,30 30,30 16.568542,0 30,-13.431458 30,-30 0,-0.168996 0.0028,-0.331667 0,-0.5 C 77.729858,64.835143 64.399546,78 48,78 31.600454,78 18.270142,64.835143 18,48.5 z"
         id="path3738"
         style="opacity:0.6;color:#000000;fill:#ffffff;fill-opacity:1;fill-rule:nonzero;stroke:none;stroke-width:1;marker:none;visibility:visible;display:inline;overflow:visible;enable-background:accumulate" />
      <path
         d="M 48,18 C 31.431458,18 18,31.431458 18,48 18,64.568542 31.431458,78 48,78 64.568542,78 78,64.568542 78,48 78,31.431458 64.568542,18 48,18 z m 0,3 C 62.911688,21 75,33.088312 75,48 75,62.911688 62.911688,75 48,75 33.088312,75 21,62.911688 21,48 21,33.088312 33.088312,21 48,21 z"
         id="path3749"
         style="opacity:0.05;color:#000000;fill:#000000;fill-opacity:1;fill-rule:nonzero;stroke:none;stroke-width:1;marker:none;visibility:visible;display:inline;overflow:visible;enable-background:accumulate" />
      <path
         d="M 48,18 C 31.431458,18 18,31.431458 18,48 18,64.568542 31.431458,78 48,78 64.568542,78 78,64.568542 78,48 78,31.431458 64.568542,18 48,18 z m 0,2.03125 C 63.46938,20.03125 75.96875,32.53062 75.96875,48 75.96875,63.46938 63.46938,75.96875 48,75.96875 32.53062,75.96875 20.03125,63.46938 20.03125,48 20.03125,32.53062 32.53062,20.03125 48,20.03125 z"
         id="path3743"
         style="opacity:0.1;color:#000000;fill:#000000;fill-opacity:1;fill-rule:nonzero;stroke:none;stroke-width:1;marker:none;visibility:visible;display:inline;overflow:visible;enable-background:accumulate" />
      <path
         d="M 48,18 C 31.431457,18 18,31.431457 18,48 18,64.568543 31.431457,78 48,78 64.568543,78 78,64.568543 78,48 78,31.431457 64.568543,18 48,18 z m 0,1 C 64.016258,19 77,31.983742 77,48 77,64.016258 64.016258,77 48,77 31.983742,77 19,64.016258 19,48 19,31.983742 31.983742,19 48,19 z"
         id="path3781"
         style="opacity:0.15;color:#000000;fill:#000000;fill-opacity:1;fill-rule:nonzero;stroke:none;stroke-width:1;marker:none;visibility:visible;display:inline;overflow:visible;enable-background:accumulate" />
      <path
         d="m 48,18 c -16.568542,0 -30,13.431458 -30,30 0,0.168996 -0.0028,0.331667 0,0.5 C 18.270142,32.164857 31.600454,19 48,19 64.399546,19 77.729858,32.164857 78,48.5 78.002784,48.331667 78,48.168996 78,48 78,31.431458 64.568542,18 48,18 z"
         id="path3753"
         style="opacity:0.2;color:#000000;fill:#000000;fill-opacity:1;fill-rule:nonzero;stroke:none;stroke-width:1;marker:none;visibility:visible;display:inline;overflow:visible;enable-background:accumulate" />
    </g>
  </g>
</svg>
