<?xml version="1.0" encoding="UTF-8" standalone="no"?>
<!-- Created with Inkscape (http://www.inkscape.org/) -->

<svg
   xmlns:svg="http://www.w3.org/2000/svg"
   xmlns="http://www.w3.org/2000/svg"
   xmlns:xlink="http://www.w3.org/1999/xlink"
   version="1.1"
   width="128"
   height="128"
   id="svg3722">
  <defs
     id="defs3724">
    <filter
       color-interpolation-filters="sRGB"
       id="filter3610">
      <feGaussianBlur
         id="feGaussianBlur3612"
         stdDeviation="1.56" />
    </filter>
    <linearGradient
       x1="18"
       y1="361"
       x2="110"
       y2="361"
       id="linearGradient3720"
       xlink:href="#linearGradient5884"
       gradientUnits="userSpaceOnUse" />
    <linearGradient
       id="linearGradient5884">
      <stop
         id="stop5886"
         style="stop-color:#778aa6;stop-opacity:1"
         offset="0" />
      <stop
         id="stop5888"
         style="stop-color:#a0afc5;stop-opacity:1"
         offset="1" />
    </linearGradient>
    <linearGradient
       x1="56.65461"
       y1="5.5"
       x2="56.65461"
       y2="122.50977"
       id="linearGradient3805"
       xlink:href="#linearGradient3694"
       gradientUnits="userSpaceOnUse"
       gradientTransform="matrix(0.98252641,0,0,0.9921278,0.77111153,297.96672)" />
    <linearGradient
       id="linearGradient3694">
      <stop
         id="stop3696"
         style="stop-color:#ffffff;stop-opacity:1"
         offset="0" />
      <stop
         id="stop3700"
         style="stop-color:#ffffff;stop-opacity:0.67464113"
         offset="0.5" />
      <stop
         id="stop3698"
         style="stop-color:#ffffff;stop-opacity:0"
         offset="1" />
    </linearGradient>
    <filter
       color-interpolation-filters="sRGB"
       id="filter3778">
      <feGaussianBlur
         id="feGaussianBlur3780"
         stdDeviation="0.51837461" />
    </filter>
    <linearGradient
       x1="56.65461"
       y1="5.5"
       x2="56.65461"
       y2="122.50977"
       id="linearGradient3807"
       xlink:href="#linearGradient3694"
       gradientUnits="userSpaceOnUse"
       gradientTransform="matrix(0.98252641,0,0,0.9921278,0.77111153,297.96672)" />
    <linearGradient
       id="linearGradient3836">
      <stop
         id="stop3838"
         style="stop-color:#ffffff;stop-opacity:1"
         offset="0" />
      <stop
         id="stop3840"
         style="stop-color:#ffffff;stop-opacity:0.67464113"
         offset="0.5" />
      <stop
         id="stop3842"
         style="stop-color:#ffffff;stop-opacity:0"
         offset="1" />
    </linearGradient>
    <filter
       color-interpolation-filters="sRGB"
       id="filter3702">
      <feGaussianBlur
         id="feGaussianBlur3704"
         stdDeviation="0.51369811" />
    </filter>
    <filter
       color-interpolation-filters="sRGB"
       id="filter3676">
      <feGaussianBlur
         id="feGaussianBlur3678"
         stdDeviation="0.36000001" />
    </filter>
    <linearGradient
       x1="102"
       y1="14"
       x2="92"
       y2="24"
       id="linearGradient3393"
       xlink:href="#linearGradient3649"
       gradientUnits="userSpaceOnUse"
       gradientTransform="matrix(1.4444444,0,0,1.4444444,-48.888889,294.33333)" />
    <linearGradient
       id="linearGradient3649">
      <stop
         id="stop3651"
         style="stop-color:#c9c9c9;stop-opacity:1"
         offset="0" />
      <stop
         id="stop3653"
         style="stop-color:#f0f0f0;stop-opacity:1"
         offset="1" />
    </linearGradient>
    <linearGradient
       x1="64"
       y1="122.5"
       x2="64"
       y2="93.860451"
       id="linearGradient3811"
       xlink:href="#linearGradient3758"
       gradientUnits="userSpaceOnUse" />
    <linearGradient
       id="linearGradient3758">
      <stop
         id="stop3760"
         style="stop-color:#333333;stop-opacity:1"
         offset="0" />
      <stop
         id="stop3762"
         style="stop-color:#333333;stop-opacity:0"
         offset="1" />
    </linearGradient>
    <filter
       color-interpolation-filters="sRGB"
       id="filter3782">
      <feGaussianBlur
         id="feGaussianBlur3784"
         stdDeviation="1.0410113" />
    </filter>
    <filter
       color-interpolation-filters="sRGB"
       id="filter3728">
      <feGaussianBlur
         id="feGaussianBlur3730"
         stdDeviation="0.57810125" />
    </filter>
    <linearGradient
       x1="62"
       y1="413"
       x2="62"
       y2="419"
       id="linearGradient3388"
       xlink:href="#linearGradient3636"
       gradientUnits="userSpaceOnUse" />
    <linearGradient
       id="linearGradient3636">
      <stop
         id="stop3638"
         style="stop-color:#3988c5;stop-opacity:1"
         offset="0" />
      <stop
         id="stop3644"
         style="stop-color:#347cb4;stop-opacity:1"
         offset="0.5" />
      <stop
         id="stop3640"
         style="stop-color:#2a628d;stop-opacity:1"
         offset="1" />
    </linearGradient>
    <linearGradient
       x1="62"
       y1="413"
       x2="62"
       y2="419"
       id="linearGradient3875"
       xlink:href="#linearGradient3636"
       gradientUnits="userSpaceOnUse" />
  </defs>
  <g
     transform="translate(0,-297)"
     id="layer1">
    <g
       id="g3799">
      <path
         d="m 18,419 74,0 c 18,0 18,-18 18,-18 l 0,-72 c 0,0 -26,-26 -26,-26 l -48,0 c 0,0 -18,0 -18,18 l 0,98 z"
         id="path2832"
         style="opacity:0.9;fill:#000000;fill-opacity:1;stroke:none;filter:url(#filter3610)" />
      <path
         d="m 18,419 74,0 c 18,0 18,-18 18,-18 l 0,-72 c 0,0 -26,-26 -26,-26 l -48,0 c 0,0 -18,0 -18,18 l 0,98 z"
         id="path3627"
         style="fill:#e6e6e6;fill-opacity:1;stroke:url(#linearGradient3720)" />
      <path
         d="m 18.456586,419.00634 72.706957,0 c 17.685467,0 17.685467,-17.8583 17.685467,-17.8583 l 0.70844,-71.4332 c 0,0 -26.254119,-25.79532 -26.254119,-25.79532 l -49.050441,-0.2319 c 0,0 -16.504743,0.4638 -16.504743,18.3221 l 0.708439,96.99662 z"
         transform="matrix(0.98017447,0,0,0.99812248,1.4934147,0.7943904)"
         id="path3684"
         style="opacity:0.9;fill:none;stroke:url(#linearGradient3805);stroke-width:0.98750001;stroke-linecap:butt;stroke-linejoin:miter;stroke-miterlimit:4;stroke-opacity:1;stroke-dasharray:none;filter:url(#filter3778)" />
      <path
         d="m 18.456586,419.00634 72.706957,0 c 17.685467,0 17.685467,-17.8583 17.685467,-17.8583 l 0.70844,-71.4332 c 0,0 -26.254119,-25.79532 -26.254119,-25.79532 l -49.050441,-0.2319 c 0,0 -16.504743,0.4638 -16.504743,18.3221 l 0.708439,96.99662 z"
         transform="matrix(0.98017447,0,0,0.99812248,1.4934147,0.7943904)"
         id="path3766"
         style="fill:none;stroke:url(#linearGradient3807);stroke-width:0.98750001;stroke-linecap:butt;stroke-linejoin:miter;stroke-miterlimit:4;stroke-opacity:1;stroke-dasharray:none;filter:url(#filter3702)" />
      <path
         d="M 92.000003,6.0000025 92,24 l 18,3e-6"
         transform="matrix(1.4444444,0,0,1.4444444,-48.888889,294.33333)"
         id="path3639"
         style="opacity:0.6;fill:none;stroke:#333333;stroke-width:1px;stroke-linecap:butt;stroke-linejoin:miter;stroke-opacity:1;filter:url(#filter3676)" />
      <path
         d="m 84,303 0,26 26,0 -26,-26 z"
         id="path3629"
         style="fill:url(#linearGradient3393);fill-opacity:1;stroke:none" />
      <path
         d="m 18,122 74,0 c 18,0 18,-18 18,-18 l 0,-72 C 110,32 84,6 84,6 L 36,6 C 36,6 18,6 18,24 l 0,98 z"
         transform="matrix(0.97617501,0,0,0.99219838,1.5247995,297.03637)"
         id="path3726"
         style="opacity:0.4;fill:none;stroke:url(#linearGradient3811);stroke-width:1px;stroke-linecap:butt;stroke-linejoin:miter;stroke-opacity:1;filter:url(#filter3782)" />
      <path
         d="m 18,419 c 0,-6 18,-6 18,-6 l 56,0 c 16.37975,-0.46293 17.38879,-17.30561 17.38879,-17.30561"
         id="path3722"
         style="opacity:0.8;fill:none;stroke:#333333;stroke-width:1px;stroke-linecap:butt;stroke-linejoin:miter;stroke-opacity:1;filter:url(#filter3728)" />
      <path
         d="m 18,419 74,0 c 18,0 18,-18 18,-18 0,0 0,-16 0,-16 0,0 0,28 -18,28 l -56,0 c 0,0 -18,0 -18,6 z"
         id="path3822"
         style="fill:url(#linearGradient3875);fill-opacity:1;stroke:none" />
    </g>
    <g
       transform="matrix(1.025985,0,0,1.025985,14.75272,320.82074)"
       id="layer5"
       style="display:inline">
      <path
         d="m 61.407314,32.926135 c 0.04371,1.173285 -0.34237,1.743417 -0.691539,2.751588 l -0.627921,0.312261 c -0.513313,0.997487 0.05099,0.633263 -0.316633,1.4263 -0.802263,0.712421 -2.431071,2.228563 -2.952639,2.367453 -0.381221,-0.0083 0.25787,-0.449695 0.341399,-0.622094 -1.07276,0.736218 -0.861024,1.105298 -2.501974,1.553535 l -0.04759,-0.107325 c -4.045311,1.903676 -9.665037,-1.868224 -9.591222,-7.013975 -0.04274,0.326344 -0.122866,0.244758 -0.212221,0.375879 -0.208821,-2.647177 1.222821,-5.30601 3.63738,-6.393338 2.361625,-1.16843 5.13021,-0.689597 6.820694,0.888219 -0.928527,-1.216992 -2.778297,-2.507315 -4.968982,-2.38785 -2.146975,0.03497 -4.156034,1.399105 -4.826206,2.880766 -1.099469,0.692025 -1.227676,2.669031 -1.706509,3.031312 -0.645403,4.739764 1.212623,6.7867 4.356115,9.195918 0.493402,0.333143 0.138891,0.384134 0.204936,0.637634 -1.044107,-0.488545 -1.99983,-1.226705 -2.786553,-2.130465 0.417644,0.610439 0.867825,1.20388 1.450097,1.670087 -0.985347,-0.332658 -2.300923,-2.385908 -2.684087,-2.469436 1.697284,3.039081 6.885283,5.329805 9.603363,4.192942 -1.257786,0.04662 -2.855026,0.02574 -4.267244,-0.496316 -0.594898,-0.305462 -1.400561,-0.937269 -1.256328,-1.055277 3.708283,1.384535 7.537973,1.047993 10.746053,-1.523426 0.816833,-0.636177 1.708453,-1.717679 1.966322,-1.732248 -0.38802,0.583729 0.06653,0.280696 -0.231646,0.795951 0.811977,-1.311691 -0.354026,-0.534195 0.840142,-2.264986 l 0.440955,0.60704 c -0.165115,-1.089757 1.352483,-2.411647 1.198052,-4.133696 0.348198,-0.526425 0.38802,0.567218 0.01894,1.778383 0.512342,-1.343743 0.135491,-1.559849 0.266611,-2.669031 0.141319,0.372965 0.329259,0.768755 0.424927,1.162602 -0.334113,-1.299064 0.3414,-2.186799 0.509429,-2.941956 -0.166087,-0.07285 -0.515255,0.574017 -0.595871,-0.959608 0.01214,-0.666286 0.185997,-0.349169 0.252529,-0.513312 -0.13015,-0.07527 -0.473492,-0.586157 -0.681826,-1.565676 0.150059,-0.230675 0.404044,0.596842 0.609952,0.63035 -0.132577,-0.778467 -0.360338,-1.372395 -0.370051,-1.970207 -0.602183,-1.257786 -0.213193,0.168029 -0.700767,-0.540022 -0.641033,-1.997888 0.531281,-0.463778 0.610925,-1.370938 0.970293,1.405903 1.523427,3.586389 1.778384,4.489177 -0.194253,-1.100926 -0.507486,-2.167858 -0.89065,-3.199825 0.29575,0.124807 -0.475433,-2.2645 0.384136,-0.682312 -0.917358,-3.372711 -3.922931,-6.524459 -6.688604,-8.002722 0.337514,0.309348 0.764384,0.697853 0.611897,0.759042 -1.376281,-0.818289 -1.134436,-0.882878 -1.331602,-1.228647 -1.119381,-0.456008 -1.194168,0.03739 -1.934756,9.71e-4 -2.112497,-1.120838 -2.519457,-1.001858 -4.463438,-1.70311 l 0.08838,0.413758 c -1.399103,-0.466206 -1.630265,0.175799 -3.142035,9.72e-4 -0.09179,-0.07139 0.48466,-0.260299 0.959607,-0.328773 -1.352969,0.178712 -1.289837,-0.267097 -2.613667,0.04905 0.325858,-0.228733 0.671627,-0.380735 1.01934,-0.574988 -1.10287,0.06702 -2.634065,0.642005 -2.161547,0.118494 -1.799264,0.803235 -4.995205,1.930385 -6.788641,3.612127 l -0.05633,-0.37685 c -0.82169,0.986318 -3.583475,2.945841 -3.803466,4.224508 l -0.219992,0.05099 c -0.42687,0.724076 -0.704166,1.544308 -1.043137,2.288781 -0.558962,0.953295 -0.819745,0.367137 -0.740102,0.516712 -1.099955,2.23002 -1.647261,4.103586 -2.118811,5.641095 0.336058,0.502628 0.0083,3.026456 0.135006,5.046197 -0.551676,9.976813 7.001835,19.662733 15.258542,21.898581 1.210193,0.433669 3.009459,0.418129 4.540169,0.460864 -1.805578,-0.516712 -2.038681,-0.27341 -3.79861,-0.886763 -1.268955,-0.598298 -1.546736,-1.280611 -2.446125,-2.06102 l 0.355967,0.628892 C 42.815399,54.854338 43.553073,54.70622 42.118519,54.252155 l 0.380249,-0.49583 c -0.57159,-0.04371 -1.513714,-0.962522 -1.771099,-1.47292 l -0.625494,0.02477 c -0.750786,-0.925614 -1.15143,-1.594328 -1.121807,-2.112497 l -0.202023,0.360339 c -0.228732,-0.392876 -2.763729,-3.47615 -1.44864,-2.758387 -0.244272,-0.22242 -0.56916,-0.362767 -0.921242,-1.003315 l 0.267582,-0.305462 c -0.631806,-0.814404 -1.164543,-1.858026 -1.12375,-2.205739 0.337513,0.455523 0.571587,0.540994 0.80372,0.619181 -1.598213,-3.964695 -1.688056,-0.218048 -2.897764,-4.035598 l 0.255443,-0.0204 c -0.19571,-0.296721 -0.315661,-0.616752 -0.473006,-0.931927 l 0.111695,-1.109668 c -1.149975,-1.328688 -0.321487,-5.655179 -0.154916,-8.027489 0.114124,-0.964464 0.960093,-1.991574 1.602584,-3.602414 l -0.391419,-0.06702 c 0.748844,-1.305377 4.274529,-5.244334 5.908192,-5.042312 0.791094,-0.993602 -0.157343,-0.0039 -0.31226,-0.253499 1.738074,-1.798294 2.284411,-1.270412 3.457211,-1.594328 1.264099,-0.750301 -1.085387,0.293321 -0.486117,-0.286037 2.186798,-0.557991 1.549165,-1.269441 4.401279,-1.552564 0.301091,0.170942 -0.697854,0.264183 -0.948439,0.486117 1.821117,-0.891619 5.763959,-0.68814 8.326151,0.494373 2.970609,1.389392 6.310296,5.494434 6.442387,9.356661 l 0.150061,0.04031 c -0.07576,1.535566 0.235045,3.311521 -0.304492,4.942271 l 0.36471,-0.772639"
         id="path2536"
         style="fill:#d70751;display:inline" />
      <g
         transform="matrix(0.4856315,0,0,0.4856315,21.591845,14.004961)"
         id="g2608"
         style="display:inline">
        <path
           d="m 13.437,125.506 c -0.045,0.047 -0.045,7.506 -0.138,9.453 -0.092,1.574 -0.232,4.957 -3.568,4.957 -3.429,0 -4.263,-3.939 -4.541,-5.652 -0.324,-1.9 -0.324,-3.477 -0.324,-4.17 0,-2.225 0.139,-8.436 5.375,-8.436 1.576,0 2.456,0.465 3.151,0.834 l 0.045,3.014 z M 0,130.975 c 0,13.066 6.951,13.066 7.97,13.066 2.873,0 4.727,-1.576 5.514,-4.309 l 0.093,4.123 c 0.881,-0.047 1.761,-0.139 3.197,-0.139 0.51,0 0.926,0 1.298,0.047 0.371,0 0.741,0.045 1.158,0.092 -0.741,-1.482 -1.297,-4.818 -1.297,-12.049 0,-7.043 0,-18.951 0.602,-22.566 -1.667,0.789 -3.105,1.299 -6.256,1.576 1.251,1.344 1.251,2.039 1.251,8.154 -0.879,-0.277 -1.992,-0.602 -3.892,-0.602 C 1.344,118.369 0,125.598 0,130.975"
           id="path2550" />
        <path
           d="m 25.13,128.609 c 0.047,-3.846 0.835,-7.275 4.124,-7.275 3.615,0 3.891,3.984 3.799,7.275 l -7.923,0 z m 12.51,0.465 c 0,-5.422 -1.065,-10.752 -7.923,-10.752 -9.452,0 -9.452,10.475 -9.452,12.697 0,9.406 4.216,13.113 11.306,13.113 3.149,0 4.68,-0.461 5.514,-0.695 -0.046,-1.668 0.185,-2.734 0.465,-4.17 -0.975,0.604 -2.226,1.391 -5.006,1.391 -7.229,0 -7.322,-6.582 -7.322,-8.852 l 12.328,0 0.09,-2.732"
           id="path2552" />
        <path
           d="m 52.715,131.066 c 0,4.309 -0.787,10.102 -6.162,10.102 -0.742,0 -1.668,-0.141 -2.27,-0.279 -0.093,-1.668 -0.093,-4.541 -0.093,-7.877 0,-3.986 0.416,-6.068 0.742,-7.09 0.972,-3.289 3.15,-3.334 3.566,-3.334 3.522,0 4.217,4.865 4.217,8.478 z m -13.298,5.051 c 0,3.43 0,5.375 -0.556,6.857 1.9,0.742 4.262,1.158 7.09,1.158 1.807,0 7.043,0 9.869,-5.791 1.344,-2.688 1.807,-6.303 1.807,-9.037 0,-1.668 -0.186,-5.328 -1.529,-7.646 -1.296,-2.176 -3.382,-3.289 -5.605,-3.289 -4.449,0 -5.746,3.707 -6.44,5.607 0,-2.363 0.045,-10.611 0.415,-14.828 -3.011,1.391 -4.866,1.621 -6.857,1.807 1.807,0.74 1.807,3.801 1.807,13.764 l 0,11.398"
           id="path2554" />
        <path
           d="m 66.535,143.855 c -0.928,-0.139 -1.578,-0.232 -2.922,-0.232 -1.48,0 -2.502,0.094 -3.566,0.232 0.463,-0.881 0.648,-1.299 0.787,-4.309 0.186,-4.125 0.232,-15.154 -0.092,-17.471 -0.232,-1.762 -0.648,-2.039 -1.297,-2.502 3.799,-0.371 4.865,-0.648 6.625,-1.482 -0.369,2.037 -0.418,3.059 -0.418,6.162 -0.091,15.989 -0.138,17.702 0.883,19.602"
           id="path2556" />
        <path
           d="m 81.373,130.74 c -0.092,2.92 -0.139,4.959 -0.928,6.58 -0.973,2.086 -2.594,2.688 -3.799,2.688 -2.783,0 -3.383,-2.316 -3.383,-4.586 0,-4.355 3.893,-4.682 5.652,-4.682 l 2.458,0 z m -12.744,5.701 c 0,2.92 0.881,5.838 3.477,7.09 1.158,0.51 2.316,0.51 2.688,0.51 4.264,0 5.699,-3.152 6.58,-5.098 -0.047,2.039 0,3.289 0.139,4.912 0.834,-0.047 1.668,-0.139 3.059,-0.139 0.787,0 1.529,0.092 2.316,0.139 -0.51,-0.787 -0.787,-1.252 -0.928,-3.059 -0.092,-1.76 -0.092,-3.521 -0.092,-5.977 l 0.047,-9.453 c 0,-3.523 -0.928,-6.998 -7.879,-6.998 -4.586,0 -7.273,1.391 -8.617,2.086 0.557,1.02 1.02,1.898 1.436,3.893 1.809,-1.576 4.172,-2.41 6.58,-2.41 3.848,0 3.848,2.549 3.848,6.162 -0.881,-0.045 -1.623,-0.137 -2.875,-0.137 -5.887,10e-4 -9.779,2.268 -9.779,8.479"
           id="path2558" />
        <path
           d="m 108.063,139.268 c 0.047,1.576 0.047,3.244 0.695,4.588 -1.021,-0.092 -1.623,-0.232 -3.521,-0.232 -1.113,0 -1.715,0.094 -2.596,0.232 0.184,-0.602 0.279,-0.834 0.371,-1.623 0.139,-1.064 0.232,-4.633 0.232,-5.885 l 0,-5.004 c 0,-2.178 0,-5.33 -0.141,-6.441 -0.092,-0.787 -0.322,-2.918 -3.012,-2.918 -2.641,0 -3.521,1.945 -3.846,3.521 -0.369,1.621 -0.369,3.383 -0.369,10.24 0.045,5.932 0.045,6.486 0.508,8.109 -0.787,-0.092 -1.76,-0.184 -3.15,-0.184 -1.113,0 -1.854,0.045 -2.779,0.184 0.324,-0.742 0.51,-1.113 0.602,-3.707 0.094,-2.549 0.279,-15.061 -0.141,-18.025 -0.23,-1.809 -0.695,-2.225 -1.203,-2.688 3.754,-0.186 4.957,-0.789 6.117,-1.389 l 0,4.91 c 0.555,-1.438 1.713,-4.635 6.348,-4.635 5.793,0 5.838,4.217 5.885,6.996 l 0,13.951"
           id="path2560" />
        <path
           d="m 66.926,111.533 -3.838,3.836 -3.836,-3.836 3.836,-3.836 3.838,3.836"
           id="path2562"
           style="fill:#d70751" />
      </g>
    </g>
  </g>
</svg>
