<?xml version="1.0" encoding="UTF-8" standalone="no"?>
<!-- Created with Inkscape (http://www.inkscape.org/) -->

<svg
   xmlns:svg="http://www.w3.org/2000/svg"
   xmlns="http://www.w3.org/2000/svg"
   xmlns:xlink="http://www.w3.org/1999/xlink"
   version="1.1"
   width="128"
   height="128"
   id="svg2816">
  <defs
     id="defs2818">
    <linearGradient
       id="linearGradient3652">
      <stop
         id="stop3654"
         style="stop-color:#000000;stop-opacity:0.21531101"
         offset="0" />
      <stop
         id="stop3656"
         style="stop-color:#ffffff;stop-opacity:1"
         offset="1" />
    </linearGradient>
    <linearGradient
       id="linearGradient3636">
      <stop
         id="stop3638"
         style="stop-color:#30a078;stop-opacity:1"
         offset="0" />
      <stop
         id="stop3644"
         style="stop-color:#288665;stop-opacity:1"
         offset="0.5" />
      <stop
         id="stop3640"
         style="stop-color:#216f54;stop-opacity:1"
         offset="1" />
    </linearGradient>
    <linearGradient
       id="linearGradient3758">
      <stop
         id="stop3760"
         style="stop-color:#333333;stop-opacity:1"
         offset="0" />
      <stop
         id="stop3762"
         style="stop-color:#333333;stop-opacity:0"
         offset="1" />
    </linearGradient>
    <linearGradient
       id="linearGradient3736">
      <stop
         id="stop3738"
         style="stop-color:#ffffff;stop-opacity:0"
         offset="0" />
      <stop
         id="stop3740"
         style="stop-color:#333333;stop-opacity:0.72791517"
         offset="1" />
    </linearGradient>
    <linearGradient
       id="linearGradient3708">
      <stop
         id="stop3712"
         style="stop-color:#ffffff;stop-opacity:0"
         offset="0" />
      <stop
         id="stop3714"
         style="stop-color:#333333;stop-opacity:1"
         offset="1" />
    </linearGradient>
    <linearGradient
       id="linearGradient3694">
      <stop
         id="stop3696"
         style="stop-color:#ffffff;stop-opacity:1"
         offset="0" />
      <stop
         id="stop3700"
         style="stop-color:#ffffff;stop-opacity:0.67464113"
         offset="0.5" />
      <stop
         id="stop3698"
         style="stop-color:#ffffff;stop-opacity:0"
         offset="1" />
    </linearGradient>
    <linearGradient
       id="linearGradient3649">
      <stop
         id="stop3651"
         style="stop-color:#c9c9c9;stop-opacity:1"
         offset="0" />
      <stop
         id="stop3653"
         style="stop-color:#f0f0f0;stop-opacity:1"
         offset="1" />
    </linearGradient>
    <linearGradient
       id="linearGradient3631">
      <stop
         id="stop3633"
         style="stop-color:#dddddd;stop-opacity:0.62190813"
         offset="0" />
      <stop
         id="stop3635"
         style="stop-color:#ffffff;stop-opacity:1"
         offset="1" />
    </linearGradient>
    <linearGradient
       x1="102"
       y1="14"
       x2="92"
       y2="24"
       id="linearGradient3637"
       xlink:href="#linearGradient3649"
       gradientUnits="userSpaceOnUse"
       gradientTransform="matrix(1.4444444,0,0,1.4444444,-48.888889,294.33333)" />
    <filter
       color-interpolation-filters="sRGB"
       id="filter3676">
      <feGaussianBlur
         id="feGaussianBlur3678"
         stdDeviation="0.36000001" />
    </filter>
    <filter
       color-interpolation-filters="sRGB"
       id="filter3610">
      <feGaussianBlur
         id="feGaussianBlur3612"
         stdDeviation="1.56" />
    </filter>
    <linearGradient
       x1="56.65461"
       y1="5.5"
       x2="56.65461"
       y2="122.50977"
       id="linearGradient3692"
       xlink:href="#linearGradient3694"
       gradientUnits="userSpaceOnUse"
       gradientTransform="matrix(0.98252641,0,0,0.9921278,0.77111153,297.96672)" />
    <filter
       color-interpolation-filters="sRGB"
       id="filter3702">
      <feGaussianBlur
         id="feGaussianBlur3704"
         stdDeviation="0.51369811" />
    </filter>
    <linearGradient
       x1="64"
       y1="122.5"
       x2="64"
       y2="93.860451"
       id="linearGradient3748"
       xlink:href="#linearGradient3758"
       gradientUnits="userSpaceOnUse" />
    <linearGradient
       x1="56.65461"
       y1="5.5"
       x2="56.65461"
       y2="122.50977"
       id="linearGradient3776"
       xlink:href="#linearGradient3694"
       gradientUnits="userSpaceOnUse"
       gradientTransform="matrix(0.98252641,0,0,0.9921278,0.77111153,297.96672)" />
    <filter
       color-interpolation-filters="sRGB"
       id="filter3778">
      <feGaussianBlur
         id="feGaussianBlur3780"
         stdDeviation="0.51837461" />
    </filter>
    <filter
       color-interpolation-filters="sRGB"
       id="filter3782">
      <feGaussianBlur
         id="feGaussianBlur3784"
         stdDeviation="1.0410113" />
    </filter>
    <linearGradient
       x1="64"
       y1="122"
       x2="64"
       y2="76.36528"
       id="linearGradient3794"
       xlink:href="#linearGradient3631"
       gradientUnits="userSpaceOnUse" />
    <linearGradient
       x1="56.65461"
       y1="5.5"
       x2="56.65461"
       y2="122.50977"
       id="linearGradient3805"
       xlink:href="#linearGradient3694"
       gradientUnits="userSpaceOnUse"
       gradientTransform="matrix(0.98252641,0,0,0.9921278,0.77111153,297.96672)" />
    <linearGradient
       x1="56.65461"
       y1="5.5"
       x2="56.65461"
       y2="122.50977"
       id="linearGradient3807"
       xlink:href="#linearGradient3694"
       gradientUnits="userSpaceOnUse"
       gradientTransform="matrix(0.98252641,0,0,0.9921278,0.77111153,297.96672)" />
    <linearGradient
       x1="102"
       y1="14"
       x2="92"
       y2="24"
       id="linearGradient3809"
       xlink:href="#linearGradient3649"
       gradientUnits="userSpaceOnUse"
       gradientTransform="matrix(1.4444444,0,0,1.4444444,-48.888889,294.33333)" />
    <linearGradient
       x1="64"
       y1="122.5"
       x2="64"
       y2="93.860451"
       id="linearGradient3811"
       xlink:href="#linearGradient3758"
       gradientUnits="userSpaceOnUse" />
    <linearGradient
       x1="62"
       y1="413"
       x2="62"
       y2="419"
       id="linearGradient2876"
       xlink:href="#linearGradient3636"
       gradientUnits="userSpaceOnUse" />
    <linearGradient
       x1="102"
       y1="14"
       x2="92"
       y2="24"
       id="linearGradient2880"
       xlink:href="#linearGradient3649"
       gradientUnits="userSpaceOnUse"
       gradientTransform="matrix(1.4444444,0,0,1.4444444,-48.888889,294.33333)" />
    <filter
       color-interpolation-filters="sRGB"
       id="filter3728">
      <feGaussianBlur
         id="feGaussianBlur3730"
         stdDeviation="0.57810125" />
    </filter>
    <linearGradient
       x1="48"
       y1="64"
       x2="48"
       y2="24"
       id="linearGradient2887"
       xlink:href="#linearGradient3317"
       gradientUnits="userSpaceOnUse"
       gradientTransform="translate(20,301)" />
    <linearGradient
       id="linearGradient3317">
      <stop
         id="stop3319"
         style="stop-color:#005490;stop-opacity:1"
         offset="0" />
      <stop
         id="stop3321"
         style="stop-color:#007acf;stop-opacity:1"
         offset="1" />
    </linearGradient>
  </defs>
  <g
     transform="translate(0,-297)"
     id="layer1">
    <path
       d="m 18,419 74,0 c 18,0 18,-18 18,-18 l 0,-72 c 0,0 -26,-26 -26,-26 l -48,0 c 0,0 -18,0 -18,18 l 0,98 z"
       id="path2832"
       style="opacity:0.9;fill:#000000;fill-opacity:1;stroke:none;filter:url(#filter3610)" />
    <path
       d="m 18,419 74,0 c 18,0 18,-18 18,-18 l 0,-72 c 0,0 -26,-26 -26,-26 l -48,0 c 0,0 -18,0 -18,18 l 0,98 z"
       id="path3627"
       style="fill:#e6e6e6;fill-opacity:1;stroke:none" />
    <path
       d="m 18.456586,419.00634 72.706957,0 c 17.685467,0 17.685467,-17.8583 17.685467,-17.8583 l 0.70844,-71.4332 c 0,0 -26.254119,-25.79532 -26.254119,-25.79532 l -49.050441,-0.2319 c 0,0 -16.504743,0.4638 -16.504743,18.3221 l 0.708439,96.99662 z"
       transform="matrix(0.98017447,0,0,0.99812248,1.4934147,0.7943904)"
       id="path3684"
       style="opacity:0.9;fill:none;stroke:url(#linearGradient3805);stroke-width:0.98750001;stroke-linecap:butt;stroke-linejoin:miter;stroke-miterlimit:4;stroke-opacity:1;stroke-dasharray:none;filter:url(#filter3778)" />
    <path
       d="m 18.456586,419.00634 72.706957,0 c 17.685467,0 17.685467,-17.8583 17.685467,-17.8583 l 0.70844,-71.4332 c 0,0 -26.254119,-25.79532 -26.254119,-25.79532 l -49.050441,-0.2319 c 0,0 -16.504743,0.4638 -16.504743,18.3221 l 0.708439,96.99662 z"
       transform="matrix(0.98017447,0,0,0.99812248,1.4934147,0.7943904)"
       id="path3766"
       style="fill:none;stroke:url(#linearGradient3807);stroke-width:0.98750001;stroke-linecap:butt;stroke-linejoin:miter;stroke-miterlimit:4;stroke-opacity:1;stroke-dasharray:none;filter:url(#filter3702)" />
    <path
       d="M 92.000003,6.0000025 92,24 l 18,3e-6"
       transform="matrix(1.4444444,0,0,1.4444444,-48.888889,294.33333)"
       id="path3639"
       style="opacity:0.6;fill:none;stroke:#333333;stroke-width:1px;stroke-linecap:butt;stroke-linejoin:miter;stroke-opacity:1;filter:url(#filter3676)" />
    <path
       d="m 84,303 0,26 26,0 -26,-26 z"
       id="path3629"
       style="fill:url(#linearGradient2880);fill-opacity:1;stroke:none" />
    <path
       d="m 18,122 74,0 c 18,0 18,-18 18,-18 l 0,-72 C 110,32 84,6 84,6 L 36,6 C 36,6 18,6 18,24 l 0,98 z"
       transform="matrix(0.97617501,0,0,0.99219838,1.5247995,297.03637)"
       id="path3726"
       style="opacity:0.4;fill:none;stroke:url(#linearGradient3811);stroke-width:1px;stroke-linecap:butt;stroke-linejoin:miter;stroke-opacity:1;filter:url(#filter3782)" />
    <path
       d="m 18,122 c 0,-6 18,-6 18,-6 l 56,0 c 16.37975,-0.46293 17.38879,-17.305605 17.38879,-17.305605"
       transform="translate(0,297)"
       id="path3722"
       style="opacity:0.8;fill:none;stroke:#333333;stroke-width:1px;stroke-linecap:butt;stroke-linejoin:miter;stroke-opacity:1;filter:url(#filter3728)" />
    <path
       d="m 18,419 74,0 c 18,0 18,-18 18,-18 0,0 0,-16 0,-16 0,0 0,28 -18,28 l -56,0 c 0,0 -18,0 -18,6 z"
       id="path3822"
       style="fill:url(#linearGradient2876);fill-opacity:1;stroke:none" />
    <g
       transform="matrix(1.3784495,0,0,1.3784495,-37.316038,-103.21736)"
       id="g3662">
      <path
         d="m 68.5,318 c -3.589851,0 -6.5,2.01472 -6.5,4.5 0.10443,0.9272 0.690589,2.09803 1,2.5 1.5,2 1.5,3.25 1.125,4 L 52,329 c -2.216,0 -4,1.784 -4,4 l 0,10.125 c 0.75,0.375 2,0.375 4,-1.125 0.401966,-0.30941 1.5728,-0.89557 2.5,-1 2.485281,0 4.5,2.91015 4.5,6.5 0,3.58985 -2.014719,6.5 -4.5,6.5 -0.762762,-0.0129 -1.922371,-0.69511 -2.5,-1 -2,-1.5 -3.25,-1.5 -4,-1.125 L 48,365 c 0,2.216 1.784,4 4,4 l 16.125,0 C 68.5,368.25 68.5,367 67,365 c -0.309411,-0.40197 -0.89557,-1.5728 -1,-2.5 0,-2.48528 2.910149,-4.5 6.5,-4.5 3.589851,0 6.5,2.01472 6.5,4.5 -0.01292,0.76276 -0.695105,1.92237 -1,2.5 -1.5,2 -1.5,3.25 -1.125,4 L 84,369 c 2.216,0 4,-1.784 4,-4 l 0,-11.125 c 0.75,-0.375 2,-0.375 4,1.125 0.577629,0.30489 1.737238,0.98708 2.5,1 2.485281,0 4.5,-2.91015 4.5,-6.5 0,-3.58985 -2.014719,-6.5 -4.5,-6.5 -0.9272,0.10443 -2.098034,0.69059 -2.5,1 -2,1.5 -3.25,1.5 -4,1.125 L 88,333 c 0,-2.216 -1.784,-4 -4,-4 l -11.125,0 C 72.5,328.25 72.5,327 74,325 c 0.304895,-0.57763 0.987081,-1.73724 1,-2.5 0,-2.48528 -2.910149,-4.5 -6.5,-4.5 z"
         id="rect4096"
         style="color:#000000;fill:url(#linearGradient2887);fill-opacity:1;fill-rule:nonzero;stroke:none;stroke-width:2;marker:none;visibility:visible;display:inline;overflow:visible;enable-background:accumulate" />
      <path
         d="m 68.5,318 c -3.589851,0 -6.5,2.01472 -6.5,4.5 0.10443,0.9272 0.690589,2.09803 1,2.5 1.5,2 1.5,3.25 1.125,4 L 52,329 c -2.216,0 -4,1.784 -4,4 l 0,10.125 c 0.75,0.375 2,0.375 4,-1.125 0.401966,-0.30941 1.5728,-0.89557 2.5,-1 2.485281,0 4.5,2.91015 4.5,6.5 0,3.58985 -2.014719,6.5 -4.5,6.5 -0.762762,-0.0129 -1.922371,-0.69511 -2.5,-1 -2,-1.5 -3.25,-1.5 -4,-1.125 L 48,365 c 0,2.216 1.784,4 4,4 l 16.125,0 C 68.5,368.25 68.5,367 67,365 c -0.309411,-0.40197 -0.89557,-1.5728 -1,-2.5 0,-2.48528 2.910149,-4.5 6.5,-4.5 3.589851,0 6.5,2.01472 6.5,4.5 -0.01292,0.76276 -0.695105,1.92237 -1,2.5 -1.5,2 -1.5,3.25 -1.125,4 L 84,369 c 2.216,0 4,-1.784 4,-4 l 0,-11.125 c 0.75,-0.375 2,-0.375 4,1.125 0.577629,0.30489 1.737238,0.98708 2.5,1 2.485281,0 4.5,-2.91015 4.5,-6.5 0,-3.58985 -2.014719,-6.5 -4.5,-6.5 -0.9272,0.10443 -2.098034,0.69059 -2.5,1 -2,1.5 -3.25,1.5 -4,1.125 L 88,333 c 0,-2.216 -1.784,-4 -4,-4 l -11.125,0 C 72.5,328.25 72.5,327 74,325 c 0.304895,-0.57763 0.987081,-1.73724 1,-2.5 0,-2.48528 -2.910149,-4.5 -6.5,-4.5 z m 0,1.9375 c 1.429906,0 2.705621,0.45004 3.5,1 0.779485,0.53964 1.052518,1.05682 1.0625,1.53125 0.0084,-0.0146 -6.02e-4,4.6e-4 0,0.0312 -0.02887,0.0652 -0.110883,0.26533 -0.21875,0.5 -0.16406,0.35691 -0.381236,0.75034 -0.5625,1.09375 l 0.03125,0 c -1.566515,2.21569 -1.921324,4.3136 -1.1875,5.78125 a 1.9513862,1.9513862 0 0 0 1.75,1.0625 l 11.125,0 c 1.16879,0 2.0625,0.89371 2.0625,2.0625 l 0,12.125 a 1.9513862,1.9513862 0 0 0 1.0625,1.75 c 1.525644,0.76282 3.719059,0.42164 6.03125,-1.3125 a 1.9513862,1.9513862 0 0 0 0.03125,-0.0312 c -0.09907,0.0763 1.045842,-0.46506 1.4375,-0.5625 0.451394,0.0417 0.932229,0.30141 1.4375,1.03125 0.549955,0.79438 1,2.07009 1,3.5 0,1.42991 -0.450045,2.70562 -1,3.5 -0.539643,0.77949 -1.05682,1.05252 -1.53125,1.0625 0.0092,1.6e-4 -0.03777,1.3e-4 -0.03125,0 -0.06517,-0.0289 -0.265334,-0.11088 -0.5,-0.21875 -0.356913,-0.16406 -0.750343,-0.38124 -1.09375,-0.5625 l 0,0.0312 c -2.215694,-1.56651 -4.313602,-1.92132 -5.78125,-1.1875 a 1.9513862,1.9513862 0 0 0 -1.0625,1.75 l 0,11.125 c 0,1.16879 -0.89371,2.0625 -2.0625,2.0625 l -4.96875,0 c 0.145875,-0.27766 0.176852,-0.43372 0.53125,-0.90625 a 1.9513862,1.9513862 0 0 0 0.15625,-0.25 c 0.123632,-0.23422 0.399764,-0.72326 0.65625,-1.28125 0.256486,-0.55799 0.546475,-1.14767 0.5625,-2.09375 a 1.9513862,1.9513862 0 0 0 0,-0.0312 c 0,-2.00423 -1.160592,-3.70252 -2.71875,-4.78125 -1.558158,-1.07873 -3.558805,-1.65625 -5.71875,-1.65625 -2.159945,0 -4.160592,0.57752 -5.71875,1.65625 -1.558158,1.07873 -2.71875,2.77702 -2.71875,4.78125 a 1.9513862,1.9513862 0 0 0 0,0.21875 c 0.172727,1.53359 0.688039,2.5368 1.375,3.4375 0.0085,0.0112 0.02268,0.0201 0.03125,0.0312 0.330264,0.44485 0.360052,0.60862 0.5,0.875 l -13.96875,0 c -1.16879,0 -2.0625,-0.89371 -2.0625,-2.0625 l 0,-10.96875 c 0.277664,0.14587 0.43372,0.17685 0.90625,0.53125 a 1.9513862,1.9513862 0 0 0 0.25,0.15625 c 0.234223,0.12363 0.723261,0.39976 1.28125,0.65625 0.557989,0.25649 1.14767,0.54647 2.09375,0.5625 a 1.9513862,1.9513862 0 0 0 0.03125,0 c 2.004225,0 3.702525,-1.16059 4.78125,-2.71875 1.078725,-1.55816 1.65625,-3.55881 1.65625,-5.71875 0,-2.15995 -0.577525,-4.16059 -1.65625,-5.71875 -1.078725,-1.55811 -2.777025,-2.7187 -4.78125,-2.7187 a 1.9513862,1.9513862 0 0 0 -0.21875,0 c -1.53359,0.17273 -2.536801,0.68804 -3.4375,1.375 -0.01116,0.009 -0.02012,0.0227 -0.03125,0.0312 -0.444852,0.33026 -0.608619,0.36005 -0.875,0.5 l 0,-7.96875 c 0,-1.16879 0.89371,-2.0625 2.0625,-2.0625 l 12.125,0 a 1.9513862,1.9513862 0 0 0 1.75,-1.0625 c 0.762822,-1.52564 0.421643,-3.71906 -1.3125,-6.03125 a 1.9513862,1.9513862 0 0 0 -0.03125,-0.0312 c 0.07626,0.0991 -0.465063,-1.04584 -0.5625,-1.4375 0.0417,-0.45139 0.301414,-0.93223 1.03125,-1.4375 0.794379,-0.54996 2.070094,-1 3.5,-1 z"
         id="path4157"
         style="opacity:0.07999998;color:#000000;fill:#000000;fill-opacity:1;fill-rule:nonzero;stroke:none;stroke-width:2;marker:none;visibility:visible;display:inline;overflow:visible;enable-background:accumulate" />
      <path
         d="m 68.5,318 c -3.589851,0 -6.5,2.01472 -6.5,4.5 0.01239,0.11004 0.0378,0.22854 0.0625,0.34375 C 62.518417,320.66719 65.229733,319 68.5,319 c 3.270267,0 5.981583,1.66719 6.4375,3.84375 0.02421,-0.1169 0.06073,-0.23924 0.0625,-0.34375 0,-2.48528 -2.910149,-4.5 -6.5,-4.5 z m -4.21875,10.5625 C 64.24468,328.72124 64.18913,328.87175 64.125,329 L 52,329 c -2.216,0 -4,1.784 -4,4 l 0,1 c 0,-2.216 1.784,-4 4,-4 l 12.125,0 c 0.177885,-0.35577 0.267209,-0.83003 0.15625,-1.4375 z m 8.4375,0 C 72.607791,329.16997 72.69711,329.64423 72.875,330 L 84,330 c 2.216,0 4,1.784 4,4 l 0,-1 c 0,-2.216 -1.784,-4 -4,-4 l -11.125,0 c -0.06412,-0.12825 -0.119681,-0.27876 -0.15625,-0.4375 z M 94.5,343 c -0.9272,0.10443 -2.098034,0.69059 -2.5,1 -2,1.5 -3.25,1.5 -4,1.125 l 0,1 c 0.75,0.375 2,0.375 4,-1.125 0.401966,-0.30941 1.5728,-0.89557 2.5,-1 2.367009,0 4.28945,2.64741 4.46875,6 C 98.977709,349.83248 99,349.67084 99,349.5 99,345.91015 96.985281,343 94.5,343 z m -35.53125,5 c -0.1793,3.35259 -2.101741,6 -4.46875,6 -0.762762,-0.0129 -1.922371,-0.69511 -2.5,-1 -2,-1.5 -3.25,-1.5 -4,-1.125 l 0,1 c 0.75,-0.375 2,-0.375 4,1.125 0.577629,0.30489 1.737238,0.98708 2.5,1 2.485281,0 4.5,-2.91015 4.5,-6.5 0,-0.17084 -0.02229,-0.33248 -0.03125,-0.5 z m 7.09375,14.84375 C 66.017946,363.05645 66,363.27875 66,363.5 c 0.10443,0.9272 0.690589,2.09803 1,2.5 0.788462,1.05128 1.158296,1.88936 1.28125,2.5625 C 68.458535,367.79293 68.2435,366.658 67,365 c -0.272689,-0.35426 -0.754105,-1.3007 -0.9375,-2.15625 z m 12.875,0 C 78.785032,363.57999 78.263119,364.50152 78,365 c -1.2435,1.658 -1.458535,2.79293 -1.28125,3.5625 C 76.841704,367.88936 77.211538,367.05128 78,366 c 0.304895,-0.57763 0.98708,-1.73724 1,-2.5 0,-0.22125 -0.01795,-0.44355 -0.0625,-0.65625 z"
         id="path4144"
         style="opacity:0.3;color:#000000;fill:#000000;fill-opacity:1;fill-rule:nonzero;stroke:none;stroke-width:2;marker:none;visibility:visible;display:inline;overflow:visible;enable-background:accumulate" />
      <path
         d="m 68.5,318 c -3.589851,0 -6.5,2.01472 -6.5,4.5 0.10443,0.9272 0.690589,2.09803 1,2.5 1.5,2 1.5,3.25 1.125,4 L 52,329 c -2.216,0 -4,1.784 -4,4 l 0,10.125 c 0.75,0.375 2,0.375 4,-1.125 0.401966,-0.30941 1.5728,-0.89557 2.5,-1 2.485281,0 4.5,2.91015 4.5,6.5 0,3.58985 -2.014719,6.5 -4.5,6.5 -0.762762,-0.0129 -1.922371,-0.69511 -2.5,-1 -2,-1.5 -3.25,-1.5 -4,-1.125 L 48,365 c 0,2.216 1.784,4 4,4 l 16.125,0 C 68.5,368.25 68.5,367 67,365 c -0.309411,-0.40197 -0.89557,-1.5728 -1,-2.5 0,-2.48528 2.910149,-4.5 6.5,-4.5 3.589851,0 6.5,2.01472 6.5,4.5 -0.01292,0.76276 -0.695105,1.92237 -1,2.5 -1.5,2 -1.5,3.25 -1.125,4 L 84,369 c 2.216,0 4,-1.784 4,-4 l 0,-11.125 c 0.75,-0.375 2,-0.375 4,1.125 0.577629,0.30489 1.737238,0.98708 2.5,1 2.485281,0 4.5,-2.91015 4.5,-6.5 0,-3.58985 -2.014719,-6.5 -4.5,-6.5 -0.9272,0.10443 -2.098034,0.69059 -2.5,1 -2,1.5 -3.25,1.5 -4,1.125 L 88,333 c 0,-2.216 -1.784,-4 -4,-4 l -11.125,0 C 72.5,328.25 72.5,327 74,325 c 0.304895,-0.57763 0.987081,-1.73724 1,-2.5 0,-2.48528 -2.910149,-4.5 -6.5,-4.5 z m 0,1 c 1.60931,0 3.049175,0.4451 4.03125,1.125 0.970813,0.6721 1.457544,1.49876 1.46875,2.34375 1.3e-4,0.01 0,0.0214 0,0.0312 -0.008,0.11043 -0.100188,0.51235 -0.28125,0.90625 -0.186773,0.40633 -0.426649,0.80842 -0.59375,1.125 l 0.03125,0 C 71.632795,326.62557 71.440121,328.31774 72,329.4375 A 0.99229518,0.99229518 0 0 0 72.875,330 L 84,330 c 1.683486,0 3,1.31651 3,3 l 0,12.125 A 0.99229518,0.99229518 0 0 0 87.5625,346 c 1.144421,0.57221 2.872499,0.40031 5.03125,-1.21875 0.139364,-0.10728 1.340953,-0.65046 1.96875,-0.75 0.831467,0.0254 1.650535,0.48133 2.3125,1.4375 0.679898,0.98207 1.125,2.42194 1.125,4.03125 0,1.60931 -0.445102,3.04917 -1.125,4.03125 -0.672101,0.97081 -1.498761,1.45754 -2.34375,1.46875 -0.0029,-5e-5 -0.02777,2.5e-4 -0.03125,0 -0.110426,-0.008 -0.512349,-0.10019 -0.90625,-0.28125 -0.406327,-0.18677 -0.808425,-0.42665 -1.125,-0.59375 l 0,0.0312 C 90.374434,352.63279 88.682257,352.44012 87.5625,353 A 0.99229518,0.99229518 0 0 0 87,353.875 L 87,365 c 0,1.68349 -1.316514,3 -3,3 l -6.28125,0 c -0.02466,-0.46257 0.09554,-1.11697 1.0625,-2.40625 a 0.99229518,0.99229518 0 0 0 0.09375,-0.125 c 0.137794,-0.26105 0.391227,-0.74143 0.625,-1.25 0.233773,-0.50858 0.488676,-1.01896 0.5,-1.6875 A 0.99229518,0.99229518 0 0 0 80,362.5 c 0,-1.62991 -0.973288,-3.05122 -2.34375,-4 C 76.285788,357.55122 74.480541,357 72.5,357 c -1.980541,0 -3.785788,0.55122 -5.15625,1.5 C 65.973288,359.44878 65,360.87009 65,362.5 a 0.99229518,0.99229518 0 0 0 0,0.125 c 0.140248,1.24522 0.710744,2.30878 1.21875,2.96875 0.966961,1.28928 1.087156,1.94368 1.0625,2.40625 L 52,368 c -1.683486,0 -3,-1.31651 -3,-3 l 0,-12.28125 c 0.462574,-0.0247 1.116969,0.0955 2.40625,1.0625 a 0.99229518,0.99229518 0 0 0 0.125,0.0937 c 0.261054,0.13779 0.741425,0.39123 1.25,0.625 0.508575,0.23377 1.018965,0.48868 1.6875,0.5 A 0.99229518,0.99229518 0 0 0 54.5,355 c 1.629912,0 3.051218,-0.97329 4,-2.34375 0.948782,-1.37046 1.5,-3.17571 1.5,-5.15625 0,-1.98054 -0.551218,-3.78579 -1.5,-5.15625 C 57.551218,340.97329 56.129912,340 54.5,340 a 0.99229518,0.99229518 0 0 0 -0.125,0 c -1.245219,0.14025 -2.308783,0.71074 -2.96875,1.21875 -1.289281,0.96696 -1.943676,1.08716 -2.40625,1.0625 L 49,333 c 0,-1.68349 1.316514,-3 3,-3 l 12.125,0 A 0.99229518,0.99229518 0 0 0 65,329.4375 c 0.57221,-1.14442 0.400314,-2.8725 -1.21875,-5.03125 -0.107275,-0.13936 -0.650461,-1.34095 -0.75,-1.96875 0.02538,-0.83147 0.481328,-1.65054 1.4375,-2.3125 C 65.450825,319.4451 66.89069,319 68.5,319 z"
         id="path4153"
         style="opacity:0.15;color:#000000;fill:#000000;fill-opacity:1;fill-rule:nonzero;stroke:none;stroke-width:2;marker:none;visibility:visible;display:inline;overflow:visible;enable-background:accumulate" />
      <path
         d="M 62.0625,322.84375 C 62.017946,323.05645 62,323.27875 62,323.5 c 0.10443,0.9272 0.690589,2.09803 1,2.5 0.788462,1.05128 1.158296,1.88936 1.28125,2.5625 C 64.458535,327.79293 64.2435,326.658 63,325 c -0.272689,-0.35426 -0.754105,-1.3007 -0.9375,-2.15625 z m 12.875,0 C 74.785032,323.57999 74.263119,324.50152 74,325 c -1.2435,1.658 -1.458535,2.79293 -1.28125,3.5625 C 72.841704,327.88936 73.211538,327.05128 74,326 c 0.304895,-0.57763 0.987081,-1.73724 1,-2.5 0,-0.22125 -0.01795,-0.44355 -0.0625,-0.65625 z M 54.5,341 c -0.9272,0.10443 -2.098034,0.69059 -2.5,1 -2,1.5 -3.25,1.5 -4,1.125 l 0,1 c 0.75,0.375 2,0.375 4,-1.125 0.401966,-0.30941 1.5728,-0.89557 2.5,-1 2.367009,0 4.28945,2.64741 4.46875,6 C 58.977709,347.83248 59,347.67084 59,347.5 59,343.91015 56.985281,341 54.5,341 z m 44.46875,9 c -0.1793,3.35259 -2.101741,6 -4.46875,6 -0.762762,-0.0129 -1.922371,-0.69511 -2.5,-1 -2,-1.5 -3.25,-1.5 -4,-1.125 l 0,1 c 0.75,-0.375 2,-0.375 4,1.125 0.577629,0.30489 1.737238,0.98708 2.5,1 2.485281,0 4.5,-2.91015 4.5,-6.5 0,-0.17084 -0.02229,-0.33248 -0.03125,-0.5 z M 72.5,358 c -3.589851,0 -6.5,2.01472 -6.5,4.5 0.01239,0.11004 0.0378,0.22854 0.0625,0.34375 C 66.518417,360.66719 69.229733,359 72.5,359 c 3.270267,0 5.981583,1.66719 6.4375,3.84375 0.02421,-0.1169 0.06073,-0.23924 0.0625,-0.34375 0,-2.48528 -2.910149,-4.5 -6.5,-4.5 z m -24.5,7 0,1 c 0,2.216 1.784,4 4,4 l 16.125,0 c 0.177885,-0.35577 0.267209,-0.83003 0.15625,-1.4375 -0.03657,0.15874 -0.09212,0.30925 -0.15625,0.4375 L 52,369 c -2.216,0 -4,-1.784 -4,-4 z m 40,0 c 0,2.216 -1.784,4 -4,4 l -7.125,0 c -0.06413,-0.12825 -0.119681,-0.27876 -0.15625,-0.4375 -0.110959,0.60747 -0.02164,1.08173 0.15625,1.4375 L 84,370 c 2.216,0 4,-1.784 4,-4 l 0,-1 z"
         id="path4167"
         style="opacity:0.75;color:#000000;fill:#ffffff;fill-opacity:1;fill-rule:nonzero;stroke:none;stroke-width:2;marker:none;visibility:visible;display:inline;overflow:visible;enable-background:accumulate" />
    </g>
  </g>
</svg>
