<?xml version="1.0" encoding="UTF-8" standalone="no"?>
<!-- Created with Inkscape (http://www.inkscape.org/) -->

<svg
   xmlns:svg="http://www.w3.org/2000/svg"
   xmlns="http://www.w3.org/2000/svg"
   xmlns:xlink="http://www.w3.org/1999/xlink"
   version="1.1"
   width="128"
   height="128"
   id="svg2816">
  <defs
     id="defs2818">
    <linearGradient
       id="linearGradient3652">
      <stop
         id="stop3654"
         style="stop-color:#000000;stop-opacity:0.21531101"
         offset="0" />
      <stop
         id="stop3656"
         style="stop-color:#ffffff;stop-opacity:1"
         offset="1" />
    </linearGradient>
    <linearGradient
       id="linearGradient3636">
      <stop
         id="stop3638"
         style="stop-color:#af3439;stop-opacity:1"
         offset="0" />
      <stop
         id="stop3644"
         style="stop-color:#912b2f;stop-opacity:1"
         offset="0.5" />
      <stop
         id="stop3640"
         style="stop-color:#6d2023;stop-opacity:1"
         offset="1" />
    </linearGradient>
    <linearGradient
       id="linearGradient3758">
      <stop
         id="stop3760"
         style="stop-color:#333333;stop-opacity:1"
         offset="0" />
      <stop
         id="stop3762"
         style="stop-color:#333333;stop-opacity:0"
         offset="1" />
    </linearGradient>
    <linearGradient
       id="linearGradient3736">
      <stop
         id="stop3738"
         style="stop-color:#ffffff;stop-opacity:0"
         offset="0" />
      <stop
         id="stop3740"
         style="stop-color:#333333;stop-opacity:0.72791517"
         offset="1" />
    </linearGradient>
    <linearGradient
       id="linearGradient3708">
      <stop
         id="stop3712"
         style="stop-color:#ffffff;stop-opacity:0"
         offset="0" />
      <stop
         id="stop3714"
         style="stop-color:#333333;stop-opacity:1"
         offset="1" />
    </linearGradient>
    <linearGradient
       id="linearGradient3694">
      <stop
         id="stop3696"
         style="stop-color:#ffffff;stop-opacity:1"
         offset="0" />
      <stop
         id="stop3700"
         style="stop-color:#ffffff;stop-opacity:0.67464113"
         offset="0.5" />
      <stop
         id="stop3698"
         style="stop-color:#ffffff;stop-opacity:0"
         offset="1" />
    </linearGradient>
    <linearGradient
       id="linearGradient3649">
      <stop
         id="stop3651"
         style="stop-color:#c9c9c9;stop-opacity:1"
         offset="0" />
      <stop
         id="stop3653"
         style="stop-color:#f0f0f0;stop-opacity:1"
         offset="1" />
    </linearGradient>
    <linearGradient
       id="linearGradient3631">
      <stop
         id="stop3633"
         style="stop-color:#dddddd;stop-opacity:0.62190813"
         offset="0" />
      <stop
         id="stop3635"
         style="stop-color:#ffffff;stop-opacity:1"
         offset="1" />
    </linearGradient>
    <linearGradient
       x1="102"
       y1="14"
       x2="92"
       y2="24"
       id="linearGradient3637"
       xlink:href="#linearGradient3649"
       gradientUnits="userSpaceOnUse"
       gradientTransform="matrix(1.4444444,0,0,1.4444444,-48.888889,294.33333)" />
    <filter
       color-interpolation-filters="sRGB"
       id="filter3676">
      <feGaussianBlur
         id="feGaussianBlur3678"
         stdDeviation="0.36000001" />
    </filter>
    <filter
       color-interpolation-filters="sRGB"
       id="filter3610">
      <feGaussianBlur
         id="feGaussianBlur3612"
         stdDeviation="1.56" />
    </filter>
    <linearGradient
       x1="56.65461"
       y1="5.5"
       x2="56.65461"
       y2="122.50977"
       id="linearGradient3692"
       xlink:href="#linearGradient3694"
       gradientUnits="userSpaceOnUse"
       gradientTransform="matrix(0.98252641,0,0,0.9921278,0.77111153,297.96672)" />
    <filter
       color-interpolation-filters="sRGB"
       id="filter3702">
      <feGaussianBlur
         id="feGaussianBlur3704"
         stdDeviation="0.51369811" />
    </filter>
    <linearGradient
       x1="64"
       y1="122.5"
       x2="64"
       y2="93.860451"
       id="linearGradient3748"
       xlink:href="#linearGradient3758"
       gradientUnits="userSpaceOnUse" />
    <linearGradient
       x1="56.65461"
       y1="5.5"
       x2="56.65461"
       y2="122.50977"
       id="linearGradient3776"
       xlink:href="#linearGradient3694"
       gradientUnits="userSpaceOnUse"
       gradientTransform="matrix(0.98252641,0,0,0.9921278,0.77111153,297.96672)" />
    <filter
       color-interpolation-filters="sRGB"
       id="filter3778">
      <feGaussianBlur
         id="feGaussianBlur3780"
         stdDeviation="0.51837461" />
    </filter>
    <filter
       color-interpolation-filters="sRGB"
       id="filter3782">
      <feGaussianBlur
         id="feGaussianBlur3784"
         stdDeviation="1.0410113" />
    </filter>
    <linearGradient
       x1="64"
       y1="122"
       x2="64"
       y2="76.36528"
       id="linearGradient3794"
       xlink:href="#linearGradient3631"
       gradientUnits="userSpaceOnUse" />
    <linearGradient
       x1="56.65461"
       y1="5.5"
       x2="56.65461"
       y2="122.50977"
       id="linearGradient3805"
       xlink:href="#linearGradient3694"
       gradientUnits="userSpaceOnUse"
       gradientTransform="matrix(0.98252641,0,0,0.9921278,0.77111153,297.96672)" />
    <linearGradient
       x1="56.65461"
       y1="5.5"
       x2="56.65461"
       y2="122.50977"
       id="linearGradient3807"
       xlink:href="#linearGradient3694"
       gradientUnits="userSpaceOnUse"
       gradientTransform="matrix(0.98252641,0,0,0.9921278,0.77111153,297.96672)" />
    <linearGradient
       x1="102"
       y1="14"
       x2="92"
       y2="24"
       id="linearGradient3809"
       xlink:href="#linearGradient3649"
       gradientUnits="userSpaceOnUse"
       gradientTransform="matrix(1.4444444,0,0,1.4444444,-48.888889,294.33333)" />
    <linearGradient
       x1="64"
       y1="122.5"
       x2="64"
       y2="93.860451"
       id="linearGradient3811"
       xlink:href="#linearGradient3758"
       gradientUnits="userSpaceOnUse" />
    <linearGradient
       x1="62"
       y1="413"
       x2="62"
       y2="419"
       id="linearGradient2876"
       xlink:href="#linearGradient3636"
       gradientUnits="userSpaceOnUse" />
    <linearGradient
       x1="102"
       y1="14"
       x2="92"
       y2="24"
       id="linearGradient2880"
       xlink:href="#linearGradient3649"
       gradientUnits="userSpaceOnUse"
       gradientTransform="matrix(1.4444444,0,0,1.4444444,-48.888889,294.33333)" />
    <filter
       color-interpolation-filters="sRGB"
       id="filter3728">
      <feGaussianBlur
         id="feGaussianBlur3730"
         stdDeviation="0.57810125" />
    </filter>
    <linearGradient
       id="linearGradient3039">
      <stop
         id="stop3041"
         style="stop-color:#ff5f12;stop-opacity:1"
         offset="0" />
      <stop
         id="stop3043"
         style="stop-color:#ff8926;stop-opacity:1"
         offset="1" />
    </linearGradient>
    <linearGradient
       id="linearGradient4637">
      <stop
         id="stop4639"
         style="stop-color:#ff5f12;stop-opacity:1"
         offset="0" />
      <stop
         id="stop4641"
         style="stop-color:#ff8926;stop-opacity:1"
         offset="1" />
    </linearGradient>
    <linearGradient
       id="linearGradient4333">
      <stop
         id="stop4335"
         style="stop-color:#b9b9b9;stop-opacity:1"
         offset="0" />
      <stop
         id="stop4337"
         style="stop-color:#efefef;stop-opacity:1"
         offset="1" />
    </linearGradient>
    <linearGradient
       id="linearGradient2997-2">
      <stop
         id="stop5315-6"
         style="stop-color:#0590ff;stop-opacity:1"
         offset="0" />
      <stop
         id="stop3001-6"
         style="stop-color:#c6e6ff;stop-opacity:1"
         offset="1" />
    </linearGradient>
    <linearGradient
       x1="56"
       y1="32"
       x2="56"
       y2="88.117546"
       id="linearGradient4423"
       xlink:href="#linearGradient15967-6"
       gradientUnits="userSpaceOnUse" />
    <linearGradient
       x1="28"
       y1="57.5"
       x2="28"
       y2="0"
       id="linearGradient15967-6"
       gradientUnits="userSpaceOnUse">
      <stop
         id="stop15969-1"
         style="stop-color:#ffffff;stop-opacity:1"
         offset="0" />
      <stop
         id="stop15971-0"
         style="stop-color:#ffffff;stop-opacity:0"
         offset="1" />
    </linearGradient>
    <clipPath
       id="clipPath3182-6">
      <path
         d="M 18.1875,56 C 16.967826,56 16,56.967827 16,58.1875 L 16,75.25 C 25.640301,77.646967 36.509296,79 48,79 59.490704,79 70.359699,77.646967 80,75.25 L 80,58.1875 C 80,56.967826 79.032173,56 77.8125,56 l -59.625,0 z"
         id="path3184-1"
         style="fill:url(#linearGradient3186);fill-opacity:1;stroke:none;filter:url(#filter3176-5)" />
    </clipPath>
    <filter
       x="-0.053000905"
       y="-0.14748077"
       width="1.1060019"
       height="1.2949615"
       color-interpolation-filters="sRGB"
       id="filter3176-5">
      <feGaussianBlur
         stdDeviation="1.4133574"
         id="feGaussianBlur3178-9" />
    </filter>
    <linearGradient
       id="linearGradient4672">
      <stop
         id="stop4674"
         style="stop-color:#b9b9b9;stop-opacity:1"
         offset="0" />
      <stop
         id="stop4676"
         style="stop-color:#efefef;stop-opacity:1"
         offset="1" />
    </linearGradient>
    <linearGradient
       id="linearGradient4679">
      <stop
         id="stop4681"
         style="stop-color:#0590ff;stop-opacity:1"
         offset="0" />
      <stop
         id="stop4683"
         style="stop-color:#c6e6ff;stop-opacity:1"
         offset="1" />
    </linearGradient>
    <linearGradient
       x1="56"
       y1="32"
       x2="56"
       y2="88.117546"
       id="linearGradient4431"
       xlink:href="#linearGradient15967-6"
       gradientUnits="userSpaceOnUse" />
    <linearGradient
       x1="28"
       y1="57.5"
       x2="28"
       y2="0"
       id="linearGradient4697"
       gradientUnits="userSpaceOnUse">
      <stop
         id="stop4699"
         style="stop-color:#ffffff;stop-opacity:1"
         offset="0" />
      <stop
         id="stop4701"
         style="stop-color:#ffffff;stop-opacity:0"
         offset="1" />
    </linearGradient>
    <clipPath
       id="clipPath4703">
      <path
         d="M 18.1875,56 C 16.967826,56 16,56.967827 16,58.1875 L 16,75.25 C 25.640301,77.646967 36.509296,79 48,79 59.490704,79 70.359699,77.646967 80,75.25 L 80,58.1875 C 80,56.967826 79.032173,56 77.8125,56 l -59.625,0 z"
         id="path4705"
         style="fill:url(#linearGradient3186);fill-opacity:1;stroke:none;filter:url(#filter3176-5)" />
    </clipPath>
    <linearGradient
       x1="-33.665947"
       y1="16.896927"
       x2="162.36034"
       y2="16.896927"
       id="linearGradient5774"
       xlink:href="#linearGradient2902"
       gradientUnits="userSpaceOnUse"
       gradientTransform="matrix(0.33712492,0,0,0.33712492,36.364599,324.20458)" />
    <linearGradient
       id="linearGradient2902">
      <stop
         id="stop2904"
         style="stop-color:#778aa6;stop-opacity:1"
         offset="0" />
      <stop
         id="stop2906"
         style="stop-color:#a0afc5;stop-opacity:1"
         offset="1" />
    </linearGradient>
    <linearGradient
       x1="-33.665947"
       y1="16.896927"
       x2="162.36034"
       y2="16.896927"
       id="linearGradient5771"
       xlink:href="#linearGradient2902"
       gradientUnits="userSpaceOnUse"
       gradientTransform="matrix(0.33712492,0,0,0.33712492,36.364599,324.20458)" />
    <linearGradient
       id="linearGradient5873">
      <stop
         id="stop5875"
         style="stop-color:#778aa6;stop-opacity:1"
         offset="0" />
      <stop
         id="stop5877"
         style="stop-color:#a0afc5;stop-opacity:1"
         offset="1" />
    </linearGradient>
    <linearGradient
       x1="57.801022"
       y1="69.276306"
       x2="57.801022"
       y2="15.617862"
       id="linearGradient5824"
       xlink:href="#linearGradient3742"
       gradientUnits="userSpaceOnUse"
       gradientTransform="matrix(0.84727676,0,0,0.85115952,26.098918,343.01447)" />
    <linearGradient
       id="linearGradient3742">
      <stop
         id="stop3744"
         style="stop-color:#778aa6;stop-opacity:1"
         offset="0" />
      <stop
         id="stop3746"
         style="stop-color:#a0afc5;stop-opacity:1"
         offset="1" />
    </linearGradient>
    <linearGradient
       x1="57.801022"
       y1="69.276306"
       x2="57.801022"
       y2="15.617862"
       id="linearGradient5826"
       xlink:href="#linearGradient3742"
       gradientUnits="userSpaceOnUse"
       gradientTransform="matrix(0.84727676,0,0,0.85115952,26.098918,343.01447)" />
    <linearGradient
       id="linearGradient5884">
      <stop
         id="stop5886"
         style="stop-color:#778aa6;stop-opacity:1"
         offset="0" />
      <stop
         id="stop5888"
         style="stop-color:#a0afc5;stop-opacity:1"
         offset="1" />
    </linearGradient>
  </defs>
  <g
     transform="translate(0,-297)"
     id="layer1">
    <path
       d="m 18,419 74,0 c 18,0 18,-18 18,-18 l 0,-72 c 0,0 -26,-26 -26,-26 l -48,0 c 0,0 -18,0 -18,18 l 0,98 z"
       id="path2832"
       style="opacity:0.9;fill:#000000;fill-opacity:1;stroke:none;filter:url(#filter3610)" />
    <path
       d="m 18,419 74,0 c 18,0 18,-18 18,-18 l 0,-72 c 0,0 -26,-26 -26,-26 l -48,0 c 0,0 -18,0 -18,18 l 0,98 z"
       id="path3627"
       style="fill:#e6e6e6;fill-opacity:1;stroke:none" />
    <g
       transform="translate(-0.2289112,0.3047833)"
       id="g5828">
      <path
         d="m 25.014969,336.7237 c 11.2728,-3.319 19.583616,-2.46641 25.634006,2.54294 6.235809,-6.2348 18.704731,-7.79266 22.601561,-7.01457 -11.39079,-5.34681 -20.979987,-1.72406 -23.217826,1.0461 -6.286378,-3.40969 -21.120908,-2.02983 -25.017741,3.42553 z"
         id="path39"
         style="fill:url(#linearGradient5774);fill-opacity:1" />
      <path
         d="m 54,323 c 8.072472,-0.99621 14.980505,-0.16418 19.451465,3.31495 5.099692,-2.9812 14.712826,-2.91377 17.648851,-2.19165 -10.37537,-3.79131 -15.391796,-2.46 -17.900349,-1.40008 C 66.547471,320.19242 59.941836,319.3405 54,323 z"
         id="path41"
         style="fill:url(#linearGradient5771);fill-opacity:1" />
      <g
         transform="matrix(1.2253463,0,0,1.2253463,-18.446715,-87.711031)"
         id="g5820">
        <path
           d="m 57.251161,356.60193 29.135197,0 1.052781,9.86282 -1.713837,0 c -0.718207,-1.78725 -1.738345,-3.45155 -3.060421,-4.9929 -1.322127,-1.55769 -2.529967,-2.45133 -3.623536,-2.68092 -0.489684,-0.0983 -1.126256,-0.16393 -1.9097,-0.19676 -0.783487,-0.0328 -1.583278,-0.0492 -2.399366,-0.0492 l -10.625781,0 14.200351,18.71722 0,0.66408 -16.134533,19.3567 19.513232,0 c 0.865054,0 1.664846,-0.21317 2.399375,-0.63948 0.73447,-0.40993 1.379195,-0.94284 1.934183,-1.59872 0.587572,-0.68867 1.109882,-1.45933 1.56693,-2.31198 0.456997,-0.85264 0.832402,-1.6397 1.126239,-2.36117 l 1.640388,0.51651 -2.889041,10.79744 -30.506264,0 0,-1.20518 17.040417,-20.63567 -16.746614,-22.136 0,-1.1068"
           id="path4431"
           style="font-size:59.18009186px;font-style:normal;font-variant:normal;font-weight:normal;font-stretch:normal;text-align:start;line-height:125%;writing-mode:lr-tb;text-anchor:start;opacity:0.8;fill:url(#linearGradient5824);fill-opacity:1;stroke:none;font-family:Georgia;-inkscape-font-specification:Georgia" />
        <path
           d="m 57.254524,356.86731 0,0.84921 16.400482,21.68155 L 74,379 57.254524,356.86731 z m 6.846803,0.82268 0.636912,0.84921 10.004825,0 c 0.816096,3e-5 1.604933,0.0203 2.38842,0.0531 0.783444,0.0328 1.421052,0.0874 1.910735,0.18577 1.09357,0.22959 2.313579,1.14919 3.635706,2.70687 1.322076,1.54135 2.333662,3.2019 3.05187,4.98915 l 1.698432,0 -0.07957,-0.84922 -1.618818,0 c -0.718207,-1.78725 -1.729793,-3.44779 -3.05187,-4.98914 -1.322127,-1.55769 -2.542136,-2.47729 -3.635705,-2.70688 -0.489684,-0.0983 -1.127292,-0.15294 -1.910736,-0.18576 -0.783487,-0.0328 -1.572323,-0.053 -2.38842,-0.0531 l -10.641737,0 z m 14.118214,19.47889 -16.055488,19.26658 0.716526,0 15.418576,-18.49698 0,-0.66345 -0.07957,-0.10615 z m 11.915561,13.66706 -2.680337,10.00483 -30.492159,0 0,0.84922 30.492159,0 2.892641,-10.80097 -0.212304,-0.0531 z"
           id="path4478"
           style="font-size:59.18009186px;font-style:normal;font-variant:normal;font-weight:normal;font-stretch:normal;text-align:start;line-height:125%;writing-mode:lr-tb;text-anchor:start;fill:url(#linearGradient5826);fill-opacity:1;stroke:none;font-family:Georgia;-inkscape-font-specification:Georgia" />
      </g>
    </g>
    <path
       d="m 18.456586,419.00634 72.706957,0 c 17.685467,0 17.685467,-17.8583 17.685467,-17.8583 l 0.70844,-71.4332 c 0,0 -26.254119,-25.79532 -26.254119,-25.79532 l -49.050441,-0.2319 c 0,0 -16.504743,0.4638 -16.504743,18.3221 l 0.708439,96.99662 z"
       transform="matrix(0.98017447,0,0,0.99812248,1.4934147,0.7943904)"
       id="path3684"
       style="opacity:0.9;fill:none;stroke:url(#linearGradient3805);stroke-width:0.98750001;stroke-linecap:butt;stroke-linejoin:miter;stroke-miterlimit:4;stroke-opacity:1;stroke-dasharray:none;filter:url(#filter3778)" />
    <path
       d="m 18.456586,419.00634 72.706957,0 c 17.685467,0 17.685467,-17.8583 17.685467,-17.8583 l 0.70844,-71.4332 c 0,0 -26.254119,-25.79532 -26.254119,-25.79532 l -49.050441,-0.2319 c 0,0 -16.504743,0.4638 -16.504743,18.3221 l 0.708439,96.99662 z"
       transform="matrix(0.98017447,0,0,0.99812248,1.4934147,0.7943904)"
       id="path3766"
       style="fill:none;stroke:url(#linearGradient3807);stroke-width:0.98750001;stroke-linecap:butt;stroke-linejoin:miter;stroke-miterlimit:4;stroke-opacity:1;stroke-dasharray:none;filter:url(#filter3702)" />
    <path
       d="M 92.000003,6.0000025 92,24 l 18,3e-6"
       transform="matrix(1.4444444,0,0,1.4444444,-48.888889,294.33333)"
       id="path3639"
       style="opacity:0.6;fill:none;stroke:#333333;stroke-width:1px;stroke-linecap:butt;stroke-linejoin:miter;stroke-opacity:1;filter:url(#filter3676)" />
    <path
       d="m 84,303 0,26 26,0 -26,-26 z"
       id="path3629"
       style="fill:url(#linearGradient2880);fill-opacity:1;stroke:none" />
    <path
       d="m 18,122 74,0 c 18,0 18,-18 18,-18 l 0,-72 C 110,32 84,6 84,6 L 36,6 C 36,6 18,6 18,24 l 0,98 z"
       transform="matrix(0.97617501,0,0,0.99219838,1.5247995,297.03637)"
       id="path3726"
       style="opacity:0.4;fill:none;stroke:url(#linearGradient3811);stroke-width:1px;stroke-linecap:butt;stroke-linejoin:miter;stroke-opacity:1;filter:url(#filter3782)" />
    <path
       d="m 18,122 c 0,-6 18,-6 18,-6 l 56,0 c 16.37975,-0.46293 17.38879,-17.305605 17.38879,-17.305605"
       transform="translate(0,297)"
       id="path3722"
       style="opacity:0.8;fill:none;stroke:#333333;stroke-width:1px;stroke-linecap:butt;stroke-linejoin:miter;stroke-opacity:1;filter:url(#filter3728)" />
    <path
       d="m 18,419 74,0 c 18,0 18,-18 18,-18 0,0 0,-16 0,-16 0,0 0,28 -18,28 l -56,0 c 0,0 -18,0 -18,6 z"
       id="path3822"
       style="fill:url(#linearGradient2876);fill-opacity:1;stroke:none" />
  </g>
</svg>
