<?xml version="1.0" encoding="UTF-8" standalone="no"?>
<!-- Created with Inkscape (http://www.inkscape.org/) -->

<svg
   xmlns:svg="http://www.w3.org/2000/svg"
   xmlns="http://www.w3.org/2000/svg"
   xmlns:xlink="http://www.w3.org/1999/xlink"
   version="1.1"
   width="128"
   height="128"
   id="svg2816">
  <defs
     id="defs2818">
    <linearGradient
       id="linearGradient3652">
      <stop
         id="stop3654"
         style="stop-color:#000000;stop-opacity:0.21531101"
         offset="0" />
      <stop
         id="stop3656"
         style="stop-color:#ffffff;stop-opacity:1"
         offset="1" />
    </linearGradient>
    <linearGradient
       id="linearGradient3636">
      <stop
         id="stop3638"
         style="stop-color:#d9d9d9;stop-opacity:1"
         offset="0" />
      <stop
         id="stop3644"
         style="stop-color:#c3c3cf;stop-opacity:1"
         offset="0.5" />
      <stop
         id="stop3640"
         style="stop-color:#999999;stop-opacity:1"
         offset="1" />
    </linearGradient>
    <linearGradient
       id="linearGradient3758">
      <stop
         id="stop3760"
         style="stop-color:#333333;stop-opacity:1"
         offset="0" />
      <stop
         id="stop3762"
         style="stop-color:#333333;stop-opacity:0"
         offset="1" />
    </linearGradient>
    <linearGradient
       id="linearGradient3736">
      <stop
         id="stop3738"
         style="stop-color:#ffffff;stop-opacity:0"
         offset="0" />
      <stop
         id="stop3740"
         style="stop-color:#333333;stop-opacity:0.72791517"
         offset="1" />
    </linearGradient>
    <linearGradient
       id="linearGradient3708">
      <stop
         id="stop3712"
         style="stop-color:#ffffff;stop-opacity:0"
         offset="0" />
      <stop
         id="stop3714"
         style="stop-color:#333333;stop-opacity:1"
         offset="1" />
    </linearGradient>
    <linearGradient
       id="linearGradient3694">
      <stop
         id="stop3696"
         style="stop-color:#ffffff;stop-opacity:1"
         offset="0" />
      <stop
         id="stop3700"
         style="stop-color:#ffffff;stop-opacity:0.67464113"
         offset="0.5" />
      <stop
         id="stop3698"
         style="stop-color:#ffffff;stop-opacity:0"
         offset="1" />
    </linearGradient>
    <linearGradient
       id="linearGradient3649">
      <stop
         id="stop3651"
         style="stop-color:#c9c9c9;stop-opacity:1"
         offset="0" />
      <stop
         id="stop3653"
         style="stop-color:#f0f0f0;stop-opacity:1"
         offset="1" />
    </linearGradient>
    <linearGradient
       id="linearGradient3631">
      <stop
         id="stop3633"
         style="stop-color:#dddddd;stop-opacity:0.62190813"
         offset="0" />
      <stop
         id="stop3635"
         style="stop-color:#ffffff;stop-opacity:1"
         offset="1" />
    </linearGradient>
    <linearGradient
       x1="102"
       y1="14"
       x2="92"
       y2="24"
       id="linearGradient3637"
       xlink:href="#linearGradient3649"
       gradientUnits="userSpaceOnUse"
       gradientTransform="matrix(1.4444444,0,0,1.4444444,-48.888889,294.33333)" />
    <filter
       color-interpolation-filters="sRGB"
       id="filter3676">
      <feGaussianBlur
         id="feGaussianBlur3678"
         stdDeviation="0.36000001" />
    </filter>
    <filter
       color-interpolation-filters="sRGB"
       id="filter3610">
      <feGaussianBlur
         id="feGaussianBlur3612"
         stdDeviation="1.56" />
    </filter>
    <linearGradient
       x1="56.65461"
       y1="5.5"
       x2="56.65461"
       y2="122.50977"
       id="linearGradient3692"
       xlink:href="#linearGradient3694"
       gradientUnits="userSpaceOnUse"
       gradientTransform="matrix(0.98252641,0,0,0.9921278,0.77111153,297.96672)" />
    <filter
       color-interpolation-filters="sRGB"
       id="filter3702">
      <feGaussianBlur
         id="feGaussianBlur3704"
         stdDeviation="0.51369811" />
    </filter>
    <linearGradient
       x1="64"
       y1="122.5"
       x2="64"
       y2="93.860451"
       id="linearGradient3748"
       xlink:href="#linearGradient3758"
       gradientUnits="userSpaceOnUse" />
    <linearGradient
       x1="56.65461"
       y1="5.5"
       x2="56.65461"
       y2="122.50977"
       id="linearGradient3776"
       xlink:href="#linearGradient3694"
       gradientUnits="userSpaceOnUse"
       gradientTransform="matrix(0.98252641,0,0,0.9921278,0.77111153,297.96672)" />
    <filter
       color-interpolation-filters="sRGB"
       id="filter3778">
      <feGaussianBlur
         id="feGaussianBlur3780"
         stdDeviation="0.51837461" />
    </filter>
    <filter
       color-interpolation-filters="sRGB"
       id="filter3782">
      <feGaussianBlur
         id="feGaussianBlur3784"
         stdDeviation="1.0410113" />
    </filter>
    <linearGradient
       x1="64"
       y1="122"
       x2="64"
       y2="76.36528"
       id="linearGradient3794"
       xlink:href="#linearGradient3631"
       gradientUnits="userSpaceOnUse" />
    <linearGradient
       x1="56.65461"
       y1="5.5"
       x2="56.65461"
       y2="122.50977"
       id="linearGradient3805"
       xlink:href="#linearGradient3694"
       gradientUnits="userSpaceOnUse"
       gradientTransform="matrix(0.98252641,0,0,0.9921278,0.77111153,297.96672)" />
    <linearGradient
       x1="56.65461"
       y1="5.5"
       x2="56.65461"
       y2="122.50977"
       id="linearGradient3807"
       xlink:href="#linearGradient3694"
       gradientUnits="userSpaceOnUse"
       gradientTransform="matrix(0.98252641,0,0,0.9921278,0.77111153,297.96672)" />
    <linearGradient
       x1="102"
       y1="14"
       x2="92"
       y2="24"
       id="linearGradient3809"
       xlink:href="#linearGradient3649"
       gradientUnits="userSpaceOnUse"
       gradientTransform="matrix(1.4444444,0,0,1.4444444,-48.888889,294.33333)" />
    <linearGradient
       x1="64"
       y1="122.5"
       x2="64"
       y2="93.860451"
       id="linearGradient3811"
       xlink:href="#linearGradient3758"
       gradientUnits="userSpaceOnUse" />
    <linearGradient
       x1="62"
       y1="413"
       x2="62"
       y2="419"
       id="linearGradient2876"
       xlink:href="#linearGradient3636"
       gradientUnits="userSpaceOnUse" />
    <linearGradient
       x1="102"
       y1="14"
       x2="92"
       y2="24"
       id="linearGradient2880"
       xlink:href="#linearGradient3649"
       gradientUnits="userSpaceOnUse"
       gradientTransform="matrix(1.4444444,0,0,1.4444444,-48.888889,294.33333)" />
    <filter
       color-interpolation-filters="sRGB"
       id="filter3728">
      <feGaussianBlur
         id="feGaussianBlur3730"
         stdDeviation="0.57810125" />
    </filter>
  </defs>
  <g
     transform="translate(0,-297)"
     id="layer1">
    <path
       d="m 18,419 74,0 c 18,0 18,-18 18,-18 l 0,-72 c 0,0 -26,-26 -26,-26 l -48,0 c 0,0 -18,0 -18,18 l 0,98 z"
       id="path2832"
       style="opacity:0.9;fill:#000000;fill-opacity:1;stroke:none;filter:url(#filter3610)" />
    <path
       d="m 18,419 74,0 c 18,0 18,-18 18,-18 l 0,-72 c 0,0 -26,-26 -26,-26 l -48,0 c 0,0 -18,0 -18,18 l 0,98 z"
       id="path3627"
       style="fill:#e6e6e6;fill-opacity:1;stroke:none" />
    <path
       d="m 18.456586,419.00634 72.706957,0 c 17.685467,0 17.685467,-17.8583 17.685467,-17.8583 l 0.70844,-71.4332 c 0,0 -26.254119,-25.79532 -26.254119,-25.79532 l -49.050441,-0.2319 c 0,0 -16.504743,0.4638 -16.504743,18.3221 l 0.708439,96.99662 z"
       transform="matrix(0.98017447,0,0,0.99812248,1.4934147,0.7943904)"
       id="path3684"
       style="opacity:0.9;fill:none;stroke:url(#linearGradient3805);stroke-width:0.98750001;stroke-linecap:butt;stroke-linejoin:miter;stroke-miterlimit:4;stroke-opacity:1;stroke-dasharray:none;filter:url(#filter3778)" />
    <path
       d="m 18.456586,419.00634 72.706957,0 c 17.685467,0 17.685467,-17.8583 17.685467,-17.8583 l 0.70844,-71.4332 c 0,0 -26.254119,-25.79532 -26.254119,-25.79532 l -49.050441,-0.2319 c 0,0 -16.504743,0.4638 -16.504743,18.3221 l 0.708439,96.99662 z"
       transform="matrix(0.98017447,0,0,0.99812248,1.4934147,0.7943904)"
       id="path3766"
       style="fill:none;stroke:url(#linearGradient3807);stroke-width:0.98750001;stroke-linecap:butt;stroke-linejoin:miter;stroke-miterlimit:4;stroke-opacity:1;stroke-dasharray:none;filter:url(#filter3702)" />
    <path
       d="M 92.000003,6.0000025 92,24 l 18,3e-6"
       transform="matrix(1.4444444,0,0,1.4444444,-48.888889,294.33333)"
       id="path3639"
       style="opacity:0.6;fill:none;stroke:#333333;stroke-width:1px;stroke-linecap:butt;stroke-linejoin:miter;stroke-opacity:1;filter:url(#filter3676)" />
    <path
       d="m 84,303 0,26 26,0 -26,-26 z"
       id="path3629"
       style="fill:url(#linearGradient2880);fill-opacity:1;stroke:none" />
    <path
       d="m 18,122 74,0 c 18,0 18,-18 18,-18 l 0,-72 C 110,32 84,6 84,6 L 36,6 C 36,6 18,6 18,24 l 0,98 z"
       transform="matrix(0.97617501,0,0,0.99219838,1.5247995,297.03637)"
       id="path3726"
       style="opacity:0.4;fill:none;stroke:url(#linearGradient3811);stroke-width:1px;stroke-linecap:butt;stroke-linejoin:miter;stroke-opacity:1;filter:url(#filter3782)" />
    <path
       d="m 18,122 c 0,-6 18,-6 18,-6 l 56,0 c 16.37975,-0.46293 17.38879,-17.305605 17.38879,-17.305605"
       transform="translate(0,297)"
       id="path3722"
       style="opacity:0.8;fill:none;stroke:#333333;stroke-width:1px;stroke-linecap:butt;stroke-linejoin:miter;stroke-opacity:1;filter:url(#filter3728)" />
    <path
       d="m 18,419 74,0 c 18,0 18,-18 18,-18 0,0 0,-16 0,-16 0,0 0,28 -18,28 l -56,0 c 0,0 -18,0 -18,6 z"
       id="path3822"
       style="fill:url(#linearGradient2876);fill-opacity:1;stroke:none" />
    <g
       transform="matrix(1.2051322,0,0,1.2051322,4.6326276,317.14117)"
       id="layer4"
       style="display:inline">
      <path
         d="m 40.626132,28.862503 c 1.355295,-0.208246 2.722231,-0.36048 4.092389,-0.432624 0.243413,-0.05799 0.49519,-0.04614 0.743864,-0.05503 1.9441,-0.06201 3.89088,-0.05921 5.834161,0.02835 3.50743,0.24807 6.997097,0.830751 10.380597,1.802059 l -0.01433,0.019 c -0.496044,0.670856 -0.993538,1.340662 -1.479966,2.018418 -0.145749,0.02689 -0.273329,-0.0653 -0.403142,-0.111721 -2.567041,-1.059281 -5.299603,-1.674176 -8.049932,-2.00692 -4.52386,-0.463264 -9.155298,-0.09105 -13.495183,1.301005 -3.195262,1.033441 -6.280914,2.626987 -8.663622,5.030082 -1.688558,1.726794 -2.984995,3.960634 -3.160967,6.408199 -0.163743,1.166425 0.115535,2.330833 0.362579,3.462746 -0.943605,0.09626 -1.868002,0.327625 -2.804994,0.471725 -2.636938,0.472885 -5.273437,0.948726 -7.911115,1.417355 -0.0259,-1.890772 0.467516,-3.761444 1.252748,-5.471967 1.561837,-3.330526 4.270192,-5.991523 7.287957,-8.028921 2.040551,-1.370062 4.246292,-2.487778 6.537279,-3.37406 3.052118,-1.193248 6.249975,-2.008537 9.491673,-2.477692 z"
         id="path16"
         style="fill:#000000;fill-rule:nonzero;stroke:none" />
      <path
         d="m 60.182851,32.242672 c 0.486428,-0.677756 0.983922,-1.347562 1.479965,-2.018422 4.542955,1.330558 8.930027,3.431617 12.513613,6.562329 1.465313,1.312133 2.790616,2.796546 3.808483,4.485429 1.205347,1.987538 1.969158,4.263667 2.050885,6.595542 -3.563088,-0.622754 -7.125183,-1.250819 -10.687785,-1.875693 0.438472,-1.394578 0.442216,-2.912955 0.141961,-4.336094 -0.55647,-2.459554 -2.133283,-4.571284 -4.035282,-6.17431 -1.585554,-1.33414 -3.394428,-2.403354 -5.310912,-3.185843 l 0.03907,-0.05294 z"
         id="path20"
         style="fill:#d72123;fill-rule:nonzero;stroke:none" />
      <path
         d="m 47.96875,40.96875 c -0.672083,0 -1.23259,0.412384 -1.46875,1 -0.517221,-0.09102 -1.042115,-0.179204 -1.5625,-0.25 -0.03529,0.192578 -0.06594,0.368409 -0.09375,0.5625 0.491548,0.08436 0.980787,0.176675 1.46875,0.28125 0.02026,0.0031 0.0422,-0.003 0.0625,0 0,0.882615 0.711135,1.59375 1.59375,1.59375 0.698737,0 1.314077,-0.437731 1.53125,-1.0625 0.589976,0.102142 1.190507,0.216076 1.78125,0.3125 1.59152,0.270898 3.157265,0.579275 4.75,0.84375 1.676725,0.305159 3.353308,0.576815 5.03125,0.875 2.419383,0.41714 4.859061,0.8828 7.28125,1.28125 3.873497,0.709247 7.748821,1.36648 11.625,2.0625 0.801875,0.12812 1.603371,0.28093 2.40625,0.40625 0.02479,-0.189539 0.0443,-0.378082 0.09375,-0.5625 -0.809242,-0.178447 -1.624592,-0.279525 -2.4375,-0.4375 -3.563088,-0.622754 -7.124898,-1.250126 -10.6875,-1.875 -0.81883,-0.133731 -1.616867,-0.317326 -2.4375,-0.4375 -2.44047,-0.447696 -4.899709,-0.852836 -7.34375,-1.28125 -0.238045,-0.06244 -0.479831,-0.07109 -0.71875,-0.125 -0.58434,-0.09803 -1.163346,-0.23077 -1.75,-0.3125 -2.441924,-0.44201 -4.897663,-0.86141 -7.34375,-1.28125 -0.04751,-0.01881 -0.104055,-0.02242 -0.15625,-0.03125 -0.01741,-0.867523 -0.753309,-1.5625 -1.625,-1.5625 z"
         id="path24"
         style="fill:#000000;fill-rule:nonzero;stroke:none" />
      <path
         d="m 16.082882,50.899286 c 1.968464,-0.01321 3.937085,-0.0024 5.905627,-0.0055 0.0019,0.07294 0.0058,0.218818 0.0078,0.291757 1.43034,-0.311482 2.900399,-0.44395 4.363321,-0.363198 1.065219,0.09752 2.043242,0.554021 2.995867,1.00718 -1.073882,0.664159 -2.166633,1.303785 -3.214601,2.006493 -1.167792,-0.901814 -2.754961,-0.902612 -4.116828,-0.508041 -0.017,0.145715 -0.03298,0.291932 -0.03443,0.439467 6.9e-4,3.388805 0.0016,6.777672 -4.31e-4,10.166544 -1.967753,-6.03e-4 -3.93548,0.0018 -5.903218,-0.0012 -0.0042,-4.344508 0.0021,-8.688995 -0.0032,-13.033464 z"
         id="path28"
         style="fill:#000000;fill-rule:nonzero;stroke:none" />
      <path
         d="m 37.174463,50.880708 c -1.733364,0.0035 -3.447389,0.01534 -5.180612,0.02995 0.0016,5.549678 0.0036,11.100126 0,16.649827 0.292807,-0.01762 0.582647,-0.04549 0.868426,-0.119783 1.681006,-0.22437 3.348575,-0.475957 5.030883,-0.688751 0.01294,-0.895772 -4.66e-4,-1.799476 0,-2.695116 0.160946,-0.0067 0.34764,-0.02056 0.509078,-0.02995 2.540991,-0.172813 5.064597,-0.843459 7.306758,-2.066256 1.311345,-0.738066 2.602602,-1.720019 3.204193,-3.144301 0.512486,-1.187201 0.263547,-2.568355 -0.389294,-3.65338 -0.859634,-1.396778 -2.290399,-2.336782 -3.773162,-2.964627 -2.387405,-0.988047 -5.007479,-1.332197 -7.57627,-1.317612 z m 0.748643,1.437395 c 1.514083,0.151934 2.858728,1.01359 3.892945,2.096201 0.891891,0.938032 1.535422,2.245222 1.317612,3.563542 -0.238078,1.320707 -1.152666,2.405552 -2.186038,3.204193 -0.897519,0.658871 -1.9356,1.228417 -3.054465,1.377504 -0.0038,-3.408115 0.02527,-6.833372 0.02995,-10.24144 z"
         id="path32"
         style="fill:#000000;fill-rule:nonzero;stroke:none" />
      <path
         d="m 52.332679,50.902266 c 6.764468,-0.02066 13.52936,-0.0025 20.294028,-0.0091 1.979047,0.0081 3.991016,0.02072 5.91617,0.532681 0.55406,0.182505 1.292977,0.399532 1.438712,1.043571 0.01445,3.821277 0.0054,7.643437 0.0044,11.465078 -1.968869,-4.31e-4 -3.937636,-0.0012 -5.906349,4.31e-4 -4.31e-4,-3.79186 -0.0081,-7.583853 0.0038,-11.375578 -0.357666,-0.310311 -0.867556,-0.297073 -1.311636,-0.351264 -1.214252,-0.03161 -2.429478,-0.0091 -3.643933,-0.01248 2.59e-4,3.913029 0.0044,7.826086 -0.002,11.739135 -1.971654,-0.0018 -3.943221,5.18e-4 -5.914751,-0.0012 -0.0058,-3.134368 -8.7e-4,-6.268721 -0.0025,-9.403052 -0.01577,-0.684906 0.03433,-1.372382 -0.02983,-2.05507 -0.554715,-0.233154 -1.162381,-0.278835 -1.757171,-0.281687 -1.056079,-0.0017 -2.112037,7.5e-4 -3.167915,-0.0011 -0.0052,3.914352 0.0064,7.828788 -0.0057,11.743127 -1.856481,-0.0024 -3.712928,-0.0036 -5.569289,7.76e-4 -0.127871,0.01004 -0.247067,-0.01457 -0.357588,-0.07386 0.03054,-4.319638 0.0073,-8.640381 0.01164,-12.960416 l -8.8e-5,8e-6 z"
         id="path36"
         style="fill:#000000;fill-rule:nonzero;stroke:none" />
    </g>
  </g>
</svg>
