<?xml version="1.0" encoding="UTF-8" standalone="no"?>
<!-- Created with Inkscape (http://www.inkscape.org/) -->

<svg
   xmlns:svg="http://www.w3.org/2000/svg"
   xmlns="http://www.w3.org/2000/svg"
   xmlns:xlink="http://www.w3.org/1999/xlink"
   version="1.1"
   width="128"
   height="128"
   id="svg2816">
  <defs
     id="defs2818">
    <linearGradient
       id="linearGradient3652">
      <stop
         id="stop3654"
         style="stop-color:#000000;stop-opacity:0.21531101"
         offset="0" />
      <stop
         id="stop3656"
         style="stop-color:#ffffff;stop-opacity:1"
         offset="1" />
    </linearGradient>
    <linearGradient
       id="linearGradient3636">
      <stop
         id="stop3638"
         style="stop-color:#30a078;stop-opacity:1"
         offset="0" />
      <stop
         id="stop3644"
         style="stop-color:#288665;stop-opacity:1"
         offset="0.5" />
      <stop
         id="stop3640"
         style="stop-color:#216f54;stop-opacity:1"
         offset="1" />
    </linearGradient>
    <linearGradient
       id="linearGradient3758">
      <stop
         id="stop3760"
         style="stop-color:#333333;stop-opacity:1"
         offset="0" />
      <stop
         id="stop3762"
         style="stop-color:#333333;stop-opacity:0"
         offset="1" />
    </linearGradient>
    <linearGradient
       id="linearGradient3736">
      <stop
         id="stop3738"
         style="stop-color:#ffffff;stop-opacity:0"
         offset="0" />
      <stop
         id="stop3740"
         style="stop-color:#333333;stop-opacity:0.72791517"
         offset="1" />
    </linearGradient>
    <linearGradient
       id="linearGradient3708">
      <stop
         id="stop3712"
         style="stop-color:#ffffff;stop-opacity:0"
         offset="0" />
      <stop
         id="stop3714"
         style="stop-color:#333333;stop-opacity:1"
         offset="1" />
    </linearGradient>
    <linearGradient
       id="linearGradient3694">
      <stop
         id="stop3696"
         style="stop-color:#ffffff;stop-opacity:1"
         offset="0" />
      <stop
         id="stop3700"
         style="stop-color:#ffffff;stop-opacity:0.67464113"
         offset="0.5" />
      <stop
         id="stop3698"
         style="stop-color:#ffffff;stop-opacity:0"
         offset="1" />
    </linearGradient>
    <linearGradient
       id="linearGradient3649">
      <stop
         id="stop3651"
         style="stop-color:#c9c9c9;stop-opacity:1"
         offset="0" />
      <stop
         id="stop3653"
         style="stop-color:#f0f0f0;stop-opacity:1"
         offset="1" />
    </linearGradient>
    <linearGradient
       id="linearGradient3631">
      <stop
         id="stop3633"
         style="stop-color:#dddddd;stop-opacity:0.62190813"
         offset="0" />
      <stop
         id="stop3635"
         style="stop-color:#ffffff;stop-opacity:1"
         offset="1" />
    </linearGradient>
    <linearGradient
       x1="102"
       y1="14"
       x2="92"
       y2="24"
       id="linearGradient3637"
       xlink:href="#linearGradient3649"
       gradientUnits="userSpaceOnUse"
       gradientTransform="matrix(1.4444444,0,0,1.4444444,-48.888889,294.33333)" />
    <filter
       color-interpolation-filters="sRGB"
       id="filter3676">
      <feGaussianBlur
         id="feGaussianBlur3678"
         stdDeviation="0.36000001" />
    </filter>
    <filter
       color-interpolation-filters="sRGB"
       id="filter3610">
      <feGaussianBlur
         id="feGaussianBlur3612"
         stdDeviation="1.56" />
    </filter>
    <linearGradient
       x1="56.65461"
       y1="5.5"
       x2="56.65461"
       y2="122.50977"
       id="linearGradient3692"
       xlink:href="#linearGradient3694"
       gradientUnits="userSpaceOnUse"
       gradientTransform="matrix(0.98252641,0,0,0.9921278,0.77111153,297.96672)" />
    <filter
       color-interpolation-filters="sRGB"
       id="filter3702">
      <feGaussianBlur
         id="feGaussianBlur3704"
         stdDeviation="0.51369811" />
    </filter>
    <linearGradient
       x1="64"
       y1="122.5"
       x2="64"
       y2="93.860451"
       id="linearGradient3748"
       xlink:href="#linearGradient3758"
       gradientUnits="userSpaceOnUse" />
    <linearGradient
       x1="56.65461"
       y1="5.5"
       x2="56.65461"
       y2="122.50977"
       id="linearGradient3776"
       xlink:href="#linearGradient3694"
       gradientUnits="userSpaceOnUse"
       gradientTransform="matrix(0.98252641,0,0,0.9921278,0.77111153,297.96672)" />
    <filter
       color-interpolation-filters="sRGB"
       id="filter3778">
      <feGaussianBlur
         id="feGaussianBlur3780"
         stdDeviation="0.51837461" />
    </filter>
    <filter
       color-interpolation-filters="sRGB"
       id="filter3782">
      <feGaussianBlur
         id="feGaussianBlur3784"
         stdDeviation="1.0410113" />
    </filter>
    <linearGradient
       x1="64"
       y1="122"
       x2="64"
       y2="76.36528"
       id="linearGradient3794"
       xlink:href="#linearGradient3631"
       gradientUnits="userSpaceOnUse" />
    <linearGradient
       x1="56.65461"
       y1="5.5"
       x2="56.65461"
       y2="122.50977"
       id="linearGradient3805"
       xlink:href="#linearGradient3694"
       gradientUnits="userSpaceOnUse"
       gradientTransform="matrix(0.98252641,0,0,0.9921278,0.77111153,297.96672)" />
    <linearGradient
       x1="56.65461"
       y1="5.5"
       x2="56.65461"
       y2="122.50977"
       id="linearGradient3807"
       xlink:href="#linearGradient3694"
       gradientUnits="userSpaceOnUse"
       gradientTransform="matrix(0.98252641,0,0,0.9921278,0.77111153,297.96672)" />
    <linearGradient
       x1="102"
       y1="14"
       x2="92"
       y2="24"
       id="linearGradient3809"
       xlink:href="#linearGradient3649"
       gradientUnits="userSpaceOnUse"
       gradientTransform="matrix(1.4444444,0,0,1.4444444,-48.888889,294.33333)" />
    <linearGradient
       x1="64"
       y1="122.5"
       x2="64"
       y2="93.860451"
       id="linearGradient3811"
       xlink:href="#linearGradient3758"
       gradientUnits="userSpaceOnUse" />
    <linearGradient
       x1="62"
       y1="413"
       x2="62"
       y2="419"
       id="linearGradient2876"
       xlink:href="#linearGradient3636"
       gradientUnits="userSpaceOnUse" />
    <linearGradient
       x1="102"
       y1="14"
       x2="92"
       y2="24"
       id="linearGradient2880"
       xlink:href="#linearGradient3649"
       gradientUnits="userSpaceOnUse"
       gradientTransform="matrix(1.4444444,0,0,1.4444444,-48.888889,294.33333)" />
    <filter
       color-interpolation-filters="sRGB"
       id="filter3728">
      <feGaussianBlur
         id="feGaussianBlur3730"
         stdDeviation="0.57810125" />
    </filter>
    <linearGradient
       x1="141.70711"
       y1="723.34747"
       x2="141"
       y2="675.35034"
       id="linearGradient2997"
       xlink:href="#linearGradient4560-8"
       gradientUnits="userSpaceOnUse"
       gradientTransform="matrix(0.74079567,0,0,0.74079567,-44.275459,-471.72857)" />
    <linearGradient
       id="linearGradient4560-8">
      <stop
         id="stop4562-3"
         style="stop-color:#444444;stop-opacity:1"
         offset="0" />
      <stop
         id="stop4564-4"
         style="stop-color:#888888;stop-opacity:1"
         offset="1" />
    </linearGradient>
    <linearGradient
       x1="120.5"
       y1="706.87787"
       x2="120.5"
       y2="678.83179"
       id="linearGradient3282-3"
       xlink:href="#linearGradient3833-2"
       gradientUnits="userSpaceOnUse"
       gradientTransform="matrix(0.7266958,0,0,0.72620414,-42.885771,-460.97774)" />
    <linearGradient
       id="linearGradient3833-2">
      <stop
         id="stop3835-2"
         style="stop-color:#8fd400;stop-opacity:1"
         offset="0" />
      <stop
         id="stop3837-2"
         style="stop-color:#daff31;stop-opacity:1"
         offset="1" />
    </linearGradient>
  </defs>
  <g
     transform="translate(0,-297)"
     id="layer1">
    <path
       d="m 18,419 74,0 c 18,0 18,-18 18,-18 l 0,-72 c 0,0 -26,-26 -26,-26 l -48,0 c 0,0 -18,0 -18,18 l 0,98 z"
       id="path2832"
       style="opacity:0.9;fill:#000000;fill-opacity:1;stroke:none;filter:url(#filter3610)" />
    <path
       d="m 18,419 74,0 c 18,0 18,-18 18,-18 l 0,-72 c 0,0 -26,-26 -26,-26 l -48,0 c 0,0 -18,0 -18,18 l 0,98 z"
       id="path3627"
       style="fill:#e6e6e6;fill-opacity:1;stroke:none" />
    <path
       d="m 18.456586,419.00634 72.706957,0 c 17.685467,0 17.685467,-17.8583 17.685467,-17.8583 l 0.70844,-71.4332 c 0,0 -26.254119,-25.79532 -26.254119,-25.79532 l -49.050441,-0.2319 c 0,0 -16.504743,0.4638 -16.504743,18.3221 l 0.708439,96.99662 z"
       transform="matrix(0.98017447,0,0,0.99812248,1.4934147,0.7943904)"
       id="path3684"
       style="opacity:0.9;fill:none;stroke:url(#linearGradient3805);stroke-width:0.98750001;stroke-linecap:butt;stroke-linejoin:miter;stroke-miterlimit:4;stroke-opacity:1;stroke-dasharray:none;filter:url(#filter3778)" />
    <path
       d="m 18.456586,419.00634 72.706957,0 c 17.685467,0 17.685467,-17.8583 17.685467,-17.8583 l 0.70844,-71.4332 c 0,0 -26.254119,-25.79532 -26.254119,-25.79532 l -49.050441,-0.2319 c 0,0 -16.504743,0.4638 -16.504743,18.3221 l 0.708439,96.99662 z"
       transform="matrix(0.98017447,0,0,0.99812248,1.4934147,0.7943904)"
       id="path3766"
       style="fill:none;stroke:url(#linearGradient3807);stroke-width:0.98750001;stroke-linecap:butt;stroke-linejoin:miter;stroke-miterlimit:4;stroke-opacity:1;stroke-dasharray:none;filter:url(#filter3702)" />
    <path
       d="M 92.000003,6.0000025 92,24 l 18,3e-6"
       transform="matrix(1.4444444,0,0,1.4444444,-48.888889,294.33333)"
       id="path3639"
       style="opacity:0.6;fill:none;stroke:#333333;stroke-width:1px;stroke-linecap:butt;stroke-linejoin:miter;stroke-opacity:1;filter:url(#filter3676)" />
    <path
       d="m 84,303 0,26 26,0 -26,-26 z"
       id="path3629"
       style="fill:url(#linearGradient2880);fill-opacity:1;stroke:none" />
    <path
       d="m 18,122 74,0 c 18,0 18,-18 18,-18 l 0,-72 C 110,32 84,6 84,6 L 36,6 C 36,6 18,6 18,24 l 0,98 z"
       transform="matrix(0.97617501,0,0,0.99219838,1.5247995,297.03637)"
       id="path3726"
       style="opacity:0.4;fill:none;stroke:url(#linearGradient3811);stroke-width:1px;stroke-linecap:butt;stroke-linejoin:miter;stroke-opacity:1;filter:url(#filter3782)" />
    <path
       d="m 18,122 c 0,-6 18,-6 18,-6 l 56,0 c 16.37975,-0.46293 17.38879,-17.305605 17.38879,-17.305605"
       transform="translate(0,297)"
       id="path3722"
       style="opacity:0.8;fill:none;stroke:#333333;stroke-width:1px;stroke-linecap:butt;stroke-linejoin:miter;stroke-opacity:1;filter:url(#filter3728)" />
    <path
       d="m 18,419 74,0 c 18,0 18,-18 18,-18 0,0 0,-16 0,-16 0,0 0,28 -18,28 l -56,0 c 0,0 -18,0 -18,6 z"
       id="path3822"
       style="fill:url(#linearGradient2876);fill-opacity:1;stroke:none" />
    <g
       transform="translate(16,326.375)"
       id="layer4"
       style="display:inline">
      <path
         d="M 10,55.188223 C 11.654145,57.341359 25.758496,67.367756 44.297073,67.367756 62.835651,67.367756 81.52915,58.788651 86,54.461192 83.22964,50.313639 67.289585,28.242676 44.417814,28.637476 19.831925,29.061834 10.352302,53.613285 10,55.188223 z"
         id="path3610"
         style="fill:url(#linearGradient2997);fill-opacity:1;stroke:none;display:inline" />
      <path
         d="M 44.40625,28.625 C 19.820361,29.049358 10.352302,53.612562 10,55.1875 11.654145,57.340636 25.773923,67.375 44.3125,67.375 62.851078,67.375 81.52915,58.796209 86,54.46875 83.22964,50.321197 67.278021,28.2302 44.40625,28.625 z m 0.0625,3 c 10.461395,-0.180579 19.485145,4.818097 26.34375,10.53125 5.395035,4.494013 8.806651,8.778912 10.875,11.59375 -2.505007,1.676679 -6.570482,3.947322 -12.25,5.96875 -7.287884,2.593871 -16.317056,4.65625 -25.125,4.65625 -8.729666,0 -16.501988,-2.362678 -22.25,-5 -2.874006,-1.318661 -5.231666,-2.694668 -6.9375,-3.84375 -0.967298,-0.651591 -1.075177,-0.797368 -1.5625,-1.21875 0.299379,-0.696671 0.631425,-1.494736 1.15625,-2.5 1.235989,-2.367447 3.098555,-5.394578 5.65625,-8.375 5.11539,-5.960844 12.789774,-11.617391 24.09375,-11.8125 z"
         id="path4159"
         style="opacity:0.05;fill:#000000;fill-opacity:1;stroke:none;display:inline" />
      <path
         d="M 85.5625,54.84375 C 80.46391,59.270251 62.340818,67.375 44.3125,67.375 26.409862,67.375 12.663164,58.049317 10.25,55.46875 10.126705,55.805369 10.025488,56.07356 10,56.1875 11.654145,58.340636 25.773923,68.375 44.3125,68.375 62.851078,68.375 81.529146,59.796209 86,55.46875 c -0.09288,-0.139044 -0.315258,-0.44719 -0.4375,-0.625 z"
         id="path4093"
         style="opacity:0.8;fill:#ffffff;fill-opacity:1;stroke:none;display:inline" />
      <path
         d="m 44,31 c -1.290359,0.145423 -2.78906,-0.04181 -3.925209,0.686094 -1.156808,0.859072 -0.703171,2.423923 -0.793541,3.657656 -0.909005,0.412201 -1.759823,0.944425 -2.3545,-0.13575 -0.636866,-0.736587 -1.496895,-1.540194 -2.558438,-1.22251 -1.460203,0.495148 -2.509769,1.851979 -3.604016,2.887828 -0.806986,0.999859 -2.240374,2.175694 -1.670546,3.626682 0.4316,0.875468 1.308181,1.427733 1.9375,2.15625 -0.38389,0.926526 -0.610381,1.943095 -1.807557,1.59375 -1.030449,-0.09815 -2.259271,0.06375 -2.744831,1.118563 -0.663613,2.325481 -0.601817,4.879518 -0.04136,7.225187 0.44781,1.022674 1.609242,1.306488 2.627087,1.1875 1.000751,-0.192354 1.612181,0.13209 1.778961,1.204887 0.431918,0.66955 -0.709829,1.071874 -1.036298,1.612863 -0.986155,0.698473 -1.122833,2.203824 -0.265412,3.061944 1.289268,1.667916 2.796665,3.266691 4.645662,4.307806 0.99024,0.358995 1.941189,-0.239078 2.53525,-1.004 0.565258,-0.666816 1.119469,-1.294721 1.948082,-0.513119 1.003226,0.07559 0.484903,1.18838 0.610418,1.865043 -0.183915,1.221803 0.779132,2.445062 2.046894,2.431059 2.130373,0.332345 4.420238,0.422471 6.484356,-0.278983 0.996911,-0.529842 1.076786,-1.736864 1,-2.736984 -0.3494,-1.160965 0.63635,-1.352814 1.53125,-1.700516 0.924226,0.823452 1.724839,2.205008 3.15625,2 1.523616,-0.474211 2.604091,-1.84415 3.752313,-2.882918 0.833883,-0.992824 2.288586,-2.181677 1.716437,-3.648332 -0.42236,-0.864086 -1.28657,-1.407537 -1.90625,-2.125 0.38389,-0.926526 0.610382,-1.943095 1.807557,-1.59375 1.005075,0.103929 2.181708,-0.104312 2.651081,-1.118563 0.660311,-2.325709 0.605225,-4.879776 0.04136,-7.225187 -0.44781,-1.022674 -1.609242,-1.306488 -2.627087,-1.1875 -1.109028,0.291458 -1.499944,-0.410558 -1.778088,-1.400007 -0.05633,-0.572687 0.855625,-0.984024 1.201175,-1.489743 0.925521,-0.700742 0.963055,-2.147484 0.163136,-2.959504 C 57.23178,36.725083 55.728179,35.110617 53.875,34.0625 c -0.99024,-0.358995 -1.941189,0.239078 -2.53525,1.004 -0.585168,0.837108 -1.244616,1.096708 -2.118419,0.399727 C 48.442807,35.2822 48.962972,34.200241 48.8125,33.581503 48.97457,32.392525 48.010632,31.265778 46.806275,31.248194 45.878544,31.099159 44.940408,31.000374 44,31 z m 0,12.625 c 3.193919,-0.120072 5.906686,3.065978 5.31374,6.199468 -0.367442,3.169617 -3.921928,5.344455 -6.922547,4.311079 -3.16721,-0.85851 -4.756483,-4.888711 -3.123126,-7.70891 C 40.173263,44.709077 42.061338,43.601515 44,43.625 z"
         id="path4080"
         style="opacity:0.07999998;fill:#000000;fill-opacity:1;fill-rule:nonzero;stroke:none;stroke-width:1;marker:none;visibility:visible;display:inline;overflow:visible;enable-background:accumulate" />
      <path
         d="m 44,32 c -0.997686,0 -1.950178,0.122918 -2.875,0.28125 A 0.99153139,0.99153139 0 0 0 40.28125,33.25 l 0,2.71875 c -0.986176,0.288632 -1.90554,0.699155 -2.78125,1.1875 l -2,-1.96875 a 0.99153139,0.99153139 0 0 0 -1.25,-0.09375 c -1.617548,1.134035 -2.998618,2.561108 -4.125,4.15625 a 0.99153139,0.99153139 0 0 0 0.125,1.25 l 1.9375,1.9375 C 31.692451,43.320755 31.291258,44.254783 31,45.25 l -2.75,0 a 0.99153139,0.99153139 0 0 0 -0.96875,0.84375 C 27.117451,47.035347 27,47.993412 27,49 c 0,1.006607 0.116786,1.992066 0.28125,2.9375 A 0.99153139,0.99153139 0 0 0 28.25,52.78125 l 2.75,0 c 0.291258,0.995227 0.692449,1.929251 1.1875,2.8125 l -1.9375,1.9375 a 0.99153139,0.99153139 0 0 0 -0.125,1.25 c 1.13655,1.609524 2.54819,2.998954 4.15625,4.125 a 0.99153139,0.99153139 0 0 0 1.25,-0.125 l 1.9375,-1.9375 c 0.882909,0.494702 1.816911,0.896114 2.8125,1.1875 l 0,2.71875 A 0.99153139,0.99153139 0 0 0 41.125,65.71875 C 42.049806,65.877068 43.002297,66 44,66 c 1.016049,-1e-5 2.038407,-0.11191 3,-0.28125 A 0.99153139,0.99153139 0 0 0 47.8125,64.75 l 0,-2.71875 c 0.986181,-0.288628 1.905539,-0.699149 2.78125,-1.1875 l 1.875,1.90625 A 0.99153139,0.99153139 0 0 0 53.75,62.875 c 1.593688,-1.123829 3.047251,-2.498857 4.1875,-4.125 a 0.99153139,0.99153139 0 0 0 -0.125,-1.25 l -1.90625,-1.90625 c 0.495045,-0.883249 0.896239,-1.817278 1.1875,-2.8125 l 2.65625,0 A 0.99153139,0.99153139 0 0 0 60.71875,51.9375 C 60.883217,50.992064 61,50.006582 61,49 61,47.993422 60.882524,47.03533 60.71875,46.09375 A 0.99153139,0.99153139 0 0 0 59.75,45.25 l -2.65625,0 c -0.291261,-0.995223 -0.692454,-1.929252 -1.1875,-2.8125 l 1.90625,-1.90625 a 0.99153139,0.99153139 0 0 0 0.125,-1.25 C 56.807259,37.66937 55.384639,36.256898 53.78125,35.125 a 0.99153139,0.99153139 0 0 0 -1.25,0.125 L 50.625,37.15625 c -0.882913,-0.494704 -1.816915,-0.896115 -2.8125,-1.1875 l 0,-2.71875 A 0.99153139,0.99153139 0 0 0 47,32.28125 C 46.038423,32.11192 45.016066,32 44,32 z m 0,10.625 c 3.53008,1.6e-5 6.375,2.847595 6.375,6.375 0,3.527415 -2.844924,6.375 -6.375,6.375 -3.530069,1.6e-5 -6.375,-2.847594 -6.375,-6.375 0,-3.527383 2.844929,-6.375 6.375,-6.375 z"
         id="path4076"
         style="opacity:0.15;fill:#000000;fill-opacity:1;fill-rule:nonzero;stroke:none;stroke-width:1;marker:none;visibility:visible;display:inline;overflow:visible;enable-background:accumulate" />
      <path
         d="m 44.010832,33 c -0.927405,0 -1.845609,0.08677 -2.729859,0.238156 l 0,3.399187 c -1.457327,0.32356 -2.808453,0.91135 -4.029785,1.688767 l -2.426546,-2.424894 c -1.515453,1.062458 -2.832573,2.385794 -3.899796,3.897158 l 2.426544,2.424895 c -0.777943,1.220524 -1.366148,2.570727 -1.68991,4.027068 l -3.423164,0 C 28.082469,47.146222 28,48.059586 28,49 c 0,0.940434 0.08247,1.875413 0.238316,2.771307 l 3.423164,0 c 0.323762,1.456359 0.911967,2.806569 1.68991,4.027067 l -2.426544,2.424896 c 1.068937,1.513774 2.402971,2.812191 3.921462,3.875516 l 2.40488,-2.403253 c 1.221332,0.7774 2.572458,1.365224 4.029785,1.688767 l 0,3.377536 C 42.165223,64.913211 43.083418,65 44.010832,65 c 0.953586,-9e-6 1.887078,-0.0783 2.794859,-0.238164 l 0,-3.377536 c 1.457326,-0.323543 2.808452,-0.911341 4.029784,-1.688767 l 2.361548,2.381593 c 1.514799,-1.068198 2.857419,-2.379686 3.921462,-3.89715 l -2.383204,-2.381602 c 0.777935,-1.220514 1.366131,-2.570708 1.689902,-4.027067 l 3.336499,0 C 59.91753,50.87542 60,49.940408 60,49 60,48.059611 59.91751,47.146231 59.761682,46.250337 l -3.336499,0 c -0.323771,-1.45636 -0.911967,-2.806561 -1.689902,-4.027068 l 2.383204,-2.381593 C 56.056014,38.326445 54.73067,36.990243 53.21868,35.922867 l -2.383205,2.403243 c -1.221332,-0.777408 -2.572458,-1.365215 -4.029784,-1.688767 l 0,-3.377535 C 45.89791,33.099951 44.964418,33 44.010832,33 z m -0.02167,8.638701 c 4.06787,1.8e-5 7.387949,3.296182 7.387949,7.361299 0,4.065126 -3.320079,7.3613 -7.387949,7.3613 -4.06787,1.8e-5 -7.366283,-3.296182 -7.366283,-7.3613 0,-4.065098 3.298413,-7.361299 7.366283,-7.361299 z"
         id="path4061"
         style="opacity:0.3;fill:#000000;fill-opacity:1;fill-rule:nonzero;stroke:none;stroke-width:1;marker:none;visibility:visible;display:inline;overflow:visible;enable-background:accumulate" />
      <path
         d="m 44.010832,32 c -0.927405,0 -1.845609,0.08677 -2.729859,0.238156 l 0,3.399187 c -1.457327,0.32356 -2.808453,0.91135 -4.029785,1.688767 l -2.426546,-2.424894 c -1.515453,1.062458 -2.832573,2.385794 -3.899796,3.897158 l 2.426544,2.424895 c -0.777943,1.220524 -1.366148,2.570727 -1.68991,4.027068 l -3.423164,0 C 28.082469,46.146222 28,47.059586 28,48 c 0,0.940434 0.08247,1.875413 0.238316,2.771307 l 3.423164,0 c 0.323762,1.456359 0.911967,2.806569 1.68991,4.027067 l -2.426544,2.424896 c 1.068937,1.513774 2.402971,2.812191 3.921462,3.875516 l 2.40488,-2.403253 c 1.221332,0.7774 2.572458,1.365224 4.029785,1.688767 l 0,3.377536 C 42.165223,63.913211 43.083418,64 44.010832,64 c 0.953586,-9e-6 1.887078,-0.0783 2.794859,-0.238164 l 0,-3.377536 c 1.457326,-0.323543 2.808452,-0.911341 4.029784,-1.688767 l 2.361548,2.381593 c 1.514799,-1.068198 2.857419,-2.379686 3.921462,-3.89715 l -2.383204,-2.381602 c 0.777935,-1.220514 1.366131,-2.570708 1.689902,-4.027067 l 3.336499,0 C 59.91753,49.87542 60,48.940408 60,48 60,47.059611 59.91751,46.146231 59.761682,45.250337 l -3.336499,0 c -0.323771,-1.45636 -0.911967,-2.806561 -1.689902,-4.027068 l 2.383204,-2.381593 C 56.056014,37.326445 54.73067,35.990243 53.21868,34.922867 l -2.383205,2.403243 c -1.221332,-0.777408 -2.572458,-1.365215 -4.029784,-1.688767 l 0,-3.377535 C 45.89791,32.099951 44.964418,32 44.010832,32 z m -0.02167,8.638701 c 4.06787,1.8e-5 7.387949,3.296182 7.387949,7.361299 0,4.065126 -3.320079,7.3613 -7.387949,7.3613 -4.06787,1.8e-5 -7.366283,-3.296182 -7.366283,-7.3613 0,-4.065098 3.298413,-7.361299 7.366283,-7.361299 z"
         id="path3614"
         style="fill:url(#linearGradient3282-3);fill-opacity:1;fill-rule:nonzero;stroke:none;stroke-width:1;marker:none;visibility:visible;display:inline;overflow:visible;enable-background:accumulate" />
      <path
         d="M 44.40625,28.625 C 19.820361,29.049358 10.352302,53.612562 10,55.1875 11.654145,57.340636 25.773923,67.375 44.3125,67.375 62.851078,67.375 81.52915,58.796209 86,54.46875 83.22964,50.321197 67.278021,28.2302 44.40625,28.625 z m 0.03125,1.9375 C 55.239636,30.376039 64.52441,35.53315 71.5,41.34375 77.516593,46.355515 81.290635,51.327438 83.1875,54 c -2.405437,1.798173 -7.041287,4.453361 -13.40625,6.71875 -7.378031,2.625955 -16.499492,4.71875 -25.46875,4.71875 -8.918351,0 -16.832484,-2.438581 -22.6875,-5.125 -2.927508,-1.343209 -5.338903,-2.755401 -7.09375,-3.9375 -1.316136,-0.886574 -1.812396,-1.379677 -2.25,-1.78125 0.05187,-0.137333 0.03148,-0.09951 0.09375,-0.25 0.318199,-0.769002 0.773336,-1.787699 1.40625,-3 1.265829,-2.424602 3.19031,-5.538174 5.8125,-8.59375 5.244379,-6.111152 13.19397,-11.986422 24.84375,-12.1875 z"
         id="path4149"
         style="opacity:0.07999998;fill:#000000;fill-opacity:1;stroke:none;display:inline" />
      <path
         d="m 44,32 c -0.927405,0 -1.8345,0.09861 -2.71875,0.25 l 0,1 C 42.1655,33.098614 43.072595,33 44,33 c 0.953586,0 1.904719,0.09014 2.8125,0.25 l 0,-1 C 45.904719,32.090143 44.953586,32 44,32 z m -9.1875,2.90625 c -1.515453,1.062458 -2.807777,2.394886 -3.875,3.90625 L 31.375,39.25 c 0.986607,-1.277304 2.114004,-2.41587 3.4375,-3.34375 L 37.25,38.3125 c 1.221332,-0.777417 2.573923,-1.36394 4.03125,-1.6875 l 0,-1 c -1.457327,0.32356 -2.809918,0.910083 -4.03125,1.6875 l -2.4375,-2.40625 z m 18.40625,0.03125 -2.375,2.375 C 49.622418,36.535092 48.269826,35.948552 46.8125,35.625 l 0,1 c 1.457326,0.323552 2.809918,0.910092 4.03125,1.6875 l 2.375,-2.375 c 1.316994,0.929721 2.485347,2.065456 3.46875,3.34375 l 0.4375,-0.4375 C 56.062529,37.328519 54.73074,36.004876 53.21875,34.9375 z m -20.25,6.90625 c -0.591352,1.050068 -1.04347,2.196103 -1.3125,3.40625 l -3.40625,0 C 28.094153,46.145885 28,47.059586 28,48 c 0,0.167322 0.02608,0.333213 0.03125,0.5 0.02389,-0.765432 0.09063,-1.513511 0.21875,-2.25 l 3.40625,0 c 0.323762,-1.456341 0.909557,-2.810726 1.6875,-4.03125 l -0.375,-0.375 z m 22.15625,0 -0.375,0.375 c 0.777935,1.220507 1.363729,2.57489 1.6875,4.03125 l 3.3125,0 c 0.128103,0.736496 0.194857,1.484578 0.21875,2.25 C 59.97395,48.333214 60,48.167318 60,48 60,47.059611 59.90583,46.145894 59.75,45.25 l -3.3125,0 C 56.168462,44.039837 55.716346,42.893809 55.125,41.84375 z M 36.65625,48.5 C 36.64496,48.666668 36.625,48.830474 36.625,49 c 0,4.065118 3.30713,7.375018 7.375,7.375 4.06787,0 7.375,-3.309874 7.375,-7.375 0,-0.169527 -0.01989,-0.333331 -0.03125,-0.5 C 51.082672,52.329927 47.898229,55.375 44,55.375 40.101771,55.375017 36.915669,52.329922 36.65625,48.5 z M 33,55.15625 l -2.0625,2.0625 c 0.137857,0.195226 0.290998,0.37448 0.4375,0.5625 L 33.34375,55.8125 C 33.213367,55.607945 33.119372,55.367982 33,55.15625 z m 22.09375,0 C 54.974379,55.367983 54.880382,55.607942 54.75,55.8125 l 1.9375,1.9375 c 0.146264,-0.18877 0.300274,-0.366798 0.4375,-0.5625 l -2.03125,-2.03125 z"
         id="path4065"
         style="opacity:0.4;fill:#ffffff;fill-opacity:1;fill-rule:nonzero;stroke:none;stroke-width:1;marker:none;visibility:visible;display:inline;overflow:visible;enable-background:accumulate" />
      <path
         d="M 44.40625,28.625 C 19.820361,29.049358 10.352302,53.612562 10,55.1875 c 0.05674,0.07386 0.164279,0.189583 0.25,0.28125 C 11.830949,51.152455 21.599049,30.018657 44.40625,29.625 66.511258,29.243435 82.03838,49.717656 85.5625,54.84375 85.706807,54.718466 85.876943,54.58786 86,54.46875 83.22964,50.321197 67.278021,28.2302 44.40625,28.625 z"
         id="path4136"
         style="opacity:0.3;fill:#000000;fill-opacity:1;stroke:none;display:inline" />
      <path
         d="M 44.40625,28.625 C 19.820361,29.049358 10.352302,53.612562 10,55.1875 11.654145,57.340636 25.773923,67.375 44.3125,67.375 62.851078,67.375 81.52915,58.796209 86,54.46875 83.22964,50.321197 67.278021,28.2302 44.40625,28.625 z m 0.03125,0.96875 c 11.124089,-0.192018 20.601376,5.097326 27.6875,11 6.618327,5.513003 10.837015,11.237327 12.5,13.65625 -2.305291,1.953437 -7.517831,4.921188 -14.5,7.40625 -7.463207,2.656271 -16.690822,4.75 -25.8125,4.75 -9.096632,0 -17.13763,-2.454693 -23.09375,-5.1875 -2.97806,-1.366404 -5.417592,-2.786706 -7.21875,-4 -1.590728,-1.071544 -2.475916,-1.892056 -2.875,-2.3125 0.08281,-0.247018 0.129,-0.418508 0.34375,-0.9375 0.329593,-0.796538 0.790489,-1.854447 1.4375,-3.09375 1.294023,-2.478606 3.254372,-5.654664 5.9375,-8.78125 5.366256,-6.253173 13.617234,-12.293283 25.59375,-12.5 z"
         id="path4145"
         style="opacity:0.15;fill:#000000;fill-opacity:1;stroke:none;display:inline" />
    </g>
  </g>
</svg>
