<?xml version="1.0" encoding="UTF-8" standalone="no"?>
<!-- Created with Inkscape (http://www.inkscape.org/) -->

<svg
   xmlns:svg="http://www.w3.org/2000/svg"
   xmlns="http://www.w3.org/2000/svg"
   xmlns:xlink="http://www.w3.org/1999/xlink"
   version="1.1"
   width="128"
   height="128"
   id="svg2816">
  <defs
     id="defs2818">
    <linearGradient
       id="linearGradient3652">
      <stop
         id="stop3654"
         style="stop-color:#000000;stop-opacity:0.21531101"
         offset="0" />
      <stop
         id="stop3656"
         style="stop-color:#ffffff;stop-opacity:1"
         offset="1" />
    </linearGradient>
    <linearGradient
       id="linearGradient3636">
      <stop
         id="stop3638"
         style="stop-color:#30a078;stop-opacity:1"
         offset="0" />
      <stop
         id="stop3644"
         style="stop-color:#288665;stop-opacity:1"
         offset="0.5" />
      <stop
         id="stop3640"
         style="stop-color:#216f54;stop-opacity:1"
         offset="1" />
    </linearGradient>
    <linearGradient
       id="linearGradient3758">
      <stop
         id="stop3760"
         style="stop-color:#333333;stop-opacity:1"
         offset="0" />
      <stop
         id="stop3762"
         style="stop-color:#333333;stop-opacity:0"
         offset="1" />
    </linearGradient>
    <linearGradient
       id="linearGradient3736">
      <stop
         id="stop3738"
         style="stop-color:#ffffff;stop-opacity:0"
         offset="0" />
      <stop
         id="stop3740"
         style="stop-color:#333333;stop-opacity:0.72791517"
         offset="1" />
    </linearGradient>
    <linearGradient
       id="linearGradient3708">
      <stop
         id="stop3712"
         style="stop-color:#ffffff;stop-opacity:0"
         offset="0" />
      <stop
         id="stop3714"
         style="stop-color:#333333;stop-opacity:1"
         offset="1" />
    </linearGradient>
    <linearGradient
       id="linearGradient3694">
      <stop
         id="stop3696"
         style="stop-color:#ffffff;stop-opacity:1"
         offset="0" />
      <stop
         id="stop3700"
         style="stop-color:#ffffff;stop-opacity:0.67464113"
         offset="0.5" />
      <stop
         id="stop3698"
         style="stop-color:#ffffff;stop-opacity:0"
         offset="1" />
    </linearGradient>
    <linearGradient
       id="linearGradient3649">
      <stop
         id="stop3651"
         style="stop-color:#c9c9c9;stop-opacity:1"
         offset="0" />
      <stop
         id="stop3653"
         style="stop-color:#f0f0f0;stop-opacity:1"
         offset="1" />
    </linearGradient>
    <linearGradient
       id="linearGradient3631">
      <stop
         id="stop3633"
         style="stop-color:#dddddd;stop-opacity:0.62190813"
         offset="0" />
      <stop
         id="stop3635"
         style="stop-color:#ffffff;stop-opacity:1"
         offset="1" />
    </linearGradient>
    <linearGradient
       x1="102"
       y1="14"
       x2="92"
       y2="24"
       id="linearGradient3637"
       xlink:href="#linearGradient3649"
       gradientUnits="userSpaceOnUse"
       gradientTransform="matrix(1.4444444,0,0,1.4444444,-48.888889,294.33333)" />
    <filter
       color-interpolation-filters="sRGB"
       id="filter3676">
      <feGaussianBlur
         id="feGaussianBlur3678"
         stdDeviation="0.36000001" />
    </filter>
    <filter
       color-interpolation-filters="sRGB"
       id="filter3610">
      <feGaussianBlur
         id="feGaussianBlur3612"
         stdDeviation="1.56" />
    </filter>
    <linearGradient
       x1="56.65461"
       y1="5.5"
       x2="56.65461"
       y2="122.50977"
       id="linearGradient3692"
       xlink:href="#linearGradient3694"
       gradientUnits="userSpaceOnUse"
       gradientTransform="matrix(0.98252641,0,0,0.9921278,0.77111153,297.96672)" />
    <filter
       color-interpolation-filters="sRGB"
       id="filter3702">
      <feGaussianBlur
         id="feGaussianBlur3704"
         stdDeviation="0.51369811" />
    </filter>
    <linearGradient
       x1="64"
       y1="122.5"
       x2="64"
       y2="93.860451"
       id="linearGradient3748"
       xlink:href="#linearGradient3758"
       gradientUnits="userSpaceOnUse" />
    <linearGradient
       x1="56.65461"
       y1="5.5"
       x2="56.65461"
       y2="122.50977"
       id="linearGradient3776"
       xlink:href="#linearGradient3694"
       gradientUnits="userSpaceOnUse"
       gradientTransform="matrix(0.98252641,0,0,0.9921278,0.77111153,297.96672)" />
    <filter
       color-interpolation-filters="sRGB"
       id="filter3778">
      <feGaussianBlur
         id="feGaussianBlur3780"
         stdDeviation="0.51837461" />
    </filter>
    <filter
       color-interpolation-filters="sRGB"
       id="filter3782">
      <feGaussianBlur
         id="feGaussianBlur3784"
         stdDeviation="1.0410113" />
    </filter>
    <linearGradient
       x1="64"
       y1="122"
       x2="64"
       y2="76.36528"
       id="linearGradient3794"
       xlink:href="#linearGradient3631"
       gradientUnits="userSpaceOnUse" />
    <linearGradient
       x1="56.65461"
       y1="5.5"
       x2="56.65461"
       y2="122.50977"
       id="linearGradient3805"
       xlink:href="#linearGradient3694"
       gradientUnits="userSpaceOnUse"
       gradientTransform="matrix(0.98252641,0,0,0.9921278,0.77111153,297.96672)" />
    <linearGradient
       x1="56.65461"
       y1="5.5"
       x2="56.65461"
       y2="122.50977"
       id="linearGradient3807"
       xlink:href="#linearGradient3694"
       gradientUnits="userSpaceOnUse"
       gradientTransform="matrix(0.98252641,0,0,0.9921278,0.77111153,297.96672)" />
    <linearGradient
       x1="102"
       y1="14"
       x2="92"
       y2="24"
       id="linearGradient3809"
       xlink:href="#linearGradient3649"
       gradientUnits="userSpaceOnUse"
       gradientTransform="matrix(1.4444444,0,0,1.4444444,-48.888889,294.33333)" />
    <linearGradient
       x1="64"
       y1="122.5"
       x2="64"
       y2="93.860451"
       id="linearGradient3811"
       xlink:href="#linearGradient3758"
       gradientUnits="userSpaceOnUse" />
    <linearGradient
       x1="62"
       y1="413"
       x2="62"
       y2="419"
       id="linearGradient2876"
       xlink:href="#linearGradient3636"
       gradientUnits="userSpaceOnUse" />
    <linearGradient
       x1="102"
       y1="14"
       x2="92"
       y2="24"
       id="linearGradient2880"
       xlink:href="#linearGradient3649"
       gradientUnits="userSpaceOnUse"
       gradientTransform="matrix(1.4444444,0,0,1.4444444,-48.888889,294.33333)" />
    <filter
       color-interpolation-filters="sRGB"
       id="filter3728">
      <feGaussianBlur
         id="feGaussianBlur3730"
         stdDeviation="0.57810125" />
    </filter>
    <radialGradient
       cx="61"
       cy="24.63372"
       r="19.007999"
       fx="61"
       fy="24.63372"
       id="radialGradient4110-0"
       xlink:href="#linearGradient3798-5"
       gradientUnits="userSpaceOnUse"
       gradientTransform="matrix(1.2626263,-0.2104377,0.09520749,0.57124497,-18.365519,22.764811)" />
    <linearGradient
       id="linearGradient3798-5">
      <stop
         id="stop3800-4"
         style="stop-color:#0a85ff;stop-opacity:1"
         offset="0" />
      <stop
         id="stop3802-4"
         style="stop-color:#006ad3;stop-opacity:0"
         offset="1" />
    </linearGradient>
    <filter
       color-interpolation-filters="sRGB"
       id="filter3810-2">
      <feGaussianBlur
         id="feGaussianBlur3812-6"
         stdDeviation="0.42" />
    </filter>
    <radialGradient
       cx="41.752941"
       cy="36.95731"
       r="19"
       fx="41.752941"
       fy="36.95731"
       id="radialGradient4112-4"
       xlink:href="#linearGradient3816-9"
       gradientUnits="userSpaceOnUse"
       gradientTransform="matrix(3.3630994,-0.59089075,0.30096298,1.7129535,-109.78914,2.6805672)" />
    <linearGradient
       id="linearGradient3816-9">
      <stop
         id="stop3818-3"
         style="stop-color:#51acff;stop-opacity:1"
         offset="0" />
      <stop
         id="stop3824-4"
         style="stop-color:#6abaee;stop-opacity:0.67450982"
         offset="0.5" />
      <stop
         id="stop3820-0"
         style="stop-color:#318fe4;stop-opacity:0"
         offset="1" />
    </linearGradient>
    <linearGradient
       x1="80"
       y1="37"
       x2="77"
       y2="37"
       id="linearGradient4114-1"
       xlink:href="#linearGradient3860-5"
       gradientUnits="userSpaceOnUse"
       gradientTransform="translate(4.4049615e-7,3)" />
    <linearGradient
       id="linearGradient3860-5">
      <stop
         id="stop3862-7"
         style="stop-color:#002767;stop-opacity:1"
         offset="0" />
      <stop
         id="stop3868-1"
         style="stop-color:#003180;stop-opacity:0.36434108"
         offset="0.5" />
      <stop
         id="stop3864-9"
         style="stop-color:#002767;stop-opacity:0"
         offset="1" />
    </linearGradient>
    <linearGradient
       x1="52"
       y1="10"
       x2="51.631207"
       y2="8.0840635"
       id="linearGradient4116-3"
       xlink:href="#linearGradient3828-5"
       gradientUnits="userSpaceOnUse"
       gradientTransform="translate(4.4049615e-7,3)" />
    <linearGradient
       id="linearGradient3828-5">
      <stop
         id="stop3830-1"
         style="stop-color:#a2d7fb;stop-opacity:1"
         offset="0" />
      <stop
         id="stop3832-9"
         style="stop-color:#a2d7fb;stop-opacity:0"
         offset="1" />
    </linearGradient>
    <radialGradient
       cx="40.284538"
       cy="39.106094"
       r="19"
       fx="40.284538"
       fy="39.106094"
       id="radialGradient4118-8"
       xlink:href="#linearGradient3816-9"
       gradientUnits="userSpaceOnUse"
       gradientTransform="matrix(3.3729562,-0.5317483,0.18746453,1.1891145,-71.604806,16.442362)" />
    <linearGradient
       id="linearGradient3279">
      <stop
         id="stop3281"
         style="stop-color:#51acff;stop-opacity:1"
         offset="0" />
      <stop
         id="stop3283"
         style="stop-color:#6abaee;stop-opacity:0.67450982"
         offset="0.5" />
      <stop
         id="stop3285"
         style="stop-color:#318fe4;stop-opacity:0"
         offset="1" />
    </linearGradient>
    <radialGradient
       cx="46"
       cy="50.608784"
       r="1.5"
       fx="46"
       fy="50.608784"
       id="radialGradient4120-7"
       xlink:href="#linearGradient3879-6"
       gradientUnits="userSpaceOnUse"
       gradientTransform="matrix(2.6666667,-6.9565204e-8,8.0000011e-7,30.666677,-76.666707,-1477.0032)" />
    <linearGradient
       id="linearGradient3879-6">
      <stop
         id="stop3881-4"
         style="stop-color:#002767;stop-opacity:1"
         offset="0" />
      <stop
         id="stop3883-1"
         style="stop-color:#003180;stop-opacity:0.36434108"
         offset="0.5" />
      <stop
         id="stop3885-9"
         style="stop-color:#002767;stop-opacity:0"
         offset="1" />
    </linearGradient>
    <radialGradient
       cx="39.768967"
       cy="69.843796"
       r="11"
       fx="39.768967"
       fy="69.843796"
       id="radialGradient4122-4"
       xlink:href="#linearGradient3958-5"
       gradientUnits="userSpaceOnUse"
       gradientTransform="matrix(1.1597853,-0.1400901,0.07244171,0.58349276,-11.414104,33.34065)" />
    <linearGradient
       id="linearGradient3958-5">
      <stop
         id="stop3960-3"
         style="stop-color:#01a3f1;stop-opacity:1"
         offset="0" />
      <stop
         id="stop3962-6"
         style="stop-color:#01a3f1;stop-opacity:0"
         offset="1" />
    </linearGradient>
    <linearGradient
       x1="40"
       y1="70"
       x2="41.884232"
       y2="62.967953"
       id="linearGradient4124-9"
       xlink:href="#linearGradient3934-3"
       gradientUnits="userSpaceOnUse" />
    <linearGradient
       id="linearGradient3934-3">
      <stop
         id="stop3936-2"
         style="stop-color:#003d9e;stop-opacity:1"
         offset="0" />
      <stop
         id="stop3938-5"
         style="stop-color:#003d9e;stop-opacity:0"
         offset="1" />
    </linearGradient>
    <linearGradient
       x1="40"
       y1="69"
       x2="42"
       y2="64"
       id="linearGradient4126-0"
       xlink:href="#linearGradient3934-3"
       gradientUnits="userSpaceOnUse" />
    <linearGradient
       id="linearGradient3301">
      <stop
         id="stop3303"
         style="stop-color:#003d9e;stop-opacity:1"
         offset="0" />
      <stop
         id="stop3305"
         style="stop-color:#003d9e;stop-opacity:0"
         offset="1" />
    </linearGradient>
    <linearGradient
       x1="31"
       y1="61"
       x2="36"
       y2="70"
       id="linearGradient4128-4"
       xlink:href="#linearGradient3894-4"
       gradientUnits="userSpaceOnUse"
       gradientTransform="translate(4.4049615e-7,3)" />
    <linearGradient
       id="linearGradient3894-4">
      <stop
         id="stop3896-6"
         style="stop-color:#93ddf7;stop-opacity:1"
         offset="0" />
      <stop
         id="stop3898-5"
         style="stop-color:#93ddf7;stop-opacity:0"
         offset="1" />
    </linearGradient>
    <radialGradient
       cx="39.768967"
       cy="69.843796"
       r="11"
       fx="39.768967"
       fy="69.843796"
       id="radialGradient4130-7"
       xlink:href="#linearGradient3958-5"
       gradientUnits="userSpaceOnUse"
       gradientTransform="matrix(1.1597853,-0.1400901,0.07244171,0.58349276,-11.414104,33.34065)" />
    <linearGradient
       id="linearGradient3312">
      <stop
         id="stop3314"
         style="stop-color:#01a3f1;stop-opacity:1"
         offset="0" />
      <stop
         id="stop3316"
         style="stop-color:#01a3f1;stop-opacity:0"
         offset="1" />
    </linearGradient>
    <linearGradient
       x1="40"
       y1="70"
       x2="41.884232"
       y2="62.967953"
       id="linearGradient4132-0"
       xlink:href="#linearGradient3934-3"
       gradientUnits="userSpaceOnUse"
       gradientTransform="translate(34,-5.0000001)" />
    <linearGradient
       id="linearGradient3319">
      <stop
         id="stop3321"
         style="stop-color:#003d9e;stop-opacity:1"
         offset="0" />
      <stop
         id="stop3323"
         style="stop-color:#003d9e;stop-opacity:0"
         offset="1" />
    </linearGradient>
    <linearGradient
       x1="40"
       y1="69"
       x2="42"
       y2="64"
       id="linearGradient4134-5"
       xlink:href="#linearGradient3934-3"
       gradientUnits="userSpaceOnUse"
       gradientTransform="translate(34,-5.0000001)" />
    <linearGradient
       id="linearGradient3326">
      <stop
         id="stop3328"
         style="stop-color:#003d9e;stop-opacity:1"
         offset="0" />
      <stop
         id="stop3330"
         style="stop-color:#003d9e;stop-opacity:0"
         offset="1" />
    </linearGradient>
    <linearGradient
       x1="31"
       y1="61"
       x2="36"
       y2="70"
       id="linearGradient4136-8"
       xlink:href="#linearGradient3894-4"
       gradientUnits="userSpaceOnUse"
       gradientTransform="translate(34,-2.0000001)" />
    <linearGradient
       id="linearGradient3333">
      <stop
         id="stop3335"
         style="stop-color:#93ddf7;stop-opacity:1"
         offset="0" />
      <stop
         id="stop3337"
         style="stop-color:#93ddf7;stop-opacity:0"
         offset="1" />
    </linearGradient>
  </defs>
  <g
     transform="translate(0,-297)"
     id="layer1">
    <path
       d="m 18,419 74,0 c 18,0 18,-18 18,-18 l 0,-72 c 0,0 -26,-26 -26,-26 l -48,0 c 0,0 -18,0 -18,18 l 0,98 z"
       id="path2832"
       style="opacity:0.9;fill:#000000;fill-opacity:1;stroke:none;filter:url(#filter3610)" />
    <path
       d="m 18,419 74,0 c 18,0 18,-18 18,-18 l 0,-72 c 0,0 -26,-26 -26,-26 l -48,0 c 0,0 -18,0 -18,18 l 0,98 z"
       id="path3627"
       style="fill:#e6e6e6;fill-opacity:1;stroke:none" />
    <path
       d="m 18.456586,419.00634 72.706957,0 c 17.685467,0 17.685467,-17.8583 17.685467,-17.8583 l 0.70844,-71.4332 c 0,0 -26.254119,-25.79532 -26.254119,-25.79532 l -49.050441,-0.2319 c 0,0 -16.504743,0.4638 -16.504743,18.3221 l 0.708439,96.99662 z"
       transform="matrix(0.98017447,0,0,0.99812248,1.4934147,0.7943904)"
       id="path3684"
       style="opacity:0.9;fill:none;stroke:url(#linearGradient3805);stroke-width:0.98750001;stroke-linecap:butt;stroke-linejoin:miter;stroke-miterlimit:4;stroke-opacity:1;stroke-dasharray:none;filter:url(#filter3778)" />
    <path
       d="m 18.456586,419.00634 72.706957,0 c 17.685467,0 17.685467,-17.8583 17.685467,-17.8583 l 0.70844,-71.4332 c 0,0 -26.254119,-25.79532 -26.254119,-25.79532 l -49.050441,-0.2319 c 0,0 -16.504743,0.4638 -16.504743,18.3221 l 0.708439,96.99662 z"
       transform="matrix(0.98017447,0,0,0.99812248,1.4934147,0.7943904)"
       id="path3766"
       style="fill:none;stroke:url(#linearGradient3807);stroke-width:0.98750001;stroke-linecap:butt;stroke-linejoin:miter;stroke-miterlimit:4;stroke-opacity:1;stroke-dasharray:none;filter:url(#filter3702)" />
    <path
       d="M 92.000003,6.0000025 92,24 l 18,3e-6"
       transform="matrix(1.4444444,0,0,1.4444444,-48.888889,294.33333)"
       id="path3639"
       style="opacity:0.6;fill:none;stroke:#333333;stroke-width:1px;stroke-linecap:butt;stroke-linejoin:miter;stroke-opacity:1;filter:url(#filter3676)" />
    <path
       d="m 84,303 0,26 26,0 -26,-26 z"
       id="path3629"
       style="fill:url(#linearGradient2880);fill-opacity:1;stroke:none" />
    <path
       d="m 18,122 74,0 c 18,0 18,-18 18,-18 l 0,-72 C 110,32 84,6 84,6 L 36,6 C 36,6 18,6 18,24 l 0,98 z"
       transform="matrix(0.97617501,0,0,0.99219838,1.5247995,297.03637)"
       id="path3726"
       style="opacity:0.4;fill:none;stroke:url(#linearGradient3811);stroke-width:1px;stroke-linecap:butt;stroke-linejoin:miter;stroke-opacity:1;filter:url(#filter3782)" />
    <path
       d="m 18,122 c 0,-6 18,-6 18,-6 l 56,0 c 16.37975,-0.46293 17.38879,-17.305605 17.38879,-17.305605"
       transform="translate(0,297)"
       id="path3722"
       style="opacity:0.8;fill:none;stroke:#333333;stroke-width:1px;stroke-linecap:butt;stroke-linejoin:miter;stroke-opacity:1;filter:url(#filter3728)" />
    <path
       d="m 18,419 74,0 c 18,0 18,-18 18,-18 0,0 0,-16 0,-16 0,0 0,28 -18,28 l -56,0 c 0,0 -18,0 -18,6 z"
       id="path3822"
       style="fill:url(#linearGradient2876);fill-opacity:1;stroke:none" />
    <g
       transform="matrix(1.2434869,0,0,1.2434869,7.9854775,311.77436)"
       id="layer3"
       style="display:inline">
      <path
         d="M 65.59375,19.09375 C 55.570299,20.873116 45.510057,22.561551 35.5,24.40625 c -1.976426,0.763306 -1.032104,3.248014 -1.25,4.862345 0,10.483385 0,20.96677 0,31.450155 -5.743588,-0.705556 -12.716357,3.965802 -11.706151,10.277769 1.449384,5.905893 9.111296,7.150188 13.923409,4.726775 4.082721,-1.648294 6.412323,-6.067586 5.970242,-10.330326 0,-8.589323 0,-17.178645 0,-25.767968 5.65625,-1.020833 11.3125,-2.041667 16.96875,-3.0625 0,6.822917 0,13.645833 0,20.46875 -5.761066,-0.775148 -12.673841,4.002882 -11.706028,10.279238 1.450931,5.904745 9.111422,7.148456 13.923284,4.725305 4.082722,-1.648294 6.412325,-6.067584 5.970244,-10.330325 -0.02094,-13.70261 0.04182,-27.415525 -0.03125,-41.111718 -0.186043,-0.909516 -1.057449,-1.550559 -1.96875,-1.5 z"
         id="path4241"
         style="opacity:0.05;fill:#005ef5;fill-opacity:1;stroke:none;display:inline" />
      <path
         d="M 66.5625,14.0625 36.96875,19.25 a 0.93646586,0.93646586 0 0 0 -0.78125,0.9375 l 0,35.53125 c -1.615631,-0.233816 -3.344544,-0.215979 -5.09375,0.34375 -2.350084,0.752004 -4.250012,2.128862 -5.4375,3.8125 -1.187488,1.683638 -1.650786,3.745036 -0.96875,5.65625 0.681739,1.910383 2.34228,3.248395 4.34375,3.90625 2.00147,0.657855 4.366814,0.690097 6.71875,-0.0625 3.816499,-1.221242 6.437311,-4.152185 6.625,-7.3125 A 0.93646586,0.93646586 0 0 0 42.5,61.59375 l 0,-28.78125 18.84375,-3.375 0,22.59375 c -1.611033,-0.241588 -3.337805,-0.249386 -5.09375,0.3125 -2.352024,0.752625 -4.250856,2.152494 -5.4375,3.84375 -1.186644,1.691256 -1.651115,3.744122 -0.96875,5.65625 0.681735,1.910384 2.342279,3.248395 4.34375,3.90625 2.001471,0.657855 4.366815,0.690097 6.71875,-0.0625 3.816495,-1.221243 6.437313,-4.152184 6.625,-7.3125 a 0.93646586,0.93646586 0 0 0 0.125,-0.46875 L 67.65625,15 A 0.93646586,0.93646586 0 0 0 66.5625,14.0625 z"
         transform="translate(-1,6)"
         id="path4237"
         style="opacity:0.12000002;fill:#005ef5;fill-opacity:1;stroke:none;display:inline" />
      <path
         d="m 65.71233,21 -29.589041,5.178082 0,36.570206 c -1.715629,-0.463185 -3.744472,-0.435619 -5.755993,0.208048 -4.347078,1.391023 -6.937344,5.094835 -5.802225,8.275685 1.135118,3.18085 5.569873,4.627324 9.916951,3.236301 3.713254,-1.188205 6.131025,-4.06923 6.056507,-6.865582 l 0.02312,0 0,-29.589041 20.712321,-3.69863 0,24.734589 c -1.71562,-0.463186 -3.744466,-0.43562 -5.755986,0.208048 -4.34708,1.391023 -6.937343,5.094835 -5.80222,8.275685 1.13511,3.18085 5.56987,4.627324 9.916946,3.236301 3.71325,-1.188206 6.13102,-4.06923 6.0565,-6.865582 l 0.0231,0 0,-42.90411 z"
         id="path4140"
         style="opacity:0.3;fill:#005ef5;fill-opacity:1;stroke:none;display:inline" />
      <g
         transform="matrix(0.73972603,0,0,0.73972603,6.534248,15.561644)"
         id="g4093"
         style="display:inline">
        <path
           d="M 80,5.9999999 40,13 40,62.4375 c -2.319276,-0.626158 -5.061972,-0.588893 -7.78125,0.28125 -5.876605,1.880457 -9.378261,6.887462 -7.843749,11.1875 1.534512,4.300038 7.529643,6.255457 13.406249,4.375 C 42.801019,76.674972 46.069487,72.780254 45.96875,69 L 46,69 46,29 74,24 74,57.4375 c -2.319276,-0.626158 -5.061972,-0.588893 -7.78125,0.28125 -5.876606,1.880457 -9.378262,6.887462 -7.84375,11.1875 1.534512,4.300038 7.529644,6.255457 13.40625,4.375 C 76.801019,71.674972 80.069487,67.780254 79.96875,64 L 80,64 80,5.9999999 z"
           id="path3011"
           style="fill:#0046b5;fill-opacity:1;stroke:none;display:inline" />
        <path
           d="M 42,16 42,29 78,22 78,8.9999999 42,16 z"
           id="path3796"
           style="fill:url(#radialGradient4110-0);fill-opacity:1;stroke:none;display:inline;filter:url(#filter3810-2)" />
        <path
           d="M 79,7.9999999 41,15 41,62.75 c 0.722607,0.272294 1.402627,0.590247 2,1 L 43,30 c 0,-4 0.417188,-5.500626 4,-7 10.867162,-4.547809 27,-2 32,-15.0000001 z"
           id="path3814"
           style="fill:url(#radialGradient4112-4);fill-opacity:1;stroke:none;display:inline" />
        <path
           d="M 80,5.9999999 77,6.5312499 77,70.25 C 78.916539,68.443002 80.027571,66.207324 79.96875,64 L 80,64 80,5.9999999 z"
           id="path3850"
           style="fill:url(#linearGradient4114-1);fill-opacity:1;stroke:none;display:inline" />
        <path
           d="m 40,13 1,2 38,-7.0000001 1,-2 L 40,13 z"
           id="path3826"
           style="fill:url(#linearGradient4116-3);fill-opacity:1;stroke:none;display:inline" />
        <path
           d="M 77.0625,23.4375 75,23.78125 75,57.75 c 0.722607,0.272294 1.402627,0.590247 2,1 L 77,25 c 0,-0.579491 0.03663,-1.080328 0.0625,-1.5625 z"
           id="path3841"
           style="fill:url(#radialGradient4118-8);fill-opacity:1;stroke:none;display:inline" />
        <path
           d="M 46,29 43,29.53125 43,75.25 C 44.916539,73.443002 46.027571,71.207324 45.96875,69 L 46,69 46,29 z"
           id="path3870"
           style="fill:url(#radialGradient4120-7);fill-opacity:1;stroke:none;display:inline" />
        <path
           d="m 51,65 a 11,8 0 1 1 -22,0 11,8 0 1 1 22,0 z"
           transform="matrix(0.9673215,-0.30953355,0.34730992,0.97323843,-26.26801,19.620844)"
           id="path3906"
           style="color:#000000;fill:url(#radialGradient4122-4);fill-opacity:1;fill-rule:nonzero;stroke:none;stroke-width:1.5;marker:none;visibility:visible;display:inline;overflow:visible;enable-background:accumulate" />
        <path
           d="m 36.59375,62 c -1.413615,0.01337 -2.905848,0.248636 -4.375,0.71875 -5.876605,1.880457 -9.378261,6.887462 -7.843749,11.1875 1.534512,4.300038 7.529643,6.255457 13.406249,4.375 5.876606,-1.880457 9.378262,-6.887462 7.84375,-11.1875 C 44.474116,63.868722 40.834595,61.959906 36.59375,62 z m 0.09375,1.84375 c 1.225586,-0.01097 2.347709,0.174813 3.34375,0.5 1.992081,0.650375 3.312347,1.823394 3.84375,3.3125 0.531403,1.489106 0.260889,3.182456 -0.90625,4.84375 -1.167139,1.661294 -3.221645,3.202202 -5.8125,4.03125 -2.590855,0.829048 -5.195419,0.775375 -7.187499,0.125 -1.992081,-0.650375 -3.312347,-1.823394 -3.84375,-3.3125 -0.531403,-1.489106 -0.260889,-3.182456 0.90625,-4.84375 1.167139,-1.661294 3.221645,-3.202202 5.812499,-4.03125 1.295427,-0.414524 2.618164,-0.614034 3.84375,-0.625 z"
           id="path3927"
           style="opacity:0.2;color:#000000;fill:url(#linearGradient4124-9);fill-opacity:1;fill-rule:nonzero;stroke:none;stroke-width:1.5;marker:none;visibility:visible;display:inline;overflow:visible;enable-background:accumulate" />
        <path
           d="m 36.59375,62 c -1.413615,0.01337 -2.905848,0.248636 -4.375,0.71875 -5.876605,1.880457 -9.378261,6.887462 -7.843749,11.1875 1.534512,4.300038 7.529643,6.255457 13.406249,4.375 5.876606,-1.880457 9.378262,-6.887462 7.84375,-11.1875 C 44.474116,63.868722 40.834595,61.959906 36.59375,62 z m 0.03125,1.03125 c 1.308148,-0.01099 2.561427,0.173812 3.65625,0.53125 2.189647,0.714875 3.768044,2.055356 4.40625,3.84375 0.638206,1.788394 0.220391,3.767696 -1.0625,5.59375 -1.282891,1.826054 -3.439308,3.433105 -6.1875,4.3125 -2.748192,0.879395 -5.529103,0.839875 -7.718749,0.125 -2.189647,-0.714875 -3.768044,-2.055356 -4.40625,-3.84375 -0.638206,-1.788394 -0.220391,-3.767696 1.0625,-5.59375 1.282891,-1.826054 3.439308,-3.433105 6.187499,-4.3125 1.374096,-0.439698 2.754352,-0.645258 4.0625,-0.65625 z"
           id="path3920"
           style="opacity:0.5;color:#000000;fill:url(#linearGradient4126-0);fill-opacity:1;fill-rule:nonzero;stroke:none;stroke-width:1.5;marker:none;visibility:visible;display:inline;overflow:visible;enable-background:accumulate" />
        <path
           d="m 40,65 c 1.220869,2.476881 -1.444191,5.171368 -5.407201,7.124758 -3.963009,1.95339 -7.723257,2.425975 -8.944126,-0.05091 -1.220869,-2.476881 1.002075,-6.068326 4.965085,-8.021716 3.963009,-1.95339 8.165373,-1.529017 9.386242,0.947864 z"
           id="path3891"
           style="color:#000000;fill:url(#linearGradient4128-4);fill-opacity:1;fill-rule:nonzero;stroke:none;stroke-width:1.5;marker:none;visibility:visible;display:inline;overflow:visible;enable-background:accumulate" />
        <path
           d="m 51,65 a 11,8 0 1 1 -22,0 11,8 0 1 1 22,0 z"
           transform="matrix(0.9673215,-0.30953355,0.34730992,0.97323843,7.7319904,14.620844)"
           id="path3966"
           style="color:#000000;fill:url(#radialGradient4130-7);fill-opacity:1;fill-rule:nonzero;stroke:none;stroke-width:1.5;marker:none;visibility:visible;display:inline;overflow:visible;enable-background:accumulate" />
        <path
           d="m 70.59375,57 c -1.413615,0.01337 -2.905848,0.248636 -4.375,0.71875 -5.876606,1.880457 -9.378262,6.887462 -7.84375,11.1875 1.534512,4.300038 7.529644,6.255457 13.40625,4.375 5.876606,-1.880457 9.378262,-6.887462 7.84375,-11.1875 C 78.474116,58.868722 74.834595,56.959906 70.59375,57 z m 0.09375,1.84375 c 1.225586,-0.01097 2.347709,0.174813 3.34375,0.5 1.992081,0.650375 3.312347,1.823394 3.84375,3.3125 0.531403,1.489106 0.260889,3.182456 -0.90625,4.84375 -1.167139,1.661294 -3.221645,3.202202 -5.8125,4.03125 -2.590855,0.829048 -5.195419,0.775375 -7.1875,0.125 -1.992081,-0.650375 -3.312347,-1.823394 -3.84375,-3.3125 -0.531403,-1.489106 -0.260889,-3.182456 0.90625,-4.84375 1.167139,-1.661294 3.221645,-3.202202 5.8125,-4.03125 1.295427,-0.414524 2.618164,-0.614034 3.84375,-0.625 z"
           id="path3968"
           style="opacity:0.2;color:#000000;fill:url(#linearGradient4132-0);fill-opacity:1;fill-rule:nonzero;stroke:none;stroke-width:1.5;marker:none;visibility:visible;display:inline;overflow:visible;enable-background:accumulate" />
        <path
           d="m 70.59375,57 c -1.413615,0.01337 -2.905848,0.248636 -4.375,0.71875 -5.876606,1.880457 -9.378262,6.887462 -7.84375,11.1875 1.534512,4.300038 7.529644,6.255457 13.40625,4.375 5.876606,-1.880457 9.378262,-6.887462 7.84375,-11.1875 C 78.474116,58.868722 74.834595,56.959906 70.59375,57 z m 0.03125,1.03125 c 1.308148,-0.01099 2.561427,0.173812 3.65625,0.53125 2.189647,0.714875 3.768044,2.055356 4.40625,3.84375 0.638206,1.788394 0.220391,3.767696 -1.0625,5.59375 -1.282891,1.826054 -3.439308,3.433105 -6.1875,4.3125 -2.748192,0.879395 -5.529103,0.839875 -7.71875,0.125 C 61.529103,71.722625 59.950706,70.382144 59.3125,68.59375 58.674294,66.805356 59.092109,64.826054 60.375,63 c 1.282891,-1.826054 3.439308,-3.433105 6.1875,-4.3125 1.374096,-0.439698 2.754352,-0.645258 4.0625,-0.65625 z"
           id="path3970"
           style="opacity:0.5;color:#000000;fill:url(#linearGradient4134-5);fill-opacity:1;fill-rule:nonzero;stroke:none;stroke-width:1.5;marker:none;visibility:visible;display:inline;overflow:visible;enable-background:accumulate" />
        <path
           d="m 74,60 c 1.220869,2.476881 -1.444191,5.171368 -5.407201,7.124758 -3.96301,1.95339 -7.723258,2.425975 -8.944127,-0.05091 -1.220869,-2.476881 1.002075,-6.068326 4.965085,-8.021716 3.96301,-1.95339 8.165374,-1.529017 9.386243,0.947864 z"
           id="path3972"
           style="color:#000000;fill:url(#linearGradient4136-8);fill-opacity:1;fill-rule:nonzero;stroke:none;stroke-width:1.5;marker:none;visibility:visible;display:inline;overflow:visible;enable-background:accumulate" />
      </g>
    </g>
  </g>
</svg>
