<?xml version="1.0" encoding="UTF-8" standalone="no"?>
<!-- Created with Inkscape (http://www.inkscape.org/) -->

<svg
   xmlns:svg="http://www.w3.org/2000/svg"
   xmlns="http://www.w3.org/2000/svg"
   xmlns:xlink="http://www.w3.org/1999/xlink"
   version="1.1"
   width="128"
   height="128"
   id="svg2816">
  <defs
     id="defs2818">
    <linearGradient
       id="linearGradient3899">
      <stop
         id="stop3901"
         style="stop-color:#000000;stop-opacity:1"
         offset="0" />
      <stop
         id="stop3903"
         style="stop-color:#000000;stop-opacity:0"
         offset="1" />
    </linearGradient>
    <linearGradient
       id="linearGradient3652">
      <stop
         id="stop3654"
         style="stop-color:#000000;stop-opacity:0.21531101"
         offset="0" />
      <stop
         id="stop3656"
         style="stop-color:#ffffff;stop-opacity:1"
         offset="1" />
    </linearGradient>
    <linearGradient
       id="linearGradient3636">
      <stop
         id="stop3638"
         style="stop-color:#3988c5;stop-opacity:1"
         offset="0" />
      <stop
         id="stop3644"
         style="stop-color:#347cb4;stop-opacity:1"
         offset="0.5" />
      <stop
         id="stop3640"
         style="stop-color:#2a628d;stop-opacity:1"
         offset="1" />
    </linearGradient>
    <linearGradient
       id="linearGradient3758">
      <stop
         id="stop3760"
         style="stop-color:#333333;stop-opacity:1"
         offset="0" />
      <stop
         id="stop3762"
         style="stop-color:#333333;stop-opacity:0"
         offset="1" />
    </linearGradient>
    <linearGradient
       id="linearGradient3736">
      <stop
         id="stop3738"
         style="stop-color:#ffffff;stop-opacity:0"
         offset="0" />
      <stop
         id="stop3740"
         style="stop-color:#333333;stop-opacity:0.72791517"
         offset="1" />
    </linearGradient>
    <linearGradient
       id="linearGradient3708">
      <stop
         id="stop3712"
         style="stop-color:#ffffff;stop-opacity:0"
         offset="0" />
      <stop
         id="stop3714"
         style="stop-color:#333333;stop-opacity:1"
         offset="1" />
    </linearGradient>
    <linearGradient
       id="linearGradient3694">
      <stop
         id="stop3696"
         style="stop-color:#ffffff;stop-opacity:1"
         offset="0" />
      <stop
         id="stop3700"
         style="stop-color:#ffffff;stop-opacity:0.67464113"
         offset="0.5" />
      <stop
         id="stop3698"
         style="stop-color:#ffffff;stop-opacity:0"
         offset="1" />
    </linearGradient>
    <linearGradient
       id="linearGradient3649">
      <stop
         id="stop3651"
         style="stop-color:#c9c9c9;stop-opacity:1"
         offset="0" />
      <stop
         id="stop3653"
         style="stop-color:#f0f0f0;stop-opacity:1"
         offset="1" />
    </linearGradient>
    <linearGradient
       id="linearGradient3631">
      <stop
         id="stop3633"
         style="stop-color:#dddddd;stop-opacity:0.62190813"
         offset="0" />
      <stop
         id="stop3635"
         style="stop-color:#ffffff;stop-opacity:1"
         offset="1" />
    </linearGradient>
    <linearGradient
       x1="102"
       y1="14"
       x2="92"
       y2="24"
       id="linearGradient3637"
       xlink:href="#linearGradient3649"
       gradientUnits="userSpaceOnUse"
       gradientTransform="matrix(1.4444444,0,0,1.4444444,-48.888889,294.33333)" />
    <filter
       color-interpolation-filters="sRGB"
       id="filter3676">
      <feGaussianBlur
         stdDeviation="0.36000001"
         id="feGaussianBlur3678" />
    </filter>
    <filter
       color-interpolation-filters="sRGB"
       id="filter3610">
      <feGaussianBlur
         stdDeviation="1.56"
         id="feGaussianBlur3612" />
    </filter>
    <linearGradient
       x1="56.65461"
       y1="5.5"
       x2="56.65461"
       y2="122.50977"
       id="linearGradient3692"
       xlink:href="#linearGradient3694"
       gradientUnits="userSpaceOnUse"
       gradientTransform="matrix(0.98252641,0,0,0.9921278,0.77111153,297.96672)" />
    <filter
       color-interpolation-filters="sRGB"
       id="filter3702">
      <feGaussianBlur
         stdDeviation="0.51369811"
         id="feGaussianBlur3704" />
    </filter>
    <linearGradient
       x1="64"
       y1="122.5"
       x2="64"
       y2="93.860451"
       id="linearGradient3748"
       xlink:href="#linearGradient3758"
       gradientUnits="userSpaceOnUse" />
    <linearGradient
       x1="56.65461"
       y1="5.5"
       x2="56.65461"
       y2="122.50977"
       id="linearGradient3776"
       xlink:href="#linearGradient3694"
       gradientUnits="userSpaceOnUse"
       gradientTransform="matrix(0.98252641,0,0,0.9921278,0.77111153,297.96672)" />
    <filter
       color-interpolation-filters="sRGB"
       id="filter3778">
      <feGaussianBlur
         stdDeviation="0.51837461"
         id="feGaussianBlur3780" />
    </filter>
    <filter
       color-interpolation-filters="sRGB"
       id="filter3782">
      <feGaussianBlur
         stdDeviation="1.0410113"
         id="feGaussianBlur3784" />
    </filter>
    <linearGradient
       x1="64"
       y1="122"
       x2="64"
       y2="76.36528"
       id="linearGradient3794"
       xlink:href="#linearGradient3631"
       gradientUnits="userSpaceOnUse" />
    <linearGradient
       x1="56.65461"
       y1="5.5"
       x2="56.65461"
       y2="122.50977"
       id="linearGradient3805"
       xlink:href="#linearGradient3694"
       gradientUnits="userSpaceOnUse"
       gradientTransform="matrix(0.98252641,0,0,0.9921278,0.77111153,297.96672)" />
    <linearGradient
       x1="56.65461"
       y1="5.5"
       x2="56.65461"
       y2="122.50977"
       id="linearGradient3807"
       xlink:href="#linearGradient3694"
       gradientUnits="userSpaceOnUse"
       gradientTransform="matrix(0.98252641,0,0,0.9921278,0.77111153,297.96672)" />
    <linearGradient
       x1="102"
       y1="14"
       x2="92"
       y2="24"
       id="linearGradient3809"
       xlink:href="#linearGradient3649"
       gradientUnits="userSpaceOnUse"
       gradientTransform="matrix(1.4444444,0,0,1.4444444,-48.888889,294.33333)" />
    <linearGradient
       x1="64"
       y1="122.5"
       x2="64"
       y2="93.860451"
       id="linearGradient3811"
       xlink:href="#linearGradient3758"
       gradientUnits="userSpaceOnUse" />
    <filter
       color-interpolation-filters="sRGB"
       id="filter3728">
      <feGaussianBlur
         stdDeviation="0.57810125"
         id="feGaussianBlur3730" />
    </filter>
    <linearGradient
       x1="42"
       y1="36"
       x2="42"
       y2="10"
       id="linearGradient3685"
       xlink:href="#linearGradient3687"
       gradientUnits="userSpaceOnUse" />
    <linearGradient
       id="linearGradient3687">
      <stop
         id="stop3689"
         style="stop-color:#1a3a74;stop-opacity:1"
         offset="0" />
      <stop
         id="stop3691"
         style="stop-color:#235bc3;stop-opacity:1"
         offset="1" />
    </linearGradient>
    <linearGradient
       x1="42"
       y1="36"
       x2="42"
       y2="10"
       id="linearGradient2888"
       xlink:href="#linearGradient3687"
       gradientUnits="userSpaceOnUse" />
    <linearGradient
       id="linearGradient2926">
      <stop
         id="stop2928"
         style="stop-color:#1a3a74;stop-opacity:1"
         offset="0" />
      <stop
         id="stop2930"
         style="stop-color:#235bc3;stop-opacity:1"
         offset="1" />
    </linearGradient>
    <linearGradient
       x1="42"
       y1="36"
       x2="42"
       y2="10"
       id="linearGradient2890"
       xlink:href="#linearGradient3687"
       gradientUnits="userSpaceOnUse" />
    <linearGradient
       id="linearGradient2933">
      <stop
         id="stop2935"
         style="stop-color:#1a3a74;stop-opacity:1"
         offset="0" />
      <stop
         id="stop2937"
         style="stop-color:#235bc3;stop-opacity:1"
         offset="1" />
    </linearGradient>
    <linearGradient
       x1="42"
       y1="36"
       x2="42"
       y2="10"
       id="linearGradient2942"
       xlink:href="#linearGradient3687"
       gradientUnits="userSpaceOnUse" />
    <linearGradient
       id="linearGradient3039">
      <stop
         id="stop3041"
         style="stop-color:#ff5f12;stop-opacity:1"
         offset="0" />
      <stop
         id="stop3043"
         style="stop-color:#ff8926;stop-opacity:1"
         offset="1" />
    </linearGradient>
    <linearGradient
       id="linearGradient4637">
      <stop
         id="stop4639"
         style="stop-color:#ff5f12;stop-opacity:1"
         offset="0" />
      <stop
         id="stop4641"
         style="stop-color:#ff8926;stop-opacity:1"
         offset="1" />
    </linearGradient>
    <linearGradient
       id="linearGradient4333">
      <stop
         id="stop4335"
         style="stop-color:#b9b9b9;stop-opacity:1"
         offset="0" />
      <stop
         id="stop4337"
         style="stop-color:#efefef;stop-opacity:1"
         offset="1" />
    </linearGradient>
    <linearGradient
       id="linearGradient2997-2">
      <stop
         id="stop5315-6"
         style="stop-color:#0590ff;stop-opacity:1"
         offset="0" />
      <stop
         id="stop3001-6"
         style="stop-color:#c6e6ff;stop-opacity:1"
         offset="1" />
    </linearGradient>
    <linearGradient
       x1="56"
       y1="32"
       x2="56"
       y2="88.117546"
       id="linearGradient4423"
       xlink:href="#linearGradient15967-6"
       gradientUnits="userSpaceOnUse" />
    <linearGradient
       x1="28"
       y1="57.5"
       x2="28"
       y2="0"
       id="linearGradient15967-6"
       gradientUnits="userSpaceOnUse">
      <stop
         id="stop15969-1"
         style="stop-color:#ffffff;stop-opacity:1"
         offset="0" />
      <stop
         id="stop15971-0"
         style="stop-color:#ffffff;stop-opacity:0"
         offset="1" />
    </linearGradient>
    <clipPath
       id="clipPath3182-6">
      <path
         d="M 18.1875,56 C 16.967826,56 16,56.967827 16,58.1875 L 16,75.25 C 25.640301,77.646967 36.509296,79 48,79 59.490704,79 70.359699,77.646967 80,75.25 L 80,58.1875 C 80,56.967826 79.032173,56 77.8125,56 l -59.625,0 z"
         id="path3184-1"
         style="fill:url(#linearGradient3186);fill-opacity:1;stroke:none;filter:url(#filter3176-5)" />
    </clipPath>
    <filter
       x="-0.053000905"
       y="-0.14748077"
       width="1.1060019"
       height="1.2949615"
       color-interpolation-filters="sRGB"
       id="filter3176-5">
      <feGaussianBlur
         id="feGaussianBlur3178-9"
         stdDeviation="1.4133574" />
    </filter>
    <linearGradient
       id="linearGradient4672">
      <stop
         id="stop4674"
         style="stop-color:#b9b9b9;stop-opacity:1"
         offset="0" />
      <stop
         id="stop4676"
         style="stop-color:#efefef;stop-opacity:1"
         offset="1" />
    </linearGradient>
    <linearGradient
       id="linearGradient4679">
      <stop
         id="stop4681"
         style="stop-color:#0590ff;stop-opacity:1"
         offset="0" />
      <stop
         id="stop4683"
         style="stop-color:#c6e6ff;stop-opacity:1"
         offset="1" />
    </linearGradient>
    <linearGradient
       x1="56"
       y1="32"
       x2="56"
       y2="88.117546"
       id="linearGradient4431"
       xlink:href="#linearGradient15967-6"
       gradientUnits="userSpaceOnUse" />
    <linearGradient
       x1="28"
       y1="57.5"
       x2="28"
       y2="0"
       id="linearGradient4697"
       gradientUnits="userSpaceOnUse">
      <stop
         id="stop4699"
         style="stop-color:#ffffff;stop-opacity:1"
         offset="0" />
      <stop
         id="stop4701"
         style="stop-color:#ffffff;stop-opacity:0"
         offset="1" />
    </linearGradient>
    <clipPath
       id="clipPath4703">
      <path
         d="M 18.1875,56 C 16.967826,56 16,56.967827 16,58.1875 L 16,75.25 C 25.640301,77.646967 36.509296,79 48,79 59.490704,79 70.359699,77.646967 80,75.25 L 80,58.1875 C 80,56.967826 79.032173,56 77.8125,56 l -59.625,0 z"
         id="path4705"
         style="fill:url(#linearGradient3186);fill-opacity:1;stroke:none;filter:url(#filter3176-5)" />
    </clipPath>
    <linearGradient
       id="linearGradient2902">
      <stop
         id="stop2904"
         style="stop-color:#778aa6;stop-opacity:1"
         offset="0" />
      <stop
         id="stop2906"
         style="stop-color:#a0afc5;stop-opacity:1"
         offset="1" />
    </linearGradient>
    <linearGradient
       id="linearGradient5873">
      <stop
         id="stop5875"
         style="stop-color:#778aa6;stop-opacity:1"
         offset="0" />
      <stop
         id="stop5877"
         style="stop-color:#a0afc5;stop-opacity:1"
         offset="1" />
    </linearGradient>
    <linearGradient
       id="linearGradient3742">
      <stop
         id="stop3744"
         style="stop-color:#778aa6;stop-opacity:1"
         offset="0" />
      <stop
         id="stop3746"
         style="stop-color:#a0afc5;stop-opacity:1"
         offset="1" />
    </linearGradient>
    <linearGradient
       id="linearGradient5884">
      <stop
         id="stop5886"
         style="stop-color:#778aa6;stop-opacity:1"
         offset="0" />
      <stop
         id="stop5888"
         style="stop-color:#a0afc5;stop-opacity:1"
         offset="1" />
    </linearGradient>
    <linearGradient
       x1="62"
       y1="413"
       x2="62"
       y2="419"
       id="linearGradient3388"
       xlink:href="#linearGradient3636"
       gradientUnits="userSpaceOnUse" />
    <linearGradient
       x1="102"
       y1="14"
       x2="92"
       y2="24"
       id="linearGradient3393"
       xlink:href="#linearGradient3649"
       gradientUnits="userSpaceOnUse"
       gradientTransform="matrix(1.4444444,0,0,1.4444444,-48.888889,294.33333)" />
    <linearGradient
       x1="43.700191"
       y1="82.473648"
       x2="77.923637"
       y2="16.211916"
       id="linearGradient2925"
       xlink:href="#linearGradient11508"
       gradientUnits="userSpaceOnUse"
       gradientTransform="matrix(1.0642506,0.22253363,-0.33932139,0.69795647,25.389673,15.671146)" />
    <linearGradient
       id="linearGradient11508">
      <stop
         id="stop11510"
         style="stop-color:#000000;stop-opacity:1"
         offset="0" />
      <stop
         id="stop11512"
         style="stop-color:#000000;stop-opacity:0"
         offset="1" />
    </linearGradient>
    <linearGradient
       x1="43.700191"
       y1="82.473648"
       x2="87.732079"
       y2="6.208179"
       id="linearGradient2927"
       xlink:href="#linearGradient11508"
       gradientUnits="userSpaceOnUse"
       gradientTransform="matrix(1.037083,0.14898509,-0.15896024,0.97200342,11.601829,-3.9991775)" />
    <linearGradient
       id="linearGradient6827">
      <stop
         id="stop6829"
         style="stop-color:#000000;stop-opacity:1"
         offset="0" />
      <stop
         id="stop6831"
         style="stop-color:#000000;stop-opacity:0"
         offset="1" />
    </linearGradient>
    <linearGradient
       x1="60.899021"
       y1="35.60585"
       x2="68.2229"
       y2="39.53442"
       id="linearGradient2929"
       xlink:href="#linearGradient10394"
       gradientUnits="userSpaceOnUse" />
    <linearGradient
       id="linearGradient10394">
      <stop
         id="stop10396"
         style="stop-color:#333333;stop-opacity:1"
         offset="0" />
      <stop
         id="stop10404"
         style="stop-color:#636363;stop-opacity:1"
         offset="0.28225806" />
      <stop
         id="stop10402"
         style="stop-color:#c7c7c7;stop-opacity:1"
         offset="0.5" />
      <stop
         id="stop10406"
         style="stop-color:#636363;stop-opacity:1"
         offset="0.77999997" />
      <stop
         id="stop10398"
         style="stop-color:#333333;stop-opacity:1"
         offset="1" />
    </linearGradient>
    <linearGradient
       x1="24.248737"
       y1="77.502068"
       x2="13.405647"
       y2="67.6745"
       id="linearGradient2931"
       xlink:href="#linearGradient6531"
       gradientUnits="userSpaceOnUse"
       gradientTransform="matrix(0.72549189,-0.19431313,0.19481343,0.72674756,26.254071,18.267752)" />
    <linearGradient
       id="linearGradient6531">
      <stop
         id="stop6533"
         style="stop-color:#c38125;stop-opacity:1"
         offset="0" />
      <stop
         id="stop10377"
         style="stop-color:#c68d31;stop-opacity:1"
         offset="0.62962961" />
      <stop
         id="stop6535"
         style="stop-color:#fffce6;stop-opacity:1"
         offset="1" />
    </linearGradient>
    <linearGradient
       x1="58.651787"
       y1="68.171875"
       x2="47.450871"
       y2="57.993305"
       id="linearGradient2933-1"
       xlink:href="#linearGradient10386"
       gradientUnits="userSpaceOnUse" />
    <linearGradient
       id="linearGradient10386">
      <stop
         id="stop10388"
         style="stop-color:#ffffff;stop-opacity:1"
         offset="0" />
      <stop
         id="stop10390"
         style="stop-color:#ffffff;stop-opacity:0"
         offset="1" />
    </linearGradient>
    <radialGradient
       cx="59.85154"
       cy="41.7043"
       r="18.182745"
       fx="59.85154"
       fy="41.7043"
       id="radialGradient2935"
       xlink:href="#linearGradient10410"
       gradientUnits="userSpaceOnUse"
       gradientTransform="matrix(1,0,0,0.125,0,36.491262)" />
    <linearGradient
       id="linearGradient10410">
      <stop
         id="stop10412"
         style="stop-color:#ffffff;stop-opacity:1"
         offset="0" />
      <stop
         id="stop10414"
         style="stop-color:#ffffff;stop-opacity:0"
         offset="1" />
    </linearGradient>
    <linearGradient
       x1="39.479939"
       y1="81.5"
       x2="39.479939"
       y2="6.2799916"
       id="linearGradient3012"
       xlink:href="#linearGradient3715"
       gradientUnits="userSpaceOnUse"
       gradientTransform="translate(0.75761471,1.7677667)" />
    <linearGradient
       id="linearGradient3715">
      <stop
         id="stop3717-0"
         style="stop-color:#3767a3;stop-opacity:1"
         offset="0" />
      <stop
         id="stop3719-9"
         style="stop-color:#6593c6;stop-opacity:0"
         offset="1" />
    </linearGradient>
    <linearGradient
       x1="39.479939"
       y1="81.5"
       x2="39.479939"
       y2="6.2799916"
       id="linearGradient6869"
       xlink:href="#linearGradient3715"
       gradientUnits="userSpaceOnUse"
       gradientTransform="translate(0.75761471,1.7677667)" />
    <filter
       x="-0.031298906"
       y="-0.55555552"
       width="1.0625978"
       height="2.1111112"
       color-interpolation-filters="sRGB"
       id="filter4428">
      <feGaussianBlur
         id="feGaussianBlur4430"
         stdDeviation="0.81841061" />
    </filter>
    <radialGradient
       cx="7.5"
       cy="8.3301001"
       r="126.4133"
       id="radialGradient2980"
       xlink:href="#XMLID_15_"
       gradientUnits="userSpaceOnUse" />
    <radialGradient
       cx="7.5"
       cy="8.3301001"
       r="126.4133"
       id="XMLID_15_"
       gradientUnits="userSpaceOnUse">
      <stop
         id="stop4"
         style="stop-color:#dbc298;stop-opacity:1"
         offset="0.27219999" />
      <stop
         id="stop6"
         style="stop-color:#c7b08a;stop-opacity:1"
         offset="0.45449999" />
      <stop
         id="stop8"
         style="stop-color:#b99c6f;stop-opacity:1"
         offset="0.71829998" />
      <stop
         id="stop10"
         style="stop-color:#b09469;stop-opacity:1"
         offset="0.88169998" />
      <stop
         id="stop12"
         style="stop-color:#a48a5f;stop-opacity:1"
         offset="1" />
    </radialGradient>
    <linearGradient
       x1="0.25"
       y1="13.2949"
       x2="104.25"
       y2="13.2949"
       id="linearGradient2982"
       xlink:href="#XMLID_17_"
       gradientUnits="userSpaceOnUse"
       gradientTransform="matrix(0.6153846,0,0,0.61168688,188.73427,26.460572)" />
    <linearGradient
       x1="0.25"
       y1="13.2949"
       x2="104.25"
       y2="13.2949"
       id="XMLID_17_"
       gradientUnits="userSpaceOnUse">
      <stop
         id="stop28"
         style="stop-color:#8f6b32;stop-opacity:1"
         offset="0" />
      <stop
         id="stop30"
         style="stop-color:#3e2e15;stop-opacity:1"
         offset="0.5" />
      <stop
         id="stop32"
         style="stop-color:#8f6b32;stop-opacity:1"
         offset="1" />
    </linearGradient>
    <linearGradient
       x1="45.35817"
       y1="9.0646334"
       x2="45.35817"
       y2="25.815258"
       id="linearGradient2984"
       xlink:href="#linearGradient3329"
       gradientUnits="userSpaceOnUse"
       gradientTransform="matrix(0.6153846,0,0,0.61168688,188.73427,26.460572)" />
    <linearGradient
       id="linearGradient3329">
      <stop
         id="stop3331"
         style="stop-color:#000000;stop-opacity:1"
         offset="0" />
      <stop
         id="stop3333"
         style="stop-color:#000000;stop-opacity:0"
         offset="1" />
    </linearGradient>
    <linearGradient
       x1="63.573593"
       y1="16.737045"
       x2="59.166992"
       y2="24.58"
       id="linearGradient2986-2"
       xlink:href="#linearGradient6524"
       gradientUnits="userSpaceOnUse"
       gradientTransform="matrix(0.6153846,0,0,0.61168688,188.73427,26.460572)" />
    <linearGradient
       id="linearGradient6524">
      <stop
         id="stop6526"
         style="stop-color:#000000;stop-opacity:1"
         offset="0" />
      <stop
         id="stop6528"
         style="stop-color:#000000;stop-opacity:0"
         offset="1" />
    </linearGradient>
    <linearGradient
       x1="90.625519"
       y1="3.1541069"
       x2="62.901402"
       y2="21.1523"
       id="linearGradient2988"
       xlink:href="#linearGradient6534"
       gradientUnits="userSpaceOnUse"
       gradientTransform="matrix(0.6153846,0,0,0.61168688,188.73427,26.460572)" />
    <linearGradient
       x1="91.572304"
       y1="4.5991001"
       x2="62.901402"
       y2="21.1523"
       id="linearGradient6534"
       gradientUnits="userSpaceOnUse">
      <stop
         id="stop6536"
         style="stop-color:#ad9c80;stop-opacity:1"
         offset="0.0118" />
      <stop
         id="stop6538"
         style="stop-color:#ffe6bc;stop-opacity:1"
         offset="0.02147562" />
      <stop
         id="stop6540"
         style="stop-color:#c4b091;stop-opacity:1"
         offset="0.06798933" />
      <stop
         id="stop6542"
         style="stop-color:#dec8a4;stop-opacity:1"
         offset="0.11206073" />
      <stop
         id="stop6544"
         style="stop-color:#b39e7c;stop-opacity:1"
         offset="1" />
    </linearGradient>
    <linearGradient
       x1="13.051652"
       y1="2.4199617"
       x2="50.6035"
       y2="26.3501"
       id="linearGradient2990"
       xlink:href="#linearGradient6548"
       gradientUnits="userSpaceOnUse"
       gradientTransform="matrix(0.6153846,0,0,0.61168688,188.73427,26.460572)" />
    <linearGradient
       x1="12.0713"
       y1="4.1034999"
       x2="50.6035"
       y2="26.3501"
       id="linearGradient6548"
       gradientUnits="userSpaceOnUse">
      <stop
         id="stop6550"
         style="stop-color:#ad9c80;stop-opacity:1"
         offset="0.0118" />
      <stop
         id="stop6552"
         style="stop-color:#ffe6bc;stop-opacity:1"
         offset="0.04393823" />
      <stop
         id="stop6554"
         style="stop-color:#c4b091;stop-opacity:1"
         offset="0.07207061" />
      <stop
         id="stop6556"
         style="stop-color:#dec8a4;stop-opacity:1"
         offset="0.1025845" />
      <stop
         id="stop6558"
         style="stop-color:#b39e7c;stop-opacity:1"
         offset="1" />
    </linearGradient>
    <linearGradient
       x1="101.3027"
       y1="60.659199"
       x2="102.3008"
       y2="60.714802"
       id="linearGradient2992"
       xlink:href="#XMLID_23_"
       gradientUnits="userSpaceOnUse"
       gradientTransform="matrix(0.6153846,0,0,0.61168688,188.73427,26.460572)" />
    <linearGradient
       x1="101.3027"
       y1="60.659199"
       x2="102.3008"
       y2="60.714802"
       id="XMLID_23_"
       gradientUnits="userSpaceOnUse">
      <stop
         id="stop144"
         style="stop-color:#544c3e;stop-opacity:1"
         offset="0" />
      <stop
         id="stop146"
         style="stop-color:#b39e7c;stop-opacity:1"
         offset="1" />
    </linearGradient>
    <linearGradient
       x1="103.8984"
       y1="60.580101"
       x2="103.3984"
       y2="60.580101"
       id="linearGradient2994"
       xlink:href="#XMLID_24_"
       gradientUnits="userSpaceOnUse"
       gradientTransform="matrix(0.6153846,0,0,0.61168688,188.73427,26.460572)" />
    <linearGradient
       x1="103.8984"
       y1="60.580101"
       x2="103.3984"
       y2="60.580101"
       id="XMLID_24_"
       gradientUnits="userSpaceOnUse">
      <stop
         id="stop151"
         style="stop-color:#544c3e;stop-opacity:1"
         offset="0" />
      <stop
         id="stop153"
         style="stop-color:#50483b;stop-opacity:1"
         offset="0.21619999" />
      <stop
         id="stop155"
         style="stop-color:#443d32;stop-opacity:1"
         offset="0.43560001" />
      <stop
         id="stop157"
         style="stop-color:#2f2b23;stop-opacity:1"
         offset="0.65670002" />
      <stop
         id="stop159"
         style="stop-color:#13110e;stop-opacity:1"
         offset="0.8775" />
      <stop
         id="stop161"
         style="stop-color:#000000;stop-opacity:1"
         offset="1" />
    </linearGradient>
    <filter
       x="-0.12374716"
       y="-0.0078790402"
       width="1.2474943"
       height="1.0157582"
       color-interpolation-filters="sRGB"
       id="filter6125">
      <feGaussianBlur
         id="feGaussianBlur6127"
         stdDeviation="0.13253641" />
    </filter>
    <linearGradient
       x1="2.1997001"
       y1="60.715801"
       x2="3.198"
       y2="60.660099"
       id="linearGradient2996"
       xlink:href="#XMLID_25_"
       gradientUnits="userSpaceOnUse"
       gradientTransform="matrix(0.6153846,0,0,0.61168688,188.73427,26.460572)" />
    <linearGradient
       x1="2.1997001"
       y1="60.715801"
       x2="3.198"
       y2="60.660099"
       id="XMLID_25_"
       gradientUnits="userSpaceOnUse">
      <stop
         id="stop168"
         style="stop-color:#b39e7c;stop-opacity:1"
         offset="0" />
      <stop
         id="stop170"
         style="stop-color:#544c3e;stop-opacity:1"
         offset="1" />
    </linearGradient>
    <linearGradient
       x1="0.60159999"
       y1="60.580101"
       x2="1.1021"
       y2="60.580101"
       id="linearGradient2998"
       xlink:href="#XMLID_26_"
       gradientUnits="userSpaceOnUse"
       gradientTransform="matrix(0.6153846,0,0,0.61168688,188.73427,26.460572)" />
    <linearGradient
       x1="0.60159999"
       y1="60.580101"
       x2="1.1021"
       y2="60.580101"
       id="XMLID_26_"
       gradientUnits="userSpaceOnUse">
      <stop
         id="stop175"
         style="stop-color:#544c3e;stop-opacity:1"
         offset="0" />
      <stop
         id="stop177"
         style="stop-color:#000000;stop-opacity:1"
         offset="1" />
    </linearGradient>
    <filter
       x="-0.12374712"
       y="-0.0078790411"
       width="1.2474942"
       height="1.0157582"
       color-interpolation-filters="sRGB"
       id="filter6133">
      <feGaussianBlur
         id="feGaussianBlur6135"
         stdDeviation="0.13253641" />
    </filter>
    <linearGradient
       x1="52.25"
       y1="97.514183"
       x2="52.25"
       y2="22.061335"
       id="linearGradient3000"
       xlink:href="#linearGradient4360"
       gradientUnits="userSpaceOnUse" />
    <linearGradient
       id="linearGradient4360">
      <stop
         id="stop4362"
         style="stop-color:#ffdfbf;stop-opacity:1"
         offset="0" />
      <stop
         id="stop4364"
         style="stop-color:#ffdfbf;stop-opacity:0"
         offset="1" />
    </linearGradient>
    <filter
       color-interpolation-filters="sRGB"
       id="filter6137">
      <feGaussianBlur
         id="feGaussianBlur6139"
         stdDeviation="0.72379785" />
    </filter>
    <linearGradient
       x1="53.408875"
       y1="50.796875"
       x2="73.5625"
       y2="43.8125"
       id="linearGradient3002"
       xlink:href="#linearGradient6524"
       gradientUnits="userSpaceOnUse"
       gradientTransform="matrix(1.2337277,0,0,1.2307692,141.85263,-22.770197)" />
    <linearGradient
       id="linearGradient8203">
      <stop
         id="stop8205"
         style="stop-color:#000000;stop-opacity:1"
         offset="0" />
      <stop
         id="stop8207"
         style="stop-color:#000000;stop-opacity:0"
         offset="1" />
    </linearGradient>
    <radialGradient
       cx="62.818913"
       cy="20.84005"
       r="16"
       fx="62.818913"
       fy="20.84005"
       id="radialGradient3004"
       xlink:href="#linearGradient6079"
       gradientUnits="userSpaceOnUse"
       gradientTransform="matrix(0.28270957,0,0,0.17905851,201.44752,18.614787)" />
    <linearGradient
       id="linearGradient6079">
      <stop
         id="stop6081"
         style="stop-color:#2e220f;stop-opacity:1"
         offset="0" />
      <stop
         id="stop6083"
         style="stop-color:#2e220f;stop-opacity:0"
         offset="1" />
    </linearGradient>
    <radialGradient
       cx="124.67217"
       cy="21.19462"
       r="16"
       fx="124.67217"
       fy="21.19462"
       id="radialGradient3006"
       xlink:href="#linearGradient6109"
       gradientUnits="userSpaceOnUse"
       gradientTransform="matrix(0.15342856,-0.01242961,0.03364988,0.41536714,199.75483,14.875106)" />
    <linearGradient
       id="linearGradient6109">
      <stop
         id="stop6111"
         style="stop-color:#fbe3b9;stop-opacity:1"
         offset="0" />
      <stop
         id="stop6113"
         style="stop-color:#fbe3b9;stop-opacity:0"
         offset="1" />
    </linearGradient>
    <linearGradient
       x1="62"
       y1="413"
       x2="62"
       y2="419"
       id="linearGradient3092"
       xlink:href="#linearGradient3636"
       gradientUnits="userSpaceOnUse"
       gradientTransform="translate(0,-297)" />
    <linearGradient
       x1="102"
       y1="14"
       x2="92"
       y2="24"
       id="linearGradient3097"
       xlink:href="#linearGradient3649"
       gradientUnits="userSpaceOnUse"
       gradientTransform="matrix(1.4444444,0,0,1.4444444,-48.888889,-2.66667)" />
    <linearGradient
       x1="76.666664"
       y1="78.757294"
       x2="76.666664"
       y2="71.244591"
       id="linearGradient3927"
       xlink:href="#linearGradient3652"
       gradientUnits="userSpaceOnUse"
       gradientTransform="matrix(1.5625,0,0,1.5625,-55.791666,-42.416669)" />
    <linearGradient
       x1="76.666664"
       y1="92.517052"
       x2="76.666664"
       y2="81.333336"
       id="linearGradient3930"
       xlink:href="#linearGradient3899"
       gradientUnits="userSpaceOnUse"
       gradientTransform="matrix(1.5648105,0,0,1.4633068,-55.968805,-33.988054)" />
  </defs>
  <path
     d="m 18,122 74,0 c 18,0 18,-18 18,-18 l 0,-72 C 110,32 84,6 84,6 L 36,6 C 36,6 18,6 18,24 l 0,98 z"
     id="path2832"
     style="opacity:0.9;fill:#000000;fill-opacity:1;stroke:none;filter:url(#filter3610)" />
  <path
     d="m 18,122 74,0 c 18,0 18,-18 18,-18 l 0,-72 C 110,32 84,6 84,6 L 36,6 C 36,6 18,6 18,24 l 0,98 z"
     id="path3627"
     style="fill:#e6e6e6;fill-opacity:1;stroke:none" />
  <path
     d="m 18.456586,419.00634 72.706957,0 c 17.685467,0 17.685467,-17.8583 17.685467,-17.8583 l 0.70844,-71.4332 c 0,0 -26.254119,-25.79532 -26.254119,-25.79532 l -49.050441,-0.2319 c 0,0 -16.504743,0.4638 -16.504743,18.3221 l 0.708439,96.99662 z"
     transform="matrix(0.98017447,0,0,0.99812248,1.4934147,-296.20561)"
     id="path3684"
     style="opacity:0.9;fill:none;stroke:url(#linearGradient3805);stroke-width:0.98750001;stroke-linecap:butt;stroke-linejoin:miter;stroke-miterlimit:4;stroke-opacity:1;stroke-dasharray:none;filter:url(#filter3778)" />
  <path
     d="m 18.456586,419.00634 72.706957,0 c 17.685467,0 17.685467,-17.8583 17.685467,-17.8583 l 0.70844,-71.4332 c 0,0 -26.254119,-25.79532 -26.254119,-25.79532 l -49.050441,-0.2319 c 0,0 -16.504743,0.4638 -16.504743,18.3221 l 0.708439,96.99662 z"
     transform="matrix(0.98017447,0,0,0.99812248,1.4934147,-296.20561)"
     id="path3766"
     style="fill:none;stroke:url(#linearGradient3807);stroke-width:0.98750001;stroke-linecap:butt;stroke-linejoin:miter;stroke-miterlimit:4;stroke-opacity:1;stroke-dasharray:none;filter:url(#filter3702)" />
  <path
     d="M 92.000003,6.0000025 92,24 l 18,3e-6"
     transform="matrix(1.4444444,0,0,1.4444444,-48.888889,-2.66667)"
     id="path3639"
     style="opacity:0.6;fill:none;stroke:#333333;stroke-width:1px;stroke-linecap:butt;stroke-linejoin:miter;stroke-opacity:1;filter:url(#filter3676)" />
  <path
     d="m 84,6 0,26 26,0 L 84,6 z"
     id="path3629"
     style="fill:url(#linearGradient3097);fill-opacity:1;stroke:none" />
  <path
     d="m 18,122 74,0 c 18,0 18,-18 18,-18 l 0,-72 C 110,32 84,6 84,6 L 36,6 C 36,6 18,6 18,24 l 0,98 z"
     transform="matrix(0.97617501,0,0,0.99219838,1.5247995,0.03637)"
     id="path3726"
     style="opacity:0.4;fill:none;stroke:url(#linearGradient3811);stroke-width:1px;stroke-linecap:butt;stroke-linejoin:miter;stroke-opacity:1;filter:url(#filter3782)" />
  <path
     d="m 18,122 c 0,-6 18,-6 18,-6 l 56,0 c 16.37975,-0.46293 17.38879,-17.30561 17.38879,-17.30561"
     id="path3722"
     style="opacity:0.8;fill:none;stroke:#333333;stroke-width:1px;stroke-linecap:butt;stroke-linejoin:miter;stroke-opacity:1;filter:url(#filter3728)" />
  <path
     d="m 18,122 74,0 c 18,0 18,-18 18,-18 0,0 0,-16 0,-16 0,0 0,28 -18,28 l -56,0 c 0,0 -18,0 -18,6 z"
     id="path3822"
     style="fill:url(#linearGradient3092);fill-opacity:1;stroke:none" />
  <g
     transform="matrix(1.093749,0,0,1.093749,-177.71853,13.05074)"
     id="g5674">
    <rect
       width="60.634407"
       height="3.1819806"
       x="190.6828"
       y="83.628845"
       id="rect4426"
       style="opacity:0.83263598;fill:#000000;fill-opacity:1;stroke:none;filter:url(#filter4428)" />
    <polygon
       points="104.25,24.795 100.25,96.58 4.25,96.58 0.25,24.795 104.25,24.795 "
       transform="matrix(0.6153846,0,0,0.61168688,188.73427,26.460572)"
       id="polygon14"
       style="fill:url(#radialGradient2980)" />
    <path
       d="m 220.88812,42.239035 -32,-0.611687 19.84615,-14.680485 24.3077,0 19.84615,14.680485 -32,0.611687 z"
       id="polygon34"
       style="fill:url(#linearGradient2982)" />
    <path
       d="m 220.88812,42.239035 -32,-0.611687 28.84615,-11.680485 3.3077,0 31.84615,11.680485 -32,0.611687 z"
       id="polygon6516"
       style="fill:url(#linearGradient2984);fill-opacity:1" />
    <path
       d="m 220.88812,35.460573 22.05908,2.354778 9.94092,3.680485 -32,-1.660622 0,-4.374641 z"
       id="path2427"
       style="fill:url(#linearGradient2986-2);fill-opacity:1" />
    <path
       d="m 220.88812,24.460573 22.05908,2.354778 9.94092,14.680485 -30.5,-4.410622 z"
       id="polygon49"
       style="fill:url(#linearGradient2988)" />
    <path
       d="m 220.88812,34.912137 c -3.18412,1.598611 -10.14158,3.630567 -32,6.716512 l 9.94215,-14.813298 c 0,0 6.62396,-0.987738 8.44927,-1.312006 7.72007,-1.371476 11.71836,-3.321156 11.9292,-4.275207 0.38302,0.264676 1.21154,2.711483 1.30438,4.888923 z"
       id="polygon69"
       style="fill:url(#linearGradient2990)" />
    <path
       d="m 249.87889,84.910312 c -0.0185,0.335816 0.104,0.618415 0.27261,0.626979 0.16862,0.0086 0.32247,-0.258132 0.34154,-0.593948 l 2.43743,-43.218734 c 0.0185,-0.335816 -0.1482,-0.08809 -0.31681,-0.09726 -0.16862,-0.0092 -0.32246,0.25752 -0.34154,0.593948 z"
       id="path148"
       style="opacity:0.41841006;fill:url(#linearGradient2992)" />
    <path
       d="m 251.06104,66.574998 0.30769,0 c 0.0228,-0.406772 0.0455,-0.814767 0.0683,-1.223374 l -0.30769,0 -0.0683,1.223374 z m -0.41169,7.340242 0.30831,0 c 0.0221,-0.401878 0.0449,-0.809873 0.0683,-1.223374 l -0.30831,0 -0.0683,1.223374 z m 0.27446,-4.893495 0.30831,0 c 0.0228,-0.405548 0.0455,-0.813543 0.0683,-1.223374 l -0.30769,0 -0.0689,1.223374 z m -0.13723,2.446748 0.30831,0 c 0.0222,-0.403714 0.0455,-0.811709 0.0683,-1.223374 l -0.30831,0 -0.0683,1.223374 z m -0.54892,9.78699 0.30831,0 c 0.0209,-0.38414 0.0437,-0.792135 0.0683,-1.223374 l -0.30831,0 -0.0683,1.223374 z m -0.13662,2.446747 0.30769,0 c 0.0191,-0.343768 0.0425,-0.754821 0.0683,-1.223374 l -0.30769,0 -0.0683,1.223374 z m 0.27385,-4.893495 0.30831,0 c 0.0222,-0.394538 0.0449,-0.802533 0.0683,-1.223374 l -0.30831,0 -0.0683,1.223374 z m 0.13784,-2.446747 0.3077,0 c 0.0222,-0.39882 0.0449,-0.806815 0.0683,-1.223374 l -0.3077,0 -0.0683,1.223374 z m 0.82277,-14.680485 0.3077,0 c 0.0234,-0.409219 0.0461,-0.817214 0.0689,-1.223374 l -0.30831,0 -0.0683,1.223374 z m -0.13723,2.446747 0.3077,0 c 0.0228,-0.407995 0.0455,-0.81599 0.0683,-1.223374 l -0.3077,0 -0.0683,1.223374 z m 0.82277,-14.680485 0.30831,0 c 0.0234,-0.421452 0.0461,-0.830059 0.0683,-1.223374 l -0.30831,0 -0.0683,1.223374 z m 0.13723,-2.446748 0.3077,0 c 0.024,-0.432462 0.0468,-0.841069 0.0683,-1.223373 l -0.3077,0 -0.0683,1.223373 z m 0.20554,-3.670121 -0.0683,1.223374 0.30769,0 c 0.0265,-0.475892 0.0498,-0.885723 0.0683,-1.223374 l -0.30769,0 z m -0.48,8.563616 0.30831,0 c 0.0228,-0.41717 0.0455,-0.825165 0.0683,-1.223373 l -0.30831,0 -0.0683,1.223373 z m -0.41169,7.340243 0.30831,0 c 0.0228,-0.410442 0.0455,-0.818437 0.0683,-1.223374 l -0.30831,0 -0.0683,1.223374 z m 0.27508,-4.893495 0.30769,0 c 0.0234,-0.414112 0.0462,-0.822107 0.0689,-1.223374 l -0.30831,0 -0.0683,1.223374 z m -0.13785,2.446748 0.30831,0 c 0.0234,-0.412277 0.0461,-0.819661 0.0683,-1.223374 l -0.30831,0 -0.0683,1.223374 z"
       id="path163"
       style="opacity:0.1966527;fill:url(#linearGradient2994);filter:url(#filter6125)" />
    <path
       d="m 191.89735,84.910312 c 0.0191,0.335816 -0.104,0.618415 -0.27262,0.626979 -0.16861,0.0086 -0.32184,-0.258132 -0.34153,-0.593948 l -2.40105,-43.094654 c -0.0185,-0.335816 0.11182,-0.212166 0.28043,-0.221341 0.16862,-0.0092 0.32246,0.25752 0.34154,0.593948 z"
       id="path172"
       style="opacity:0.58577408;fill:url(#linearGradient2996)" />
    <path
       d="m 190.78412,67.798371 -0.30769,0 c 0.0228,0.409831 0.0455,0.817826 0.0683,1.223374 l 0.30769,0 -0.0683,-1.223374 z m 0.13723,2.446748 -0.30769,0 c 0.0234,0.411665 0.0461,0.81966 0.0689,1.223374 l 0.30769,0 -0.0689,-1.223374 z m -0.27446,-4.893495 -0.30769,0 c 0.0228,0.408607 0.0461,0.816602 0.0683,1.223374 l 0.30769,0 -0.0683,-1.223374 z m 0.41108,7.340242 -0.3077,0 c 0.0234,0.413501 0.0462,0.821496 0.0683,1.223374 l 0.3077,0 -0.0683,-1.223374 z m 0.13784,2.446748 -0.30769,0 c 0.0234,0.416559 0.0462,0.824554 0.0683,1.223374 l 0.30769,0 -0.0683,-1.223374 z m -0.68615,-12.233738 -0.30769,0 c 0.0228,0.407384 0.0455,0.815379 0.0683,1.223374 l 0.30769,0 -0.0683,-1.223374 z m 0.82277,14.680485 -0.3077,0 c 0.024,0.420841 0.0468,0.828836 0.0689,1.223374 l 0.3077,0 -0.0689,-1.223374 z m 0.13723,2.446748 -0.30769,0 c 0.0246,0.431239 0.0474,0.839234 0.0683,1.223374 l 0.30769,0 -0.0683,-1.223374 z m 0.13723,2.446747 -0.30769,0 c 0.0258,0.468553 0.0492,0.879606 0.0683,1.223374 l 0.30769,0 -0.0683,-1.223374 z m -1.78277,-31.807717 -0.30769,0 c 0.0221,0.398208 0.0449,0.806203 0.0683,1.223373 l 0.30769,0 -0.0683,-1.223373 z m 0.54831,9.78699 -0.30769,0 c 0.0228,0.40616 0.0455,0.814155 0.0689,1.223374 l 0.30769,0 -0.0689,-1.223374 z m -0.68554,-12.233738 -0.30769,0 c 0.0222,0.393315 0.0449,0.801922 0.0683,1.223374 l 0.30769,0 -0.0683,-1.223374 z m -0.27446,-4.893495 -0.30769,0 c 0.0191,0.337651 0.0419,0.747482 0.0683,1.223374 l 0.30769,0 -0.0683,-1.223374 z m 0.13723,2.446748 -0.30769,0 c 0.0215,0.382304 0.0443,0.790911 0.0689,1.223373 l 0.30769,0 -0.0689,-1.223373 z m 0.68554,12.233737 -0.3077,0 c 0.0228,0.404937 0.0455,0.812932 0.0683,1.223374 l 0.3077,0 -0.0683,-1.223374 z m -0.27446,-4.893495 -0.3077,0 c 0.0228,0.401267 0.0455,0.809262 0.0683,1.223374 l 0.30769,0 -0.0683,-1.223374 z m 0.13723,2.446748 -0.3077,0 c 0.0228,0.403713 0.0455,0.811097 0.0683,1.223374 l 0.3077,0 -0.0683,-1.223374 z"
       id="path179"
       style="opacity:0.13807529;fill:url(#linearGradient2998);filter:url(#filter6133)" />
    <polygon
       points="4.25,96.58 0.25,24.795 104.25,24.795 104.25,24.795 100.25,96.58 "
       transform="matrix(0.58443549,0,0,0.58092374,190.35137,28.889192)"
       id="polygon2416"
       style="opacity:0.209205;fill:none;stroke:url(#linearGradient3000);stroke-width:1.86274767;stroke-linejoin:round;stroke-miterlimit:4;stroke-opacity:1;stroke-dasharray:none;filter:url(#filter6137)" />
    <path
       d="m 220.8883,24.537494 13.18547,1.307692 4.93491,15.230769 -17.44748,-1.903846 z"
       id="rect6520"
       style="opacity:0.25941425;fill:url(#linearGradient3002);fill-opacity:1;fill-rule:evenodd;stroke:none" />
    <path
       d="m 220.88812,24.599986 1.5,12.5 27.45312,3.953125 -27.3125,-4.140625 z"
       id="path6065"
       style="fill:#e2cca7;fill-opacity:1;stroke:none" />
    <path
       d="m 220.88812,34.912137 c -3.18412,1.598611 -10.14158,3.630567 -32,6.716512 l 9.94215,-14.813298 c 0,0 6.62396,-0.987738 8.44927,-1.312006 7.72007,-1.371476 11.71836,-3.321156 11.9292,-4.275207 0.38302,0.264676 1.21154,2.711483 1.30438,4.888923 z"
       id="path6069"
       style="opacity:0.23012552;fill:url(#radialGradient3004);fill-opacity:1;stroke:none" />
    <path
       d="m 219.22338,21.224986 c -0.21084,0.954051 -4.21744,2.909774 -11.9375,4.28125 -1.82531,0.324268 -8.46875,1.3125 -8.46875,1.3125 l -9.92969,14.8125 c 0.0349,-0.0049 0.0589,-0.02632 0.0937,-0.03125 l 9.74219,-14.5 c 0,0 6.64344,-0.956982 8.46875,-1.28125 7.72006,-1.371476 11.828,-3.747044 11.99464,-4.347541 0.38301,0.264676 1.13127,2.763851 1.22411,4.941291 l 0.375,8.5625 c 0.03,-0.01476 0.0644,-0.04779 0.0937,-0.0625 l -0.375,-8.78125 c -0.0928,-2.17744 -0.89824,-4.641574 -1.28125,-4.90625 z"
       id="path6087"
       style="fill:url(#radialGradient3006);fill-opacity:1;stroke:none" />
    <path
       d="m 188.93573,41.681034 31.35317,0.567573 31.49689,-0.134836 -31.35627,-0.05266 z"
       id="path6123"
       style="fill:#f4eddf;fill-opacity:1;stroke:none" />
  </g>
  <path
     d="m 55.666667,67.999998 0,12.5 -8.333333,0 16.666667,20.833332 16.666666,-20.833332 -8.333333,0 0,-12.5 -16.666667,0 z"
     id="path4278"
     style="opacity:0.4322581;fill:#000000;fill-opacity:1;fill-rule:nonzero;stroke:none;display:inline" />
  <path
     d="m 55.654344,69.418961 0,11.706454 -6.902047,-0.240602 15.247704,19.751357 14.525898,-19.029552 -6.180242,-0.481203 0,-11.706454 -16.691313,0 z"
     id="path3897"
     style="fill:none;stroke:url(#linearGradient3930);stroke-width:1.51320779;display:inline" />
</svg>
