<?xml version="1.0" encoding="UTF-8" standalone="no"?>
<!-- Created with Inkscape (http://www.inkscape.org/) -->

<svg
   xmlns:dc="http://purl.org/dc/elements/1.1/"
   xmlns:cc="http://creativecommons.org/ns#"
   xmlns:rdf="http://www.w3.org/1999/02/22-rdf-syntax-ns#"
   xmlns:svg="http://www.w3.org/2000/svg"
   xmlns="http://www.w3.org/2000/svg"
   xmlns:xlink="http://www.w3.org/1999/xlink"
   xmlns:sodipodi="http://sodipodi.sourceforge.net/DTD/sodipodi-0.dtd"
   xmlns:inkscape="http://www.inkscape.org/namespaces/inkscape"
   id="svg3107"
   version="1.1"
   inkscape:version="0.48+devel r10022"
   width="586.85211"
   height="590.66046"
   xml:space="preserve"
   sodipodi:docname="logo.svg"><metadata
     id="metadata3113"><rdf:RDF><cc:Work
         rdf:about=""><dc:format>image/svg+xml</dc:format><dc:type
           rdf:resource="http://purl.org/dc/dcmitype/StillImage" /><dc:title></dc:title></cc:Work></rdf:RDF></metadata><defs
     id="defs3111"><linearGradient
       id="linearGradient3859"
       inkscape:collect="always"><stop
         id="stop3861"
         offset="0"
         style="stop-color:#ffffff;stop-opacity:0.68965517" /><stop
         id="stop3863"
         offset="1"
         style="stop-color:#ffffff;stop-opacity:0.21551724" /></linearGradient><linearGradient
       inkscape:collect="always"
       id="linearGradient3969"><stop
         style="stop-color:#ffffff;stop-opacity:0.42672414"
         offset="0"
         id="stop3971" /><stop
         style="stop-color:#ffffff;stop-opacity:0.47413793"
         offset="1"
         id="stop3973" /></linearGradient><radialGradient
       inkscape:collect="always"
       xlink:href="#linearGradient3859"
       id="radialGradient4035"
       cx="210.09813"
       cy="241.86412"
       fx="210.09813"
       fy="241.86412"
       r="230.1125"
       gradientTransform="matrix(0.58861336,-0.32058737,0.42263529,0.86463887,-64.58366,486.89957)"
       gradientUnits="userSpaceOnUse" /><radialGradient
       inkscape:collect="always"
       xlink:href="#linearGradient3969"
       id="radialGradient4053"
       gradientUnits="userSpaceOnUse"
       gradientTransform="matrix(0.92240776,-0.57029149,0.53974604,0.78503211,-170.31443,576.98847)"
       cx="312.68692"
       cy="218.85168"
       fx="312.68692"
       fy="218.85168"
       r="230.1125" /><radialGradient
       inkscape:collect="always"
       xlink:href="#linearGradient3969"
       id="radialGradient4056"
       gradientUnits="userSpaceOnUse"
       gradientTransform="matrix(0.64985309,-0.71972324,0.78951096,0.44199509,-89.877095,513.78165)"
       cx="312.68692"
       cy="218.85168"
       fx="312.68692"
       fy="218.85168"
       r="230.1125" /><filter
       inkscape:collect="always"
       id="filter4088"
       color-interpolation-filters="sRGB"><feGaussianBlur
         inkscape:collect="always"
         stdDeviation="5.0846837"
         id="feGaussianBlur4090" /></filter></defs><sodipodi:namedview
     pagecolor="#ffffff"
     bordercolor="#666666"
     borderopacity="1"
     objecttolerance="10"
     gridtolerance="10"
     guidetolerance="10"
     inkscape:pageopacity="0"
     inkscape:pageshadow="2"
     inkscape:window-width="799"
     inkscape:window-height="1174"
     id="namedview3109"
     showgrid="false"
     fit-margin-top="0"
     fit-margin-left="0"
     fit-margin-right="0"
     fit-margin-bottom="0"
     inkscape:zoom="0.79260186"
     inkscape:cx="178.816"
     inkscape:cy="184.82459"
     inkscape:window-x="1624"
     inkscape:window-y="882"
     inkscape:window-maximized="0"
     inkscape:current-layer="g3115" /><g
     id="g3115"
     inkscape:groupmode="layer"
     inkscape:label="w3-1"
     transform="matrix(1.25,0,0,-1.25,-89.139952,900.83588)"><path
       id="path4039"
       style="opacity:0.24568966;fill:#000000;fill-opacity:1;fill-rule:nonzero;stroke:none;filter:url(#filter4088)"
       d="M 92.230572,569.91275 378.39909,673.30266 c 6.69717,2.42019 14.49261,-0.11989 17.41131,-5.67331 L 520.55642,430.34669 c 2.91907,-5.55266 -0.14313,-12.0156 -6.83993,-14.43501 L 227.5476,312.52099 c -6.6968,-2.41941 -14.49224,0.12066 -17.41131,5.67332 L 85.390642,555.47774 c -2.92,5.55295 0.14313,12.0156 6.83993,14.43501 z"
       inkscape:connector-curvature="0"
       transform="matrix(0.91026488,0.34590207,-0.41874697,1.1019612,243.43111,-172.82076)" /><g
       id="g3977"
       transform="matrix(1.0010815,-0.01437457,0.00844321,1.0076081,-4.3812047,-0.87215197)"><path
         id="path3129"
         style="fill:#fff200;fill-opacity:1;fill-rule:nonzero;stroke:#231f20;stroke-width:1;stroke-linecap:butt;stroke-linejoin:miter;stroke-miterlimit:3.86400008;stroke-opacity:1;stroke-dasharray:none"
         d="m 75.887,495.334 220.71,220.758 c 5.165,5.167 13.541,5.167 18.708,0 L 536.112,495.334 c 5.167,-5.166 5.169,-13.542 0.004,-18.708 L 315.406,255.867 c -5.165,-5.166 -13.541,-5.166 -18.708,0 L 75.891,476.626 c -5.168,5.166 -5.169,13.542 -0.004,18.708 z"
         inkscape:connector-curvature="0" /><path
         id="path3131"
         style="fill:#231f20;fill-opacity:1;fill-rule:nonzero;stroke:none"
         d="m 81.29,492.721 217.687,217.735 c 3.779,3.78 9.908,3.78 13.69,0 L 530.546,492.721 c 3.782,-3.779 3.785,-9.907 0.006,-13.686 L 312.865,261.3 c -3.779,-3.78 -9.908,-3.78 -13.689,0 L 81.296,479.035 c -3.782,3.779 -3.785,9.907 -0.006,13.686"
         inkscape:connector-curvature="0" /><path
         id="path3133"
         style="fill:#fff200;fill-opacity:1;fill-rule:nonzero;stroke:none"
         d="m 88.984,488.474 214.475,214.522 c 1.377,1.378 3.611,1.378 4.989,0 L 523.017,488.474 c 1.378,-1.378 1.379,-3.611 10e-4,-4.989 L 308.543,268.963 c -1.377,-1.378 -3.611,-1.378 -4.988,0 L 88.985,483.485 c -1.378,1.378 -1.379,3.611 -0.001,4.989"
         inkscape:connector-curvature="0" /><path
         id="path3135"
         style="fill:#231f20;fill-opacity:1;fill-rule:nonzero;stroke:none"
         d="m 277.753,557.055 0,46.075 -56.098,-7.036 c -0.198,-0.034 -0.403,-0.052 -0.61,-0.052 -1.958,0 -3.544,1.587 -3.544,3.544 0,0.956 0.378,1.823 0.993,2.461 l 87.613,82.601 87.613,-82.601 c 0.615,-0.638 0.993,-1.505 0.993,-2.461 0,-1.957 -1.587,-3.544 -3.544,-3.544 -0.207,0 -0.412,0.018 -0.61,0.052 l -56.098,7.036 0,-46.075 -56.708,0"
         inkscape:connector-curvature="0" /><path
         id="path3137"
         style="fill:#ffffff;fill-opacity:1;fill-rule:nonzero;stroke:none"
         d="m 268.975,339.674 -52.656,52.47 0,74.636 52.656,52.47 74.262,0 52.658,-52.47 0,-74.636 -52.658,-52.47 -74.262,0"
         inkscape:connector-curvature="0" /><path
         id="path3139"
         style="fill:#ed1c24;fill-opacity:1;fill-rule:nonzero;stroke:none"
         d="m 271.418,345.581 -49.192,49.018 0,69.726 49.192,49.018 69.377,0 49.193,-49.018 0,-69.726 -49.193,-49.018 -69.377,0"
         inkscape:connector-curvature="0" /><path
         sodipodi:nodetypes="ccccc"
         inkscape:connector-curvature="0"
         d="m 75.887,495.334 220.71,220.758 c 5.165,5.167 13.541,5.167 18.708,0 L 536.112,495.334 c -32.57853,-45.54461 -415.59438,-68.18558 -460.225,0 z"
         style="fill:url(#radialGradient4035);fill-opacity:1;fill-rule:nonzero;stroke:none"
         id="path3199" /></g></g></svg>